<svg width="30" height="30" viewBox="0 0 30 30" fill="none" xmlns="http://www.w3.org/2000/svg">
<path d="M12.2871 25.1602C12.2888 25.3664 12.2496 25.5709 12.1718 25.7619C12.094 25.9529 11.9792 26.1267 11.8339 26.2731C11.6887 26.4195 11.5158 26.5357 11.3255 26.615C11.1351 26.6943 10.9309 26.7352 10.7246 26.7351C10.3069 26.7351 9.90629 26.5692 9.61092 26.2738C9.31555 25.9785 9.14961 25.5779 9.14961 25.1602C9.15291 24.7446 9.3203 24.3472 9.61532 24.0545C9.91033 23.7619 10.3091 23.5976 10.7246 23.5977C11.139 23.5977 11.5364 23.7623 11.8295 24.0553C12.1225 24.3483 12.2871 24.7458 12.2871 25.1602Z" fill="white"/>
<path d="M20.9742 25.1602C20.9759 25.3664 20.9367 25.571 20.8589 25.762C20.7811 25.953 20.6663 26.1267 20.521 26.2731C20.3757 26.4196 20.2029 26.5358 20.0125 26.6151C19.8222 26.6944 19.618 26.7352 19.4117 26.7352C19.2044 26.7369 18.9989 26.6973 18.807 26.6187C18.6152 26.5401 18.4409 26.4242 18.2943 26.2776C18.1477 26.131 18.0318 25.9567 17.9532 25.7649C17.8746 25.5731 17.835 25.3675 17.8367 25.1602C17.8367 24.954 17.8775 24.7497 17.9568 24.5594C18.0361 24.369 18.1523 24.1962 18.2988 24.0509C18.4452 23.9057 18.6189 23.7908 18.8099 23.713C19.0009 23.6352 19.2055 23.5961 19.4117 23.5977C19.8261 23.5977 20.2235 23.7623 20.5166 24.0553C20.8096 24.3484 20.9742 24.7458 20.9742 25.1602Z" fill="white"/>
<path d="M21.2494 21.7758H8.84939C8.62354 21.7756 8.40512 21.695 8.23331 21.5484C8.0615 21.4018 7.94756 21.1988 7.91189 20.9758L5.56189 6.88827H3.88689C3.63494 6.88827 3.3933 6.78818 3.21514 6.61002C3.03698 6.43186 2.93689 6.19023 2.93689 5.93827C2.93689 5.68632 3.03698 5.44468 3.21514 5.26653C3.3933 5.08837 3.63494 4.98828 3.88689 4.98828H6.38689C6.60946 4.98838 6.82473 5.06766 6.9942 5.21194C7.16367 5.35621 7.27628 5.55607 7.31189 5.77577L7.81189 8.71328H23.7494C23.8909 8.71131 24.031 8.74184 24.1588 8.80252C24.2867 8.8632 24.3989 8.9524 24.4869 9.06327C24.5777 9.17316 24.6418 9.30254 24.6743 9.44131C24.7069 9.58008 24.7069 9.72449 24.6744 9.86327L22.1744 21.0258C22.1267 21.2365 22.0096 21.425 21.8418 21.561C21.674 21.697 21.4654 21.7727 21.2494 21.7758ZM9.64939 19.8758H20.4994L22.5494 10.6133H8.12439L9.64939 19.8758Z" fill="white"/>
</svg>
