<svg width="15.000000" height="15.000000" viewBox="0 0 15 15" fill="none" xmlns="http://www.w3.org/2000/svg" xmlns:xlink="http://www.w3.org/1999/xlink">
	<desc>
			Created with Pixso.
	</desc>
	<defs/>
	<path id="Vector 42" d="M0.32 1.7L0.29 1.7C-0.11 1.31 -0.11 0.68 0.29 0.29C0.68 -0.11 1.31 -0.11 1.7 0.29L1.7 0.32L0.32 1.7ZM13.67 12.29L13.7 12.29C14.1 12.68 14.1 13.31 13.7 13.7C13.31 14.1 12.68 14.1 12.29 13.7L12.29 13.67L13.67 12.29Z" fill="#FFFFFF" fill-opacity="1.000000" fill-rule="nonzero"/>
	<path id="Vector 42" d="M1 1L13 " stroke="#FFFFFF" stroke-opacity="1.000000" stroke-width="2.000000" stroke-linejoin="round" stroke-linecap="round"/>
	<path id="Vector 43" d="M12.29 0.32L12.29 0.29C12.68 -0.11 13.31 -0.11 13.7 0.29C14.1 0.68 14.1 1.31 13.7 1.7L13.67 1.7L12.29 0.32ZM1.7 13.67L1.7 13.7C1.31 14.1 0.68 14.1 0.29 13.7C-0.11 13.31 -0.11 12.68 0.29 12.29L0.32 12.29L1.7 13.67Z" fill="#FFFFFF" fill-opacity="1.000000" fill-rule="nonzero"/>
	<path id="Vector 43" d="M13 1L1 " stroke="#FFFFFF" stroke-opacity="1.000000" stroke-width="2.000000" stroke-linejoin="round" stroke-linecap="round"/>
</svg>
