<svg width="22.000000" height="22.000000" viewBox="0 0 22 22" fill="none" xmlns="http://www.w3.org/2000/svg" xmlns:xlink="http://www.w3.org/1999/xlink">
	<desc>
			Created with Pixso.
	</desc>
	<defs>
		<clipPath id="clip2_10">
			<rect id="Frame 1" width="22.000000" height="22.000000" fill="white" fill-opacity="0"/>
		</clipPath>
	</defs>
	<rect id="Frame 1" width="22.000000" height="22.000000" fill="#FFFFFF" fill-opacity="1.000000"/>
	<g clip-path="url(#clip2_10)">
		<path id="Icon" d="M11 21C5.47 21 1 16.52 1 11C1 5.47 5.47 1 11 1C16.52 1 21 5.47 21 11C21 16.52 16.52 21 11 21ZM11 7L11 15M7 11L15 11M21 11C21 16.52 16.52 21 11 21M11 1C16.52 1 21 5.47 21 11M1 11C1 5.47 5.47 1 11 1M11 21C5.47 21 1 16.52 1 11M11 21C5.47 21 1 16.52 1 11C1 5.47 5.47 1 11 1C16.52 1 21 5.47 21 11C21 16.52 16.52 21 11 21ZM11 7L11 15M7 11L15 11M21 11C21 16.52 16.52 21 11 21M11 1C16.52 1 21 5.47 21 11M1 11C1 5.47 5.47 1 11 1M11 21C5.47 21 1 16.52 1 11M11 21C5.47 21 1 16.52 1 11C1 5.47 5.47 1 11 1C16.52 1 21 5.47 21 11C21 16.52 16.52 21 11 21ZM11 7L11 15M7 11L15 11M21 11C21 16.52 16.52 21 11 21M11 1C16.52 1 21 5.47 21 11M1 11C1 5.47 5.47 1 11 1M11 21C5.47 21 1 16.52 1 " stroke="#00ABDF" stroke-opacity="1.000000" stroke-width="2.000000" stroke-linejoin="round"/>
	</g>
</svg>
