<svg width="55.000000" height="55.000000" viewBox="0 0 55 55" fill="none" xmlns="http://www.w3.org/2000/svg" xmlns:xlink="http://www.w3.org/1999/xlink">
	<desc>
			Created with Pixso.
	</desc>
	<defs>
		<clipPath id="clip3237_6777">
			<rect id="иконка 4000 корп клиентов" width="55.000000" height="55.000000" fill="white" fill-opacity="0"/>
		</clipPath>
	</defs>
	<rect id="иконка 4000 корп клиентов" width="55.000000" height="55.000000" fill="#FFFFFF" fill-opacity="0"/>
	<g clip-path="url(#clip3237_6777)">
		<path id="Vector" d="M30.28 11.33C30.22 11.33 30.16 11.33 30.11 11.3C29.74 11.21 29.52 10.83 29.61 10.46L31.16 4.51C31.26 4.14 31.63 3.92 31.99 4.02C32.36 4.11 32.58 4.49 32.49 4.86L30.94 10.81C30.86 11.12 30.58 11.33 30.28 11.33Z" fill="#13AAE0" fill-opacity="1.000000" fill-rule="nonzero"/>
		<path id="Vector" d="M24.71 11.37C24.41 11.37 24.13 11.17 24.04 10.86L22.41 4.93C22.3 4.56 22.53 4.18 22.88 4.09C23.25 4 23.63 4.2 23.73 4.57L25.37 10.5C25.46 10.87 25.25 11.25 24.88 11.35C24.82 11.37 24.77 11.37 24.71 11.37Z" fill="#13AAE0" fill-opacity="1.000000" fill-rule="nonzero"/>
		<path id="Vector" d="M19.9 14.19C19.72 14.19 19.55 14.13 19.42 13.99L15.04 9.67C14.76 9.41 14.76 8.97 15.04 8.71C15.3 8.43 15.74 8.43 16.01 8.71L20.39 13.02C20.66 13.28 20.66 13.73 20.39 13.99C20.25 14.13 20.08 14.19 19.9 14.19Z" fill="#13AAE0" fill-opacity="1.000000" fill-rule="nonzero"/>
		<path id="Vector" d="M35.12 14.08C34.94 14.08 34.77 14.01 34.64 13.87C34.36 13.61 34.36 13.17 34.64 12.91L38.95 8.53C39.23 8.25 39.66 8.25 39.92 8.53C40.2 8.79 40.2 9.23 39.92 9.5L35.61 13.87C35.47 14.01 35.3 14.08 35.12 14.08Z" fill="#13AAE0" fill-opacity="1.000000" fill-rule="nonzero"/>
		<path id="Vector" d="M12.63 38.73C12.35 38.73 12.09 38.54 12 38.26C11.26 35.83 7.46 35.52 7.42 35.52C7.22 35.51 7.04 35.41 6.92 35.24C6.81 35.07 6.78 34.87 6.83 34.68C9.43 25.53 11.25 18.95 11.26 18.88C11.36 18.53 11.72 18.32 12.06 18.41C15.14 19.15 20.79 17.62 20.84 17.6C21.2 17.51 21.55 17.71 21.66 18.07C21.75 18.42 21.55 18.78 21.2 18.89C20.96 18.95 15.84 20.34 12.39 19.83C11.91 21.58 10.37 27.08 8.33 34.3C9.73 34.56 12.53 35.38 13.28 37.87C13.38 38.22 13.18 38.6 12.83 38.7C12.77 38.72 12.71 38.73 12.64 38.73L12.63 38.73Z" fill="#13AAE0" fill-opacity="1.000000" fill-rule="nonzero"/>
		<path id="Vector" d="M19.89 39.65C19.19 39.65 18.55 40.24 18.55 40.24C18.53 40.26 18.51 40.28 18.49 40.29C18.49 40.29 17.82 40.82 16.9 42.04C16.46 42.63 15.86 43.74 16.82 44.57C17.06 44.78 17.32 44.88 17.63 44.88C18.18 44.88 18.73 44.53 18.96 44.3C21 42.45 21.26 41.35 21.23 40.85C21.21 40.48 21.02 40.17 20.64 39.9C20.4 39.73 20.15 39.65 19.89 39.65ZM17.63 46.21C17 46.21 16.44 46 15.95 45.58C14.69 44.5 14.65 42.83 15.84 41.24C16.76 40.01 17.49 39.4 17.65 39.26C17.84 39.08 18.72 38.31 19.89 38.31C20.44 38.31 20.94 38.48 21.41 38.81C22.11 39.3 22.51 39.98 22.56 40.76C22.64 42.06 21.72 43.58 19.86 45.27C19.36 45.71 18.52 46.2 17.62 46.2L17.63 46.21Z" fill="#13AAE0" fill-opacity="1.000000" fill-rule="nonzero"/>
		<path id="Vector" d="M23.39 43.14C22.87 43.14 22.44 43.53 22.44 43.53C22.42 43.55 22.41 43.57 22.39 43.58C22.39 43.58 21.74 44.07 20.89 45.22C20.62 45.58 19.82 46.81 20.78 47.54C21.46 48.05 22.05 47.99 22.8 47.32C24.37 45.89 24.68 44.98 24.67 44.47C24.67 44.1 24.48 43.77 24.11 43.44C23.88 43.24 23.64 43.14 23.39 43.14ZM21.64 49.21C21.06 49.21 20.5 49.01 19.96 48.6C18.71 47.65 18.66 45.97 19.82 44.43C20.7 43.25 21.39 42.67 21.54 42.55C21.7 42.41 22.42 41.81 23.39 41.81C23.97 41.81 24.5 42.02 24.98 42.43C25.64 43.01 25.99 43.68 26 44.45C26.01 45.61 25.26 46.87 23.68 48.31C23.01 48.92 22.33 49.21 21.63 49.21L21.64 49.21Z" fill="#13AAE0" fill-opacity="1.000000" fill-rule="nonzero"/>
		<path id="Vector" d="M15.34 37.17C14.85 37.17 14.46 37.51 14.46 37.51C14.45 37.52 14.43 37.54 14.41 37.55C14.41 37.55 13.79 38.04 12.96 39.14C12.56 39.67 12.02 40.67 12.88 41.4C13.11 41.6 13.35 41.69 13.61 41.69C14.05 41.69 14.51 41.42 14.79 41.16C16.46 39.64 16.67 38.71 16.65 38.29C16.63 37.96 16.46 37.69 16.13 37.45C15.87 37.26 15.62 37.17 15.35 37.17L15.34 37.17ZM13.6 43.02C13.02 43.02 12.49 42.81 12 42.41C10.81 41.4 10.77 39.84 11.89 38.34C12.75 37.18 13.42 36.62 13.57 36.51C13.72 36.37 14.39 35.83 15.33 35.83C15.87 35.83 16.39 36.01 16.88 36.36C17.54 36.83 17.91 37.47 17.95 38.21C18.03 39.37 17.26 40.7 15.67 42.13C15.37 42.4 14.59 43.02 13.59 43.02L13.6 43.02Z" fill="#13AAE0" fill-opacity="1.000000" fill-rule="nonzero"/>
		<path id="Vector" d="M26.16 46.28C25.81 46.28 25.53 46.59 25.53 46.59C25.5 46.61 25.49 46.63 25.47 46.64C25.47 46.64 25.03 47.05 24.45 47.96C24.01 48.65 24.03 49.2 24.5 49.56C24.67 49.69 24.83 49.76 24.98 49.76C25.33 49.76 25.68 49.38 25.8 49.26C26.94 48.04 27.06 47.37 27.03 47.06C27.02 46.92 26.96 46.68 26.61 46.44C26.45 46.33 26.32 46.28 26.17 46.28L26.16 46.28ZM24.98 51.1C24.54 51.1 24.1 50.94 23.69 50.62C22.65 49.82 22.5 48.54 23.32 47.25C23.93 46.28 24.43 45.8 24.56 45.68C24.7 45.53 25.3 44.96 26.17 44.96C26.59 44.96 27 45.09 27.38 45.35C27.96 45.77 28.29 46.3 28.36 46.92C28.45 47.87 27.94 48.92 26.78 50.17C26.57 50.4 25.91 51.08 24.99 51.08L24.98 51.1Z" fill="#13AAE0" fill-opacity="1.000000" fill-rule="nonzero"/>
		<path id="Vector" d="M30.01 50.87L29.98 50.87C28.45 50.85 27.34 49.35 27.21 49.18C27 48.89 27.06 48.46 27.37 48.25C27.66 48.04 28.08 48.1 28.3 48.41C28.53 48.73 29.28 49.54 30 49.55C30.38 49.55 30.76 49.33 31.13 48.84C32.07 47.61 29.36 45.47 27.74 44.19C27.5 44 27.26 43.81 27.06 43.65C26.78 43.42 26.74 43 26.97 42.71C27.2 42.43 27.62 42.39 27.91 42.62C28.11 42.78 28.33 42.96 28.56 43.14C30.7 44.83 33.92 47.39 32.18 49.65C31.41 50.66 30.58 50.89 30.01 50.89L30.01 50.87Z" fill="#13AAE0" fill-opacity="1.000000" fill-rule="nonzero"/>
		<path id="Vector" d="M33.32 48.33C32.45 48.33 31.61 47.98 31.01 47.29C30.77 47.02 30.8 46.6 31.08 46.35C31.35 46.11 31.77 46.15 32.01 46.42C32.6 47.09 33.46 47.09 34.06 46.87C34.64 46.65 35.31 46.09 35.31 45.22C35.29 44.48 32.41 41.75 30.06 39.98C29.76 39.76 29.7 39.34 29.92 39.06C30.14 38.76 30.56 38.7 30.85 38.92C31.08 39.1 36.64 43.28 36.64 45.22C36.64 46.49 35.81 47.63 34.52 48.12C34.12 48.26 33.71 48.33 33.31 48.33L33.32 48.33Z" fill="#13AAE0" fill-opacity="1.000000" fill-rule="nonzero"/>
		<path id="Vector" d="M37.21 45.8C36.5 45.8 35.82 45.53 35.27 45C35.01 44.75 35 44.32 35.26 44.06C35.51 43.8 35.93 43.79 36.2 44.05C36.99 44.82 38 44.42 38.61 43.85C39.26 43.24 39.67 42.25 39.13 41.62C37.86 40.1 32.79 36.26 32.75 36.21C32.46 36 32.4 35.57 32.62 35.28C32.85 34.98 33.27 34.93 33.56 35.15C33.77 35.31 38.8 39.13 40.17 40.75C41.24 42.03 40.65 43.76 39.52 44.82C38.82 45.47 38 45.81 37.21 45.81L37.21 45.8Z" fill="#13AAE0" fill-opacity="1.000000" fill-rule="nonzero"/>
		<path id="Vector" d="M41.33 42.4C41.03 42.4 40.72 42.35 40.45 42.23C39.58 41.87 38.44 40.86 38.31 40.75C38.04 40.5 38.02 40.08 38.26 39.81C38.5 39.53 38.92 39.51 39.2 39.76C39.49 40.02 40.4 40.76 40.96 41C41.53 41.24 42.5 40.83 43.02 40.11C43.35 39.66 43.74 38.75 42.74 37.6C42.49 37.32 42.52 36.9 42.8 36.66C43.07 36.42 43.49 36.45 43.74 36.72C44.88 38.05 45.02 39.61 44.09 40.89C43.42 41.83 42.31 42.4 41.32 42.4L41.33 42.4Z" fill="#13AAE0" fill-opacity="1.000000" fill-rule="nonzero"/>
		<path id="Vector" d="M43.79 17.98L48.33 35.01L53.51 33.63L48.97 16.6L43.79 17.98ZM47.85 36.5C47.56 36.5 47.29 36.3 47.21 36L42.33 17.69C42.24 17.33 42.45 16.97 42.81 16.88L49.28 15.15C49.44 15.11 49.62 15.13 49.78 15.21C49.94 15.3 50.04 15.44 50.09 15.61L54.96 33.93C55 34.1 54.98 34.28 54.9 34.43C54.82 34.58 54.67 34.7 54.5 34.74L48.03 36.47C47.98 36.48 47.92 36.49 47.86 36.49L47.85 36.5Z" fill="#13AAE0" fill-opacity="1.000000" fill-rule="nonzero"/>
		<path id="Vector" d="M1.48 33.56L6.64 35.01L11.43 18.06L6.27 16.6L1.48 33.56ZM7.1 36.51C7.04 36.51 6.99 36.51 6.93 36.49L0.48 34.67C0.12 34.57 -0.08 34.2 0.02 33.84L5.18 15.59C5.27 15.23 5.64 15.03 6 15.13L12.44 16.95C12.61 17 12.76 17.11 12.84 17.26C12.93 17.42 12.95 17.6 12.91 17.77L7.75 36.02C7.66 36.32 7.4 36.51 7.1 36.51Z" fill="#13AAE0" fill-opacity="1.000000" fill-rule="nonzero"/>
		<path id="Vector" d="M26.75 23.56C27.52 23.56 28.2 23.79 28.8 24.26L43.25 36.29C44.25 35.53 45.87 34.72 46.72 34.32L42.85 19.78C42.18 19.92 41.43 19.99 40.59 19.99C38.07 19.99 35.14 19.37 32.32 18.78C29.63 18.22 27.08 17.69 25.03 17.69C23.74 17.69 22.78 17.9 22.1 18.33C19.64 19.92 15.24 25.89 16.22 27.42C16.3 27.56 16.55 27.96 17.41 27.96C18.62 27.96 20.24 27.16 20.99 26.58C21.13 26.48 21.3 26.33 21.49 26.18C22.7 25.2 24.75 23.56 26.75 23.56ZM43.25 37.82C43.1 37.82 42.95 37.76 42.83 37.66L27.97 25.28C27.62 25.01 27.22 24.87 26.76 24.87C25.22 24.87 23.42 26.33 22.33 27.2C22.12 27.37 21.95 27.51 21.8 27.63C20.92 28.3 19.03 29.28 17.41 29.28C16.1 29.28 15.43 28.64 15.09 28.12C13.32 25.33 19.19 18.62 21.38 17.19C22.27 16.62 23.46 16.33 25.02 16.33C27.22 16.33 29.82 16.88 32.58 17.46C35.34 18.04 38.2 18.64 40.58 18.64C41.58 18.64 42.41 18.53 43.14 18.32C43.3 18.27 43.49 18.29 43.65 18.39C43.81 18.47 43.93 18.62 43.97 18.8L48.14 34.51C48.22 34.83 48.07 35.15 47.77 35.29C46.91 35.68 44.51 36.86 43.72 37.63C43.59 37.75 43.42 37.82 43.25 37.82Z" fill="#13AAE0" fill-opacity="1.000000" fill-rule="nonzero"/>
	</g>
</svg>
