<svg width="55.000000" height="55.000000" viewBox="0 0 55 55" fill="none" xmlns="http://www.w3.org/2000/svg" xmlns:xlink="http://www.w3.org/1999/xlink">
	<desc>
			Created with Pixso.
	</desc>
	<defs>
		<clipPath id="clip3237_6741">
			<rect id="Frame" width="55.000000" height="49.000000" transform="translate(0.000000 3.000000)" fill="white" fill-opacity="0"/>
		</clipPath>
	</defs>
	<rect id="Frame 125" width="55.000000" height="55.000000" fill="#FFFFFF" fill-opacity="0"/>
	<rect id="Frame" width="55.000000" height="49.000000" transform="translate(0.000000 3.000000)" fill="#FFFFFF" fill-opacity="0"/>
	<g clip-path="url(#clip3237_6741)">
		<path id="Vector" d="M19.36 13.25C19.2 13.25 19.05 13.19 18.93 13.07C18.82 12.96 18.75 12.81 18.75 12.65C18.49 5.25 24.66 4.46 26.68 4.2L26.85 4.2C28.59 4.01 30.29 3.64 31.94 3.07C32.09 3.01 32.26 3.01 32.41 3.07C32.56 3.13 32.68 3.25 32.74 3.4C32.99 4.02 33.16 4.66 33.24 5.32C34.69 5.16 36.09 4.71 37.37 4C37.46 3.95 37.57 3.92 37.68 3.92C37.79 3.92 37.89 3.95 37.99 4C38.08 4.06 38.15 4.14 38.21 4.23C38.26 4.32 38.29 4.42 38.29 4.53C38.29 6.38 38.29 8.5 37.8 9.62C37.53 10.26 37.13 10.85 36.62 11.32C36.11 11.8 35.51 12.17 34.84 12.39C33.99 12.61 33.11 12.64 32.25 12.5C31.27 12.35 30.31 12.16 29.35 11.92C28.77 11.77 28.15 11.63 27.56 11.51C26.12 11.14 24.61 11.14 23.16 11.51C23 11.56 22.83 11.54 22.69 11.46C22.54 11.39 22.43 11.25 22.39 11.09C22.34 10.94 22.36 10.76 22.43 10.62C22.51 10.48 22.64 10.37 22.8 10.32C24.43 9.88 26.15 9.86 27.79 10.26C28.42 10.38 29.04 10.53 29.64 10.67C30.55 10.91 31.47 11.1 32.4 11.23C33.09 11.36 33.8 11.33 34.48 11.17C34.98 10.99 35.43 10.71 35.8 10.34C36.18 9.98 36.48 9.53 36.67 9.04C36.98 7.88 37.12 6.68 37.06 5.48C35.68 6.13 34.17 6.49 32.64 6.53C32.48 6.52 32.32 6.46 32.21 6.34C32.1 6.23 32.03 6.07 32.03 5.91C32.03 5.39 31.95 4.87 31.79 4.38C30.23 4.85 28.63 5.18 27.01 5.36L26.85 5.36C23.56 5.8 19.8 7.01 19.99 12.54C20 12.7 19.93 12.86 19.82 12.98C19.71 13.1 19.56 13.18 19.39 13.18L19.36 13.25Z" fill="#13AAE0" fill-opacity="1.000000" fill-rule="nonzero"/>
		<path id="Vector" d="M20.46 51.98L8.72 51.98C8.63 51.98 8.54 51.96 8.46 51.92C8.38 51.89 8.31 51.83 8.25 51.76C8.19 51.69 8.15 51.62 8.13 51.53C8.1 51.44 8.1 51.35 8.11 51.26L9.56 41.96C9.83 40.59 10.47 39.32 11.41 38.29C12.35 37.26 13.55 36.5 14.89 36.11L19.23 35.03C20.18 34.82 21.04 34.32 21.69 33.58C22.33 32.85 22.72 31.92 22.8 30.95C22.8 30.7 22.8 30.44 22.8 30.18C22.8 30.1 22.81 30.01 22.84 29.94C22.87 29.86 22.91 29.79 22.97 29.73C23.03 29.67 23.09 29.62 23.17 29.59C23.25 29.56 23.33 29.54 23.41 29.54C23.49 29.54 23.57 29.55 23.65 29.58C23.72 29.61 23.79 29.66 23.85 29.71C23.91 29.76 23.96 29.83 23.99 29.91C24.02 29.98 24.04 30.06 24.04 30.14C24.04 30.45 24.04 30.75 24.04 31.07C23.94 32.31 23.45 33.48 22.63 34.42C21.82 35.36 20.72 36.01 19.51 36.27L15.16 37.35C14.06 37.69 13.07 38.32 12.3 39.18C11.53 40.04 11 41.09 10.79 42.23L9.45 50.8L20.46 50.8C20.61 50.82 20.75 50.89 20.85 51.01C20.96 51.12 21.01 51.27 21.01 51.42C21.01 51.58 20.96 51.73 20.85 51.84C20.75 51.96 20.61 52.03 20.46 52.05L20.46 51.98Z" fill="#13AAE0" fill-opacity="1.000000" fill-rule="nonzero"/>
		<path id="Vector" d="M46.51 51.98L34.78 51.98C34.69 52 34.6 51.99 34.52 51.96C34.43 51.93 34.35 51.89 34.29 51.83C34.22 51.77 34.17 51.7 34.13 51.62C34.09 51.54 34.08 51.45 34.08 51.36C34.08 51.27 34.09 51.18 34.13 51.1C34.17 51.02 34.22 50.95 34.29 50.89C34.35 50.83 34.43 50.79 34.52 50.76C34.6 50.73 34.69 50.73 34.78 50.74L45.78 50.74L44.45 42.16C44.23 41.03 43.71 39.98 42.94 39.12C42.17 38.26 41.19 37.63 40.09 37.29L35.71 36.26C34.5 36 33.41 35.35 32.6 34.41C31.78 33.47 31.29 32.3 31.19 31.06C31.19 30.77 31.19 30.48 31.19 30.13C31.21 29.98 31.29 29.84 31.4 29.74C31.52 29.64 31.66 29.58 31.82 29.58C31.97 29.58 32.12 29.64 32.23 29.74C32.35 29.84 32.42 29.98 32.44 30.13C32.44 30.39 32.44 30.65 32.44 30.9C32.52 31.87 32.91 32.8 33.55 33.53C34.19 34.26 35.05 34.77 36 34.98L40.36 36.06C41.7 36.46 42.9 37.21 43.84 38.24C44.77 39.27 45.41 40.55 45.68 41.91L47.13 51.22C47.14 51.31 47.13 51.4 47.11 51.48C47.08 51.57 47.04 51.65 46.98 51.72C46.93 51.79 46.86 51.86 46.77 51.91C46.69 51.95 46.6 51.98 46.51 51.98Z" fill="#13AAE0" fill-opacity="1.000000" fill-rule="nonzero"/>
		<path id="Vector" d="M27.62 37.19C27.52 37.19 27.42 37.16 27.33 37.12L23.7 35.2C23.62 35.16 23.56 35.11 23.51 35.05C23.46 34.99 23.41 34.91 23.39 34.84C23.37 34.76 23.36 34.68 23.36 34.6C23.37 34.51 23.39 34.44 23.43 34.36C23.47 34.29 23.52 34.23 23.58 34.17C23.65 34.12 23.72 34.08 23.79 34.06C23.87 34.03 23.95 34.03 24.03 34.03C24.12 34.04 24.19 34.06 24.27 34.1L27.62 35.86L30.97 34.1C31.12 34.03 31.29 34.01 31.45 34.06C31.6 34.11 31.73 34.22 31.81 34.36C31.88 34.51 31.9 34.68 31.85 34.84C31.8 35 31.69 35.12 31.55 35.2L27.86 37.12C27.79 37.16 27.7 37.18 27.62 37.19Z" fill="#13AAE0" fill-opacity="1.000000" fill-rule="nonzero"/>
		<path id="Vector" d="M27.62 31.75C22.24 31.75 17.86 26 17.86 18.93C17.82 16.74 18.14 14.55 18.78 12.46C18.84 12.3 18.95 12.17 19.1 12.1C19.25 12.03 19.42 12.01 19.58 12.07C19.65 12.09 19.72 12.14 19.78 12.19C19.84 12.24 19.9 12.31 19.93 12.38C19.97 12.45 19.99 12.53 19.99 12.61C20 12.69 19.99 12.78 19.96 12.85C19.36 14.83 19.07 16.89 19.11 18.96C19.11 25.33 22.93 30.53 27.63 30.53C32.33 30.53 36.13 25.33 36.13 18.96C36.17 17.06 35.96 15.16 35.51 13.32C35.46 13.16 35.48 12.99 35.56 12.84C35.65 12.7 35.78 12.59 35.94 12.55C36.1 12.5 36.27 12.53 36.41 12.61C36.56 12.69 36.66 12.82 36.7 12.98C37.19 14.94 37.42 16.94 37.38 18.96C37.37 26 32.99 31.75 27.62 31.75Z" fill="#13AAE0" fill-opacity="1.000000" fill-rule="nonzero"/>
		<path id="Vector" d="M10.14 14.64C9.98 14.64 9.83 14.58 9.71 14.46C9.59 14.35 9.53 14.2 9.52 14.04C9.29 7.38 14.86 6.64 16.69 6.4L16.84 6.4C18.39 6.23 19.91 5.9 21.38 5.39C21.53 5.33 21.71 5.33 21.86 5.4C22.01 5.46 22.13 5.58 22.19 5.73C22.22 5.81 22.24 5.89 22.24 5.98C22.24 6.06 22.22 6.14 22.19 6.21C22.16 6.29 22.11 6.36 22.05 6.42C21.99 6.47 21.92 6.52 21.84 6.55C20.28 7.1 18.65 7.46 17 7.63L16.85 7.63C13.93 8.01 10.59 9.08 10.77 13.98C10.77 14.15 10.71 14.31 10.6 14.42C10.49 14.55 10.33 14.62 10.17 14.63L10.14 14.64Z" fill="#13AAE0" fill-opacity="1.000000" fill-rule="nonzero"/>
		<path id="Vector" d="M0.58 49.32L0.48 49.32C0.4 49.31 0.32 49.28 0.25 49.25C0.18 49.2 0.12 49.14 0.07 49.08C0.03 49.01 -0.01 48.94 -0.03 48.85C-0.05 48.78 -0.05 48.69 -0.03 48.61L1.27 40.29C1.51 39.05 2.09 37.91 2.94 36.97C3.79 36.04 4.87 35.36 6.08 35L9.96 34.08C10.81 33.9 11.57 33.45 12.14 32.8C12.7 32.16 13.05 31.34 13.12 30.48C13.12 30.26 13.12 30.03 13.12 29.8C13.12 29.63 13.18 29.47 13.3 29.35C13.41 29.24 13.57 29.17 13.73 29.17C13.9 29.17 14.05 29.24 14.17 29.35C14.29 29.47 14.35 29.63 14.35 29.8C14.37 30.06 14.37 30.32 14.35 30.59C14.26 31.71 13.81 32.78 13.07 33.63C12.33 34.48 11.34 35.07 10.24 35.32L6.35 36.24C5.38 36.54 4.51 37.1 3.83 37.86C3.15 38.62 2.69 39.55 2.49 40.55L1.2 48.87C1.16 49.01 1.08 49.12 0.97 49.21C0.86 49.29 0.72 49.33 0.58 49.32Z" fill="#13AAE0" fill-opacity="1.000000" fill-rule="nonzero"/>
		<path id="Vector" d="M16.15 31.04C12.78 31.04 8.73 25.96 8.73 19.65C8.69 17.67 8.97 15.7 9.56 13.82C9.61 13.66 9.72 13.53 9.87 13.46C10.02 13.39 10.19 13.37 10.34 13.42C10.5 13.48 10.62 13.59 10.7 13.74C10.77 13.89 10.78 14.06 10.73 14.21C10.19 15.97 9.94 17.81 9.97 19.65C9.96 22.25 10.72 24.79 12.16 26.94C13.37 28.7 14.92 29.8 16.15 29.8C16.31 29.8 16.47 29.87 16.58 29.98C16.7 30.1 16.76 30.26 16.76 30.42C16.76 30.58 16.7 30.75 16.58 30.86C16.47 30.98 16.31 31.04 16.15 31.04Z" fill="#13AAE0" fill-opacity="1.000000" fill-rule="nonzero"/>
		<path id="Vector" d="M44.81 14.64C44.65 14.63 44.5 14.55 44.38 14.44C44.27 14.32 44.21 14.16 44.21 13.99C44.39 9.09 41.05 8.02 38.13 7.64C37.97 7.62 37.82 7.53 37.72 7.4C37.62 7.26 37.58 7.1 37.6 6.94C37.61 6.85 37.63 6.78 37.68 6.71C37.72 6.64 37.77 6.57 37.83 6.52C37.9 6.47 37.97 6.44 38.05 6.42C38.13 6.39 38.21 6.39 38.29 6.4C40.13 6.64 45.66 7.38 45.46 14.04C45.46 14.12 45.44 14.2 45.4 14.28C45.37 14.35 45.32 14.42 45.26 14.47C45.2 14.53 45.13 14.57 45.05 14.6C44.98 14.63 44.9 14.64 44.81 14.64Z" fill="#13AAE0" fill-opacity="1.000000" fill-rule="nonzero"/>
		<path id="Vector" d="M54.37 49.32C54.22 49.32 54.08 49.27 53.97 49.17C53.86 49.08 53.78 48.94 53.76 48.8L52.47 40.48C52.28 39.47 51.82 38.54 51.14 37.78C50.46 37.02 49.58 36.46 48.61 36.17L44.71 35.24C43.62 35 42.63 34.4 41.89 33.55C41.16 32.7 40.71 31.64 40.62 30.51C40.62 30.26 40.62 29.99 40.62 29.72C40.62 29.56 40.69 29.4 40.8 29.28C40.92 29.17 41.07 29.1 41.24 29.1C41.4 29.1 41.56 29.17 41.67 29.28C41.79 29.4 41.86 29.56 41.86 29.72C41.86 29.95 41.86 30.18 41.86 30.41C41.92 31.26 42.26 32.07 42.83 32.72C43.39 33.37 44.15 33.81 44.99 33.99L48.9 34.96C50.1 35.32 51.19 36.01 52.04 36.94C52.88 37.87 53.46 39.02 53.71 40.26L55 48.58C55.01 48.66 55.01 48.75 54.99 48.83C54.97 48.91 54.94 48.98 54.89 49.05C54.84 49.12 54.78 49.17 54.71 49.21C54.64 49.26 54.56 49.28 54.48 49.3L54.37 49.32Z" fill="#13AAE0" fill-opacity="1.000000" fill-rule="nonzero"/>
		<path id="Vector" d="M38.84 31.04C38.68 31.04 38.52 30.98 38.41 30.86C38.29 30.75 38.23 30.59 38.23 30.42C38.23 30.26 38.29 30.1 38.41 29.98C38.52 29.87 38.68 29.8 38.84 29.8C40.1 29.8 41.61 28.7 42.83 26.94C44.27 24.79 45.03 22.25 45.02 19.65C45.05 17.81 44.8 15.97 44.26 14.21C44.23 14.14 44.22 14.05 44.23 13.97C44.24 13.89 44.26 13.81 44.29 13.74C44.33 13.67 44.38 13.6 44.44 13.55C44.5 13.5 44.57 13.45 44.65 13.42C44.8 13.37 44.98 13.39 45.12 13.46C45.27 13.53 45.39 13.66 45.44 13.82C46.02 15.7 46.3 17.67 46.26 19.65C46.26 25.96 42.21 31.04 38.84 31.04Z" fill="#13AAE0" fill-opacity="1.000000" fill-rule="nonzero"/>
	</g>
</svg>
