<svg width="55.000000" height="55.000000" viewBox="0 0 55 55" fill="none" xmlns="http://www.w3.org/2000/svg" xmlns:xlink="http://www.w3.org/1999/xlink">
	<desc>
			Created with Pixso.
	</desc>
	<defs>
		<clipPath id="clip3237_6829">
			<rect id="Frame" width="50.740002" height="55.000000" transform="translate(2.000000 0.000000)" fill="white" fill-opacity="0"/>
		</clipPath>
	</defs>
	<rect id="Frame 125" width="55.000000" height="53.960041" transform="translate(0.000000 0.980469)" fill="#FFFFFF" fill-opacity="0"/>
	<rect id="Frame" width="50.740002" height="55.000000" transform="translate(2.000000 0.000000)" fill="#FFFFFF" fill-opacity="0"/>
	<g clip-path="url(#clip3237_6829)">
		<path id="Vector" d="M41.84 49.88C42.25 49.88 42.57 49.57 42.57 49.17L42.57 42.4C42.57 42 42.25 41.69 41.84 41.69C41.45 41.69 41.12 42 41.12 42.4L41.12 49.17C41.12 49.57 41.45 49.88 41.84 49.88Z" fill="#13AAE0" fill-opacity="1.000000" fill-rule="nonzero"/>
		<path id="Vector" d="M38.37 46.49L45.32 46.49C45.71 46.49 46.04 46.17 46.04 45.78C46.04 45.39 45.71 45.08 45.32 45.08L38.37 45.08C37.98 45.08 37.66 45.39 37.66 45.78C37.66 46.17 37.98 46.49 38.37 46.49Z" fill="#13AAE0" fill-opacity="1.000000" fill-rule="nonzero"/>
		<path id="Vector" d="M27.96 16.18L27.96 14.85C27.96 13.9 28.75 13.13 29.71 13.13L33.63 13.13C34.6 13.13 35.38 13.91 35.38 14.85L35.38 16.18C35.38 17.14 34.59 17.9 33.63 17.9L29.71 17.9C28.75 17.9 27.96 17.12 27.96 16.18ZM29.71 14.55C29.54 14.55 29.41 14.69 29.41 14.85L29.41 16.18C29.41 16.35 29.55 16.48 29.71 16.48L33.63 16.48C33.8 16.48 33.93 16.34 33.93 16.18L33.93 14.85C33.93 14.68 33.79 14.55 33.63 14.55L29.71 14.55Z" fill="#13AAE0" fill-opacity="1.000000" fill-rule="nonzero"/>
		<path id="Vector" d="M19.51 16.18L19.51 14.85C19.51 13.9 20.3 13.13 21.26 13.13L25.18 13.13C26.15 13.13 26.93 13.91 26.93 14.85L26.93 16.18C26.93 17.14 26.14 17.9 25.18 17.9L21.26 17.9C20.29 17.9 19.51 17.12 19.51 16.18ZM21.26 14.55C21.09 14.55 20.96 14.69 20.96 14.85L20.96 16.18C20.96 16.35 21.1 16.48 21.26 16.48L25.18 16.48C25.35 16.48 25.48 16.34 25.48 16.18L25.48 14.85C25.48 14.68 25.34 14.55 25.18 14.55L21.26 14.55Z" fill="#13AAE0" fill-opacity="1.000000" fill-rule="nonzero"/>
		<path id="Vector" d="M26.21 15.99L28.7 15.99C29.09 15.99 29.41 15.67 29.41 15.28C29.41 14.89 29.09 14.57 28.7 14.57L26.21 14.57C25.82 14.57 25.5 14.89 25.5 15.28C25.5 15.67 25.82 15.99 26.21 15.99Z" fill="#13AAE0" fill-opacity="1.000000" fill-rule="nonzero"/>
		<path id="Vector" d="M27.41 28.14C28.07 28.14 28.73 28.04 29.37 27.84C34.08 26.4 35.35 22.18 35.66 20.47C35.89 20.45 36.1 20.39 36.28 20.28C37.19 19.76 37.16 18.67 37.11 16.51L37.11 16.16C37.07 14.66 37.04 13.9 37.06 13.51C37.07 13.11 36.75 12.79 36.35 12.78C35.95 12.78 35.62 13.08 35.61 13.48C35.6 13.91 35.61 14.67 35.65 16.19L35.65 16.55C35.69 17.69 35.71 18.86 35.54 19.06C35.54 19.06 35.53 19.06 35.49 19.06C35.45 19.06 35.37 19.06 35.25 19.02C35.04 18.96 34.81 18.99 34.62 19.12C34.45 19.25 34.33 19.44 34.32 19.66C34.29 19.87 33.89 24.96 28.94 26.49C28.08 26.75 27.21 26.79 26.4 26.61C23.46 25.95 21.16 23.19 20.54 19.59C20.46 19.21 20.11 18.95 19.71 19C19.54 19.03 19.48 19 19.45 18.98C19.29 18.87 19.33 17.85 19.36 17.12C19.36 16.9 19.37 16.67 19.37 16.43C19.41 15.44 19.4 14.41 19.36 13.38L19.36 11.78C19.36 11.39 19.04 11.07 18.64 11.07C18.24 11.07 17.91 11.39 17.91 11.78L17.91 13.42C17.95 14.42 17.96 15.42 17.94 16.38C17.94 16.62 17.91 16.84 17.91 17.06C17.86 18.54 17.82 19.62 18.67 20.17C18.85 20.28 19.03 20.35 19.23 20.39C20.08 24.29 22.73 27.24 26.08 28C26.5 28.1 26.96 28.14 27.41 28.14L27.41 28.14Z" fill="#13AAE0" fill-opacity="1.000000" fill-rule="nonzero"/>
		<path id="Vector" d="M17.87 10.2C17.87 10.2 17.95 10.2 18 10.19C18.4 10.12 18.66 9.75 18.59 9.37C18.03 6.25 18.9 3.69 19.57 2.29C19.87 2.55 20.23 2.66 20.57 2.71C21.41 2.87 22.33 2.85 23.27 2.64L23.46 2.6C24.81 2.3 28.37 1.52 30.9 2.05C30.92 2.05 34.31 2.79 35.58 5.39C36.23 6.71 36.17 8.12 36.13 9.16C36.12 9.55 36.44 9.89 36.83 9.89C37.24 9.91 37.58 9.6 37.58 9.21C37.62 8.09 37.69 6.4 36.9 4.77C35.32 1.55 31.37 0.68 31.21 0.66C28.37 0.05 24.58 0.89 23.16 1.2L22.96 1.24C22.21 1.4 21.5 1.43 20.84 1.3C20.49 1.23 20.41 1.22 20.37 0.64C20.36 0.34 20.15 0.08 19.86 0.01C19.57 -0.08 19.25 0.03 19.07 0.27C18.95 0.43 16.2 4.21 17.17 9.59C17.24 9.94 17.54 10.18 17.88 10.18L17.87 10.2Z" fill="#13AAE0" fill-opacity="1.000000" fill-rule="nonzero"/>
		<path id="Vector" d="M36.33 14.19C36.69 14.19 37 13.92 37.05 13.56C37.1 13.17 36.83 12.82 36.42 12.77C36 12.72 35.64 12.58 35.37 12.35C34.96 12 34.84 11.53 34.71 10.78C34.58 10.07 34.44 9.26 33.81 8.54C33.09 7.71 31.97 7.25 30.48 7.19C28.83 7.13 27.89 7.89 26.83 8.77C26.02 9.43 25.11 10.17 23.63 10.86C21.84 11.71 18.7 11.07 18.67 11.07C18.29 10.99 17.89 11.24 17.81 11.62C17.73 12 17.98 12.39 18.37 12.46C18.52 12.49 22.02 13.2 24.26 12.15C25.91 11.37 26.93 10.54 27.75 9.86C28.75 9.06 29.33 8.57 30.43 8.62C31.5 8.66 32.27 8.94 32.71 9.46C33.08 9.88 33.17 10.41 33.29 11.03C33.42 11.83 33.59 12.74 34.43 13.44C34.91 13.85 35.52 14.09 36.25 14.18C36.27 14.18 36.3 14.18 36.33 14.18L36.33 14.19Z" fill="#13AAE0" fill-opacity="1.000000" fill-rule="nonzero"/>
		<path id="Vector" d="M26.35 34.74L24.89 33.3C24.37 32.8 24.37 31.98 24.89 31.47L26.35 30.04C26.6 29.79 26.93 29.66 27.28 29.66C27.62 29.66 27.96 29.79 28.21 30.04L29.66 31.47C30.18 31.97 30.18 32.8 29.66 33.3L28.21 34.74C27.95 34.99 27.61 35.12 27.28 35.12C26.95 35.12 26.6 34.99 26.35 34.74ZM27.28 31.13L26 32.38L27.28 33.64L28.56 32.38L27.28 31.13Z" fill="#13AAE0" fill-opacity="1.000000" fill-rule="nonzero"/>
		<path id="Vector" d="M29.24 32.76C29.39 32.76 29.55 32.71 29.68 32.62L33.68 29.58C34 29.35 34.06 28.9 33.81 28.58C33.57 28.27 33.11 28.21 32.79 28.46L28.79 31.49C28.47 31.72 28.41 32.17 28.66 32.49C28.8 32.66 29.02 32.76 29.23 32.76L29.24 32.76Z" fill="#13AAE0" fill-opacity="1.000000" fill-rule="nonzero"/>
		<path id="Vector" d="M25.31 32.79C25.53 32.79 25.74 32.69 25.87 32.52C26.12 32.21 26.07 31.76 25.75 31.52L21.8 28.53C21.48 28.29 21.03 28.34 20.78 28.65C20.54 28.97 20.58 29.41 20.91 29.66L24.86 32.65C24.99 32.75 25.15 32.79 25.3 32.79L25.31 32.79Z" fill="#13AAE0" fill-opacity="1.000000" fill-rule="nonzero"/>
		<path id="Vector" d="M31.53 41.55C31.65 41.55 31.75 41.51 31.87 41.46C32.21 41.27 32.34 40.84 32.16 40.5L28.46 33.78C28.26 33.43 27.83 33.3 27.47 33.49C27.12 33.68 27 34.11 27.19 34.45L30.88 41.17C31.01 41.41 31.26 41.55 31.53 41.55Z" fill="#13AAE0" fill-opacity="1.000000" fill-rule="nonzero"/>
		<path id="Vector" d="M23.13 41.67C23.39 41.67 23.65 41.52 23.78 41.28L27.34 34.37C27.52 34.02 27.38 33.6 27.02 33.42C26.66 33.24 26.23 33.38 26.05 33.73L22.49 40.64C22.31 41 22.45 41.42 22.81 41.59C22.91 41.64 23.03 41.67 23.14 41.67L23.13 41.67Z" fill="#13AAE0" fill-opacity="1.000000" fill-rule="nonzero"/>
		<path id="Vector" d="M22.57 42.22C22.78 42.22 22.99 42.13 23.14 41.96C23.39 41.65 23.34 41.2 23.03 40.96L11.5 31.93C11.19 31.68 10.73 31.73 10.48 32.04C10.23 32.34 10.28 32.79 10.59 33.04L22.12 42.06C22.25 42.17 22.41 42.22 22.57 42.22Z" fill="#13AAE0" fill-opacity="1.000000" fill-rule="nonzero"/>
		<path id="Vector" d="M6.85 44.77L6.85 42.24C6.85 41.85 7.17 41.53 7.57 41.53L16.87 41.53C17.27 41.53 17.59 41.85 17.59 42.24L17.59 44.77C17.59 45.16 17.27 45.48 16.87 45.48L7.58 45.48C7.18 45.48 6.86 45.16 6.86 44.77L6.85 44.77ZM16.14 42.95L8.3 42.95L8.3 44.05L16.14 44.05L16.14 42.95Z" fill="#13AAE0" fill-opacity="1.000000" fill-rule="nonzero"/>
		<path id="Vector" d="M7.58 50.1L16.87 50.1C17.28 50.1 17.6 49.79 17.6 49.39L17.6 44.14C17.6 43.74 17.28 43.43 16.87 43.43C16.48 43.43 16.16 43.74 16.16 44.14L16.16 48.69L8.31 48.69L8.31 44.14C8.31 43.74 7.99 43.43 7.58 43.43C7.19 43.43 6.87 43.74 6.87 44.14L6.87 49.39C6.87 49.79 7.19 50.1 7.58 50.1Z" fill="#13AAE0" fill-opacity="1.000000" fill-rule="nonzero"/>
		<path id="Vector" d="M31.95 42.22C32.11 42.22 32.26 42.17 32.4 42.06L43.92 33.04C44.24 32.79 44.29 32.34 44.04 32.04C43.79 31.73 43.33 31.68 43.01 31.93L31.49 40.96C31.17 41.2 31.12 41.65 31.37 41.96C31.51 42.13 31.72 42.22 31.95 42.22Z" fill="#13AAE0" fill-opacity="1.000000" fill-rule="nonzero"/>
		<path id="Vector" d="M52 55C52 55 52.04 55 52.07 55C52.46 54.97 52.77 54.62 52.74 54.23L51.61 40.19C51.58 36.56 49.21 33.31 45.82 32.29C45.62 32.23 45.42 32.19 45.23 32.14L35.21 29.89C34.83 29.8 34.45 30.03 34.35 30.39L28.04 52.55L26.6 52.55L20.2 30.39C20.1 30.03 19.73 29.8 19.35 29.89L9.33 32.14C9.12 32.17 8.94 32.23 8.74 32.29C5.33 33.31 2.95 36.57 2.95 40.22L2 54.14C1.96 54.53 2.27 54.88 2.66 54.9C3.07 54.92 3.41 54.63 3.44 54.24L4.41 40.3C4.41 40.3 4.41 40.27 4.41 40.25C4.4 37.21 6.35 34.5 9.16 33.66C9.32 33.61 9.48 33.57 9.65 33.53L19 31.44L25.35 53.46C25.44 53.77 25.71 53.98 26.04 53.98L28.6 53.98C28.92 53.98 29.21 53.77 29.29 53.46L35.56 31.44L44.9 33.53C45.06 33.57 45.23 33.61 45.38 33.66C48.19 34.49 50.15 37.2 50.15 40.22C50.15 40.24 50.15 40.26 50.15 40.28L51.28 54.34C51.31 54.71 51.62 55 52 55L52 55Z" fill="#13AAE0" fill-opacity="1.000000" fill-rule="nonzero"/>
		<path id="Vector" d="M33.16 29.73C33.55 29.73 33.87 29.43 33.88 29.05L34.02 24.35C34.04 23.96 33.72 23.64 33.33 23.62C32.92 23.61 32.59 23.91 32.58 24.31L32.43 29C32.42 29.39 32.73 29.71 33.13 29.73L33.16 29.73L33.16 29.73Z" fill="#13AAE0" fill-opacity="1.000000" fill-rule="nonzero"/>
		<path id="Vector" d="M21.29 29.8C21.67 29.8 22 29.5 22 29.1L22.14 23.83C22.16 23.44 21.83 23.12 21.43 23.11C21.04 23.1 20.71 23.41 20.7 23.8L20.55 29.07C20.54 29.47 20.87 29.79 21.26 29.8L21.29 29.8Z" fill="#13AAE0" fill-opacity="1.000000" fill-rule="nonzero"/>
		<path id="Vector" d="M35.04 31.3C35.25 31.3 35.45 31.23 35.58 31.07C35.85 30.77 35.83 30.32 35.52 30.07L33.71 28.5C33.41 28.23 32.96 28.26 32.7 28.56C32.42 28.85 32.46 29.3 32.75 29.56L34.56 31.13C34.71 31.25 34.87 31.3 35.04 31.3Z" fill="#13AAE0" fill-opacity="1.000000" fill-rule="nonzero"/>
		<path id="Vector" d="M19.52 31.3C19.68 31.3 19.85 31.25 19.98 31.14L21.82 29.64C22.13 29.38 22.17 28.94 21.91 28.64C21.65 28.33 21.2 28.29 20.89 28.55L19.05 30.05C18.74 30.3 18.7 30.75 18.96 31.05C19.1 31.21 19.31 31.3 19.52 31.3Z" fill="#13AAE0" fill-opacity="1.000000" fill-rule="nonzero"/>
	</g>
</svg>
