<svg width="55.000000" height="55.000000" viewBox="0 0 55 55" fill="none" xmlns="http://www.w3.org/2000/svg" xmlns:xlink="http://www.w3.org/1999/xlink">
	<desc>
			Created with Pixso.
	</desc>
	<defs>
		<clipPath id="clip3237_6697">
			<rect id="Frame" width="42.889999" height="51.500000" transform="translate(6.000000 2.000000)" fill="white" fill-opacity="0"/>
		</clipPath>
	</defs>
	<rect id="Frame 120" width="55.000000" height="55.000000" fill="#FFFFFF" fill-opacity="0"/>
	<rect id="Frame" width="42.889999" height="51.500000" transform="translate(6.000000 2.000000)" fill="#FFFFFF" fill-opacity="0"/>
	<g clip-path="url(#clip3237_6697)">
		<path id="Vector" d="M43.33 11.8L40.17 11.8L40.17 9.14L43.33 9.14C43.43 9.14 43.53 9.12 43.63 9.08C43.72 9.04 43.81 8.98 43.88 8.91C43.96 8.84 44.01 8.75 44.05 8.66C44.09 8.56 44.12 8.46 44.12 8.35L44.12 2.78C44.12 2.58 44.03 2.37 43.88 2.23C43.74 2.08 43.53 2 43.33 2L11.54 2C11.33 2 11.13 2.08 10.99 2.23C10.84 2.37 10.75 2.58 10.75 2.78L10.75 8.35C10.76 8.56 10.84 8.76 10.99 8.91C11.14 9.05 11.34 9.14 11.54 9.14L14.71 9.14L14.71 11.8L11.54 11.8C10.44 11.81 9.37 12.14 8.47 12.75C7.56 13.36 6.85 14.23 6.43 15.23C6.02 16.25 5.91 17.36 6.12 18.43C6.33 19.5 6.85 20.49 7.62 21.26L14.71 28.14L14.71 28.26C14.82 29.67 15.45 30.98 16.48 31.93C17.51 32.89 18.86 33.42 20.26 33.42L20.66 33.42L20.66 36.85C20.66 36.96 20.69 37.06 20.73 37.16C20.76 37.25 20.82 37.34 20.9 37.41C20.97 37.48 21.06 37.54 21.15 37.58C21.25 37.62 21.35 37.64 21.46 37.64L24.08 37.64L24.08 41.64L21.46 41.64C21.35 41.63 21.25 41.65 21.15 41.69C21.06 41.73 20.97 41.79 20.9 41.86C20.82 41.93 20.76 42.02 20.73 42.12C20.69 42.21 20.66 42.31 20.66 42.42L20.66 45.42L17.29 45.42C17.19 45.41 17.09 45.44 16.99 45.48C16.9 45.51 16.81 45.57 16.74 45.64L10.21 52.17C10.1 52.28 10.02 52.42 10 52.58C9.97 52.73 9.98 52.89 10.04 53.03C10.1 53.17 10.2 53.3 10.33 53.38C10.46 53.47 10.61 53.51 10.76 53.51L44.09 53.51C44.25 53.51 44.4 53.46 44.53 53.38C44.65 53.29 44.75 53.17 44.81 53.03C44.87 52.88 44.88 52.73 44.85 52.58C44.82 52.42 44.75 52.28 44.64 52.17L38.12 45.64C38.04 45.57 37.95 45.51 37.86 45.48C37.76 45.44 37.66 45.41 37.55 45.42L34.18 45.42L34.18 42.42C34.18 42.21 34.1 42.01 33.96 41.86C33.81 41.72 33.61 41.64 33.41 41.64L30.79 41.64L30.79 37.64L33.41 37.64C33.61 37.64 33.81 37.55 33.96 37.41C34.1 37.26 34.18 37.06 34.18 36.85L34.18 33.42L34.59 33.42C36 33.42 37.35 32.89 38.38 31.93C39.41 30.97 40.04 29.67 40.14 28.26L40.14 28.21L47.25 21.32C48.02 20.55 48.56 19.56 48.77 18.48C48.99 17.41 48.88 16.29 48.46 15.28C48.04 14.26 47.33 13.39 46.41 12.78C45.5 12.17 44.42 11.85 43.33 11.85L43.33 11.8ZM14.71 25.96L8.7 20.17C8.16 19.6 7.79 18.9 7.64 18.13C7.5 17.36 7.58 16.57 7.87 15.85C8.17 15.12 8.68 14.5 9.33 14.07C9.97 13.62 10.73 13.39 11.51 13.37L14.68 13.37L14.71 25.96ZM37.25 46.96L37.29 46.96L42.21 51.87L12.66 51.87L17.66 46.87L37.25 46.96ZM32.62 43.12L32.62 45.39L22.25 45.39L22.25 43.12L32.62 43.12ZM25.62 41.55L25.62 37.55L29.21 37.55L29.21 41.55L25.62 41.55ZM32.62 36.01L22.25 36.01L22.25 33.35L32.62 33.35L32.62 36.01ZM38.62 27.78C38.62 28.85 38.2 29.86 37.45 30.61C36.7 31.36 35.69 31.78 34.62 31.78L20.28 31.78C19.21 31.78 18.2 31.36 17.45 30.61C16.7 29.86 16.28 28.85 16.28 27.78L16.28 9.14L38.62 9.14L38.62 27.78ZM12.33 7.57L12.33 3.57L42.54 3.57L42.54 7.57L12.33 7.57ZM46.16 20.16L40.16 25.96L40.16 13.37L43.31 13.37C44.38 13.37 45.39 13.8 46.14 14.55C46.89 15.3 47.31 16.32 47.31 17.37C47.31 18.42 46.89 19.41 46.16 20.16Z" fill="#13AAE0" fill-opacity="1.000000" fill-rule="nonzero"/>
	</g>
</svg>
