<svg width="46.000000" height="48.000000" viewBox="0 0 46 48" fill="none" xmlns="http://www.w3.org/2000/svg" xmlns:xlink="http://www.w3.org/1999/xlink">
	<desc>
			Created with Pixso.
	</desc>
	<defs>
		<clipPath id="clip6101_15334">
			<rect id="_лой_1" rx="-0.500000" width="37.000000" height="37.000000" transform="translate(4.500000 5.500000)" fill="white" fill-opacity="0"/>
		</clipPath>
	</defs>
	<g opacity="0.100000">
		<rect id="Rectangle 1876" rx="10.000000" width="46.000000" height="48.000000" fill="#63C3D1" fill-opacity="1.000000"/>
	</g>
	<rect id="_лой_1" rx="-0.500000" width="37.000000" height="37.000000" transform="translate(4.500000 5.500000)" fill="#FFFFFF" fill-opacity="0"/>
	<g clip-path="url(#clip6101_15334)">
		<path id="Vector" d="M19.67 24.85C19.42 24.44 19.18 24.07 19.02 23.81C18.96 23.69 18.84 23.62 18.71 23.6C18.58 23.58 18.45 23.61 18.35 23.7C18 24 17.68 24.19 17.37 24.37C17.1 24.53 16.82 24.7 16.53 24.93C16.11 25.28 15.87 25.69 15.85 26.11C15.81 26.7 16.15 27.19 16.45 27.54C17.04 28.22 17.66 28.84 18.39 29.58C19.01 30.19 20.17 31.55 20.52 32.27C20.39 32.51 20.26 32.75 20.11 32.98C19.5 32.02 18.48 31.26 17.69 30.69C16.03 29.47 14.46 28.11 13.02 26.64C12.98 26.6 12.9 26.51 12.89 26.48C12.88 26.46 12.88 26.41 12.92 26.26C13.37 24.87 14.68 23.81 15.73 22.96L19.68 19.76C19.87 19.61 19.9 19.34 19.74 19.16C19.58 18.97 19.31 18.94 19.12 19.1L15.17 22.29C14.03 23.21 12.6 24.36 12.08 26C12.01 26.21 11.96 26.46 12.03 26.72C12.11 26.97 12.27 27.14 12.39 27.25C13.85 28.75 15.46 30.14 17.16 31.39C18.01 32.01 19.16 32.85 19.58 33.86C19.48 34.02 19.38 34.19 19.29 34.35C18.25 36.25 17.8 38.46 18.02 40.6C18.04 40.83 18.24 41 18.46 41C18.48 41 18.5 41 18.51 40.99C18.75 40.97 18.93 40.76 18.91 40.51C18.7 38.55 19.12 36.51 20.07 34.77C20.25 34.45 20.45 34.13 20.64 33.82C21.26 32.81 21.91 31.76 21.99 30.53C22.06 29.41 21.63 28.33 21.16 27.34C20.88 26.75 20.24 25.74 19.68 24.85L19.67 24.85ZM21.1 30.48C21.08 30.75 21.03 31.01 20.95 31.27C20.32 30.33 19.32 29.26 19.03 28.97C18.3 28.24 17.7 27.64 17.13 26.97C16.94 26.75 16.71 26.45 16.73 26.17C16.75 25.93 16.94 25.73 17.1 25.6C17.33 25.41 17.58 25.26 17.83 25.11C18.05 24.98 18.27 24.85 18.52 24.67C18.64 24.86 18.77 25.08 18.92 25.31C19.44 26.13 20.09 27.16 20.35 27.71C20.84 28.73 21.16 29.6 21.1 30.48L21.1 30.48Z" fill="#63C3D1" fill-opacity="1.000000" fill-rule="nonzero"/>
		<path id="Vector" d="M19.02 23.81C18.96 23.69 18.84 23.62 18.71 23.6C18.58 23.58 18.45 23.61 18.35 23.7C18 24 17.68 24.19 17.37 24.37C17.1 24.53 16.82 24.7 16.53 24.93C16.11 25.28 15.87 25.69 15.85 26.11C15.81 26.7 16.15 27.19 16.45 27.54C17.04 28.22 17.66 28.84 18.39 29.58C19.01 30.19 20.17 31.55 20.52 32.27C20.39 32.51 20.26 32.75 20.11 32.98C19.5 32.02 18.48 31.26 17.69 30.69C16.03 29.47 14.46 28.11 13.02 26.64C12.98 26.6 12.9 26.51 12.89 26.48C12.88 26.46 12.88 26.41 12.92 26.26C13.37 24.87 14.68 23.81 15.73 22.96L19.68 19.76C19.87 19.61 19.9 19.34 19.74 19.16C19.58 18.97 19.31 18.94 19.12 19.1L15.17 22.29C14.03 23.21 12.6 24.36 12.08 26C12.01 26.21 11.96 26.46 12.03 26.72C12.11 26.97 12.27 27.14 12.39 27.25C13.85 28.75 15.46 30.14 17.16 31.39C18.01 32.01 19.16 32.85 19.58 33.86C19.48 34.02 19.38 34.19 19.29 34.35C18.25 36.25 17.8 38.46 18.02 40.6C18.04 40.83 18.24 41 18.46 41C18.48 41 18.5 41 18.51 40.99C18.75 40.97 18.93 40.76 18.91 40.51C18.7 38.55 19.12 36.51 20.07 34.77C20.25 34.45 20.45 34.13 20.64 33.82C21.26 32.81 21.91 31.76 21.99 30.53C22.06 29.41 21.63 28.33 21.16 27.34C20.88 26.75 20.24 25.74 19.68 24.85L19.67 24.85C19.42 24.44 19.18 24.07 19.02 23.81ZM20.95 31.27C20.32 30.33 19.32 29.26 19.03 28.97C18.3 28.24 17.7 27.64 17.13 26.97C16.94 26.75 16.71 26.45 16.73 26.17C16.75 25.93 16.94 25.73 17.1 25.6C17.33 25.41 17.58 25.26 17.83 25.11C18.05 24.98 18.27 24.85 18.52 24.67C18.64 24.86 18.77 25.08 18.92 25.31C19.44 26.13 20.09 27.16 20.35 27.71C20.84 28.73 21.16 29.6 21.1 30.48L21.1 30.48C21.08 30.75 21.03 31.01 20.95 31.27Z" stroke="#63C3D1" stroke-opacity="1.000000" stroke-width="1.000000"/>
		<path id="Vector" d="M32.9 33.29C32.71 32.16 32.2 31.01 31.41 29.87C30.71 28.87 29.88 27.99 28.93 27.25C29.21 26.74 29.36 26.15 29.33 25.57C29.32 25.14 29.21 24.78 29.03 24.49C28.82 24.15 28.51 23.92 28.24 23.72L28.2 23.69C26.5 22.43 25.01 20.91 23.76 19.17C23.62 18.98 23.36 18.94 23.17 19.08C22.98 19.22 22.94 19.5 23.08 19.69C24.37 21.5 25.92 23.09 27.7 24.41L27.74 24.43C27.97 24.6 28.19 24.76 28.31 24.96C28.41 25.13 28.47 25.34 28.48 25.61C28.5 26.14 28.33 26.67 28.01 27.09C27.94 27.18 27.91 27.3 27.93 27.42C27.94 27.54 28.01 27.64 28.1 27.71C29.12 28.45 30 29.35 30.72 30.38C31.44 31.42 31.89 32.45 32.07 33.45C32.26 34.6 32.08 35.75 31.56 36.61C31.28 37.08 30.89 37.48 30.48 37.91C30.25 38.16 30.01 38.42 29.78 38.69C28.96 39.68 28.62 40.74 28.83 41.66C28.88 41.86 29.05 42 29.25 42C29.28 42 29.31 41.99 29.34 41.98C29.57 41.93 29.71 41.69 29.66 41.46C29.46 40.59 30.05 39.7 30.42 39.25C30.63 39 30.86 38.77 31.09 38.52C31.51 38.08 31.94 37.62 32.28 37.07C32.92 36.01 33.14 34.67 32.9 33.3L32.9 33.29Z" fill="#63C3D1" fill-opacity="1.000000" fill-rule="nonzero"/>
		<path id="Vector" d="M31.41 29.87C30.71 28.87 29.88 27.99 28.93 27.25C29.21 26.74 29.36 26.15 29.33 25.57C29.32 25.14 29.21 24.78 29.03 24.49C28.82 24.15 28.51 23.92 28.24 23.72L28.2 23.69C26.5 22.43 25.01 20.91 23.76 19.17C23.62 18.98 23.36 18.94 23.17 19.08C22.98 19.22 22.94 19.5 23.08 19.69C24.37 21.5 25.92 23.09 27.7 24.41L27.74 24.43C27.97 24.6 28.19 24.76 28.31 24.96C28.41 25.13 28.47 25.34 28.48 25.61C28.5 26.14 28.33 26.67 28.01 27.09C27.94 27.18 27.91 27.3 27.93 27.42C27.94 27.54 28.01 27.64 28.1 27.71C29.12 28.45 30 29.35 30.72 30.38C31.44 31.42 31.89 32.45 32.07 33.45C32.26 34.6 32.08 35.75 31.56 36.61C31.28 37.08 30.89 37.48 30.48 37.91C30.25 38.16 30.01 38.42 29.78 38.69C28.96 39.68 28.62 40.74 28.83 41.66C28.88 41.86 29.05 42 29.25 42C29.28 42 29.31 41.99 29.34 41.98C29.57 41.93 29.71 41.69 29.66 41.46C29.46 40.59 30.05 39.7 30.42 39.25C30.63 39 30.86 38.77 31.09 38.52C31.51 38.08 31.94 37.62 32.28 37.07C32.92 36.01 33.14 34.67 32.9 33.3L32.9 33.29C32.71 32.16 32.2 31.01 31.41 29.87Z" stroke="#63C3D1" stroke-opacity="1.000000" stroke-width="1.000000"/>
		<path id="Vector" d="M27.32 9.18C27.19 8.98 26.93 8.94 26.75 9.07C26.56 9.21 26.51 9.49 26.64 9.68C27.07 10.33 26.98 10.74 26.86 11.25C26.74 11.79 26.6 12.45 27.1 13.29C27.25 13.53 27.16 13.73 26.78 14.24C26.7 14.34 26.63 14.44 26.56 14.54C26.52 14.61 26.48 14.66 26.44 14.7C26.23 14.92 26.09 15.18 25.97 15.41C25.75 15.83 25.61 16.05 25.28 16.1C25.1 16.13 25 16.12 24.59 16.04L24.48 16.02C24.25 15.98 24.04 16.14 24 16.38C23.96 16.62 24.11 16.84 24.34 16.88L24.45 16.91C24.75 16.96 24.94 17 25.13 17C25.22 17 25.3 16.99 25.39 16.97C26.14 16.86 26.44 16.3 26.69 15.85C26.79 15.65 26.9 15.46 27.03 15.32C27.1 15.24 27.16 15.16 27.23 15.05C27.29 14.96 27.36 14.87 27.42 14.78C27.77 14.32 28.28 13.62 27.8 12.82C27.48 12.29 27.55 11.94 27.66 11.46C27.79 10.87 27.96 10.15 27.32 9.18L27.32 9.18Z" fill="#63C3D1" fill-opacity="1.000000" fill-rule="nonzero"/>
		<path id="Vector" d="M26.75 9.07C26.56 9.21 26.51 9.49 26.64 9.68C27.07 10.33 26.98 10.74 26.86 11.25C26.74 11.79 26.6 12.45 27.1 13.29C27.25 13.53 27.16 13.73 26.78 14.24C26.7 14.34 26.63 14.44 26.56 14.54C26.52 14.61 26.48 14.66 26.44 14.7C26.23 14.92 26.09 15.18 25.97 15.41C25.75 15.83 25.61 16.05 25.28 16.1C25.1 16.13 25 16.12 24.59 16.04L24.48 16.02C24.25 15.98 24.04 16.14 24 16.38C23.96 16.62 24.11 16.84 24.34 16.88L24.45 16.91C24.75 16.96 24.94 17 25.13 17C25.22 17 25.3 16.99 25.39 16.97C26.14 16.86 26.44 16.3 26.69 15.85C26.79 15.65 26.9 15.46 27.03 15.32C27.1 15.24 27.16 15.16 27.23 15.05C27.29 14.96 27.36 14.87 27.42 14.78C27.77 14.32 28.28 13.62 27.8 12.82C27.48 12.29 27.55 11.94 27.66 11.46C27.79 10.87 27.96 10.15 27.32 9.18L27.32 9.18C27.19 8.98 26.93 8.94 26.75 9.07Z" stroke="#63C3D1" stroke-opacity="1.000000" stroke-width="1.000000"/>
		<path id="Vector" d="M17.44 17C17.57 17 17.69 16.95 17.78 16.86C19 15.6 19.2 14.19 19.4 12.82C19.57 11.63 19.73 10.51 20.53 9.48C22.17 7.35 25.25 7.48 27.28 8.83C27.49 8.97 27.77 8.92 27.91 8.73C28.06 8.54 28.01 8.28 27.8 8.14C25.41 6.55 21.76 6.43 19.8 8.99C18.87 10.19 18.69 11.47 18.51 12.71C18.32 14 18.14 15.23 17.11 16.28C16.94 16.46 16.96 16.73 17.14 16.89C17.23 16.96 17.34 17 17.44 17Z" fill="#63C3D1" fill-opacity="1.000000" fill-rule="nonzero"/>
		<path id="Vector" d="M17.78 16.86C19 15.6 19.2 14.19 19.4 12.82C19.57 11.63 19.73 10.51 20.53 9.48C22.17 7.35 25.25 7.48 27.28 8.83C27.49 8.97 27.77 8.92 27.91 8.73C28.06 8.54 28.01 8.28 27.8 8.14C25.41 6.55 21.76 6.43 19.8 8.99C18.87 10.19 18.69 11.47 18.51 12.71C18.32 14 18.14 15.23 17.11 16.28C16.94 16.46 16.96 16.73 17.14 16.89C17.23 16.96 17.34 17 17.44 17C17.57 17 17.69 16.95 17.78 16.86Z" stroke="#63C3D1" stroke-opacity="1.000000" stroke-width="1.000000"/>
	</g>
</svg>
