<svg width="87.000000" height="76.000000" viewBox="0 0 87 76" fill="none" xmlns="http://www.w3.org/2000/svg" xmlns:xlink="http://www.w3.org/1999/xlink">
	<desc>
			Created with Pixso.
	</desc>
	<defs>
		<clipPath id="clip4451_13497">
			<rect id="_Р»РѕР№_1" rx="-0.500000" width="86.000000" height="75.000000" transform="translate(0.500000 0.500000)" fill="white" fill-opacity="0"/>
		</clipPath>
	</defs>
	<rect id="_Р»РѕР№_1" rx="-0.500000" width="86.000000" height="75.000000" transform="translate(0.500000 0.500000)" fill="#FFFFFF" fill-opacity="0"/>
	<g clip-path="url(#clip4451_13497)">
		<path id="Vector" d="M42.35 37.69C40.12 37.69 38.31 35.89 38.31 33.66C38.31 31.42 40.12 29.62 42.35 29.62C44.58 29.62 46.39 31.42 46.39 33.66C46.39 35.89 44.58 37.69 42.35 37.69Z" stroke="#FFFFFF" stroke-opacity="1.000000" stroke-width="2.280000"/>
		<path id="Vector" d="M62.55 37.69C60.32 37.69 58.51 35.89 58.51 33.66C58.51 31.42 60.32 29.62 62.55 29.62C64.79 29.62 66.59 31.42 66.59 33.66C66.59 35.89 64.79 37.69 62.55 37.69Z" stroke="#FFFFFF" stroke-opacity="1.000000" stroke-width="2.280000"/>
		<path id="Vector" d="M22.16 37.69C19.93 37.69 18.12 35.89 18.12 33.66C18.12 31.42 19.93 29.62 22.16 29.62C24.4 29.62 26.2 31.42 26.2 33.66C26.2 35.89 24.4 37.69 22.16 37.69Z" stroke="#FFFFFF" stroke-opacity="1.000000" stroke-width="2.280000"/>
		<path id="Vector" d="M12 64L7.07 64C3.71 64 1 61.28 1 57.94L1 8.05C1 4.7 3.72 2 7.07 2L48 2" stroke="#FFFFFF" stroke-opacity="1.000000" stroke-width="2.280000"/>
		<path id="Vector" d="M85 31L85 57.94C85 61.29 82.3 64 78.98 64L22 64" stroke="#FFFFFF" stroke-opacity="1.000000" stroke-width="2.280000"/>
		<path id="Vector 225" d="M85 31L85 7C85 4.23 82.76 2 80 2L47 2" stroke="#FFFFFF" stroke-opacity="1.000000" stroke-width="2.300000" stroke-linejoin="round" stroke-linecap="round"/>
		<path id="Vector" d="M11 64L22.4 74.28C24.1 75.81 27 74.73 27 72.56L27 64.01" stroke="#FFFFFF" stroke-opacity="1.000000" stroke-width="2.280000"/>
	</g>
</svg>
