<svg width="14.833984" height="18.167969" viewBox="0 0 14.834 18.168" fill="none" xmlns="http://www.w3.org/2000/svg" xmlns:xlink="http://www.w3.org/1999/xlink">
	<desc>
			Created with Pixso.
	</desc>
	<defs/>
	<path id="Icon" d="M9.08 0.97L9.08 4.41C9.08 4.88 9.08 5.11 9.17 5.29C9.25 5.45 9.38 5.57 9.53 5.66C9.71 5.75 9.94 5.75 10.41 5.75L13.85 5.75M4.75 17.41C3.34 17.41 2.65 17.41 2.11 17.14C1.64 16.9 1.26 16.52 1.02 16.05C0.75 15.51 0.75 14.81 0.75 13.41L0.75 4.75C0.75 3.35 0.75 2.64 1.02 2.11C1.26 1.64 1.64 1.26 2.11 1.02C2.65 0.75 3.34 0.75 4.75 0.75L7.42 0.75C8.03 0.75 8.34 0.75 8.63 0.82C8.88 0.87 9.13 0.98 9.35 1.11C9.6 1.27 9.82 1.48 10.25 1.92L12.91 4.57C13.34 5.01 13.56 5.22 13.71 5.48C13.85 5.7 13.95 5.94 14.01 6.2C14.08 6.48 14.08 6.79 14.08 7.4L14.08 13.41C14.08 14.81 14.08 15.51 13.81 16.05C13.57 16.52 13.18 16.9 12.71 17.14C12.18 17.41 11.48 17.41 10.08 17.41L4.75 17.41ZM9.08 13.25L4.08 13.25M10.75 9.91L4.08 9.91" stroke="#FFFFFF" stroke-opacity="1.000000" stroke-width="1.500000" stroke-linejoin="round" stroke-linecap="round"/>
</svg>
