<svg width="18.000000" height="18.000000" viewBox="0 0 18 18" fill="none" xmlns="http://www.w3.org/2000/svg" xmlns:xlink="http://www.w3.org/1999/xlink">
	<desc>
			Created with Pixso.
	</desc>
	<defs>
		<clipPath id="clip5180_9497">
			<rect id="system icon/16px/Search" rx="-0.500000" width="17.000000" height="17.000000" transform="translate(0.500000 0.500000)" fill="white" fill-opacity="0"/>
		</clipPath>
	</defs>
	<rect id="system icon/16px/Search" rx="-0.500000" width="17.000000" height="17.000000" transform="translate(0.500000 0.500000)" fill="#FFFFFF" fill-opacity="0"/>
	<g clip-path="url(#clip5180_9497)">
		<path id="Vector (Stroke)" d="M8.15 3.37C5.51 3.37 3.37 5.51 3.37 8.15C3.37 10.79 5.51 12.93 8.15 12.93C10.79 12.93 12.93 10.79 12.93 8.15C12.93 5.51 10.79 3.37 8.15 3.37ZM1.12 8.15C1.12 4.27 4.27 1.12 8.15 1.12C12.03 1.12 15.18 4.27 15.18 8.15C15.18 12.03 12.03 15.18 8.15 15.18C4.27 15.18 1.12 12.03 1.12 8.15Z" fill="#B2BAC6" fill-opacity="1.000000" fill-rule="evenodd"/>
		<path id="Vector (Stroke)" d="M11.58 11.57C12.01 11.14 12.73 11.14 13.16 11.57L16.54 14.95C16.98 15.39 16.98 16.1 16.54 16.54C16.1 16.98 15.39 16.98 14.95 16.54L11.58 13.17C11.14 12.73 11.14 12.01 11.58 11.57Z" fill="#B2BAC6" fill-opacity="1.000000" fill-rule="evenodd"/>
	</g>
</svg>
