<svg width="86.300781" height="75.234375" viewBox="0 0 86.3008 75.2344" fill="none" xmlns="http://www.w3.org/2000/svg" xmlns:xlink="http://www.w3.org/1999/xlink">
	<desc>
			Created with Pixso.
	</desc>
	<defs/>
	<path id="Vector" d="M41.34 40.5L41.34 37.96C41.34 33.51 43.69 29.8 47.95 27.48C50.38 26.16 51.82 23.59 51.69 20.78C51.52 17.08 48.49 14.05 44.78 13.87C42.78 13.78 40.87 14.5 39.42 15.87C37.97 17.25 37.17 19.12 37.17 21.12C37.17 22.5 36.06 23.6 34.69 23.6C33.32 23.6 32.21 22.5 32.21 21.12C32.21 17.75 33.55 14.61 35.99 12.28C38.43 9.95 41.64 8.76 45.01 8.91C51.25 9.2 56.36 14.32 56.65 20.55C56.87 25.21 54.38 29.66 50.32 31.85C47.66 33.3 46.31 35.34 46.31 37.96L46.31 40.5C46.31 41.87 45.2 42.98 43.83 42.98L43.82 42.98C42.45 42.98 41.34 41.87 41.34 40.5Z" stroke="#FFFFFF" stroke-opacity="1.000000" stroke-width="2.280000"/>
	<path id="Vector" d="M43.8 55.98C41.87 55.98 40.31 54.41 40.31 52.48C40.31 50.56 41.87 49 43.8 49C45.72 49 47.29 50.56 47.29 52.48C47.29 54.41 45.72 55.98 43.8 55.98Z" stroke="#FFFFFF" stroke-opacity="1.000000" stroke-width="2.280000"/>
	<path id="Vector" d="M65.74 63.05L7.17 63.05C3.83 63.05 1.14 60.33 1.14 57.01L1.14 7.17C1.14 3.83 3.85 1.14 7.17 1.14L79.12 1.14C82.46 1.14 85.16 3.85 85.16 7.17L85.16 57.01C85.16 60.35 82.45 63.05 79.12 63.05L74.71 63.05" stroke="#FFFFFF" stroke-opacity="1.000000" stroke-width="2.280000"/>
	<path id="Vector" d="M74.71 63.05L64.39 73.37C62.84 74.91 60.23 73.82 60.23 71.65L60.23 63.06" stroke="#FFFFFF" stroke-opacity="1.000000" stroke-width="2.280000"/>
</svg>
