<svg width="332.000000" height="213.000000" viewBox="0 0 332 213" fill="none" xmlns="http://www.w3.org/2000/svg" xmlns:xlink="http://www.w3.org/1999/xlink">
	<desc>
			Created with Pixso.
	</desc>
	<defs>
		<clipPath id="clip8376_16051">
			<rect id="нить - сердце_фон" rx="0.000000" width="331.000000" height="212.000000" transform="translate(0.500000 0.500000)" fill="white" fill-opacity="0"/>
		</clipPath>
	</defs>
	<rect id="нить - сердце_фон" rx="0.000000" width="331.000000" height="212.000000" transform="translate(0.500000 0.500000)" fill="#FFFFFF" fill-opacity="0"/>
	<g clip-path="url(#clip8376_16051)">
		<path id="Vector" d="M60.56 119.37C52.24 124.97 44.4 131.77 37.11 139.74C27.82 149.9 20.65 161.71 13.69 173.13C7.2 183.8 0.49 194.84 -7.88 204.42C-20.36 218.69 -35.57 229.74 -52.37 237.45C-42.58 221.21 -35.48 203.84 -31.09 185.42C-29.86 180.28 -28.82 175 -28.03 169.74C-24 143.49 -22.13 110.45 -43.77 87.62C-56.56 74.12 -71.64 68.28 -88.54 70.24C-106.89 72.4 -123.28 84.68 -131.31 102.35C-136.31 113.35 -138.94 122.67 -139.95 130.52C-147.17 126.75 -156.61 123.83 -168.94 122.5C-186.22 120.61 -203.36 126.87 -214.76 139.2C-226.6 152.05 -230.93 167.51 -227.53 185.12C-224.1 202.96 -212.95 218.93 -196.9 228.93C-167.08 247.5 -131.6 255.75 -96.97 252.17C-83.52 250.78 -70.57 247.59 -58.44 242.8C-64.92 252.62 -81.8 270.62 -80.19 271.76C-78.95 272.67 -75.39 268.36 -75.39 268.36C-67.58 259.71 -60.63 250.68 -54.64 241.22C-35.99 233.19 -19.41 221.27 -6.1 206.02C2.42 196.28 9.18 185.14 15.7 174.39C22.59 163.06 29.71 151.34 38.84 141.36C46.51 132.97 54.85 125.87 63.68 120.15L60.57 119.41L60.56 119.37ZM-56.13 239.13C-99.29 257.39 -152.1 254.09 -195.69 226.92C-211.18 217.28 -221.95 201.86 -225.25 184.67C-228.48 167.83 -224.37 153.08 -213.04 140.82C-202.13 129.05 -185.74 123.06 -169.19 124.87C-156.7 126.22 -147.29 129.23 -140.23 133.09C-141.39 145.96 -138.08 154.67 -134.16 160.3C-131.2 164.54 -126.4 164.61 -123.18 162.87C-119.98 161.15 -117.41 157.11 -119.34 152.35C-122.06 145.57 -127.4 137.81 -137.76 131.78C-136.87 123.98 -134.29 114.61 -129.19 103.37C-127.22 99.04 -124.73 95.06 -121.83 91.49C-113.36 81.07 -101.33 74.14 -88.26 72.62C-72.13 70.73 -57.71 76.33 -45.47 89.27C-24.54 111.35 -26.38 143.7 -30.34 169.41C-31.13 174.61 -32.15 179.83 -33.37 184.9C-37.97 204.16 -45.58 222.27 -56.16 239.13L-56.13 239.13ZM-137.98 134.37C-128.77 140 -123.96 147.04 -121.49 153.21C-120.1 156.66 -121.88 159.51 -124.27 160.8C-126.67 162.11 -130.06 162.05 -132.22 158.96C-135.8 153.83 -138.8 145.96 -137.98 134.37Z" fill="#00ABDF" fill-opacity="1.000000" fill-rule="nonzero"/>
		<path id="Vector" d="M37.11 139.74C27.82 149.9 20.65 161.71 13.69 173.13C7.2 183.8 0.49 194.84 -7.88 204.42C-20.36 218.69 -35.57 229.74 -52.37 237.45C-42.58 221.21 -35.48 203.84 -31.09 185.42C-29.86 180.28 -28.82 175 -28.03 169.74C-24 143.49 -22.13 110.45 -43.77 87.62C-56.56 74.12 -71.64 68.28 -88.54 70.24C-106.89 72.4 -123.28 84.68 -131.31 102.35C-136.31 113.35 -138.94 122.67 -139.95 130.52C-147.17 126.75 -156.61 123.83 -168.94 122.5C-186.22 120.61 -203.36 126.87 -214.76 139.2C-226.6 152.05 -230.93 167.51 -227.53 185.12C-224.1 202.96 -212.95 218.93 -196.9 228.93C-167.08 247.5 -131.6 255.75 -96.97 252.17C-83.52 250.78 -70.57 247.59 -58.44 242.8C-64.92 252.62 -81.8 270.62 -80.19 271.76C-78.95 272.67 -75.39 268.36 -75.39 268.36C-67.58 259.71 -60.63 250.68 -54.64 241.22C-35.99 233.19 -19.41 221.27 -6.1 206.02C2.42 196.28 9.18 185.14 15.7 174.39C22.59 163.06 29.71 151.34 38.84 141.36C46.51 132.97 54.85 125.87 63.68 120.15L60.57 119.41L60.56 119.37C52.24 124.97 44.4 131.77 37.11 139.74ZM-195.69 226.92C-211.18 217.28 -221.95 201.86 -225.25 184.67C-228.48 167.83 -224.37 153.08 -213.04 140.82C-202.13 129.05 -185.74 123.06 -169.19 124.87C-156.7 126.22 -147.29 129.23 -140.23 133.09C-141.39 145.96 -138.08 154.67 -134.16 160.3C-131.2 164.54 -126.4 164.61 -123.18 162.87C-119.98 161.15 -117.41 157.11 -119.34 152.35C-122.06 145.57 -127.4 137.81 -137.76 131.78C-136.87 123.98 -134.29 114.61 -129.19 103.37C-127.22 99.04 -124.73 95.06 -121.83 91.49C-113.36 81.07 -101.33 74.14 -88.26 72.62C-72.13 70.73 -57.71 76.33 -45.47 89.27C-24.54 111.35 -26.38 143.7 -30.34 169.41C-31.13 174.61 -32.15 179.83 -33.37 184.9C-37.97 204.16 -45.58 222.27 -56.16 239.13L-56.13 239.13C-99.29 257.39 -152.1 254.09 -195.69 226.92ZM-121.49 153.21C-120.1 156.66 -121.88 159.51 -124.27 160.8C-126.67 162.11 -130.06 162.05 -132.22 158.96C-135.8 153.83 -138.8 145.96 -137.98 134.37C-128.77 140 -123.96 147.04 -121.49 153.21Z" stroke="#00ABDF" stroke-opacity="1.000000" stroke-width="1.000000" stroke-linejoin="round"/>
		<path id="Vector" d="M311.43 162.24C311.43 162.24 254.26 186.59 219.04 145.8C206.68 131.48 211.39 101.14 221.55 92.63C232.72 83.27 242.16 100.13 231.09 105.37C221.76 109.78 180 104.18 180 104.18C96.26 99.55 89.64 33.87 111.31 27.92C129.25 23.03 133.32 47.44 127.71 45.66C114.55 41.46 142.49 20.14 156.34 30.84C177.12 46.84 144.81 79.41 110.43 97.33C90.35 107.79 77.16 108.78 57.43 122.85" stroke="#00ABDF" stroke-opacity="1.000000" stroke-width="3.000000" stroke-linecap="round"/>
	</g>
</svg>
