<svg width="57.000000" height="57.000000" viewBox="0 0 57 57" fill="none" xmlns="http://www.w3.org/2000/svg" xmlns:xlink="http://www.w3.org/1999/xlink">
	<desc>
			Created with Pixso.
	</desc>
	<defs/>
	<path id="Vector" d="M31.11 52.4C28.1 54.35 24.51 55.5 20.66 55.5C10.07 55.5 1.5 46.92 1.5 36.33C1.5 22.4 20.66 1.5 20.66 1.5C20.66 1.5 29.41 11.04 35.08 21.53" stroke="#00ABDF" stroke-opacity="1.000000" stroke-width="3.000000" stroke-linejoin="round" stroke-linecap="round"/>
	<path id="Vector" d="M55.5 36.33L45.91 36.33L45.91 26.75L36.33 26.75L36.33 36.33L26.75 36.33L26.75 40.69" stroke="#95C11F" stroke-opacity="1.000000" stroke-width="3.000000" stroke-linejoin="round" stroke-linecap="round"/>
	<path id="Vector" d="M12.82 36.33C12.82 41.63 16.02 45.92 21.31 45.92C21.31 45.92 20.78 45.92 20.87 45.92" stroke="#00ABDF" stroke-opacity="1.000000" stroke-width="3.000000" stroke-linejoin="round" stroke-linecap="round"/>
	<path id="Vector" d="M26.75 45.91L36.33 45.91L36.33 55.49L45.91 55.49L45.91 45.91L55.5 45.91L55.5 41.56" stroke="#95C11F" stroke-opacity="1.000000" stroke-width="3.000000" stroke-linejoin="round" stroke-linecap="round"/>
</svg>
