<svg width="20.000000" height="22.000000" viewBox="0 0 20 22" fill="none" xmlns="http://www.w3.org/2000/svg" xmlns:xlink="http://www.w3.org/1999/xlink">
	<desc>
			Created with Pixso.
	</desc>
	<defs/>
	<path id="Icon" d="M13 5L13 9.5C13 10.05 13 10.32 13.06 10.58C13.12 10.8 13.22 11.02 13.36 11.21C13.51 11.42 13.72 11.6 14.15 11.96L17.84 15.03C18.27 15.39 18.48 15.57 18.63 15.78C18.77 15.97 18.87 16.19 18.93 16.41C19 16.67 19 16.94 19 17.5L19 17.8C19 18.92 19 19.48 18.78 19.9C18.58 20.28 18.28 20.58 17.9 20.78C17.48 21 16.91 21 15.79 21L4.2 21C3.08 21 2.51 21 2.09 20.78C1.71 20.58 1.41 20.28 1.21 19.9C1 19.48 1 18.92 1 17.8L1 17.5C1 16.94 1 16.67 1.06 16.41C1.12 16.19 1.22 15.97 1.36 15.78C1.51 15.57 1.72 15.39 2.15 15.03L5.84 11.96C6.27 11.6 6.48 11.42 6.63 11.21C6.77 11.02 6.87 10.8 6.93 10.58C7 10.32 7 10.05 7 9.5L7 5M13.7 1C13.98 1 14.12 1 14.22 1.05C14.32 1.1 14.39 1.17 14.44 1.27C14.5 1.37 14.5 1.51 14.5 1.8L14.5 4.19C14.5 4.48 14.5 4.62 14.44 4.72C14.39 4.82 14.32 4.89 14.22 4.94C14.12 5 13.98 5 13.7 5L6.29 5C6.01 5 5.87 5 5.77 4.94C5.67 4.89 5.6 4.82 5.55 4.72C5.5 4.62 5.5 4.48 5.5 4.19L5.5 1.8C5.5 1.51 5.5 1.37 5.55 1.27C5.6 1.17 5.67 1.1 5.77 1.05C5.87 1 6.01 1 6.29 1L13.7 1ZM16.5 16C16.96 16 17.19 16 17.39 16.03C18.18 16.19 18.8 16.81 18.96 17.6C19 17.8 19 18.03 19 18.5C19 18.96 19 19.19 18.96 19.39C18.8 20.18 18.18 20.8 17.39 20.96C17.19 21 16.96 21 16.5 21L3.5 21C3.03 21 2.8 21 2.6 20.96C1.81 20.8 1.19 20.18 1.03 19.39C1 19.19 1 18.96 1 18.5C1 18.03 1 17.8 1.03 17.6C1.19 16.81 1.81 16.19 2.6 16.03C2.8 16 3.03 16 3.5 16L16.5 16Z" stroke="#00ABDF" stroke-opacity="1.000000" stroke-width="2.000000" stroke-linejoin="round" stroke-linecap="round"/>
</svg>
