<svg viewBox="0 0 18.0625 14" xmlns="http://www.w3.org/2000/svg" xmlns:xlink="http://www.w3.org/1999/xlink" width="18.062500" height="14.000000" fill="none" customFrame="#000000">
	<path id="Icon" d="M1 5.16667C0.539763 5.16667 0.166667 5.53976 0.166667 6C0.166667 6.46024 0.539763 6.83333 1 6.83333L1 6L1 5.16667ZM14.3333 6L14.9226 6.58926C15.248 6.26382 15.248 5.73618 14.9226 5.41074L14.3333 6ZM9.92259 0.410744C9.59715 0.0853075 9.06951 0.0853075 8.74408 0.410744C8.41864 0.736181 8.41864 1.26382 8.74408 1.58926L9.33333 1L9.92259 0.410744ZM8.74408 10.4107C8.41864 10.7362 8.41864 11.2638 8.74408 11.5893C9.06951 11.9147 9.59715 11.9147 9.92259 11.5893L9.33333 11L8.74408 10.4107ZM1 6L1 6.83333L14.3333 6.83333L14.3333 6L14.3333 5.16667L1 5.16667L1 6ZM9.33333 1L8.74408 1.58926L13.7441 6.58926L14.3333 6L14.9226 5.41074L9.92259 0.410744L9.33333 1ZM14.3333 6L13.7441 5.41074L8.74408 10.4107L9.33333 11L9.92259 11.5893L14.9226 6.58926L14.3333 6Z" fill-rule="nonzero" stroke="rgb(255,255,255)" stroke-linecap="round" stroke-linejoin="round" stroke-width="1.666667" />
</svg>
