<svg width="60.000000" height="60.000000" viewBox="0 0 60 60" fill="none" xmlns="http://www.w3.org/2000/svg" xmlns:xlink="http://www.w3.org/1999/xlink">
	<desc>
			Created with Pixso.
	</desc>
	<defs>
		<clipPath id="clip6101_15587">
			<rect id="Capa_1" rx="-0.500000" width="59.000000" height="59.000000" transform="translate(0.500000 0.500000)" fill="white" fill-opacity="0"/>
		</clipPath>
	</defs>
	<rect id="Capa_1" rx="-0.500000" width="59.000000" height="59.000000" transform="translate(0.500000 0.500000)" fill="#FFFFFF" fill-opacity="0"/>
	<g clip-path="url(#clip6101_15587)">
		<path id="Vector" d="M32.61 54.9C29.6 56.85 26.01 58 22.16 58C11.57 58 3 49.42 3 38.83C3 24.9 22.16 4 22.16 4C22.16 4 30.91 13.54 36.58 24.03" stroke="#00ABDF" stroke-opacity="1.000000" stroke-width="3.000000" stroke-linejoin="round" stroke-linecap="round"/>
		<path id="Vector" d="M57 38.83L47.41 38.83L47.41 29.25L37.83 29.25L37.83 38.83L28.25 38.83L28.25 43.19" stroke="#95C11F" stroke-opacity="1.000000" stroke-width="3.000000" stroke-linejoin="round" stroke-linecap="round"/>
		<path id="Vector" d="M14.32 38.83C14.32 44.13 17.52 48.42 22.81 48.42C22.81 48.42 22.28 48.42 22.37 48.42" stroke="#00ABDF" stroke-opacity="1.000000" stroke-width="3.000000" stroke-linejoin="round" stroke-linecap="round"/>
		<path id="Vector" d="M28.25 48.41L37.83 48.41L37.83 57.99L47.41 57.99L47.41 48.41L57 48.41L57 44.06" stroke="#95C11F" stroke-opacity="1.000000" stroke-width="3.000000" stroke-linejoin="round" stroke-linecap="round"/>
	</g>
</svg>
