<svg viewBox="0 0 40 44.0005" xmlns="http://www.w3.org/2000/svg" xmlns:xlink="http://www.w3.org/1999/xlink" width="40.000000" height="44.000488" fill="none" customFrame="#000000">
	<path id="Icon" d="M2 4.50049C1.53976 4.50049 1.16667 4.87358 1.16667 5.33382C1.16667 5.79406 1.53976 6.16716 2 6.16716L2 5.33382L2 4.50049ZM17 6.16716C17.4602 6.16716 17.8333 5.79406 17.8333 5.33382C17.8333 4.87358 17.4602 4.50049 17 4.50049L17 5.33382L17 6.16716ZM16.1667 5.33382C16.1667 4.87358 15.7936 4.50049 15.3333 4.50049C14.8731 4.50049 14.5 4.87358 14.5 5.33382L15.3333 5.33382L16.1667 5.33382ZM3.66667 17.0005L2.83333 17.0005L3.66667 17.0005ZM5.33333 5.33382C5.33333 5.79406 5.70643 6.16716 6.16667 6.16716C6.6269 6.16716 7 5.79406 7 5.33382L6.16667 5.33382L5.33333 5.33382ZM7.83333 2.00049L7.83333 1.16716L7.83333 2.00049ZM11.1667 2.00049L11.1667 1.16716L11.1667 2.00049ZM12 5.33382C12 5.79406 12.3731 6.16716 12.8333 6.16716C13.2936 6.16716 13.6667 5.79406 13.6667 5.33382L12.8333 5.33382L12 5.33382ZM8.66667 9.50049C8.66667 9.04025 8.29357 8.66716 7.83333 8.66716C7.3731 8.66716 7 9.04025 7 9.50049L7.83333 9.50049L8.66667 9.50049ZM7 14.5005C7 14.9607 7.3731 15.3338 7.83333 15.3338C8.29357 15.3338 8.66667 14.9607 8.66667 14.5005L7.83333 14.5005L7 14.5005ZM12 9.50049C12 9.04025 11.6269 8.66716 11.1667 8.66716C10.7064 8.66716 10.3333 9.04025 10.3333 9.50049L11.1667 9.50049L12 9.50049ZM10.3333 14.5005C10.3333 14.9607 10.7064 15.3338 11.1667 15.3338C11.6269 15.3338 12 14.9607 12 14.5005L11.1667 14.5005L10.3333 14.5005ZM2 5.33382L2 6.16716L3.66667 6.16716L3.66667 5.33382L3.66667 4.50049L2 4.50049L2 5.33382ZM3.66667 5.33382L3.66667 6.16716L17 6.16716L17 5.33382L17 4.50049L3.66667 4.50049L3.66667 5.33382ZM15.3333 5.33382L14.5 5.33382L14.5 17.0005L15.3333 17.0005L16.1667 17.0005L16.1667 5.33382L15.3333 5.33382ZM15.3333 17.0005L14.5 17.0005C14.5 17.2215 14.4122 17.4335 14.2559 17.5897L14.8452 18.179L15.4344 18.7683C15.9033 18.2994 16.1667 17.6635 16.1667 17.0005L15.3333 17.0005ZM14.8452 18.179L14.2559 17.5897C14.0996 17.746 13.8877 17.8338 13.6667 17.8338L13.6667 18.6672L13.6667 19.5005C14.3297 19.5005 14.9656 19.2371 15.4344 18.7683L14.8452 18.179ZM13.6667 18.6672L13.6667 17.8338L5.33333 17.8338L5.33333 18.6672L5.33333 19.5005L13.6667 19.5005L13.6667 18.6672ZM5.33333 18.6672L5.33333 17.8338C5.11232 17.8338 4.90036 17.746 4.74408 17.5897L4.15482 18.179L3.56557 18.7683C4.03441 19.2371 4.67029 19.5005 5.33333 19.5005L5.33333 18.6672ZM4.15482 18.179L4.74408 17.5897C4.5878 17.4335 4.5 17.2215 4.5 17.0005L3.66667 17.0005L2.83333 17.0005C2.83333 17.6635 3.09673 18.2994 3.56557 18.7683L4.15482 18.179ZM3.66667 17.0005L4.5 17.0005L4.5 5.33382L3.66667 5.33382L2.83333 5.33382L2.83333 17.0005L3.66667 17.0005ZM6.16667 5.33382L7 5.33382L7 3.66716L6.16667 3.66716L5.33333 3.66716L5.33333 5.33382L6.16667 5.33382ZM6.16667 3.66716L7 3.66716C7 3.44614 7.0878 3.23418 7.24408 3.0779L6.65482 2.48864L6.06557 1.89939C5.59673 2.36823 5.33333 3.00411 5.33333 3.66716L6.16667 3.66716ZM6.65482 2.48864L7.24408 3.0779C7.40036 2.92162 7.61232 2.83382 7.83333 2.83382L7.83333 2.00049L7.83333 1.16716C7.17029 1.16716 6.53441 1.43055 6.06557 1.89939L6.65482 2.48864ZM7.83333 2.00049L7.83333 2.83382L11.1667 2.83382L11.1667 2.00049L11.1667 1.16716L7.83333 1.16716L7.83333 2.00049ZM11.1667 2.00049L11.1667 2.83382C11.3877 2.83382 11.5996 2.92162 11.7559 3.0779L12.3452 2.48864L12.9344 1.89939C12.4656 1.43055 11.8297 1.16716 11.1667 1.16716L11.1667 2.00049ZM12.3452 2.48864L11.7559 3.0779C11.9122 3.23418 12 3.44614 12 3.66716L12.8333 3.66716L13.6667 3.66716C13.6667 3.00411 13.4033 2.36823 12.9344 1.89939L12.3452 2.48864ZM12.8333 3.66716L12 3.66716L12 5.33382L12.8333 5.33382L13.6667 5.33382L13.6667 3.66716L12.8333 3.66716ZM7.83333 9.50049L7 9.50049L7 14.5005L7.83333 14.5005L8.66667 14.5005L8.66667 9.50049L7.83333 9.50049ZM11.1667 9.50049L10.3333 9.50049L10.3333 14.5005L11.1667 14.5005L12 14.5005L12 9.50049L11.1667 9.50049Z" fill-rule="evenodd" stroke="rgb(52.36,64.3908,83.64)" stroke-linecap="round" stroke-linejoin="round" stroke-width="1.66666663" />
</svg>
