<svg width="17" height="19" viewBox="0 0 17 19" fill="none" xmlns="http://www.w3.org/2000/svg">
<path d="M0.833008 4.16671H2.49967M2.49967 4.16671H15.833M2.49967 4.16671V15.8334C2.49967 16.2754 2.67527 16.6993 2.98783 17.0119C3.30039 17.3244 3.72431 17.5 4.16634 17.5H12.4997C12.9417 17.5 13.3656 17.3244 13.6782 17.0119C13.9907 16.6993 14.1663 16.2754 14.1663 15.8334V4.16671M4.99967 4.16671V2.50004C4.99967 2.05801 5.17527 1.63409 5.48783 1.32153C5.80039 1.00897 6.22431 0.833374 6.66634 0.833374H9.99967C10.4417 0.833374 10.8656 1.00897 11.1782 1.32153C11.4907 1.63409 11.6663 2.05801 11.6663 2.50004V4.16671M6.66634 8.33337V13.3334M9.99967 8.33337V13.3334" stroke="#344054" stroke-width="1.66667" stroke-linecap="round" stroke-linejoin="round"/>
</svg>
