<svg viewBox="0 0 15.75 15.75" xmlns="http://www.w3.org/2000/svg" xmlns:xlink="http://www.w3.org/1999/xlink" width="15.750000" height="15.750000" fill="none" customFrame="#000000">
	<g id="Group">
		<path id="Vector (Stroke)" d="M7.03125 2.25C4.39064 2.25 2.25 4.39064 2.25 7.03125C2.25 9.67186 4.39064 11.8125 7.03125 11.8125C9.67186 11.8125 11.8125 9.67186 11.8125 7.03125C11.8125 4.39064 9.67186 2.25 7.03125 2.25ZM0 7.03125C0 3.148 3.148 0 7.03125 0C10.9145 0 14.0625 3.148 14.0625 7.03125C14.0625 10.9145 10.9145 14.0625 7.03125 14.0625C3.148 14.0625 0 10.9145 0 7.03125Z" fill="rgb(207.672,212.894,220.728)" fill-rule="evenodd" />
		<path id="Vector (Stroke)" d="M10.4545 10.4545C10.8938 10.0152 11.6062 10.0152 12.0455 10.4545L15.4205 13.8295C15.8598 14.2688 15.8598 14.9812 15.4205 15.4205C14.9812 15.8598 14.2688 15.8598 13.8295 15.4205L10.4545 12.0455C10.0152 11.6062 10.0152 10.8938 10.4545 10.4545Z" fill="rgb(207.672,212.894,220.728)" fill-rule="evenodd" />
	</g>
</svg>
