<svg viewBox="0 0 18.001 22.001" xmlns="http://www.w3.org/2000/svg" xmlns:xlink="http://www.w3.org/1999/xlink" width="18.000977" height="22.000977" fill="none" customFrame="#000000">
	<path id="Icon" d="M15.0843 7.38883C15.0843 6.97462 14.7485 6.63883 14.3343 6.63883C13.9201 6.63883 13.5843 6.97462 13.5843 7.38883L14.3343 7.38883L15.0843 7.38883ZM1.75098 7.38883C1.75098 6.97462 1.41519 6.63883 1.00098 6.63883C0.586763 6.63883 0.250977 6.97462 0.250977 7.38883L1.00098 7.38883L1.75098 7.38883ZM15.0843 11.275C15.0843 10.8608 14.7485 10.525 14.3343 10.525C13.9201 10.525 13.5843 10.8608 13.5843 11.275L14.3343 11.275L15.0843 11.275ZM1.75098 11.275C1.75098 10.8608 1.41519 10.525 1.00098 10.525C0.586763 10.525 0.250977 10.8608 0.250977 11.275L1.00098 11.275L1.75098 11.275ZM14.3343 3.5L13.5843 3.5C13.5843 3.55367 13.558 3.69458 13.3129 3.91192C13.0686 4.12848 12.6724 4.35777 12.1183 4.56552C11.0159 4.97895 9.44247 5.25 7.66764 5.25L7.66764 6L7.66764 6.75C9.57472 6.75 11.3347 6.4614 12.645 5.97001C13.2974 5.72536 13.8775 5.41594 14.308 5.03431C14.7375 4.65345 15.0843 4.13669 15.0843 3.5L14.3343 3.5ZM7.66764 6L7.66764 5.25C5.89282 5.25 4.31943 4.97895 3.21694 4.56552C2.66293 4.35777 2.26669 4.12848 2.02243 3.91192C1.7773 3.69458 1.75098 3.55367 1.75098 3.5L1.00098 3.5L0.250977 3.5C0.250977 4.13669 0.597751 4.65345 1.02732 5.03431C1.45777 5.41594 2.03784 5.72536 2.69026 5.97001C4.00063 6.4614 5.76057 6.75 7.66764 6.75L7.66764 6ZM1.00098 3.5L1.75098 3.5C1.75098 3.44633 1.7773 3.30542 2.02243 3.08808C2.26669 2.87152 2.66293 2.64223 3.21694 2.43448C4.31943 2.02105 5.89282 1.75 7.66764 1.75L7.66764 1L7.66764 0.25C5.76057 0.25 4.00063 0.538597 2.69026 1.02999C2.03784 1.27464 1.45777 1.58406 1.02732 1.96569C0.597751 2.34655 0.250977 2.86331 0.250977 3.5L1.00098 3.5ZM7.66764 1L7.66764 1.75C9.44247 1.75 11.0159 2.02105 12.1183 2.43448C12.6724 2.64223 13.0686 2.87152 13.3129 3.08808C13.558 3.30542 13.5843 3.44633 13.5843 3.5L14.3343 3.5L15.0843 3.5C15.0843 2.86331 14.7375 2.34655 14.308 1.96569C13.8775 1.58406 13.2974 1.27464 12.645 1.02999C11.3347 0.538597 9.57472 0.25 7.66764 0.25L7.66764 1ZM14.3343 7.38883L13.5843 7.38883C13.5843 7.4425 13.558 7.58342 13.3129 7.80075C13.0686 8.01731 12.6724 8.2466 12.1183 8.45435C11.0159 8.86779 9.44247 9.13883 7.66764 9.13883L7.66764 9.88883L7.66764 10.6388C9.57472 10.6388 11.3347 10.3502 12.645 9.85885C13.2974 9.61419 13.8775 9.30477 14.308 8.92314C14.7375 8.54228 15.0843 8.02552 15.0843 7.38883L14.3343 7.38883ZM7.66764 9.88883L7.66764 9.13883C5.89282 9.13883 4.31943 8.86779 3.21694 8.45435C2.66293 8.2466 2.26669 8.01731 2.02243 7.80075C1.7773 7.58342 1.75098 7.4425 1.75098 7.38883L1.00098 7.38883L0.250977 7.38883C0.250977 8.02552 0.597751 8.54228 1.02732 8.92314C1.45777 9.30477 2.03784 9.61419 2.69026 9.85885C4.00063 10.3502 5.76057 10.6388 7.66764 10.6388L7.66764 9.88883ZM14.3343 11.275L13.5843 11.275C13.5843 11.3287 13.558 11.4696 13.3129 11.6869C13.0686 11.9035 12.6724 12.1328 12.1183 12.3405C11.0159 12.754 9.44247 13.025 7.66764 13.025L7.66764 13.775L7.66764 14.525C9.57472 14.525 11.3347 14.2364 12.645 13.745C13.2974 13.5004 13.8775 13.1909 14.308 12.8093C14.7375 12.4285 15.0843 11.9117 15.0843 11.275L14.3343 11.275ZM7.66764 13.775L7.66764 13.025C5.89282 13.025 4.31943 12.754 3.21694 12.3405C2.66293 12.1328 2.26669 11.9035 2.02243 11.6869C1.7773 11.4696 1.75098 11.3287 1.75098 11.275L1.00098 11.275L0.250977 11.275C0.250977 11.9117 0.597751 12.4285 1.02732 12.8093C1.45777 13.1909 2.03784 13.5004 2.69026 13.745C4.00063 14.2364 5.76057 14.525 7.66764 14.525L7.66764 13.775ZM14.3343 15.1667L13.5843 15.1667C13.5843 15.2203 13.558 15.3613 13.3129 15.5786C13.0686 15.7951 12.6724 16.0244 12.1183 16.2322C11.0159 16.6456 9.44247 16.9167 7.66764 16.9167L7.66764 17.6667L7.66764 18.4167C9.57472 18.4167 11.3347 18.1281 12.645 17.6367C13.2974 17.392 13.8775 17.0826 14.308 16.701C14.7375 16.3201 15.0843 15.8034 15.0843 15.1667L14.3343 15.1667ZM7.66764 17.6667L7.66764 16.9167C5.89282 16.9167 4.31943 16.6456 3.21694 16.2322C2.66293 16.0244 2.26669 15.7951 2.02243 15.5786C1.7773 15.3613 1.75098 15.2203 1.75098 15.1667L1.00098 15.1667L0.250977 15.1667C0.250977 15.8034 0.597751 16.3201 1.02732 16.701C1.45777 17.0826 2.03784 17.392 2.69026 17.6367C4.00063 18.1281 5.76057 18.4167 7.66764 18.4167L7.66764 17.6667ZM1.00098 15.1667L1.75098 15.1667L1.75098 3.5L1.00098 3.5L0.250977 3.5L0.250977 15.1667L1.00098 15.1667ZM14.3343 15.1667L15.0843 15.1667L15.0843 3.5L14.3343 3.5L13.5843 3.5L13.5843 15.1667L14.3343 15.1667Z" fill-rule="nonzero" stroke="rgb(0,171,223)" stroke-linecap="round" stroke-linejoin="round" stroke-width="1.5" />
</svg>
