<svg viewBox="0 0 20 22.0005" xmlns="http://www.w3.org/2000/svg" xmlns:xlink="http://www.w3.org/1999/xlink" width="20.000000" height="22.000488" fill="none" customFrame="#000000">
	<path id="Icon" d="M16 8.50049C16.4602 8.50049 16.8333 8.12739 16.8333 7.66716C16.8333 7.20692 16.4602 6.83382 16 6.83382L16 8.50049ZM1 6.83382C0.539763 6.83382 0.166667 7.20692 0.166667 7.66716C0.166667 8.12739 0.539763 8.50049 1 8.50049L1 6.83382ZM2.36502 17.3947L1.9867 18.1372L1.9867 18.1372L2.36502 17.3947ZM1.27248 16.3021L0.529978 16.6805L1.27248 16.3021ZM15.7275 16.3021L16.47 16.6805L15.7275 16.3021ZM14.635 17.3947L15.0133 18.1372L15.0133 18.1372L14.635 17.3947ZM14.635 2.93964L15.0133 2.19713L15.0133 2.19713L14.635 2.93964ZM15.7275 4.03218L16.47 3.65385L15.7275 4.03218ZM2.36502 2.93964L1.9867 2.19713L1.9867 2.19713L2.36502 2.93964ZM1.27248 4.03218L0.529978 3.65385L1.27248 4.03218ZM12.6667 1.00049C12.6667 0.540251 12.2936 0.167155 11.8333 0.167155C11.3731 0.167155 11 0.540251 11 1.00049L12.6667 1.00049ZM11 4.33382C11 4.79406 11.3731 5.16716 11.8333 5.16716C12.2936 5.16716 12.6667 4.79406 12.6667 4.33382L11 4.33382ZM6 1.00049C6 0.540251 5.6269 0.167155 5.16667 0.167155C4.70643 0.167155 4.33333 0.540251 4.33333 1.00049L6 1.00049ZM4.33333 4.33382C4.33333 4.79406 4.70643 5.16716 5.16667 5.16716C5.6269 5.16716 6 4.79406 6 4.33382L4.33333 4.33382ZM16 6.83382L1 6.83382L1 8.50049L16 8.50049L16 6.83382ZM5 3.50049L12 3.50049L12 1.83382L5 1.83382L5 3.50049ZM15.1667 6.66716L15.1667 13.6672L16.8333 13.6672L16.8333 6.66716L15.1667 6.66716ZM12 16.8338L5 16.8338L5 18.5005L12 18.5005L12 16.8338ZM1.83333 13.6672L1.83333 6.66715L0.166667 6.66715L0.166667 13.6672L1.83333 13.6672ZM5 16.8338C4.28618 16.8338 3.80094 16.8332 3.42586 16.8025C3.06052 16.7727 2.87368 16.7186 2.74335 16.6522L1.9867 18.1372C2.39114 18.3433 2.82173 18.4254 3.29014 18.4637C3.74883 18.5011 4.31368 18.5005 5 18.5005L5 16.8338ZM0.166667 13.6672C0.166667 14.3535 0.166019 14.9183 0.203495 15.377C0.241766 15.8454 0.323903 16.276 0.529978 16.6805L2.01499 15.9238C1.94858 15.7935 1.89448 15.6066 1.86463 15.2413C1.83398 14.8662 1.83333 14.381 1.83333 13.6672L0.166667 13.6672ZM2.74335 16.6522C2.42975 16.4924 2.17478 16.2374 2.01499 15.9238L0.529978 16.6805C0.849556 17.3077 1.35949 17.8176 1.9867 18.1372L2.74335 16.6522ZM15.1667 13.6672C15.1667 14.381 15.166 14.8662 15.1354 15.2413C15.1055 15.6066 15.0514 15.7935 14.985 15.9238L16.47 16.6805C16.6761 16.276 16.7582 15.8454 16.7965 15.377C16.834 14.9183 16.8333 14.3535 16.8333 13.6672L15.1667 13.6672ZM12 18.5005C12.6863 18.5005 13.2512 18.5011 13.7099 18.4637C14.1783 18.4254 14.6089 18.3433 15.0133 18.1372L14.2566 16.6522C14.1263 16.7186 13.9395 16.7727 13.5741 16.8025C13.1991 16.8332 12.7138 16.8338 12 16.8338L12 18.5005ZM14.985 15.9238C14.8252 16.2374 14.5703 16.4924 14.2566 16.6522L15.0133 18.1372C15.6405 17.8176 16.1504 17.3077 16.47 16.6805L14.985 15.9238ZM12 3.50049C12.7138 3.50049 13.1991 3.50114 13.5741 3.53178C13.9395 3.56163 14.1263 3.61574 14.2566 3.68214L15.0133 2.19713C14.6089 1.99106 14.1783 1.90892 13.7099 1.87065C13.2512 1.83317 12.6863 1.83382 12 1.83382L12 3.50049ZM16.8333 6.66716C16.8333 5.98084 16.834 5.41599 16.7965 4.9573C16.7582 4.48889 16.6761 4.0583 16.47 3.65385L14.985 4.4105C15.0514 4.54084 15.1055 4.72767 15.1354 5.09302C15.166 5.46809 15.1667 5.95334 15.1667 6.66716L16.8333 6.66716ZM14.2566 3.68214C14.5703 3.84193 14.8252 4.0969 14.985 4.4105L16.47 3.65385C16.1504 3.02665 15.6405 2.51671 15.0133 2.19713L14.2566 3.68214ZM5 1.83382C4.31369 1.83382 3.74883 1.83317 3.29014 1.87065C2.82173 1.90892 2.39114 1.99106 1.9867 2.19713L2.74335 3.68214C2.87368 3.61574 3.06052 3.56163 3.42586 3.53178C3.80094 3.50114 4.28618 3.50049 5 3.50049L5 1.83382ZM1.83333 6.66715C1.83333 5.95334 1.83398 5.46809 1.86463 5.09302C1.89448 4.72767 1.94858 4.54084 2.01499 4.4105L0.529978 3.65385C0.323903 4.0583 0.241766 4.48889 0.203495 4.9573C0.166019 5.41599 0.166667 5.98084 0.166667 6.66715L1.83333 6.66715ZM1.9867 2.19713C1.35949 2.51671 0.849556 3.02665 0.529978 3.65385L2.01499 4.4105C2.17478 4.0969 2.42975 3.84193 2.74335 3.68214L1.9867 2.19713ZM11 1.00049L11 4.33382L12.6667 4.33382L12.6667 1.00049L11 1.00049ZM4.33333 1.00049L4.33333 4.33382L6 4.33382L6 1.00049L4.33333 1.00049Z" fill-rule="nonzero" stroke="rgb(52.36,64.3908,83.64)" stroke-linecap="round" stroke-linejoin="round" stroke-width="1.66666663" />
</svg>
