<svg viewBox="0 0 20 22" xmlns="http://www.w3.org/2000/svg" xmlns:xlink="http://www.w3.org/1999/xlink" width="20.000000" height="22.000000" fill="none" customFrame="#000000">
	<path id="Icon" d="M16 8.5C16.4602 8.5 16.8333 8.1269 16.8333 7.66667C16.8333 7.20643 16.4602 6.83333 16 6.83333L16 7.66667L16 8.5ZM1 6.83333C0.539763 6.83333 0.166667 7.20643 0.166667 7.66667C0.166667 8.1269 0.539763 8.5 1 8.5L1 7.66667L1 6.83333ZM2.36502 17.3942L1.9867 18.1367L1.9867 18.1367L2.36502 17.3942ZM1.27248 16.3016L0.529978 16.68L1.27248 16.3016ZM15.7275 16.3016L16.47 16.68L15.7275 16.3016ZM14.635 17.3942L15.0133 18.1367L15.0133 18.1367L14.635 17.3942ZM14.635 2.93915L15.0133 2.19665L15.0133 2.19665L14.635 2.93915ZM15.7275 4.03169L16.47 3.65337L15.7275 4.03169ZM2.36502 2.93915L1.9867 2.19665L1.9867 2.19665L2.36502 2.93915ZM1.27248 4.03169L0.529978 3.65337L1.27248 4.03169ZM12.6667 1C12.6667 0.539763 12.2936 0.166667 11.8333 0.166667C11.3731 0.166667 11 0.539763 11 1L11.8333 1L12.6667 1ZM11 4.33333C11 4.79357 11.3731 5.16667 11.8333 5.16667C12.2936 5.16667 12.6667 4.79357 12.6667 4.33333L11.8333 4.33333L11 4.33333ZM6 1C6 0.539763 5.6269 0.166667 5.16667 0.166667C4.70643 0.166667 4.33333 0.539763 4.33333 1L5.16667 1L6 1ZM4.33333 4.33333C4.33333 4.79357 4.70643 5.16667 5.16667 5.16667C5.6269 5.16667 6 4.79357 6 4.33333L5.16667 4.33333L4.33333 4.33333ZM16 7.66667L16 6.83333L1 6.83333L1 7.66667L1 8.5L16 8.5L16 7.66667ZM5 2.66667L5 3.5L12 3.5L12 2.66667L12 1.83333L5 1.83333L5 2.66667ZM16 6.66667L15.1667 6.66667L15.1667 13.6667L16 13.6667L16.8333 13.6667L16.8333 6.66667L16 6.66667ZM12 17.6667L12 16.8333L5 16.8333L5 17.6667L5 18.5L12 18.5L12 17.6667ZM1 13.6667L1.83333 13.6667L1.83333 6.66667L1 6.66667L0.166667 6.66667L0.166667 13.6667L1 13.6667ZM5 17.6667L5 16.8333C4.28618 16.8333 3.80094 16.8327 3.42586 16.802C3.06052 16.7722 2.87368 16.7181 2.74335 16.6517L2.36502 17.3942L1.9867 18.1367C2.39114 18.3428 2.82173 18.4249 3.29014 18.4632C3.74883 18.5006 4.31368 18.5 5 18.5L5 17.6667ZM1 13.6667L0.166667 13.6667C0.166667 14.353 0.166019 14.9178 0.203495 15.3765C0.241766 15.8449 0.323903 16.2755 0.529978 16.68L1.27248 16.3016L2.01499 15.9233C1.94858 15.793 1.89448 15.6061 1.86463 15.2408C1.83398 14.8657 1.83333 14.3805 1.83333 13.6667L1 13.6667ZM2.36502 17.3942L2.74335 16.6517C2.42975 16.4919 2.17478 16.2369 2.01499 15.9233L1.27248 16.3016L0.529978 16.68C0.849556 17.3072 1.35949 17.8171 1.9867 18.1367L2.36502 17.3942ZM16 13.6667L15.1667 13.6667C15.1667 14.3805 15.166 14.8657 15.1354 15.2408C15.1055 15.6061 15.0514 15.793 14.985 15.9233L15.7275 16.3016L16.47 16.68C16.6761 16.2755 16.7582 15.8449 16.7965 15.3765C16.834 14.9178 16.8333 14.353 16.8333 13.6667L16 13.6667ZM12 17.6667L12 18.5C12.6863 18.5 13.2512 18.5006 13.7099 18.4632C14.1783 18.4249 14.6089 18.3428 15.0133 18.1367L14.635 17.3942L14.2566 16.6517C14.1263 16.7181 13.9395 16.7722 13.5741 16.802C13.1991 16.8327 12.7138 16.8333 12 16.8333L12 17.6667ZM15.7275 16.3016L14.985 15.9233C14.8252 16.2369 14.5703 16.4919 14.2566 16.6517L14.635 17.3942L15.0133 18.1367C15.6405 17.8171 16.1504 17.3072 16.47 16.68L15.7275 16.3016ZM12 2.66667L12 3.5C12.7138 3.5 13.1991 3.50065 13.5741 3.53129C13.9395 3.56114 14.1263 3.61525 14.2566 3.68166L14.635 2.93915L15.0133 2.19665C14.6089 1.99057 14.1783 1.90843 13.7099 1.87016C13.2512 1.83269 12.6863 1.83333 12 1.83333L12 2.66667ZM16 6.66667L16.8333 6.66667C16.8333 5.98035 16.834 5.4155 16.7965 4.95681C16.7582 4.4884 16.6761 4.05781 16.47 3.65337L15.7275 4.03169L14.985 4.41002C15.0514 4.54035 15.1055 4.72719 15.1354 5.09253C15.166 5.46761 15.1667 5.95285 15.1667 6.66667L16 6.66667ZM14.635 2.93915L14.2566 3.68166C14.5703 3.84144 14.8252 4.09641 14.985 4.41002L15.7275 4.03169L16.47 3.65337C16.1504 3.02616 15.6405 2.51622 15.0133 2.19665L14.635 2.93915ZM5 2.66667L5 1.83333C4.31369 1.83333 3.74883 1.83269 3.29014 1.87016C2.82173 1.90843 2.39114 1.99057 1.9867 2.19665L2.36502 2.93915L2.74335 3.68166C2.87368 3.61525 3.06052 3.56114 3.42586 3.53129C3.80094 3.50065 4.28618 3.5 5 3.5L5 2.66667ZM1 6.66667L1.83333 6.66667C1.83333 5.95285 1.83398 5.46761 1.86463 5.09253C1.89448 4.72719 1.94858 4.54035 2.01499 4.41002L1.27248 4.03169L0.529978 3.65337C0.323903 4.05781 0.241766 4.4884 0.203495 4.95681C0.166019 5.4155 0.166667 5.98035 0.166667 6.66667L1 6.66667ZM2.36502 2.93915L1.9867 2.19665C1.35949 2.51622 0.849556 3.02616 0.529978 3.65337L1.27248 4.03169L2.01499 4.41002C2.17478 4.09641 2.42975 3.84144 2.74335 3.68166L2.36502 2.93915ZM11.8333 1L11 1L11 4.33333L11.8333 4.33333L12.6667 4.33333L12.6667 1L11.8333 1ZM5.16667 1L4.33333 1L4.33333 4.33333L5.16667 4.33333L6 4.33333L6 1L5.16667 1Z" fill-rule="nonzero" stroke="rgb(102.225,112.408,132.775)" stroke-linecap="round" stroke-linejoin="round" stroke-width="1.666667" />
</svg>
