<svg viewBox="0 0 20 22.0005" xmlns="http://www.w3.org/2000/svg" xmlns:xlink="http://www.w3.org/1999/xlink" width="20.000000" height="22.000488" fill="none" customFrame="#000000">
	<path id="Icon" d="M11 4.33382C11 4.79406 11.3731 5.16716 11.8333 5.16716C12.2936 5.16716 12.6667 4.79406 12.6667 4.33382L11.8333 4.33382L11 4.33382ZM4.33333 4.33382C4.33333 4.79406 4.70643 5.16716 5.16667 5.16716C5.6269 5.16716 6 4.79406 6 4.33382L5.16667 4.33382L4.33333 4.33382ZM10.9233 1.18214L11.3016 0.439639L10.9233 1.18214ZM11.6517 1.9105L10.9092 2.28883L10.9092 2.28883L11.6517 1.9105ZM6.07668 1.18214L5.69836 0.439639L5.69836 0.439639L6.07668 1.18214ZM5.34832 1.9105L4.60582 1.53218L4.60582 1.53218L5.34832 1.9105ZM7.66667 8.91716C7.66667 8.45692 7.29357 8.08382 6.83333 8.08382C6.3731 8.08382 6 8.45692 6 8.91716L6.83333 8.91716L7.66667 8.91716ZM6 13.0838C6 13.5441 6.3731 13.9172 6.83333 13.9172C7.29357 13.9172 7.66667 13.5441 7.66667 13.0838L6.83333 13.0838L6 13.0838ZM11 8.91716C11 8.45692 10.6269 8.08382 10.1667 8.08382C9.70643 8.08382 9.33333 8.45692 9.33333 8.91716L10.1667 8.91716L11 8.91716ZM9.33333 13.0838C9.33333 13.5441 9.70643 13.9172 10.1667 13.9172C10.6269 13.9172 11 13.5441 11 13.0838L10.1667 13.0838L9.33333 13.0838ZM1 3.50049C0.539763 3.50049 0.166667 3.87358 0.166667 4.33382C0.166667 4.79406 0.539763 5.16716 1 5.16716L1 4.33382L1 3.50049ZM16 5.16716C16.4602 5.16716 16.8333 4.79406 16.8333 4.33382C16.8333 3.87358 16.4602 3.50049 16 3.50049L16 4.33382L16 5.16716ZM15.1667 4.33382C15.1667 3.87358 14.7936 3.50049 14.3333 3.50049C13.8731 3.50049 13.5 3.87358 13.5 4.33382L14.3333 4.33382L15.1667 4.33382ZM3.5 4.33382C3.5 3.87358 3.1269 3.50049 2.66667 3.50049C2.20643 3.50049 1.83333 3.87358 1.83333 4.33382L2.66667 4.33382L3.5 4.33382ZM4.03169 17.3947L4.41002 16.6522L4.41002 16.6522L4.03169 17.3947ZM2.93915 16.3021L2.19664 16.6805L2.19665 16.6805L2.93915 16.3021ZM14.0608 16.3021L13.3183 15.9238L13.3183 15.9238L14.0608 16.3021ZM12.9683 17.3947L12.59 16.6522L12.59 16.6522L12.9683 17.3947ZM7.83333 1.00049L7.83333 1.83382L9.16667 1.83382L9.16667 1.00049L9.16667 0.167155L7.83333 0.167155L7.83333 1.00049ZM11.8333 3.66716L11 3.66716L11 4.33382L11.8333 4.33382L12.6667 4.33382L12.6667 3.66716L11.8333 3.66716ZM5.16667 4.33382L6 4.33382L6 3.66716L5.16667 3.66716L4.33333 3.66716L4.33333 4.33382L5.16667 4.33382ZM9.16667 1.00049L9.16667 1.83382C9.64713 1.83382 9.95736 1.83447 10.1935 1.85376C10.4199 1.87226 10.5038 1.90366 10.545 1.92465L10.9233 1.18214L11.3016 0.439639C10.9863 0.278977 10.6586 0.219547 10.3292 0.19263C10.0095 0.166507 9.61963 0.167155 9.16667 0.167155L9.16667 1.00049ZM11.8333 3.66716L12.6667 3.66716C12.6667 3.2142 12.6673 2.82436 12.6412 2.50463C12.6143 2.17518 12.5548 1.8475 12.3942 1.53218L11.6517 1.9105L10.9092 2.28883C10.9302 2.33003 10.9616 2.41397 10.9801 2.64035C10.9994 2.87647 11 3.18669 11 3.66716L11.8333 3.66716ZM10.9233 1.18214L10.545 1.92465C10.7018 2.00454 10.8293 2.13203 10.9092 2.28883L11.6517 1.9105L12.3942 1.53218C12.1545 1.06177 11.772 0.679322 11.3016 0.439639L10.9233 1.18214ZM7.83333 1.00049L7.83333 0.167155C7.38037 0.167155 6.99054 0.166507 6.67081 0.19263C6.34136 0.219547 6.01367 0.278977 5.69836 0.439639L6.07668 1.18214L6.45501 1.92465C6.49621 1.90366 6.58014 1.87226 6.80653 1.85376C7.04264 1.83447 7.35287 1.83382 7.83333 1.83382L7.83333 1.00049ZM5.16667 3.66716L6 3.66716C6 3.18669 6.00065 2.87647 6.01994 2.64035C6.03844 2.41397 6.06983 2.33003 6.09083 2.28883L5.34832 1.9105L4.60582 1.53218C4.44516 1.8475 4.38573 2.17518 4.35881 2.50463C4.33269 2.82436 4.33333 3.2142 4.33333 3.66716L5.16667 3.66716ZM6.07668 1.18214L5.69836 0.439639C5.22795 0.679322 4.8455 1.06177 4.60582 1.53218L5.34832 1.9105L6.09083 2.28883C6.17072 2.13203 6.29821 2.00454 6.45501 1.92465L6.07668 1.18214ZM6.83333 8.91716L6 8.91716L6 13.0838L6.83333 13.0838L7.66667 13.0838L7.66667 8.91716L6.83333 8.91716ZM10.1667 8.91716L9.33333 8.91716L9.33333 13.0838L10.1667 13.0838L11 13.0838L11 8.91716L10.1667 8.91716ZM1 4.33382L1 5.16716L16 5.16716L16 4.33382L16 3.50049L1 3.50049L1 4.33382ZM14.3333 4.33382L13.5 4.33382L13.5 13.6672L14.3333 13.6672L15.1667 13.6672L15.1667 4.33382L14.3333 4.33382ZM10.3333 17.6672L10.3333 16.8338L6.66667 16.8338L6.66667 17.6672L6.66667 18.5005L10.3333 18.5005L10.3333 17.6672ZM2.66667 13.6672L3.5 13.6672L3.5 4.33382L2.66667 4.33382L1.83333 4.33382L1.83333 13.6672L2.66667 13.6672ZM6.66667 17.6672L6.66667 16.8338C5.95285 16.8338 5.46761 16.8332 5.09253 16.8025C4.72719 16.7727 4.54035 16.7186 4.41002 16.6522L4.03169 17.3947L3.65336 18.1372C4.05781 18.3433 4.4884 18.4254 4.95681 18.4637C5.4155 18.5011 5.98035 18.5005 6.66667 18.5005L6.66667 17.6672ZM2.66667 13.6672L1.83333 13.6672C1.83333 14.3535 1.83269 14.9183 1.87016 15.377C1.90843 15.8454 1.99057 16.276 2.19664 16.6805L2.93915 16.3021L3.68166 15.9238C3.61525 15.7935 3.56114 15.6066 3.53129 15.2413C3.50065 14.8662 3.5 14.381 3.5 13.6672L2.66667 13.6672ZM4.03169 17.3947L4.41002 16.6522C4.09641 16.4924 3.84144 16.2374 3.68166 15.9238L2.93915 16.3021L2.19665 16.6805C2.51622 17.3077 3.02616 17.8176 3.65337 18.1372L4.03169 17.3947ZM14.3333 13.6672L13.5 13.6672C13.5 14.381 13.4994 14.8662 13.4687 15.2413C13.4389 15.6066 13.3848 15.7935 13.3183 15.9238L14.0608 16.3021L14.8034 16.6805C15.0094 16.276 15.0916 15.8454 15.1298 15.377C15.1673 14.9183 15.1667 14.3535 15.1667 13.6672L14.3333 13.6672ZM10.3333 17.6672L10.3333 18.5005C11.0196 18.5005 11.5845 18.5011 12.0432 18.4637C12.5116 18.4254 12.9422 18.3433 13.3466 18.1372L12.9683 17.3947L12.59 16.6522C12.4597 16.7186 12.2728 16.7727 11.9075 16.8025C11.5324 16.8332 11.0471 16.8338 10.3333 16.8338L10.3333 17.6672ZM14.0608 16.3021L13.3183 15.9238C13.1586 16.2374 12.9036 16.4924 12.59 16.6522L12.9683 17.3947L13.3466 18.1372C13.9738 17.8176 14.4838 17.3077 14.8034 16.6805L14.0608 16.3021Z" fill-rule="nonzero" stroke="rgb(240.006,68.0748,55.794)" stroke-linecap="round" stroke-linejoin="round" stroke-width="1.66666663" />
</svg>
