<svg viewBox="0 0 18.002 22.061" xmlns="http://www.w3.org/2000/svg" xmlns:xlink="http://www.w3.org/1999/xlink" width="18.001953" height="22.061035" fill="none" customFrame="#000000">
	<path id="Icon" d="M7.66667 17.6672L7.07741 18.2564C7.23369 18.4127 7.44565 18.5005 7.66667 18.5005C7.88768 18.5005 8.09964 18.4127 8.25592 18.2564L7.66667 17.6672ZM10.1667 7.66716L9.33333 7.66716C9.33333 8.58763 8.58714 9.33382 7.66667 9.33382L7.66667 10.1672L7.66667 11.0005C9.50762 11.0005 11 9.5081 11 7.66716L10.1667 7.66716ZM7.66667 10.1672L7.66667 9.33382C6.74619 9.33382 6 8.58763 6 7.66716L5.16667 7.66716L4.33333 7.66716C4.33333 9.5081 5.82572 11.0005 7.66667 11.0005L7.66667 10.1672ZM5.16667 7.66716L6 7.66716C6 6.74668 6.74619 6.00049 7.66667 6.00049L7.66667 5.16716L7.66667 4.33382C5.82572 4.33382 4.33333 5.82621 4.33333 7.66716L5.16667 7.66716ZM7.66667 5.16716L7.66667 6.00049C8.58714 6.00049 9.33333 6.74668 9.33333 7.66716L10.1667 7.66716L11 7.66716C11 5.82621 9.50762 4.33382 7.66667 4.33382L7.66667 5.16716ZM14.3333 7.66716L13.5 7.66716C13.5 9.24391 12.789 10.7322 11.5898 12.2894C10.3823 13.8573 8.77176 15.3835 7.07741 17.0779L7.66667 17.6672L8.25592 18.2564C9.8949 16.6174 11.6177 14.9847 12.9102 13.3063C14.211 11.6173 15.1667 9.7723 15.1667 7.66716L14.3333 7.66716ZM7.66667 17.6672L8.25592 17.0779C6.56157 15.3835 4.95102 13.8573 3.74357 12.2894C2.54431 10.7322 1.83333 9.24391 1.83333 7.66716L1 7.66716L0.166667 7.66716C0.166667 9.7723 1.12236 11.6173 2.4231 13.3063C3.71565 14.9847 5.43843 16.6174 7.07741 18.2564L7.66667 17.6672ZM1 7.66716L1.83333 7.66716C1.83333 4.44549 4.44501 1.83382 7.66667 1.83382L7.66667 1.00049L7.66667 0.167155C3.52453 0.167155 0.166667 3.52502 0.166667 7.66716L1 7.66716ZM7.66667 1.00049L7.66667 1.83382C10.8883 1.83382 13.5 4.44549 13.5 7.66716L14.3333 7.66716L15.1667 7.66716C15.1667 3.52502 11.8088 0.167155 7.66667 0.167155L7.66667 1.00049Z" fill-rule="evenodd" stroke="rgb(0,171,223)" stroke-linecap="round" stroke-linejoin="round" stroke-width="1.66666663" />
</svg>
