<svg viewBox="0 0 22.001 22.001" xmlns="http://www.w3.org/2000/svg" xmlns:xlink="http://www.w3.org/1999/xlink" width="22.000977" height="22.000977" fill="none" customFrame="#000000">
	<path id="Icon" d="M8.5 12.6676C8.5 13.1279 8.8731 13.501 9.33333 13.501C9.79357 13.501 10.1667 13.1279 10.1667 12.6676L9.33333 12.6676L8.5 12.6676ZM10.1667 9.33431C10.1667 8.87407 9.79357 8.50098 9.33333 8.50098C8.8731 8.50098 8.5 8.87407 8.5 9.33431L9.33333 9.33431L10.1667 9.33431ZM9.33333 5.16764C8.8731 5.16764 8.5 5.54074 8.5 6.00098C8.5 6.46121 8.8731 6.83431 9.33333 6.83431L9.33333 6.00098L9.33333 5.16764ZM9.34167 6.83431C9.8019 6.83431 10.175 6.46121 10.175 6.00098C10.175 5.54074 9.8019 5.16764 9.34167 5.16764L9.34167 6.00098L9.34167 6.83431ZM17.6667 9.33431L16.8333 9.33431C16.8333 13.4764 13.4755 16.8343 9.33333 16.8343L9.33333 17.6676L9.33333 18.501C14.3959 18.501 18.5 14.3969 18.5 9.33431L17.6667 9.33431ZM9.33333 17.6676L9.33333 16.8343C5.1912 16.8343 1.83333 13.4764 1.83333 9.33431L1 9.33431L0.166667 9.33431C0.166667 14.3969 4.27072 18.501 9.33333 18.501L9.33333 17.6676ZM1 9.33431L1.83333 9.33431C1.83333 5.19217 5.1912 1.83431 9.33333 1.83431L9.33333 1.00098L9.33333 0.167643C4.27072 0.167643 0.166667 4.2717 0.166667 9.33431L1 9.33431ZM9.33333 1.00098L9.33333 1.83431C13.4755 1.83431 16.8333 5.19217 16.8333 9.33431L17.6667 9.33431L18.5 9.33431C18.5 4.2717 14.3959 0.167643 9.33333 0.167643L9.33333 1.00098ZM9.33333 12.6676L10.1667 12.6676L10.1667 9.33431L9.33333 9.33431L8.5 9.33431L8.5 12.6676L9.33333 12.6676ZM9.33333 6.00098L9.33333 6.83431L9.34167 6.83431L9.34167 6.00098L9.34167 5.16764L9.33333 5.16764L9.33333 6.00098Z" fill-rule="nonzero" stroke="rgb(152.075,161.967,178.925)" stroke-linecap="round" stroke-linejoin="round" stroke-width="1.66666663" />
</svg>
