<svg viewBox="0 0 18.0625 14.0078" xmlns="http://www.w3.org/2000/svg" xmlns:xlink="http://www.w3.org/1999/xlink" width="18.062500" height="14.007812" fill="none" customFrame="#000000">
	<path id="Icon" d="M1 5.17057C0.539763 5.17057 0.166667 5.54367 0.166667 6.00391C0.166667 6.46414 0.539763 6.83724 1 6.83724L1 6.00391L1 5.17057ZM14.3333 6.00391L14.9226 6.59316C15.248 6.26772 15.248 5.74009 14.9226 5.41465L14.3333 6.00391ZM9.92259 0.414651C9.59715 0.0892137 9.06951 0.0892137 8.74408 0.414651C8.41864 0.740088 8.41864 1.26772 8.74408 1.59316L9.33333 1.00391L9.92259 0.414651ZM8.74408 10.4146C8.41864 10.7401 8.41864 11.2677 8.74408 11.5932C9.06951 11.9186 9.59715 11.9186 9.92259 11.5932L9.33333 11.0039L8.74408 10.4146ZM1 6.00391L1 6.83724L14.3333 6.83724L14.3333 6.00391L14.3333 5.17057L1 5.17057L1 6.00391ZM9.33333 1.00391L8.74408 1.59316L13.7441 6.59316L14.3333 6.00391L14.9226 5.41465L9.92259 0.414651L9.33333 1.00391ZM14.3333 6.00391L13.7441 5.41465L8.74408 10.4146L9.33333 11.0039L9.92259 11.5932L14.9226 6.59316L14.3333 6.00391Z" fill-rule="nonzero" stroke="rgb(0,171,223)" stroke-linecap="round" stroke-linejoin="round" stroke-width="1.66666663" />
</svg>
