<svg width="28.000000" height="28.000000" viewBox="0 0 28 28" fill="none" xmlns="http://www.w3.org/2000/svg" xmlns:xlink="http://www.w3.org/1999/xlink">
	<desc>
			Created with Pixso.
	</desc>
	<defs>
		<filter id="filter_4752_8004_dd" x="0.000000" y="0.000000" width="28.000000" height="28.000000" filterUnits="userSpaceOnUse" color-interpolation-filters="sRGB">
			<feFlood flood-opacity="0" result="BackgroundImageFix"/>
			<feColorMatrix in="SourceAlpha" type="matrix" values="0 0 0 0 0 0 0 0 0 0 0 0 0 0 0 0 0 0 127 0" result="hardAlpha"/>
			<feOffset dx="0" dy="4"/>
			<feGaussianBlur stdDeviation="1.33333"/>
			<feComposite in2="hardAlpha" operator="out" k2="-1" k3="1"/>
			<feColorMatrix type="matrix" values="0 0 0 0 0 0 0 0 0 0 0 0 0 0 0 0 0 0 0.25 0"/>
			<feBlend mode="normal" in2="BackgroundImageFix" result="effect_dropShadow_1"/>
			<feBlend mode="normal" in="SourceGraphic" in2="effect_dropShadow_1" result="shape"/>
		</filter>
		<clipPath id="clip4752_8004">
			<rect id="coins-stacked-04" width="20.000000" height="20.000000" transform="translate(4.000000 0.000000)" fill="white" fill-opacity="0"/>
		</clipPath>
	</defs>
	<g filter="url(#filter_4752_8004_dd)">
		<rect id="coins-stacked-04" width="20.000000" height="20.000000" transform="translate(4.000000 0.000000)" fill="#FFFFFF" fill-opacity="0"/>
		<g clip-path="url(#clip4752_8004)">
			<path id="Icon" d="M14 6.66C10.31 6.66 7.33 5.54 7.33 4.16C7.33 2.78 10.31 1.66 14 1.66C17.68 1.66 20.66 2.78 20.66 4.16C20.66 5.54 17.68 6.66 14 6.66ZM20.66 8.05C20.66 9.43 17.68 10.55 14 10.55C10.31 10.55 7.33 9.43 7.33 8.05M20.66 11.94C20.66 13.32 17.68 14.44 14 14.44C10.31 14.44 7.33 13.32 7.33 11.94M20.66 4.16L20.66 15.83C20.66 17.21 17.68 18.33 14 18.33C10.31 18.33 7.33 17.21 7.33 15.83L7.33 4.16" stroke="#00ABDF" stroke-opacity="1.000000" stroke-width="1.500000" stroke-linejoin="round" stroke-linecap="round"/>
		</g>
	</g>
</svg>
