<svg width="55.000000" height="55.000000" viewBox="0 0 55 55" fill="none" xmlns="http://www.w3.org/2000/svg" xmlns:xlink="http://www.w3.org/1999/xlink">
	<desc>
			Created with Pixso.
	</desc>
	<defs>
		<clipPath id="clip7291_10578">
			<rect id="Frame" rx="0.000000" width="49.000000" height="48.000000" transform="translate(3.500000 3.500000)" fill="white" fill-opacity="0"/>
		</clipPath>
	</defs>
	<rect id="Frame 121" rx="0.000000" width="54.000000" height="54.000000" transform="translate(0.500000 0.500000)" fill="#FFFFFF" fill-opacity="0"/>
	<rect id="Frame" rx="0.000000" width="49.000000" height="48.000000" transform="translate(3.500000 3.500000)" fill="#FFFFFF" fill-opacity="0"/>
	<g clip-path="url(#clip7291_10578)">
		<path id="Vector" d="M16.25 6.61C16.11 6.62 15.96 6.67 15.86 6.78C15.75 6.88 15.69 7.02 15.68 7.17L15.58 12.57C15.58 12.64 15.6 12.72 15.63 12.79C15.65 12.86 15.69 12.92 15.75 12.98C15.8 13.03 15.86 13.08 15.93 13.1C16 13.14 16.08 13.15 16.15 13.15C16.3 13.15 16.45 13.09 16.55 12.99C16.66 12.88 16.72 12.74 16.73 12.58L16.82 7.2C16.82 7.12 16.81 7.05 16.78 6.98C16.75 6.91 16.71 6.84 16.66 6.79C16.61 6.73 16.54 6.69 16.47 6.66C16.4 6.63 16.33 6.61 16.25 6.61Z" fill="#FFFFFF" fill-opacity="1.000000" fill-rule="nonzero"/>
		<path id="Vector" d="M23.77 6.61C23.62 6.61 23.48 6.67 23.37 6.78C23.26 6.88 23.2 7.02 23.2 7.17L23.1 12.57C23.1 12.64 23.11 12.72 23.14 12.79C23.17 12.86 23.21 12.93 23.27 12.98C23.37 13.09 23.52 13.15 23.67 13.15C23.82 13.15 23.96 13.09 24.07 12.99C24.18 12.88 24.24 12.74 24.24 12.58L24.34 7.2C24.34 7.12 24.33 7.05 24.3 6.97C24.27 6.9 24.23 6.84 24.18 6.78C24.12 6.73 24.06 6.69 23.99 6.66C23.92 6.63 23.85 6.61 23.77 6.61Z" fill="#FFFFFF" fill-opacity="1.000000" fill-rule="nonzero"/>
		<path id="Vector" d="M20.01 6.61C19.86 6.62 19.72 6.67 19.62 6.78C19.51 6.88 19.44 7.02 19.44 7.17L19.34 12.57C19.34 12.64 19.36 12.72 19.38 12.79C19.41 12.86 19.45 12.92 19.51 12.98C19.56 13.03 19.62 13.08 19.69 13.1C19.76 13.14 19.83 13.15 19.91 13.15C20.06 13.15 20.21 13.09 20.31 12.99C20.42 12.88 20.48 12.74 20.49 12.58L20.58 7.2C20.58 7.12 20.57 7.05 20.54 6.98C20.51 6.9 20.47 6.84 20.42 6.78C20.36 6.73 20.3 6.69 20.23 6.66C20.16 6.63 20.09 6.61 20.01 6.61Z" fill="#FFFFFF" fill-opacity="1.000000" fill-rule="nonzero"/>
		<path id="Vector" d="M16.25 14.52C16.1 14.52 15.96 14.58 15.85 14.69C15.74 14.79 15.68 14.94 15.68 15.09L15.59 20.44C15.59 20.52 15.61 20.59 15.63 20.66C15.66 20.73 15.7 20.8 15.76 20.85C15.81 20.91 15.87 20.95 15.94 20.98C16.01 21.01 16.08 21.03 16.16 21.03C16.31 21.03 16.46 20.97 16.56 20.86C16.67 20.76 16.73 20.61 16.74 20.46L16.83 15.07C16.83 15 16.82 14.92 16.79 14.85C16.76 14.78 16.72 14.71 16.67 14.66C16.61 14.61 16.55 14.57 16.47 14.55C16.4 14.52 16.33 14.51 16.25 14.52Z" fill="#FFFFFF" fill-opacity="1.000000" fill-rule="nonzero"/>
		<path id="Vector" d="M23.78 14.52C23.71 14.52 23.63 14.53 23.56 14.56C23.49 14.59 23.43 14.63 23.37 14.69C23.32 14.74 23.27 14.8 23.24 14.87C23.21 14.94 23.2 15.01 23.2 15.09L23.1 20.48C23.1 20.55 23.11 20.63 23.14 20.7C23.17 20.77 23.21 20.84 23.27 20.89C23.37 21 23.52 21.06 23.67 21.06C23.82 21.06 23.96 21 24.07 20.9C24.18 20.79 24.24 20.65 24.24 20.5L24.34 15.11C24.34 15.03 24.33 14.96 24.3 14.88C24.27 14.81 24.23 14.75 24.18 14.69C24.12 14.64 24.06 14.6 24 14.57C23.93 14.54 23.85 14.52 23.78 14.52Z" fill="#FFFFFF" fill-opacity="1.000000" fill-rule="nonzero"/>
		<path id="Vector" d="M20.02 14.52C19.95 14.52 19.87 14.53 19.8 14.56C19.73 14.59 19.67 14.63 19.61 14.69C19.56 14.74 19.52 14.8 19.49 14.87C19.45 14.94 19.44 15.01 19.44 15.09L19.34 20.48C19.34 20.55 19.36 20.63 19.38 20.7C19.41 20.77 19.45 20.84 19.51 20.89C19.61 21 19.76 21.06 19.91 21.06C20.06 21.06 20.21 21 20.31 20.9C20.42 20.79 20.48 20.65 20.49 20.5L20.58 15.11C20.58 15.03 20.57 14.96 20.54 14.89C20.51 14.81 20.47 14.75 20.42 14.69C20.37 14.64 20.3 14.6 20.24 14.57C20.17 14.54 20.1 14.52 20.02 14.52Z" fill="#FFFFFF" fill-opacity="1.000000" fill-rule="nonzero"/>
		<path id="Vector" d="M16.26 22.43C16.11 22.42 15.97 22.48 15.86 22.59C15.75 22.69 15.68 22.83 15.68 22.99L15.58 28.39C15.58 28.46 15.6 28.53 15.63 28.6C15.65 28.67 15.69 28.74 15.75 28.8C15.8 28.85 15.86 28.89 15.93 28.92C16 28.95 16.08 28.97 16.15 28.97C16.3 28.97 16.45 28.91 16.55 28.8C16.66 28.7 16.72 28.55 16.73 28.4L16.82 23.01C16.82 22.94 16.81 22.86 16.78 22.79C16.76 22.72 16.72 22.66 16.66 22.6C16.61 22.55 16.55 22.51 16.48 22.48C16.41 22.44 16.34 22.43 16.26 22.43Z" fill="#FFFFFF" fill-opacity="1.000000" fill-rule="nonzero"/>
		<path id="Vector" d="M23.78 22.43C23.63 22.42 23.48 22.48 23.37 22.59C23.27 22.69 23.2 22.83 23.2 22.99L23.1 28.39C23.1 28.46 23.11 28.54 23.14 28.61C23.17 28.68 23.21 28.75 23.27 28.8C23.37 28.91 23.52 28.97 23.67 28.97C23.82 28.97 23.96 28.91 24.07 28.8C24.18 28.7 24.24 28.55 24.24 28.4L24.34 23.01C24.34 22.94 24.33 22.86 24.3 22.79C24.27 22.72 24.23 22.66 24.18 22.6C24.12 22.55 24.06 22.5 24 22.48C23.93 22.44 23.85 22.43 23.78 22.43Z" fill="#FFFFFF" fill-opacity="1.000000" fill-rule="nonzero"/>
		<path id="Vector" d="M20.02 22.43C19.87 22.42 19.72 22.48 19.62 22.59C19.51 22.69 19.44 22.83 19.44 22.99L19.34 28.39C19.34 28.46 19.36 28.53 19.38 28.6C19.41 28.67 19.45 28.74 19.51 28.8C19.56 28.85 19.62 28.89 19.69 28.92C19.76 28.95 19.83 28.97 19.91 28.97C20.06 28.97 20.21 28.91 20.31 28.8C20.42 28.7 20.48 28.55 20.49 28.4L20.58 23.01C20.58 22.94 20.57 22.86 20.54 22.79C20.51 22.72 20.47 22.66 20.42 22.6C20.37 22.55 20.3 22.5 20.24 22.48C20.17 22.44 20.1 22.43 20.02 22.43Z" fill="#FFFFFF" fill-opacity="1.000000" fill-rule="nonzero"/>
		<path id="Vector" d="M16.26 30.33C16.11 30.33 15.97 30.39 15.86 30.5C15.75 30.6 15.68 30.74 15.68 30.89L15.58 36.29C15.58 36.37 15.6 36.44 15.63 36.51C15.65 36.58 15.69 36.65 15.75 36.7C15.8 36.76 15.86 36.8 15.93 36.83C16 36.86 16.08 36.87 16.15 36.87C16.3 36.87 16.45 36.82 16.55 36.71C16.66 36.6 16.72 36.46 16.73 36.31L16.82 30.92C16.82 30.84 16.81 30.77 16.78 30.7C16.76 30.63 16.72 30.57 16.66 30.51C16.61 30.46 16.55 30.41 16.48 30.38C16.41 30.35 16.34 30.33 16.26 30.33Z" fill="#FFFFFF" fill-opacity="1.000000" fill-rule="nonzero"/>
		<path id="Vector" d="M23.78 30.33C23.63 30.33 23.48 30.39 23.37 30.5C23.27 30.6 23.2 30.74 23.2 30.89L23.1 36.29C23.1 36.37 23.11 36.44 23.14 36.51C23.17 36.58 23.21 36.65 23.27 36.7C23.37 36.81 23.52 36.87 23.67 36.87C23.82 36.87 23.96 36.82 24.07 36.71C24.18 36.6 24.24 36.46 24.24 36.31L24.34 30.92C24.34 30.84 24.33 30.77 24.3 30.69C24.27 30.62 24.23 30.56 24.18 30.51C24.12 30.45 24.06 30.41 24 30.38C23.93 30.35 23.85 30.33 23.78 30.33Z" fill="#FFFFFF" fill-opacity="1.000000" fill-rule="nonzero"/>
		<path id="Vector" d="M20.02 30.33C19.87 30.33 19.72 30.39 19.62 30.5C19.51 30.6 19.44 30.74 19.44 30.89L19.34 36.29C19.34 36.37 19.36 36.44 19.38 36.51C19.41 36.58 19.45 36.65 19.51 36.7C19.56 36.76 19.62 36.8 19.69 36.83C19.76 36.86 19.83 36.87 19.91 36.87C20.06 36.87 20.21 36.82 20.31 36.71C20.42 36.6 20.48 36.46 20.49 36.31L20.58 30.92C20.58 30.84 20.57 30.77 20.54 30.7C20.51 30.62 20.47 30.56 20.42 30.51C20.37 30.45 20.3 30.41 20.24 30.38C20.17 30.35 20.1 30.33 20.02 30.33Z" fill="#FFFFFF" fill-opacity="1.000000" fill-rule="nonzero"/>
		<path id="Vector" d="M16.26 38.25C16.11 38.24 15.97 38.3 15.86 38.41C15.75 38.51 15.68 38.65 15.68 38.8L15.58 44.2C15.58 44.28 15.6 44.35 15.63 44.42C15.65 44.49 15.69 44.56 15.75 44.61C15.8 44.67 15.86 44.71 15.93 44.74C16 44.77 16.08 44.78 16.15 44.78C16.3 44.78 16.45 44.73 16.55 44.62C16.66 44.51 16.72 44.37 16.73 44.22L16.82 38.83C16.82 38.75 16.81 38.68 16.78 38.61C16.76 38.54 16.72 38.48 16.66 38.42C16.61 38.37 16.55 38.32 16.48 38.29C16.41 38.26 16.34 38.25 16.26 38.25Z" fill="#FFFFFF" fill-opacity="1.000000" fill-rule="nonzero"/>
		<path id="Vector" d="M23.78 38.25C23.63 38.24 23.48 38.3 23.37 38.41C23.27 38.51 23.2 38.65 23.2 38.8L23.1 44.2C23.1 44.28 23.11 44.35 23.14 44.42C23.17 44.5 23.21 44.56 23.27 44.61C23.37 44.72 23.52 44.78 23.67 44.78C23.82 44.78 23.96 44.73 24.07 44.62C24.18 44.51 24.24 44.37 24.24 44.22L24.34 38.83C24.34 38.75 24.33 38.68 24.3 38.6C24.27 38.53 24.23 38.47 24.18 38.42C24.12 38.36 24.06 38.32 24 38.29C23.93 38.26 23.85 38.25 23.78 38.25Z" fill="#FFFFFF" fill-opacity="1.000000" fill-rule="nonzero"/>
		<path id="Vector" d="M20.02 38.25C19.87 38.24 19.72 38.3 19.62 38.41C19.51 38.51 19.44 38.65 19.44 38.8L19.34 44.2C19.34 44.28 19.36 44.35 19.38 44.42C19.41 44.49 19.45 44.56 19.51 44.61C19.56 44.67 19.62 44.71 19.69 44.74C19.76 44.77 19.83 44.78 19.91 44.78C20.06 44.78 20.21 44.73 20.31 44.62C20.42 44.51 20.48 44.37 20.49 44.22L20.58 38.83C20.58 38.75 20.57 38.68 20.54 38.61C20.51 38.53 20.47 38.47 20.42 38.42C20.37 38.36 20.3 38.32 20.24 38.29C20.17 38.26 20.1 38.25 20.02 38.25Z" fill="#FFFFFF" fill-opacity="1.000000" fill-rule="nonzero"/>
		<path id="Vector" d="M33.86 28.06C34.31 28.06 34.75 27.87 35.07 27.55C35.39 27.23 35.57 26.79 35.57 26.34L35.57 25.07C35.57 24.61 35.39 24.17 35.07 23.85C34.75 23.53 34.31 23.35 33.86 23.35L32.58 23.35C32.12 23.35 31.69 23.53 31.36 23.85C31.04 24.17 30.86 24.61 30.86 25.07L30.86 26.34C30.86 26.79 31.04 27.23 31.36 27.55C31.69 27.87 32.12 28.06 32.58 28.06L33.86 28.06ZM33.86 26.91L32.58 26.91C32.5 26.91 32.43 26.89 32.37 26.86C32.3 26.83 32.24 26.79 32.19 26.74C32.13 26.69 32.09 26.63 32.07 26.56C32.04 26.49 32.03 26.42 32.03 26.35L32.03 25.07C32.03 25 32.04 24.93 32.07 24.86C32.09 24.79 32.13 24.73 32.19 24.68C32.24 24.63 32.3 24.58 32.37 24.56C32.43 24.53 32.5 24.51 32.58 24.51L33.86 24.51C34 24.52 34.14 24.58 34.25 24.68C34.35 24.79 34.41 24.93 34.41 25.07L34.41 26.35C34.41 26.49 34.35 26.64 34.25 26.74C34.14 26.84 34 26.9 33.86 26.91Z" fill="#FFFFFF" fill-opacity="1.000000" fill-rule="nonzero"/>
		<path id="Vector" d="M38.59 28.06L39.87 28.06C40.33 28.06 40.76 27.87 41.09 27.55C41.41 27.23 41.59 26.79 41.59 26.34L41.59 25.07C41.59 24.61 41.41 24.17 41.09 23.85C40.76 23.53 40.33 23.35 39.87 23.35L38.59 23.35C38.14 23.35 37.7 23.53 37.38 23.85C37.06 24.17 36.88 24.61 36.88 25.07L36.88 26.34C36.88 26.79 37.06 27.23 37.38 27.55C37.7 27.87 38.14 28.06 38.59 28.06ZM38.04 26.34L38.04 25.07C38.04 24.99 38.06 24.92 38.08 24.85C38.11 24.78 38.15 24.72 38.2 24.67C38.25 24.62 38.32 24.58 38.38 24.55C38.45 24.52 38.52 24.51 38.59 24.51L39.87 24.51C40.02 24.51 40.16 24.57 40.26 24.67C40.37 24.78 40.42 24.92 40.42 25.07L40.42 26.34C40.42 26.48 40.37 26.62 40.26 26.73C40.16 26.83 40.02 26.89 39.87 26.9L38.59 26.9C38.45 26.9 38.31 26.84 38.21 26.73C38.1 26.63 38.04 26.49 38.04 26.35L38.04 26.34Z" fill="#FFFFFF" fill-opacity="1.000000" fill-rule="nonzero"/>
		<path id="Vector" d="M34.47 38.5C34.75 38.5 35.02 38.38 35.21 38.19C35.41 37.99 35.52 37.73 35.52 37.44L35.52 29.87C35.52 29.58 35.41 29.32 35.21 29.12C35.02 28.92 34.75 28.81 34.47 28.81L32.43 28.81C32.15 28.81 31.89 28.92 31.69 29.12C31.5 29.32 31.38 29.58 31.38 29.87L31.38 37.44C31.38 37.73 31.5 37.99 31.69 38.19C31.89 38.38 32.15 38.5 32.43 38.5L34.47 38.5ZM34.37 29.96L34.37 37.34L32.54 37.34L32.54 29.9L34.37 29.96Z" fill="#FFFFFF" fill-opacity="1.000000" fill-rule="nonzero"/>
		<path id="Vector" d="M40.14 28.76L38.1 28.76C37.82 28.77 37.55 28.88 37.36 29.08C37.16 29.28 37.05 29.54 37.05 29.82L37.05 37.4C37.05 37.68 37.16 37.95 37.36 38.14C37.55 38.34 37.82 38.45 38.1 38.45L40.14 38.45C40.42 38.45 40.68 38.34 40.88 38.14C41.08 37.95 41.19 37.68 41.19 37.4L41.19 29.82C41.19 29.54 41.08 29.28 40.88 29.08C40.68 28.88 40.42 28.77 40.14 28.76ZM40.04 29.92L40.04 37.3L38.2 37.3L38.2 29.9L40.04 29.92Z" fill="#FFFFFF" fill-opacity="1.000000" fill-rule="nonzero"/>
		<path id="Vector" d="M52.42 50.81L49.54 50.81L49.54 46.64C50.49 46.5 51.36 46 51.96 45.24C52.56 44.48 52.85 43.53 52.78 42.56C52.71 41.6 52.27 40.7 51.56 40.04C50.86 39.38 49.93 39.02 48.96 39.02C48 39.02 47.07 39.38 46.36 40.04C45.65 40.7 45.22 41.6 45.14 42.56C45.07 43.53 45.37 44.48 45.97 45.24C46.57 46 47.43 46.5 48.39 46.64L48.39 50.83L43.91 50.83C43.99 50.65 44.02 50.46 44.02 50.26L44.02 22.57C44.01 22.12 43.82 21.69 43.5 21.37C43.18 21.05 42.75 20.87 42.3 20.85L30.29 20.85C29.83 20.87 29.4 21.05 29.08 21.37C28.77 21.69 28.58 22.12 28.57 22.57L28.57 50.23C28.57 50.43 28.61 50.62 28.67 50.81L27.61 50.81C27.68 50.61 27.72 50.41 27.72 50.2L27.72 4.76C27.71 4.3 27.53 3.87 27.21 3.55C26.89 3.23 26.46 3.05 26 3.04L13.99 3.04C13.53 3.04 13.09 3.22 12.76 3.54C12.43 3.86 12.24 4.3 12.23 4.76L12.23 50.2C12.23 50.41 12.27 50.61 12.34 50.81L8.05 50.81L8.05 47.37C9.03 47.18 9.9 46.63 10.48 45.82C11.07 45.02 11.33 44.02 11.21 43.03C11.1 42.04 10.61 41.14 9.85 40.49C9.09 39.85 8.12 39.51 7.12 39.56C6.13 39.6 5.19 40.02 4.49 40.73C3.79 41.44 3.39 42.39 3.36 43.39C3.33 44.38 3.68 45.35 4.34 46.1C5 46.85 5.91 47.32 6.9 47.42L6.9 50.86L3.58 50.86C3.43 50.86 3.28 50.92 3.17 51.03C3.06 51.14 3 51.28 3 51.44C3 51.59 3.06 51.74 3.17 51.84C3.28 51.95 3.43 52.01 3.58 52.01L29.95 52.01C30.07 52.03 30.19 52.03 30.31 52.01L42.33 52.01C42.45 52.03 42.57 52.03 42.69 52.01L52.46 52.01C52.61 52.01 52.75 51.95 52.86 51.84C52.97 51.74 53.03 51.59 53.03 51.44C53.03 51.28 52.97 51.14 52.86 51.03C52.75 50.92 52.61 50.86 52.46 50.86L52.42 50.81ZM49.11 45.54C48.56 45.54 48.03 45.38 47.58 45.08C47.13 44.78 46.77 44.35 46.56 43.85C46.36 43.35 46.3 42.79 46.4 42.26C46.51 41.73 46.77 41.23 47.15 40.85C47.54 40.46 48.03 40.2 48.56 40.09C49.09 39.99 49.65 40.04 50.15 40.25C50.65 40.46 51.08 40.81 51.38 41.26C51.68 41.71 51.85 42.25 51.85 42.79C51.85 43.52 51.56 44.22 51.04 44.73C50.53 45.25 49.83 45.54 49.11 45.54ZM29.69 50.23L29.69 22.57C29.69 22.5 29.71 22.41 29.74 22.34C29.77 22.27 29.82 22.2 29.87 22.14C29.93 22.08 30 22.04 30.07 22.01C30.14 21.98 30.22 21.96 30.3 21.96L42.32 21.96C42.48 21.96 42.64 22.03 42.75 22.14C42.86 22.26 42.93 22.41 42.93 22.57L42.93 50.23C42.93 50.36 42.89 50.49 42.81 50.59C42.73 50.69 42.62 50.77 42.5 50.81L39.14 50.81L39.14 40.98C39.14 40.71 39.03 40.44 38.84 40.25C38.64 40.05 38.37 39.94 38.1 39.94L34.56 39.94C34.28 39.94 34.01 40.05 33.82 40.24C33.62 40.44 33.51 40.71 33.5 40.98L33.5 50.81L30.15 50.81C30.02 50.78 29.91 50.7 29.82 50.6C29.74 50.5 29.7 50.37 29.69 50.23ZM34.63 41.07L37.97 41.07L37.97 50.79L34.63 50.79L34.63 41.07ZM13.36 50.18L13.36 4.76C13.36 4.6 13.43 4.44 13.54 4.33C13.66 4.21 13.81 4.15 13.97 4.15L25.99 4.15C26.15 4.15 26.3 4.21 26.42 4.33C26.53 4.44 26.6 4.6 26.6 4.76L26.6 50.2C26.6 50.36 26.53 50.51 26.42 50.63C26.3 50.75 26.15 50.81 25.99 50.81L13.97 50.81C13.81 50.81 13.66 50.75 13.54 50.63C13.43 50.51 13.36 50.36 13.36 50.2L13.36 50.18ZM4.52 43.53C4.52 42.99 4.68 42.46 4.98 42.01C5.29 41.55 5.71 41.2 6.21 41C6.71 40.79 7.26 40.73 7.79 40.84C8.33 40.94 8.81 41.21 9.2 41.59C9.58 41.98 9.84 42.46 9.95 43C10.05 43.53 10 44.08 9.79 44.58C9.58 45.08 9.23 45.51 8.78 45.81C8.33 46.11 7.8 46.27 7.26 46.27C6.54 46.27 5.84 45.98 5.33 45.48C4.82 44.96 4.53 44.27 4.52 43.55L4.52 43.53Z" fill="#FFFFFF" fill-opacity="1.000000" fill-rule="nonzero"/>
	</g>
</svg>
