<svg width="55.000000" height="55.000000" viewBox="0 0 55 55" fill="none" xmlns="http://www.w3.org/2000/svg" xmlns:xlink="http://www.w3.org/1999/xlink">
	<desc>
			Created with Pixso.
	</desc>
	<defs>
		<clipPath id="clip7291_10605">
			<rect id="Frame" rx="0.000000" width="44.714287" height="54.000000" transform="translate(5.500000 0.500000)" fill="white" fill-opacity="0"/>
		</clipPath>
		<clipPath id="clip7291_10603">
			<rect id="иконка 14 лабораторий" rx="0.000000" width="54.000000" height="54.000000" transform="translate(0.500000 0.500000)" fill="white" fill-opacity="0"/>
		</clipPath>
	</defs>
	<g clip-path="url(#clip7291_10603)">
		<rect id="Frame" rx="0.000000" width="44.714287" height="54.000000" transform="translate(5.500000 0.500000)" fill="#FFFFFF" fill-opacity="0"/>
		<g clip-path="url(#clip7291_10605)">
			<path id="Vector" d="M30.72 23.39L26.07 23.39C25.3 23.34 24.58 23.01 24.05 22.44C23.53 21.88 23.23 21.14 23.23 20.37C23.23 19.59 23.53 18.85 24.05 18.29C24.58 17.73 25.3 17.39 26.07 17.35L30.46 17.35C30.61 17.35 30.77 17.41 30.88 17.52C30.99 17.64 31.05 17.79 31.05 17.94C31.05 18.1 30.99 18.26 30.88 18.37C30.77 18.48 30.61 18.55 30.46 18.55L26.07 18.55C25.82 18.53 25.57 18.56 25.34 18.64C25.1 18.73 24.88 18.86 24.7 19.03C24.52 19.2 24.37 19.41 24.27 19.64C24.17 19.87 24.12 20.12 24.12 20.37C24.12 20.62 24.17 20.87 24.27 21.1C24.37 21.33 24.52 21.53 24.7 21.7C24.88 21.87 25.1 22.01 25.34 22.09C25.57 22.17 25.82 22.21 26.07 22.19L30.72 22.19C30.88 22.19 31.03 22.25 31.14 22.36C31.25 22.48 31.32 22.63 31.32 22.79C31.32 22.95 31.25 23.1 31.14 23.21C31.03 23.32 30.88 23.39 30.72 23.39Z" fill="#FFFFFF" fill-opacity="1.000000" fill-rule="nonzero"/>
			<path id="Vector" d="M17.44 23.39L13.79 23.39C13.63 23.39 13.48 23.32 13.37 23.21C13.25 23.1 13.19 22.95 13.19 22.79L13.19 17.94C13.19 17.79 13.25 17.64 13.37 17.52C13.48 17.41 13.63 17.35 13.79 17.35L17.44 17.35C18.2 17.39 18.93 17.73 19.45 18.29C19.98 18.85 20.28 19.59 20.28 20.37C20.28 21.14 19.98 21.88 19.45 22.44C18.93 23.01 18.2 23.34 17.44 23.39ZM14.38 22.19L17.44 22.19C17.9 22.16 18.32 21.95 18.64 21.61C18.95 21.27 19.12 20.83 19.12 20.37C19.12 19.91 18.95 19.46 18.64 19.12C18.32 18.78 17.9 18.58 17.44 18.55L14.38 18.55L14.38 22.19Z" fill="#FFFFFF" fill-opacity="1.000000" fill-rule="nonzero"/>
			<path id="Vector" d="M25.13 55L11.77 55C10.74 55 9.75 54.58 9.01 53.84C8.28 53.11 7.87 52.11 7.87 51.07L7.87 37.35C7.86 37.12 7.77 36.91 7.61 36.75C7.44 36.59 7.23 36.5 7 36.5C6.48 36.5 5.98 36.29 5.6 35.92C5.23 35.56 5.01 35.06 5 34.53C4.99 34.26 5.03 34 5.13 33.74C5.23 33.49 5.37 33.26 5.56 33.07C5.76 32.86 6 32.7 6.26 32.58C6.53 32.47 6.81 32.41 7.09 32.41L26.5 32.41C27.17 32.42 27.81 32.69 28.29 33.17C28.76 33.64 29.03 34.3 29.03 34.97L29.03 51.07C29.03 52.11 28.62 53.1 27.89 53.84C27.16 54.58 26.17 54.99 25.13 55ZM7.09 33.61C6.97 33.61 6.84 33.64 6.73 33.69C6.61 33.73 6.5 33.81 6.41 33.9C6.26 34.06 6.18 34.27 6.19 34.5C6.19 34.71 6.29 34.92 6.44 35.07C6.6 35.22 6.8 35.3 7.02 35.3C7.56 35.31 8.07 35.53 8.45 35.91C8.84 36.29 9.05 36.81 9.06 37.35L9.06 51.07C9.06 51.79 9.35 52.48 9.86 53C10.36 53.51 11.05 53.8 11.77 53.8L25.13 53.8C25.85 53.8 26.54 53.51 27.05 53C27.56 52.48 27.85 51.79 27.85 51.07L27.85 34.97C27.85 34.79 27.81 34.62 27.75 34.45C27.68 34.29 27.58 34.14 27.45 34.01C27.33 33.88 27.18 33.78 27.01 33.71C26.85 33.65 26.67 33.61 26.5 33.61L7.09 33.61Z" fill="#FFFFFF" fill-opacity="1.000000" fill-rule="nonzero"/>
			<path id="Vector" d="M19.62 36.5L7.03 36.5C6.87 36.5 6.72 36.44 6.61 36.33C6.5 36.21 6.43 36.06 6.43 35.9C6.43 35.75 6.5 35.59 6.61 35.48C6.72 35.37 6.87 35.3 7.03 35.3L19.62 35.3C19.78 35.3 19.93 35.37 20.04 35.48C20.16 35.59 20.22 35.75 20.22 35.9C20.22 36.06 20.16 36.21 20.04 36.33C19.93 36.44 19.78 36.5 19.62 36.5Z" fill="#FFFFFF" fill-opacity="1.000000" fill-rule="nonzero"/>
			<path id="Vector" d="M17.48 46.54C16.87 46.55 16.26 46.37 15.75 46.03C15.23 45.69 14.83 45.2 14.59 44.63C14.35 44.06 14.29 43.42 14.4 42.82C14.52 42.21 14.81 41.65 15.25 41.21C15.68 40.76 16.23 40.46 16.84 40.34C17.44 40.22 18.07 40.28 18.64 40.51C19.21 40.75 19.7 41.15 20.04 41.67C20.38 42.18 20.57 42.79 20.57 43.41C20.56 44.23 20.24 45.02 19.66 45.61C19.09 46.19 18.3 46.53 17.48 46.54ZM17.48 41.48C17.11 41.48 16.75 41.59 16.43 41.8C16.12 42.01 15.88 42.3 15.74 42.65C15.59 43 15.56 43.38 15.63 43.75C15.7 44.12 15.88 44.46 16.15 44.73C16.41 44.99 16.75 45.17 17.12 45.25C17.48 45.32 17.86 45.28 18.21 45.14C18.55 45 18.85 44.75 19.06 44.44C19.26 44.12 19.38 43.76 19.38 43.38C19.38 42.88 19.18 42.39 18.82 42.03C18.47 41.68 17.99 41.48 17.48 41.48Z" fill="#FFFFFF" fill-opacity="1.000000" fill-rule="nonzero"/>
			<path id="Vector" d="M22.37 41.7C22 41.7 21.63 41.58 21.32 41.38C21.01 41.17 20.77 40.87 20.63 40.52C20.48 40.17 20.45 39.79 20.52 39.42C20.59 39.06 20.77 38.72 21.04 38.45C21.3 38.19 21.64 38 22 37.93C22.37 37.86 22.75 37.89 23.1 38.04C23.44 38.18 23.74 38.42 23.95 38.74C24.15 39.05 24.26 39.42 24.26 39.8C24.26 40.3 24.07 40.78 23.71 41.14C23.36 41.5 22.87 41.7 22.37 41.7ZM22.37 39.15C22.24 39.15 22.11 39.19 21.99 39.26C21.88 39.34 21.79 39.45 21.74 39.57C21.69 39.7 21.68 39.84 21.71 39.97C21.73 40.1 21.8 40.23 21.9 40.32C21.99 40.42 22.11 40.48 22.25 40.51C22.38 40.53 22.52 40.52 22.64 40.46C22.76 40.41 22.87 40.32 22.94 40.21C23.02 40.09 23.06 39.96 23.05 39.82C23.05 39.73 23.04 39.65 23 39.57C22.97 39.48 22.92 39.41 22.85 39.34C22.79 39.28 22.72 39.23 22.63 39.2C22.55 39.16 22.46 39.15 22.37 39.15Z" fill="#FFFFFF" fill-opacity="1.000000" fill-rule="nonzero"/>
			<path id="Vector" d="M19.35 51.07C18.97 51.07 18.61 50.95 18.3 50.75C17.99 50.53 17.74 50.24 17.6 49.89C17.46 49.54 17.42 49.16 17.49 48.79C17.57 48.42 17.75 48.08 18.01 47.82C18.28 47.55 18.61 47.37 18.98 47.3C19.35 47.23 19.73 47.26 20.07 47.41C20.42 47.55 20.71 47.79 20.92 48.1C21.13 48.42 21.24 48.79 21.24 49.16C21.24 49.67 21.04 50.15 20.69 50.51C20.33 50.87 19.85 51.07 19.35 51.07ZM19.35 48.51C19.21 48.51 19.08 48.54 18.97 48.62C18.85 48.69 18.76 48.8 18.71 48.92C18.66 49.05 18.64 49.19 18.67 49.32C18.7 49.46 18.76 49.58 18.86 49.67C18.95 49.77 19.08 49.84 19.21 49.86C19.34 49.89 19.48 49.87 19.6 49.82C19.73 49.77 19.83 49.68 19.91 49.57C19.98 49.45 20.02 49.32 20.02 49.18C20.02 49 19.95 48.83 19.82 48.71C19.7 48.58 19.53 48.51 19.35 48.51Z" fill="#FFFFFF" fill-opacity="1.000000" fill-rule="nonzero"/>
			<path id="Vector" d="M18.95 48.57C18.83 48.57 18.7 48.53 18.6 48.46C18.5 48.38 18.43 48.28 18.39 48.16L16.92 43.6C16.87 43.44 16.88 43.28 16.96 43.14C17.03 43 17.15 42.89 17.31 42.84C17.46 42.79 17.62 42.81 17.76 42.88C17.9 42.95 18 43.08 18.05 43.23L19.52 47.78C19.54 47.86 19.55 47.94 19.55 48.01C19.54 48.1 19.52 48.17 19.49 48.24C19.45 48.32 19.4 48.38 19.34 48.43C19.28 48.48 19.21 48.52 19.14 48.55C19.08 48.56 19.01 48.57 18.95 48.57Z" fill="#FFFFFF" fill-opacity="1.000000" fill-rule="nonzero"/>
			<path id="Vector" d="M19.52 42.53C19.39 42.53 19.27 42.48 19.17 42.41C19.07 42.33 18.99 42.23 18.95 42.11C18.91 41.99 18.91 41.86 18.95 41.74C18.99 41.62 19.07 41.51 19.17 41.44L21 40.09C21.13 40.02 21.27 40.01 21.41 40.04C21.55 40.07 21.67 40.15 21.75 40.26C21.84 40.38 21.88 40.52 21.87 40.66C21.86 40.8 21.8 40.94 21.7 41.04L19.87 42.38C19.77 42.47 19.65 42.52 19.52 42.53Z" fill="#FFFFFF" fill-opacity="1.000000" fill-rule="nonzero"/>
			<path id="Vector" d="M25.23 15.37L18.28 15.37C17.98 15.39 17.68 15.34 17.4 15.24C17.11 15.14 16.85 14.98 16.64 14.77C16.42 14.57 16.24 14.32 16.12 14.04C16 13.76 15.94 13.46 15.94 13.16C15.94 12.86 16 12.56 16.12 12.28C16.24 12.01 16.42 11.76 16.64 11.55C16.85 11.35 17.11 11.19 17.4 11.08C17.68 10.98 17.98 10.94 18.28 10.96L25.23 10.96C25.78 11 26.3 11.25 26.69 11.66C27.07 12.06 27.28 12.6 27.28 13.16C27.28 13.72 27.07 14.26 26.69 14.67C26.3 15.08 25.78 15.33 25.23 15.37ZM18.28 12.16C18.14 12.15 18 12.16 17.87 12.21C17.73 12.25 17.61 12.32 17.51 12.42C17.4 12.51 17.32 12.62 17.27 12.75C17.21 12.88 17.18 13.02 17.18 13.16C17.18 13.3 17.21 13.44 17.27 13.57C17.32 13.7 17.4 13.82 17.51 13.91C17.61 14 17.73 14.08 17.87 14.12C18 14.16 18.14 14.18 18.28 14.17L25.23 14.17C25.48 14.14 25.71 14.03 25.87 13.84C26.04 13.66 26.13 13.41 26.13 13.16C26.13 12.91 26.04 12.67 25.87 12.49C25.71 12.3 25.48 12.18 25.23 12.16L18.28 12.16Z" fill="#FFFFFF" fill-opacity="1.000000" fill-rule="nonzero"/>
			<path id="Vector" d="M18.35 18.72C18.19 18.72 18.04 18.66 17.92 18.55C17.81 18.44 17.75 18.28 17.75 18.12L17.75 14.76C17.75 14.61 17.81 14.46 17.92 14.34C18.04 14.23 18.19 14.17 18.35 14.17C18.5 14.17 18.66 14.23 18.77 14.34C18.88 14.46 18.94 14.61 18.94 14.76L18.94 18.12C18.94 18.28 18.87 18.43 18.76 18.55C18.65 18.66 18.5 18.72 18.35 18.72Z" fill="#FFFFFF" fill-opacity="1.000000" fill-rule="nonzero"/>
			<path id="Vector" d="M21.75 31.08C21.22 31.08 20.7 30.98 20.21 30.78C19.72 30.58 19.28 30.28 18.91 29.91C18.53 29.53 18.24 29.08 18.03 28.59C17.83 28.1 17.73 27.58 17.73 27.05L17.73 22.59C17.73 22.44 17.79 22.28 17.91 22.17C18.02 22.06 18.17 22 18.33 22C18.48 22 18.64 22.06 18.75 22.17C18.86 22.28 18.92 22.44 18.92 22.59L18.92 27.05C18.92 27.8 19.22 28.53 19.75 29.07C20.28 29.6 21.01 29.9 21.76 29.9C22.51 29.9 23.23 29.6 23.76 29.07C24.3 28.53 24.59 27.8 24.59 27.05L24.59 22.59C24.59 22.44 24.66 22.28 24.77 22.17C24.88 22.06 25.03 22 25.19 22C25.35 22 25.5 22.06 25.61 22.17C25.72 22.28 25.79 22.44 25.79 22.59L25.79 27.05C25.79 27.58 25.68 28.1 25.48 28.6C25.28 29.09 24.98 29.53 24.6 29.91C24.23 30.29 23.78 30.58 23.29 30.78C22.8 30.98 22.28 31.08 21.75 31.08Z" fill="#FFFFFF" fill-opacity="1.000000" fill-rule="nonzero"/>
			<path id="Vector" d="M25.16 18.72C25 18.72 24.85 18.66 24.74 18.55C24.63 18.44 24.57 18.28 24.57 18.12L24.57 14.76C24.57 14.61 24.63 14.46 24.74 14.34C24.85 14.23 25 14.17 25.16 14.17C25.32 14.17 25.47 14.23 25.58 14.34C25.7 14.46 25.76 14.61 25.76 14.76L25.76 18.12C25.76 18.28 25.7 18.44 25.58 18.55C25.47 18.66 25.32 18.72 25.16 18.72Z" fill="#FFFFFF" fill-opacity="1.000000" fill-rule="nonzero"/>
			<path id="Vector" d="M26.41 10.39C26.25 10.39 26.1 10.33 25.99 10.21C25.88 10.1 25.81 9.95 25.81 9.79C25.81 9.63 25.88 9.48 25.99 9.37C26.1 9.26 26.25 9.19 26.41 9.19C26.74 9.19 27.06 9.06 27.3 8.82C27.54 8.58 27.67 8.26 27.67 7.93C27.67 7.59 27.54 7.27 27.3 7.03C27.06 6.8 26.74 6.66 26.41 6.66L24.87 6.66C24.54 6.66 24.22 6.8 23.98 7.03C23.75 7.27 23.61 7.59 23.61 7.93C23.62 8.01 23.61 8.1 23.59 8.18C23.57 8.26 23.52 8.33 23.47 8.4C23.41 8.46 23.34 8.51 23.27 8.55C23.19 8.58 23.11 8.6 23.02 8.6C22.94 8.6 22.85 8.58 22.78 8.55C22.7 8.51 22.63 8.46 22.57 8.4C22.52 8.33 22.48 8.26 22.45 8.18C22.43 8.1 22.42 8.01 22.43 7.93C22.43 7.28 22.69 6.65 23.14 6.19C23.6 5.73 24.22 5.47 24.87 5.46L26.41 5.46C27.06 5.46 27.68 5.72 28.14 6.19C28.6 6.65 28.86 7.27 28.86 7.93C28.86 8.58 28.6 9.21 28.14 9.67C27.68 10.13 27.06 10.39 26.41 10.39Z" fill="#FFFFFF" fill-opacity="1.000000" fill-rule="nonzero"/>
			<path id="Vector" d="M17.1 10.39C16.45 10.39 15.83 10.13 15.37 9.67C14.91 9.21 14.65 8.58 14.65 7.93C14.65 7.28 14.91 6.65 15.37 6.19C15.83 5.73 16.45 5.46 17.1 5.46L20 5.46C20.33 5.46 20.65 5.33 20.89 5.1C21.12 4.86 21.26 4.53 21.26 4.2C21.26 3.87 21.12 3.54 20.89 3.31C20.65 3.07 20.33 2.94 20 2.94L18.68 2.94C18.47 2.95 18.27 2.92 18.08 2.86C17.89 2.79 17.71 2.69 17.56 2.55C17.42 2.41 17.3 2.25 17.22 2.06C17.13 1.87 17.09 1.67 17.09 1.46C17.09 1.26 17.13 1.06 17.22 0.87C17.3 0.69 17.42 0.52 17.56 0.38C17.71 0.25 17.89 0.14 18.08 0.07C18.27 0.01 18.47 -0.02 18.68 0L19.39 0C19.48 -0.02 19.56 -0.01 19.64 0.02C19.73 0.04 19.8 0.08 19.86 0.14C19.93 0.2 19.98 0.26 20.01 0.34C20.05 0.42 20.07 0.51 20.07 0.59C20.07 0.67 20.05 0.76 20.01 0.84C19.98 0.91 19.93 0.98 19.86 1.04C19.8 1.1 19.73 1.14 19.64 1.16C19.56 1.19 19.48 1.19 19.39 1.19L18.68 1.19C18.61 1.2 18.55 1.23 18.51 1.28C18.47 1.33 18.44 1.4 18.44 1.46C18.44 1.53 18.47 1.6 18.51 1.65C18.55 1.7 18.61 1.73 18.68 1.75L20.01 1.75C20.34 1.73 20.68 1.77 20.99 1.89C21.31 2 21.59 2.18 21.84 2.41C22.08 2.64 22.28 2.92 22.41 3.23C22.54 3.53 22.61 3.87 22.61 4.21C22.61 4.54 22.54 4.87 22.41 5.18C22.28 5.49 22.08 5.77 21.84 6C21.59 6.23 21.31 6.41 20.99 6.52C20.68 6.64 20.34 6.69 20.01 6.66L17.1 6.66C16.76 6.66 16.44 6.8 16.21 7.03C15.97 7.27 15.84 7.59 15.84 7.93C15.84 8.26 15.97 8.58 16.21 8.82C16.44 9.06 16.76 9.19 17.1 9.19C17.25 9.19 17.41 9.26 17.52 9.37C17.63 9.48 17.69 9.64 17.69 9.79C17.69 9.95 17.63 10.1 17.52 10.22C17.41 10.33 17.25 10.39 17.1 10.39Z" fill="#FFFFFF" fill-opacity="1.000000" fill-rule="nonzero"/>
			<path id="Vector" d="M50.11 55L31.6 55C31.44 55 31.29 54.93 31.18 54.82C31.07 54.71 31.01 54.55 31.01 54.39L31.01 48.35C31.01 45.46 32.15 42.68 34.19 40.63C36.23 38.58 38.99 37.43 41.87 37.42L50.11 37.42C50.27 37.42 50.42 37.49 50.54 37.6C50.65 37.71 50.71 37.87 50.71 38.02L50.71 54.39C50.71 54.47 50.69 54.55 50.66 54.62C50.63 54.7 50.59 54.76 50.54 54.82C50.48 54.87 50.41 54.92 50.34 54.95C50.27 54.98 50.19 55 50.11 55ZM32.15 53.8L49.48 53.8L49.48 38.62L41.82 38.62C39.27 38.64 36.82 39.67 35.02 41.49C33.21 43.32 32.2 45.78 32.2 48.35L32.15 53.8Z" fill="#FFFFFF" fill-opacity="1.000000" fill-rule="nonzero"/>
			<path id="Vector" d="M35.52 52.36C35.36 52.36 35.21 52.3 35.09 52.18C34.98 52.07 34.92 51.92 34.92 51.76C34.92 48.91 36.05 46.17 38.06 44.15C40.07 42.13 42.79 41 45.62 40.99C45.71 40.98 45.79 40.99 45.87 41.01C45.95 41.04 46.03 41.08 46.09 41.14C46.16 41.19 46.21 41.26 46.24 41.34C46.28 41.42 46.29 41.5 46.29 41.58C46.29 41.67 46.28 41.76 46.24 41.83C46.21 41.91 46.16 41.98 46.09 42.04C46.03 42.09 45.95 42.14 45.87 42.16C45.79 42.18 45.71 42.19 45.62 42.18C43.1 42.19 40.68 43.2 38.89 45C37.11 46.8 36.11 49.24 36.11 51.78C36.11 51.94 36.04 52.08 35.93 52.19C35.82 52.3 35.67 52.36 35.52 52.36Z" fill="#FFFFFF" fill-opacity="1.000000" fill-rule="nonzero"/>
			<path id="Vector" d="M42.36 39.64C42.2 39.64 42.05 39.58 41.94 39.47C41.83 39.35 41.76 39.2 41.76 39.04L41.76 32.87C41.76 31.67 42.24 30.53 43.07 29.69C43.91 28.84 45.05 28.37 46.24 28.37C47.42 28.37 48.56 28.84 49.4 29.69C50.24 30.53 50.71 31.67 50.71 32.87L50.71 38.03C50.72 38.11 50.71 38.19 50.69 38.28C50.66 38.36 50.62 38.43 50.56 38.5C50.51 38.56 50.44 38.61 50.36 38.65C50.29 38.68 50.2 38.7 50.12 38.7C50.03 38.7 49.95 38.68 49.87 38.65C49.8 38.61 49.73 38.56 49.67 38.5C49.62 38.43 49.57 38.36 49.55 38.28C49.52 38.19 49.52 38.11 49.53 38.03L49.53 32.87C49.48 32.02 49.12 31.23 48.5 30.64C47.89 30.06 47.08 29.74 46.24 29.74C45.4 29.74 44.59 30.06 43.98 30.64C43.37 31.23 43 32.02 42.96 32.87L42.96 39.04C42.96 39.2 42.89 39.35 42.78 39.47C42.67 39.58 42.52 39.64 42.36 39.64Z" fill="#FFFFFF" fill-opacity="1.000000" fill-rule="nonzero"/>
			<path id="Vector" d="M42.36 35.1C42.2 35.1 42.05 35.04 41.94 34.93L30.46 23.38C30.04 22.96 29.71 22.46 29.49 21.92C29.26 21.37 29.15 20.78 29.15 20.19C29.15 19.6 29.26 19.02 29.49 18.47C29.71 17.92 30.04 17.43 30.46 17.01C30.87 16.59 31.37 16.26 31.91 16.04C32.45 15.81 33.03 15.69 33.62 15.69C34.21 15.69 34.79 15.81 35.33 16.04C35.87 16.26 36.37 16.59 36.78 17.01L49.18 29.48C49.23 29.54 49.28 29.6 49.31 29.67C49.34 29.75 49.36 29.83 49.36 29.91C49.36 29.98 49.34 30.06 49.31 30.14C49.28 30.21 49.23 30.28 49.18 30.33C49.07 30.44 48.91 30.5 48.76 30.5C48.6 30.5 48.45 30.44 48.34 30.33L35.94 17.86C35.64 17.55 35.27 17.31 34.88 17.14C34.48 16.98 34.05 16.89 33.62 16.89C33.19 16.89 32.76 16.98 32.36 17.14C31.97 17.31 31.6 17.55 31.3 17.86C30.99 18.17 30.75 18.53 30.59 18.93C30.42 19.33 30.34 19.76 30.34 20.19C30.34 20.63 30.42 21.06 30.59 21.46C30.75 21.86 30.99 22.22 31.3 22.53L42.78 34.08C42.86 34.17 42.91 34.28 42.94 34.39C42.96 34.51 42.95 34.62 42.9 34.73C42.86 34.84 42.78 34.93 42.69 35C42.59 35.07 42.48 35.1 42.36 35.1Z" fill="#FFFFFF" fill-opacity="1.000000" fill-rule="nonzero"/>
			<path id="Vector" d="M33.8 22.53C33.39 22.53 32.98 22.41 32.63 22.17C32.28 21.94 32.01 21.6 31.85 21.21C31.69 20.83 31.65 20.4 31.73 19.98C31.81 19.57 32.01 19.19 32.31 18.89C32.6 18.59 32.98 18.39 33.39 18.31C33.8 18.23 34.23 18.27 34.62 18.43C35 18.59 35.33 18.87 35.57 19.21C35.8 19.57 35.92 19.98 35.92 20.4C35.92 20.96 35.7 21.5 35.3 21.9C34.9 22.3 34.37 22.53 33.8 22.53ZM33.8 19.47C33.62 19.47 33.43 19.52 33.28 19.63C33.12 19.73 33 19.88 32.93 20.05C32.86 20.23 32.84 20.42 32.88 20.6C32.91 20.79 33 20.96 33.14 21.09C33.27 21.23 33.44 21.32 33.62 21.35C33.8 21.39 33.99 21.37 34.17 21.3C34.34 21.23 34.49 21.1 34.59 20.95C34.69 20.79 34.75 20.61 34.75 20.42C34.75 20.29 34.73 20.16 34.69 20.05C34.64 19.93 34.57 19.82 34.48 19.73C34.4 19.64 34.29 19.56 34.17 19.51C34.06 19.46 33.93 19.44 33.8 19.44L33.8 19.47Z" fill="#FFFFFF" fill-opacity="1.000000" fill-rule="nonzero"/>
			<path id="Vector" d="M46.27 35.25C45.93 35.25 45.58 35.16 45.27 35C44.97 34.83 44.7 34.6 44.51 34.3C44.31 34.01 44.19 33.68 44.16 33.33C44.12 32.98 44.18 32.63 44.31 32.3C44.44 31.98 44.65 31.69 44.92 31.47C45.19 31.25 45.51 31.1 45.86 31.03C46.2 30.96 46.55 30.98 46.89 31.08C47.22 31.18 47.52 31.37 47.77 31.62C48.06 31.91 48.26 32.29 48.34 32.71C48.43 33.12 48.38 33.55 48.22 33.93C48.06 34.32 47.79 34.65 47.45 34.89C47.1 35.12 46.69 35.25 46.27 35.25ZM46.27 32.19C46.03 32.19 45.79 32.28 45.61 32.46C45.44 32.64 45.35 32.88 45.35 33.12C45.35 33.37 45.44 33.61 45.61 33.78C45.79 33.96 46.03 34.06 46.27 34.06C46.46 34.05 46.63 33.99 46.78 33.89C46.93 33.78 47.04 33.64 47.11 33.47C47.18 33.3 47.2 33.12 47.16 32.94C47.13 32.76 47.05 32.6 46.93 32.46C46.84 32.37 46.74 32.3 46.63 32.26C46.52 32.21 46.4 32.18 46.27 32.19Z" fill="#FFFFFF" fill-opacity="1.000000" fill-rule="nonzero"/>
		</g>
	</g>
</svg>
