<svg width="55.000000" height="55.000000" viewBox="0 0 55 55" fill="none" xmlns="http://www.w3.org/2000/svg" xmlns:xlink="http://www.w3.org/1999/xlink">
	<desc>
			Created with Pixso.
	</desc>
	<defs/>
	<rect id="Frame 123" rx="0.000000" width="54.000000" height="54.000000" transform="translate(0.500000 0.500000)" fill="#FFFFFF" fill-opacity="0"/>
	<rect id="Frame 122" rx="0.000000" width="44.160019" height="44.580017" transform="translate(5.500000 5.500000)" fill="#FFFFFF" fill-opacity="0"/>
	<path id="Vector" d="M45.68 50.57L25.33 50.57C25.16 50.57 25 50.51 24.88 50.39C24.76 50.27 24.7 50.11 24.7 49.94C24.7 49.78 24.76 49.62 24.88 49.5C25 49.38 25.16 49.31 25.33 49.31L45.68 49.31C46.53 49.31 47.35 48.98 47.95 48.37C48.56 47.76 48.9 46.95 48.9 46.09L48.9 20.55C48.9 20.13 48.81 19.71 48.65 19.32C48.49 18.93 48.25 18.58 47.95 18.28C47.65 17.98 47.3 17.74 46.91 17.58C46.52 17.42 46.1 17.33 45.68 17.33L38.87 17.33C38.71 17.33 38.55 17.27 38.43 17.15C38.31 17.03 38.25 16.87 38.25 16.7C38.25 16.54 38.31 16.37 38.43 16.26C38.55 16.14 38.71 16.07 38.87 16.07L45.68 16.07C46.86 16.08 48 16.55 48.84 17.39C49.68 18.23 50.15 19.37 50.16 20.55L50.16 46.09C50.15 47.28 49.68 48.42 48.84 49.26C48 50.1 46.86 50.57 45.68 50.57Z" fill="#FFFFFF" fill-opacity="1.000000" fill-rule="nonzero"/>
	<path id="Vector" d="M29.83 50.57L9.48 50.57C8.29 50.57 7.15 50.1 6.31 49.26C5.47 48.42 5 47.28 5 46.09L5 20.55C5 19.37 5.47 18.23 6.31 17.39C7.15 16.55 8.29 16.08 9.48 16.07L16.28 16.07C16.44 16.07 16.6 16.14 16.72 16.26C16.84 16.37 16.91 16.54 16.91 16.7C16.91 16.87 16.84 17.03 16.72 17.15C16.6 17.27 16.44 17.33 16.28 17.33L9.48 17.33C9.05 17.33 8.63 17.42 8.24 17.58C7.85 17.74 7.5 17.98 7.2 18.28C6.9 18.58 6.66 18.93 6.5 19.32C6.34 19.71 6.25 20.13 6.25 20.55L6.25 46.09C6.25 46.95 6.59 47.76 7.2 48.37C7.8 48.98 8.62 49.31 9.48 49.31L29.83 49.31C29.99 49.31 30.15 49.38 30.27 49.5C30.39 49.62 30.46 49.78 30.46 49.94C30.46 50.11 30.39 50.27 30.27 50.39C30.15 50.51 29.99 50.57 29.83 50.57Z" fill="#FFFFFF" fill-opacity="1.000000" fill-rule="nonzero"/>
	<path id="Vector" d="M27.83 28.42C25.51 28.42 23.25 27.73 21.32 26.44C19.39 25.16 17.89 23.33 17.01 21.19C16.12 19.05 15.89 16.69 16.34 14.42C16.79 12.15 17.91 10.06 19.54 8.42C21.18 6.79 23.27 5.67 25.54 5.22C27.81 4.77 30.17 5 32.31 5.89C34.45 6.77 36.28 8.27 37.56 10.2C38.85 12.12 39.54 14.39 39.54 16.71C39.53 19.81 38.3 22.79 36.1 24.98C33.91 27.18 30.93 28.41 27.83 28.42ZM27.83 6.21C25.76 6.21 23.73 6.82 22.01 7.97C20.29 9.12 18.95 10.75 18.16 12.66C17.37 14.57 17.16 16.67 17.57 18.71C17.97 20.73 18.97 22.6 20.43 24.06C21.89 25.52 23.76 26.52 25.78 26.92C27.81 27.33 29.92 27.12 31.83 26.33C33.74 25.54 35.37 24.2 36.52 22.48C37.67 20.76 38.29 18.73 38.29 16.67C38.28 13.89 37.18 11.23 35.22 9.28C33.25 7.32 30.6 6.21 27.83 6.21Z" fill="#FFFFFF" fill-opacity="1.000000" fill-rule="nonzero"/>
	<path id="Vector" d="M28.73 25.13L26.99 25.13C26.37 25.12 25.79 24.88 25.36 24.45C24.93 24.01 24.69 23.43 24.69 22.82L24.69 20.44L22.3 20.44C21.69 20.44 21.11 20.19 20.67 19.76C20.24 19.33 20 18.75 20 18.14L20 16.4C20 15.78 20.24 15.2 20.67 14.77C21.11 14.34 21.69 14.1 22.3 14.1L24.69 14.1L24.69 11.72C24.69 11.41 24.74 11.12 24.86 10.83C24.98 10.56 25.15 10.3 25.36 10.09C25.57 9.88 25.83 9.71 26.1 9.59C26.38 9.48 26.68 9.42 26.99 9.42L28.73 9.42C29.03 9.42 29.33 9.48 29.61 9.59C29.88 9.71 30.14 9.88 30.35 10.09C30.57 10.3 30.73 10.56 30.85 10.83C30.97 11.12 31.03 11.41 31.03 11.72L31.03 14.1L33.41 14.1C34.02 14.1 34.6 14.34 35.04 14.77C35.47 15.2 35.71 15.78 35.71 16.4L35.71 18.14C35.71 18.75 35.47 19.33 35.04 19.76C34.6 20.19 34.02 20.44 33.41 20.44L31.03 20.44L31.03 22.82C31.03 23.43 30.78 24.01 30.35 24.45C29.92 24.88 29.34 25.12 28.73 25.13ZM22.3 15.36C22.04 15.36 21.79 15.46 21.6 15.65C21.41 15.84 21.3 16.09 21.3 16.36L21.3 18.1C21.3 18.23 21.32 18.37 21.37 18.5C21.41 18.62 21.49 18.74 21.58 18.83C21.67 18.94 21.79 19.01 21.91 19.07C22.04 19.12 22.17 19.15 22.3 19.15L25.3 19.15C25.47 19.15 25.63 19.22 25.74 19.33C25.86 19.45 25.92 19.61 25.92 19.78L25.92 22.78C25.92 22.91 25.94 23.05 25.99 23.17C26.03 23.3 26.11 23.42 26.2 23.52C26.29 23.62 26.41 23.69 26.53 23.75C26.66 23.8 26.79 23.83 26.92 23.83L28.66 23.83C28.8 23.83 28.93 23.8 29.06 23.75C29.18 23.69 29.3 23.62 29.39 23.52C29.48 23.42 29.56 23.3 29.6 23.17C29.65 23.05 29.67 22.91 29.66 22.78L29.66 19.78C29.66 19.61 29.73 19.45 29.85 19.33C29.96 19.22 30.12 19.15 30.29 19.15L33.29 19.15C33.42 19.15 33.55 19.12 33.68 19.07C33.8 19.01 33.92 18.94 34.01 18.83C34.1 18.74 34.18 18.62 34.22 18.5C34.27 18.37 34.29 18.23 34.29 18.1L34.29 16.36C34.29 16.09 34.18 15.84 33.99 15.65C33.8 15.46 33.55 15.36 33.29 15.36L30.29 15.36C30.12 15.35 29.96 15.29 29.85 15.17C29.73 15.05 29.66 14.89 29.66 14.73L29.66 11.73C29.66 11.46 29.56 11.21 29.37 11.02C29.18 10.83 28.93 10.73 28.66 10.73L26.92 10.73C26.66 10.73 26.41 10.83 26.22 11.02C26.03 11.21 25.92 11.46 25.92 11.73L25.92 14.73C25.92 14.89 25.86 15.05 25.74 15.17C25.63 15.29 25.47 15.35 25.3 15.36L22.3 15.36Z" fill="#FFFFFF" fill-opacity="1.000000" fill-rule="nonzero"/>
	<path id="Vector" d="M14.35 35.21L11.24 35.21C10.63 35.21 10.05 34.96 9.61 34.53C9.18 34.1 8.94 33.51 8.93 32.91L8.93 28.62C8.94 28 9.18 27.42 9.61 26.99C10.05 26.56 10.63 26.32 11.24 26.32L14.35 26.32C14.96 26.32 15.55 26.56 15.98 26.99C16.41 27.42 16.65 28.01 16.65 28.62L16.65 32.91C16.65 33.21 16.59 33.51 16.48 33.78C16.36 34.07 16.19 34.32 15.98 34.53C15.77 34.75 15.51 34.91 15.23 35.03C14.96 35.15 14.66 35.21 14.35 35.21ZM11.24 27.58C10.98 27.58 10.72 27.68 10.54 27.87C10.35 28.06 10.24 28.31 10.24 28.58L10.24 32.87C10.24 33.13 10.35 33.39 10.54 33.57C10.72 33.76 10.98 33.87 11.24 33.87L14.35 33.87C14.49 33.87 14.62 33.85 14.75 33.8C14.88 33.76 15 33.68 15.09 33.59C15.19 33.5 15.27 33.39 15.32 33.26C15.38 33.14 15.4 33 15.4 32.87L15.4 28.58C15.4 28.44 15.38 28.3 15.32 28.18C15.27 28.06 15.19 27.94 15.09 27.85C15 27.76 14.88 27.68 14.75 27.64C14.62 27.59 14.49 27.57 14.35 27.58L11.24 27.58Z" fill="#FFFFFF" fill-opacity="1.000000" fill-rule="nonzero"/>
	<path id="Vector" d="M44.25 35.21L41.13 35.21C40.83 35.21 40.53 35.15 40.25 35.03C39.98 34.91 39.72 34.75 39.51 34.53C39.29 34.32 39.13 34.07 39.01 33.78C38.89 33.51 38.83 33.21 38.83 32.91L38.83 28.62C38.83 28.01 39.08 27.42 39.51 26.99C39.94 26.56 40.53 26.32 41.13 26.32L44.25 26.32C44.86 26.32 45.44 26.56 45.87 26.99C46.31 27.42 46.55 28 46.55 28.62L46.55 32.91C46.55 33.51 46.31 34.1 45.87 34.53C45.44 34.96 44.86 35.21 44.25 35.21ZM41.13 27.58C41 27.57 40.86 27.59 40.74 27.64C40.61 27.68 40.49 27.76 40.4 27.85C40.3 27.94 40.22 28.06 40.17 28.18C40.11 28.3 40.08 28.44 40.08 28.58L40.08 32.87C40.08 33 40.11 33.14 40.17 33.26C40.22 33.39 40.3 33.5 40.4 33.59C40.49 33.68 40.61 33.76 40.74 33.8C40.86 33.85 41 33.87 41.13 33.87L44.25 33.87C44.38 33.87 44.52 33.85 44.64 33.8C44.77 33.76 44.89 33.68 44.98 33.59C45.08 33.5 45.16 33.39 45.21 33.26C45.27 33.14 45.29 33 45.29 32.87L45.29 28.58C45.29 28.44 45.27 28.3 45.21 28.18C45.16 28.06 45.08 27.94 44.98 27.85C44.89 27.76 44.77 27.68 44.64 27.64C44.52 27.59 44.38 27.57 44.25 27.58L41.13 27.58Z" fill="#FFFFFF" fill-opacity="1.000000" fill-rule="nonzero"/>
	<path id="Vector" d="M14.35 45.1L11.24 45.1C10.63 45.1 10.05 44.85 9.61 44.42C9.18 43.99 8.94 43.41 8.93 42.8L8.93 38.51C8.94 37.89 9.18 37.31 9.61 36.88C10.05 36.45 10.63 36.21 11.24 36.21L14.35 36.21C14.96 36.21 15.55 36.45 15.98 36.88C16.41 37.31 16.65 37.9 16.65 38.51L16.65 42.8C16.65 43.41 16.41 43.99 15.98 44.42C15.55 44.85 14.96 45.1 14.35 45.1ZM11.24 37.47C10.98 37.47 10.72 37.57 10.54 37.76C10.35 37.95 10.24 38.2 10.24 38.47L10.24 42.76C10.24 42.89 10.26 43.03 10.31 43.16C10.35 43.28 10.43 43.4 10.52 43.5C10.61 43.59 10.73 43.67 10.85 43.73C10.97 43.78 11.11 43.81 11.24 43.81L14.35 43.81C14.49 43.81 14.63 43.79 14.76 43.74C14.9 43.69 15.01 43.61 15.11 43.51C15.21 43.42 15.29 43.3 15.34 43.17C15.39 43.03 15.41 42.9 15.4 42.76L15.4 38.51C15.4 38.37 15.38 38.24 15.32 38.11C15.27 37.99 15.19 37.87 15.09 37.78C15 37.69 14.88 37.62 14.75 37.57C14.62 37.52 14.49 37.5 14.35 37.51L11.24 37.47Z" fill="#FFFFFF" fill-opacity="1.000000" fill-rule="nonzero"/>
	<path id="Vector" d="M44.25 45.1L41.13 45.1C40.53 45.1 39.94 44.85 39.51 44.42C39.08 43.99 38.83 43.41 38.83 42.8L38.83 38.51C38.83 37.9 39.08 37.31 39.51 36.88C39.94 36.45 40.53 36.21 41.13 36.21L44.25 36.21C44.86 36.21 45.44 36.45 45.87 36.88C46.31 37.31 46.55 37.89 46.55 38.51L46.55 42.8C46.55 43.41 46.31 43.99 45.87 44.42C45.44 44.85 44.86 45.1 44.25 45.1ZM41.13 37.47C41 37.46 40.86 37.48 40.74 37.53C40.61 37.57 40.49 37.65 40.4 37.74C40.3 37.83 40.22 37.95 40.17 38.07C40.11 38.19 40.08 38.33 40.08 38.47L40.08 42.76C40.08 42.9 40.1 43.03 40.15 43.17C40.2 43.3 40.28 43.42 40.38 43.51C40.48 43.61 40.59 43.69 40.72 43.74C40.86 43.79 41 43.81 41.13 43.81L44.25 43.81C44.38 43.81 44.52 43.79 44.66 43.74C44.79 43.69 44.9 43.61 45 43.51C45.1 43.42 45.18 43.3 45.23 43.17C45.28 43.03 45.3 42.9 45.29 42.76L45.29 38.51C45.29 38.37 45.27 38.24 45.21 38.11C45.16 37.99 45.08 37.87 44.98 37.78C44.89 37.69 44.77 37.62 44.64 37.57C44.52 37.52 44.38 37.5 44.25 37.51L41.13 37.47Z" fill="#FFFFFF" fill-opacity="1.000000" fill-rule="nonzero"/>
	<path id="Vector" d="M34.34 50.58L21.34 50.58C21.04 50.58 20.74 50.51 20.46 50.4C20.18 50.28 19.93 50.11 19.71 49.9C19.5 49.68 19.33 49.43 19.22 49.15C19.1 48.87 19.04 48.57 19.04 48.26L19.04 35.26C19.04 34.66 19.29 34.07 19.72 33.64C20.15 33.2 20.73 32.96 21.34 32.96L34.34 32.96C34.96 32.96 35.54 33.2 35.97 33.64C36.4 34.07 36.64 34.66 36.64 35.26L36.64 48.26C36.65 48.57 36.59 48.87 36.47 49.15C36.36 49.43 36.19 49.68 35.97 49.9C35.76 50.11 35.51 50.28 35.23 50.4C34.95 50.51 34.65 50.58 34.34 50.58ZM21.34 34.25C21.08 34.25 20.83 34.35 20.64 34.54C20.45 34.73 20.34 34.98 20.34 35.25L20.34 48.25C20.34 48.38 20.36 48.52 20.41 48.64C20.45 48.77 20.53 48.89 20.62 48.99C20.71 49.08 20.83 49.16 20.95 49.21C21.08 49.27 21.21 49.3 21.34 49.3L34.34 49.3C34.48 49.3 34.62 49.27 34.74 49.21C34.86 49.16 34.98 49.08 35.07 48.99C35.16 48.89 35.24 48.77 35.28 48.64C35.33 48.52 35.35 48.38 35.34 48.25L35.34 35.25C35.34 34.98 35.24 34.73 35.05 34.54C34.86 34.35 34.61 34.25 34.34 34.25L21.34 34.25Z" fill="#FFFFFF" fill-opacity="1.000000" fill-rule="nonzero"/>
</svg>
