<svg width="55.000000" height="55.000000" viewBox="0 0 55 55" fill="none" xmlns="http://www.w3.org/2000/svg" xmlns:xlink="http://www.w3.org/1999/xlink">
	<desc>
			Created with Pixso.
	</desc>
	<defs>
		<clipPath id="clip7291_10635">
			<rect id="Frame" rx="0.000000" width="37.000000" height="53.189682" transform="translate(8.500000 0.500000)" fill="white" fill-opacity="0"/>
		</clipPath>
	</defs>
	<rect id="иконка 3900 исследований" rx="0.000000" width="54.000000" height="54.000000" transform="translate(0.500000 0.500000)" fill="#FFFFFF" fill-opacity="0"/>
	<rect id="Frame" rx="0.000000" width="37.000000" height="53.189682" transform="translate(8.500000 0.500000)" fill="#FFFFFF" fill-opacity="0"/>
	<g clip-path="url(#clip7291_10635)">
		<path id="Vector" d="M22.62 30.42L14.95 30.42C14.18 30.42 13.44 30.11 12.9 29.57C12.35 29.02 12.05 28.28 12.05 27.51L12.05 7.48C12.06 6.82 12.29 6.18 12.71 5.67C13.12 5.17 13.7 4.82 14.34 4.67L14.34 1.57C14.34 1.37 14.38 1.17 14.46 0.98C14.53 0.79 14.65 0.62 14.79 0.48C14.94 0.33 15.11 0.22 15.3 0.14C15.49 0.07 15.69 0.03 15.89 0.03L21.77 0.03C21.97 0.03 22.17 0.07 22.36 0.15C22.55 0.22 22.72 0.33 22.86 0.48C23 0.62 23.12 0.8 23.19 0.98C23.27 1.17 23.31 1.37 23.31 1.57L23.31 4.67C23.95 4.82 24.52 5.17 24.94 5.68C25.35 6.19 25.58 6.82 25.59 7.48L25.59 10.39C25.58 10.55 25.5 10.69 25.38 10.79C25.26 10.9 25.11 10.96 24.96 10.96C24.8 10.96 24.65 10.9 24.53 10.79C24.41 10.69 24.33 10.55 24.32 10.39L24.32 7.48C24.32 7.05 24.14 6.63 23.84 6.33C23.54 6.02 23.12 5.85 22.69 5.85C22.52 5.85 22.36 5.78 22.24 5.67C22.12 5.55 22.06 5.39 22.06 5.22L22.06 1.54C22.06 1.5 22.05 1.47 22.04 1.43C22.02 1.4 22 1.37 21.98 1.34C21.95 1.32 21.92 1.3 21.89 1.28C21.86 1.27 21.82 1.26 21.79 1.27L15.98 1.27C15.94 1.26 15.91 1.27 15.87 1.28C15.84 1.3 15.81 1.32 15.78 1.34C15.76 1.37 15.74 1.4 15.72 1.43C15.71 1.47 15.71 1.5 15.71 1.54L15.71 5.22C15.7 5.39 15.64 5.55 15.52 5.66C15.4 5.78 15.24 5.85 15.07 5.85C14.64 5.85 14.23 6.02 13.92 6.33C13.62 6.63 13.45 7.05 13.45 7.48L13.45 27.51C13.45 27.94 13.62 28.35 13.92 28.66C14.23 28.96 14.64 29.14 15.07 29.14L22.75 29.14C23.18 29.14 23.59 28.96 23.9 28.66C24.2 28.35 24.37 27.94 24.37 27.51L24.37 24.78C24.39 24.62 24.47 24.48 24.58 24.37C24.7 24.27 24.85 24.21 25.01 24.21C25.17 24.21 25.32 24.27 25.44 24.37C25.56 24.48 25.63 24.62 25.65 24.78L25.65 27.51C25.65 27.91 25.57 28.29 25.42 28.65C25.26 29.01 25.04 29.34 24.76 29.61C24.47 29.88 24.14 30.09 23.77 30.23C23.41 30.37 23.02 30.43 22.62 30.42Z" fill="#FFFFFF" fill-opacity="1.000000" fill-rule="nonzero"/>
		<path id="Vector" d="M21.63 34.79L16.38 34.79C16.02 34.8 15.67 34.67 15.39 34.44C15.11 34.21 14.93 33.88 14.87 33.52L14.19 29.87C14.16 29.71 14.2 29.53 14.3 29.39C14.39 29.25 14.54 29.16 14.71 29.13C14.79 29.11 14.87 29.11 14.96 29.13C15.04 29.15 15.12 29.18 15.18 29.23C15.25 29.28 15.31 29.34 15.36 29.41C15.4 29.48 15.43 29.56 15.45 29.64L16.12 33.3C16.13 33.36 16.16 33.42 16.21 33.46C16.26 33.5 16.32 33.52 16.38 33.52L21.63 33.52C21.69 33.53 21.75 33.5 21.8 33.46C21.84 33.42 21.88 33.37 21.89 33.31L22.56 29.64C22.58 29.56 22.61 29.48 22.65 29.41C22.7 29.34 22.76 29.28 22.83 29.23C22.89 29.18 22.97 29.15 23.05 29.14C23.14 29.12 23.22 29.12 23.3 29.13C23.38 29.15 23.46 29.18 23.53 29.22C23.6 29.27 23.66 29.33 23.71 29.4C23.76 29.46 23.79 29.54 23.81 29.62C23.83 29.71 23.83 29.79 23.81 29.87L23.14 33.53C23.08 33.89 22.89 34.21 22.61 34.44C22.34 34.67 21.99 34.8 21.63 34.79Z" fill="#FFFFFF" fill-opacity="1.000000" fill-rule="nonzero"/>
		<path id="Vector" d="M45.36 54.19L9.21 54.19C9.04 54.18 8.88 54.11 8.76 54C8.64 53.87 8.57 53.71 8.57 53.54L8.57 51.44C8.57 50.07 9.12 48.75 10.08 47.78C11.05 46.81 12.37 46.26 13.74 46.26L28.54 46.26L31.86 42.75L32.07 29.95C32.09 28.92 31.7 27.94 30.98 27.2L26.26 22.29C26.19 22.23 26.14 22.16 26.11 22.08C26.08 22 26.06 21.91 26.06 21.82C26.06 21.74 26.08 21.65 26.11 21.57C26.14 21.49 26.19 21.42 26.26 21.36C26.32 21.29 26.39 21.24 26.47 21.21C26.55 21.17 26.64 21.15 26.72 21.15C26.81 21.15 26.9 21.17 26.98 21.21C27.06 21.24 27.13 21.29 27.19 21.36L31.92 26.26C32.86 27.24 33.38 28.56 33.36 29.92L33.15 42.99C33.15 43.15 33.08 43.3 32.97 43.42L29.3 47.32C29.18 47.44 29.01 47.51 28.83 47.51L13.74 47.51C13.23 47.51 12.72 47.61 12.25 47.81C11.77 48 11.35 48.29 10.98 48.66C10.62 49.01 10.34 49.45 10.14 49.92C9.95 50.39 9.85 50.9 9.85 51.41L9.85 52.88L44.73 52.88L44.73 49.32L40.44 43.16C40.36 43.05 40.32 42.91 40.33 42.78L40.52 31.72C40.55 29.49 39.7 27.33 38.15 25.73L29.75 17.09C29.63 16.97 29.56 16.8 29.56 16.62C29.56 16.45 29.63 16.28 29.75 16.16C29.87 16.03 30.04 15.96 30.22 15.96C30.39 15.96 30.56 16.03 30.68 16.16L39.09 24.79C40.87 26.65 41.85 29.12 41.82 31.69L41.63 42.55L45.88 48.66C45.96 48.76 46 48.89 46 49.02L46 53.5C46 53.58 45.99 53.67 45.96 53.75C45.94 53.84 45.89 53.91 45.83 53.98C45.77 54.05 45.7 54.1 45.62 54.13C45.54 54.17 45.45 54.19 45.36 54.19Z" fill="#FFFFFF" fill-opacity="1.000000" fill-rule="nonzero"/>
		<path id="Vector" d="M23.3 5.85L19.17 5.85C19.08 5.86 18.99 5.85 18.9 5.82C18.81 5.8 18.73 5.75 18.67 5.69C18.6 5.63 18.54 5.56 18.51 5.48C18.47 5.39 18.45 5.3 18.45 5.21C18.45 5.12 18.47 5.03 18.51 4.94C18.54 4.86 18.6 4.79 18.67 4.73C18.73 4.67 18.81 4.62 18.9 4.59C18.99 4.57 19.08 4.56 19.17 4.57L23.3 4.57C23.45 4.59 23.6 4.66 23.7 4.78C23.81 4.9 23.86 5.05 23.86 5.21C23.86 5.37 23.81 5.52 23.7 5.64C23.6 5.75 23.45 5.83 23.3 5.85Z" fill="#FFFFFF" fill-opacity="1.000000" fill-rule="nonzero"/>
		<path id="Vector" d="M29.24 39.51L8.59 39.51C8.45 39.53 8.31 39.6 8.21 39.71C8.11 39.82 8.06 39.96 8.06 40.11C8.06 40.26 8.11 40.4 8.21 40.51C8.31 40.62 8.45 40.69 8.59 40.71L29.24 40.71C29.38 40.69 29.52 40.62 29.62 40.51C29.71 40.4 29.77 40.26 29.77 40.11C29.77 39.96 29.71 39.82 29.62 39.71C29.52 39.6 29.38 39.53 29.24 39.51Z" fill="#FFFFFF" fill-opacity="1.000000" fill-rule="nonzero"/>
		<path id="Vector" d="M25.26 23.12L25.57 23.12C27.07 23.08 28.5 22.45 29.55 21.36C30.59 20.28 31.16 18.82 31.14 17.32C31.12 15.81 30.51 14.37 29.44 13.31C28.37 12.25 26.92 11.66 25.41 11.66C23.91 11.66 22.46 12.25 21.39 13.31C20.31 14.37 19.7 15.81 19.68 17.32C19.66 18.82 20.23 20.28 21.28 21.36C22.32 22.45 23.75 23.08 25.26 23.12ZM20.89 17.78C20.83 16.62 21.23 15.49 22 14.62C22.78 13.76 23.87 13.24 25.02 13.18L25.27 13.18C26.35 13.18 27.39 13.58 28.19 14.3C28.83 14.88 29.29 15.64 29.5 16.47C29.72 17.31 29.68 18.19 29.39 19.01C29.1 19.83 28.58 20.54 27.89 21.06C27.2 21.58 26.37 21.88 25.5 21.93C24.93 21.96 24.35 21.89 23.81 21.69C23.27 21.5 22.77 21.21 22.35 20.82C21.91 20.43 21.56 19.97 21.31 19.44C21.06 18.92 20.92 18.36 20.89 17.78Z" fill="#FFFFFF" fill-opacity="1.000000" fill-rule="nonzero"/>
		<path id="Vector" d="M36.55 47.56L22.76 47.56C22.66 47.57 22.57 47.56 22.49 47.53C22.4 47.5 22.32 47.46 22.25 47.4C22.18 47.34 22.13 47.26 22.09 47.18C22.05 47.1 22.03 47.01 22.03 46.92C22.03 46.83 22.05 46.74 22.09 46.65C22.13 46.57 22.18 46.5 22.25 46.43C22.32 46.37 22.4 46.33 22.49 46.3C22.57 46.28 22.66 46.26 22.76 46.28L36.55 46.28C36.7 46.3 36.85 46.37 36.95 46.49C37.05 46.61 37.11 46.76 37.11 46.92C37.11 47.07 37.05 47.23 36.95 47.34C36.85 47.46 36.7 47.54 36.55 47.56Z" fill="#FFFFFF" fill-opacity="1.000000" fill-rule="nonzero"/>
	</g>
</svg>
