<svg width="57.003906" height="57.003906" viewBox="0 0 57.0039 57.0039" fill="none" xmlns="http://www.w3.org/2000/svg" xmlns:xlink="http://www.w3.org/1999/xlink">
	<desc>
			Created with Pixso.
	</desc>
	<defs/>
	<path id="Vector" d="M3.24 45.91L3.24 20.66C3.24 17.77 5.58 15.43 8.46 15.43L15.43 15.43" stroke="#00ABDF" stroke-opacity="1.000000" stroke-width="3.000000" stroke-linejoin="round" stroke-linecap="round"/>
	<path id="Vector" d="M53.76 45.91L53.76 20.66C53.76 17.77 51.41 15.43 48.53 15.43L41.56 15.43" stroke="#00ABDF" stroke-opacity="1.000000" stroke-width="3.000000" stroke-linejoin="round" stroke-linecap="round"/>
	<path id="Vector" d="M7.59 55.5C4.23 55.5 1.5 52.77 1.5 49.4L23.27 49.4L23.27 51.14L33.72 51.14L33.72 49.4L55.5 49.4C55.5 52.77 52.77 55.5 49.4 55.5L7.59 55.5Z" stroke="#00ABDF" stroke-opacity="1.000000" stroke-width="3.000000" stroke-linejoin="round"/>
	<path id="Vector" d="M7.59 45.05L7.59 38.38C7.58 35 9.53 31.93 12.58 30.5L22.39 25.88L23.31 22.19" stroke="#00ABDF" stroke-opacity="1.000000" stroke-width="3.000000" stroke-linejoin="round" stroke-linecap="round"/>
	<path id="Vector" d="M49.4 45.05L49.4 38.38C49.41 35 47.46 31.93 44.4 30.5L34.6 25.88L33.66 22.2" stroke="#00ABDF" stroke-opacity="1.000000" stroke-width="3.000000" stroke-linejoin="round" stroke-linecap="round"/>
	<path id="Vector" d="M31.84 23.23C36.56 21.21 37.08 16.94 37.59 12.75C37.87 10.48 37.95 8.04 36.86 5.96C35.86 4.06 34.02 2.75 32.01 2.07C30.91 1.69 29.71 1.5 28.5 1.5C27.28 1.5 26.07 1.7 24.97 2.07C22.96 2.75 21.13 4.06 20.13 5.96C19.03 8.04 19.12 10.48 19.4 12.75C19.91 16.94 20.43 21.21 25.15 23.23" stroke="#00ABDF" stroke-opacity="1.000000" stroke-width="3.000000" stroke-linejoin="round" stroke-linecap="round"/>
	<path id="Vector" d="M22.4 25.88C17.17 28.5 18.04 34.59 18.04 34.59" stroke="#95C11F" stroke-opacity="1.000000" stroke-width="3.000000" stroke-linejoin="round" stroke-linecap="round"/>
	<path id="Vector" d="M34.59 25.88C39.09 27.66 38.95 34.59 38.95 34.59L38.95 38.08" stroke="#95C11F" stroke-opacity="1.000000" stroke-width="3.000000" stroke-linejoin="round" stroke-linecap="round"/>
	<path id="Vector" d="M15.43 45.04L12.82 45.04L12.82 41.56C12.82 37.73 15.17 34.59 18.04 34.59C20.92 34.59 23.27 37.73 23.27 41.56L23.27 45.04L20.66 45.04" stroke="#95C11F" stroke-opacity="1.000000" stroke-width="3.000000" stroke-linejoin="round" stroke-linecap="round"/>
	<path id="Vector" d="M38.95 43.3C37.5 43.3 36.33 42.13 36.33 40.69C36.33 39.24 37.5 38.07 38.95 38.07C40.39 38.07 41.56 39.24 41.56 40.69C41.56 42.13 40.39 43.3 38.95 43.3Z" stroke="#95C11F" stroke-opacity="1.000000" stroke-width="3.000000" stroke-linejoin="round"/>
	<path id="Vector" d="M22.4 25.88C22.4 30.24 28.5 34.59 28.5 34.59C28.5 34.59 34.59 30.24 34.59 25.88" stroke="#00ABDF" stroke-opacity="1.000000" stroke-width="3.000000" stroke-linejoin="round" stroke-linecap="round"/>
</svg>
