<svg width="16.500000" height="18.167969" viewBox="0 0 16.5 18.168" fill="none" xmlns="http://www.w3.org/2000/svg" xmlns:xlink="http://www.w3.org/1999/xlink">
	<desc>
			Created with Pixso.
	</desc>
	<defs/>
	<path id="Icon" d="M15.75 7.41L0.75 7.41M11.75 2.41C13.15 2.41 13.84 2.41 14.38 2.68C14.85 2.92 15.23 3.31 15.47 3.78C15.75 4.31 15.75 5.01 15.75 6.41L15.75 13.41C15.75 14.81 15.75 15.51 15.47 16.05C15.23 16.52 14.85 16.9 14.38 17.14C13.84 17.41 13.15 17.41 11.75 17.41L4.75 17.41C3.34 17.41 2.65 17.41 2.11 17.14C1.64 16.9 1.26 16.52 1.02 16.05C0.75 15.51 0.75 14.81 0.75 13.41L0.75 6.41C0.75 5.01 0.75 4.31 1.02 3.78C1.26 3.31 1.64 2.92 2.11 2.68C2.65 2.41 3.34 2.41 4.75 2.41L11.75 2.41ZM11.58 0.75L11.58 4.08M4.91 0.75L4.91 4.08" stroke="#FFFFFF" stroke-opacity="1.000000" stroke-width="1.500000" stroke-linejoin="round" stroke-linecap="round"/>
</svg>
