<svg width="48.000000" height="48.000000" viewBox="0 0 48 48" fill="none" xmlns="http://www.w3.org/2000/svg" xmlns:xlink="http://www.w3.org/1999/xlink">
	<desc>
			Created with Pixso.
	</desc>
	<defs>
		<clipPath id="clip6101_15357">
			<rect id="Layer_1" rx="-0.500000" width="37.000000" height="37.000000" transform="translate(5.500000 4.500000)" fill="white" fill-opacity="0"/>
		</clipPath>
	</defs>
	<g opacity="0.100000">
		<rect id="Rectangle 1906" rx="10.000000" width="48.000000" height="48.000000" fill="#63C3D1" fill-opacity="1.000000"/>
	</g>
	<rect id="Layer_1" rx="-0.500000" width="37.000000" height="37.000000" transform="translate(5.500000 4.500000)" fill="#FFFFFF" fill-opacity="0"/>
	<g clip-path="url(#clip6101_15357)">
		<path id="Vector" d="M32.3 36C34.65 36 36.81 33.4 38.27 23.96C39.91 13.39 38.7 9 35.28 9C28.95 9 29.77 21.09 24.02 21.03C24 21.03 23.98 21.03 23.98 21.03C23.98 21.03 23.97 21.03 23.95 21.03C18.34 21.04 19.12 9 12.92 9C9.5 9 8.1 14.13 9.58 23.96C10.93 32.97 13.32 36 15.67 36C19.22 36 18.11 27.42 24.09 27.53C29.77 27.64 28.85 36 32.3 36Z" stroke="#63C3D1" stroke-opacity="1.000000" stroke-width="1.800000"/>
		<path id="Vector" d="M18.7 38.69L29.93 38.69" stroke="#63C3D1" stroke-opacity="1.000000" stroke-width="1.800000" stroke-linecap="round"/>
		<path id="Vector" d="M18.49 34.35L18.49 40.14" stroke="#63C3D1" stroke-opacity="1.000000" stroke-width="1.800000" stroke-linecap="round"/>
		<path id="Vector" d="M30.02 34.35L30.02 40.14" stroke="#63C3D1" stroke-opacity="1.000000" stroke-width="1.800000" stroke-linecap="round"/>
		<path id="Vector" d="M18.7 33.67L29.76 33.67" stroke="#63C3D1" stroke-opacity="1.000000" stroke-width="1.800000" stroke-linecap="round"/>
		<path id="Vector" d="M19.02 7.45L29.58 7.45" stroke="#63C3D1" stroke-opacity="1.000000" stroke-width="1.800000" stroke-linecap="round"/>
		<path id="Vector" d="M18.83 9.08L18.83 6" stroke="#63C3D1" stroke-opacity="1.000000" stroke-width="1.800000" stroke-linecap="round"/>
		<path id="Vector" d="M29.67 9.04L29.67 6" stroke="#63C3D1" stroke-opacity="1.000000" stroke-width="1.800000" stroke-linecap="round"/>
		<path id="Vector" d="M19 14L29 14" stroke="#63C3D1" stroke-opacity="1.000000" stroke-width="1.800000" stroke-linecap="round"/>
	</g>
</svg>
