<svg width="20.000000" height="16.000000" viewBox="0 0 20 16" fill="none" xmlns="http://www.w3.org/2000/svg" xmlns:xlink="http://www.w3.org/1999/xlink">
	<desc>
			Created with Pixso.
	</desc>
	<defs/>
	<path id="Icon" d="M1 4L13 4M7 12L19 12M16 7C14.34 7 13 5.65 13 4C13 2.34 14.34 1 16 1C17.65 1 19 2.34 19 4C19 5.65 17.65 7 16 7ZM4 15C2.34 15 1 13.65 1 12C1 10.34 2.34 9 4 9C5.65 9 7 10.34 7 12C7 13.65 5.65 15 4 15Z" stroke="#FFFFFF" stroke-opacity="1.000000" stroke-width="2.000000" stroke-linejoin="round" stroke-linecap="round"/>
</svg>
