<svg viewBox="0 0 40 40" xmlns="http://www.w3.org/2000/svg" xmlns:xlink="http://www.w3.org/1999/xlink" width="40.000000" height="40.000000" fill="none">
	<rect id="arrow-square-right" width="40.000000" height="40.000000" x="0.000000" y="0.000000" fill="rgb(255,255,255)" fill-opacity="0" transform="matrix(-1,0,0,1,40,0)" />
	<path id="Icon" d="M22 0C24.8003 0 26.2004 0 27.2699 0.544967C28.2108 1.02433 28.9757 1.78924 29.455 2.73005C30 3.79961 30 5.19974 30 8L30 22C30 24.8003 30 26.2004 29.455 27.2699C28.9757 28.2108 28.2108 28.9757 27.2699 29.455C26.2004 30 24.8003 30 22 30L8 30C5.19974 30 3.79961 30 2.73005 29.455C1.78924 28.9757 1.02433 28.2108 0.544967 27.2699C0 26.2004 0 24.8003 0 22L0 8C0 5.19974 0 3.79961 0.544967 2.73005C1.02433 1.78924 1.78924 1.02433 2.73005 0.544967C3.79961 0 5.19974 0 8 0L22 0ZM15 21.6667L21.6667 15L15 8.33333M8.33333 15L21.6667 15" fill-rule="evenodd" stroke="rgb(255,255,255)" stroke-linecap="round" stroke-linejoin="round" stroke-width="3.54999995" transform="matrix(-1,0,0,1,35,5)" />
</svg>
