<svg viewBox="0 0 56.7969 56.7998" xmlns="http://www.w3.org/2000/svg" xmlns:xlink="http://www.w3.org/1999/xlink" width="56.796875" height="56.799805" fill="none" customFrame="#000000">
	<path id="Icon" d="M39.05 0C44.0205 0 46.5057 0 48.4042 0.967317C50.0741 1.81819 51.4318 3.1759 52.2827 4.84583C53.25 6.7443 53.25 9.22953 53.25 14.2L53.25 39.05C53.25 44.0205 53.25 46.5057 52.2827 48.4042C51.4318 50.0741 50.0741 51.4318 48.4042 52.2827C46.5057 53.25 44.0205 53.25 39.05 53.25L14.2 53.25C9.22953 53.25 6.7443 53.25 4.84583 52.2827C3.1759 51.4318 1.81819 50.0741 0.967317 48.4042C0 46.5057 0 44.0205 0 39.05L0 14.2C0 9.22953 0 6.7443 0.967317 4.84583C1.81819 3.1759 3.1759 1.81819 4.84583 0.967317C6.7443 0 9.22953 0 14.2 0L39.05 0ZM26.625 38.4583L38.4583 26.625L26.625 14.7917M14.7917 26.625L38.4583 26.625" fill-rule="evenodd" stroke="rgb(255,255,255)" stroke-linecap="round" stroke-linejoin="round" stroke-width="3.54999995" transform="matrix(-1,0,0,1,55.0234,1.7749)" />
</svg>
