<svg viewBox="0 0 18.1016 9.05029" xmlns="http://www.w3.org/2000/svg" xmlns:xlink="http://www.w3.org/1999/xlink" width="18.101562" height="9.050293" fill="none" customFrame="#000000">
	<g id="Group">
		<g id="Group">
			<path id="Vector" d="M17.8109 3.82007L14.2613 0.288658C13.9145 -0.05638 13.3436 -0.107693 12.979 0.21965C12.5902 0.567519 12.5785 1.16381 12.9438 1.52761L14.5527 3.12858C14.7344 3.30942 14.6057 3.618 14.3488 3.618L8.54726 3.618C8.05639 3.618 7.61674 3.98357 7.59112 4.47122C7.56374 4.99072 7.9792 5.4214 8.49604 5.4214L14.3488 5.4214C14.6057 5.4214 14.7344 5.73034 14.5527 5.91082L12.9801 7.4757C12.6333 7.82074 12.582 8.38872 12.9104 8.7511C13.2604 9.1379 13.8601 9.14958 14.2254 8.78649L17.8109 5.21898C18.1994 4.83289 18.1994 4.20616 17.8109 3.82007Z" fill="rgb(11,54,85)" fill-rule="nonzero" />
		</g>
		<g id="Group">
			<path id="Vector" d="M5.1382 3.61816L4.09384 3.61816C3.59336 3.61816 3.1875 4.02195 3.1875 4.51986C3.1875 5.01778 3.59336 5.42156 4.09384 5.42156L5.1382 5.42156C5.63867 5.42156 6.04418 5.01778 6.04418 4.51986C6.04418 4.02195 5.63867 3.61816 5.1382 3.61816Z" fill="rgb(11,54,85)" fill-rule="nonzero" />
		</g>
		<g id="Group">
			<path id="Vector" d="M1.0038 3.61816L0.905985 3.61816C0.405861 3.61816 0 4.0223 0 4.52022C0 5.01813 0.405861 5.42191 0.905985 5.42191L1.00345 5.42191C1.50428 5.42191 1.90943 5.01813 1.90943 4.52022C1.90943 4.0223 1.50428 3.61816 1.0038 3.61816Z" fill="rgb(11,54,85)" fill-rule="nonzero" />
		</g>
	</g>
</svg>
