<svg width="31.666992" height="31.667969" viewBox="0 0 31.667 31.668" fill="none" xmlns="http://www.w3.org/2000/svg" xmlns:xlink="http://www.w3.org/1999/xlink">
	<desc>
			Created with Pixso.
	</desc>
	<defs>
		<clipPath id="clip7291_10357">
			<rect id="_лой_1" rx="0.000000" width="30.666666" height="30.666666" transform="translate(0.500000 0.500000)" fill="white" fill-opacity="0"/>
		</clipPath>
	</defs>
	<rect id="_лой_1" rx="0.000000" width="30.666666" height="30.666666" transform="translate(0.500000 0.500000)" fill="#FFFFFF" fill-opacity="0"/>
	<g clip-path="url(#clip7291_10357)">
		<path id="Vector" d="M28.65 30.05C28.39 30.05 28.17 29.86 28.14 29.6L27.38 22.35C27.19 20.51 25.75 19.01 23.87 18.71L19.37 18L16.08 19.78C15.92 19.87 15.73 19.87 15.58 19.78L12.29 18L7.78 18.71C5.91 19.01 4.46 20.51 4.27 22.35L3.52 29.6C3.49 29.87 3.24 30.07 2.96 30.05C2.68 30.02 2.47 29.78 2.5 29.5L3.25 22.25C3.49 19.96 5.29 18.1 7.62 17.73L12.3 16.99C12.42 16.97 12.53 16.99 12.63 17.04L15.83 18.78L19.02 17.04C19.12 16.99 19.24 16.97 19.35 16.99L24.04 17.73C26.37 18.1 28.17 19.96 28.41 22.25L29.16 29.5C29.19 29.78 28.98 30.02 28.7 30.05C28.68 30.05 28.67 30.05 28.65 30.05L28.65 30.05Z" fill="#63C3D1" fill-opacity="1.000000" fill-rule="nonzero"/>
		<path id="Vector" d="M28.14 29.6L27.38 22.35C27.19 20.51 25.75 19.01 23.87 18.71L19.37 18L16.08 19.78C15.92 19.87 15.73 19.87 15.58 19.78L12.29 18L7.78 18.71C5.91 19.01 4.46 20.51 4.27 22.35L3.52 29.6C3.49 29.87 3.24 30.07 2.96 30.05C2.68 30.02 2.47 29.78 2.5 29.5L3.25 22.25C3.49 19.96 5.29 18.1 7.62 17.73L12.3 16.99C12.42 16.97 12.53 16.99 12.63 17.04L15.83 18.78L19.02 17.04C19.12 16.99 19.24 16.97 19.35 16.99L24.04 17.73C26.37 18.1 28.17 19.96 28.41 22.25L29.16 29.5C29.19 29.78 28.98 30.02 28.7 30.05C28.68 30.05 28.67 30.05 28.65 30.05L28.65 30.05C28.39 30.05 28.17 29.86 28.14 29.6Z" stroke="#63C3D1" stroke-opacity="1.000000" stroke-width="0.500000" stroke-linejoin="round"/>
		<path id="Vector" d="M12.38 17.97C12.32 17.97 12.25 17.96 12.18 17.93C11.92 17.82 11.8 17.53 11.91 17.28L12.41 16.15C12.52 15.89 12.82 15.78 13.08 15.88C13.34 15.99 13.46 16.28 13.35 16.54L12.85 17.67C12.77 17.86 12.58 17.97 12.38 17.97L12.38 17.97Z" fill="#63C3D1" fill-opacity="1.000000" fill-rule="nonzero"/>
		<path id="Vector" d="M12.18 17.93C11.92 17.82 11.8 17.53 11.91 17.28L12.41 16.15C12.52 15.89 12.82 15.78 13.08 15.88C13.34 15.99 13.46 16.28 13.35 16.54L12.85 17.67C12.77 17.86 12.58 17.97 12.38 17.97L12.38 17.97C12.32 17.97 12.25 17.96 12.18 17.93Z" stroke="#63C3D1" stroke-opacity="1.000000" stroke-width="0.500000" stroke-linejoin="round"/>
		<path id="Vector" d="M19.28 17.97C19.08 17.97 18.89 17.85 18.8 17.67L18.31 16.54C18.2 16.28 18.32 15.99 18.58 15.88C18.84 15.78 19.14 15.89 19.25 16.15L19.75 17.28C19.86 17.53 19.74 17.82 19.48 17.93C19.41 17.96 19.34 17.97 19.27 17.97L19.28 17.97Z" fill="#63C3D1" fill-opacity="1.000000" fill-rule="nonzero"/>
		<path id="Vector" d="M18.8 17.67L18.31 16.54C18.2 16.28 18.32 15.99 18.58 15.88C18.84 15.78 19.14 15.89 19.25 16.15L19.75 17.28C19.86 17.53 19.74 17.82 19.48 17.93C19.41 17.96 19.34 17.97 19.27 17.97L19.28 17.97C19.08 17.97 18.89 17.85 18.8 17.67Z" stroke="#63C3D1" stroke-opacity="1.000000" stroke-width="0.500000" stroke-linejoin="round"/>
		<path id="Vector" d="M15.82 15.92C13.08 15.92 11.39 13.48 10.73 11.29C9.97 10.9 9.92 10.11 9.9 9.8L9.85 9.03C9.8 8.3 10.01 7.76 10.48 7.44C10.45 6.41 10.52 3.43 12.16 2.66C12.19 2.64 12.2 2.6 12.22 2.57C12.45 2.08 12.83 1.79 14.11 1.65C15.7 1.48 18.01 1.79 19.17 2.71L19.21 2.75C19.96 3.34 21.2 4.33 21.16 7.44C21.63 7.76 21.84 8.29 21.8 9.03L21.75 9.8C21.73 10.11 21.67 10.87 20.96 11.27C20.33 13.56 18.68 15.92 15.82 15.92L15.82 15.92ZM15.03 2.6C14.75 2.6 14.48 2.61 14.22 2.64C13.26 2.75 13.19 2.9 13.14 3C13.07 3.14 12.95 3.39 12.6 3.55C11.65 4 11.43 6.34 11.52 7.7C11.53 7.92 11.4 8.12 11.2 8.2C11 8.28 10.83 8.39 10.87 8.97L10.92 9.74C10.96 10.25 11.08 10.38 11.32 10.46C11.49 10.51 11.61 10.64 11.66 10.8C12.17 12.7 13.57 14.92 15.83 14.92C18.79 14.92 19.79 11.77 20.03 10.8C20.07 10.64 20.19 10.51 20.36 10.45C20.58 10.37 20.7 10.25 20.73 9.74L20.78 8.98C20.82 8.39 20.65 8.28 20.46 8.2C20.26 8.12 20.13 7.93 20.14 7.72C20.25 4.86 19.24 4.06 18.57 3.52L18.52 3.49C17.78 2.9 16.31 2.6 15.04 2.6L15.03 2.6Z" fill="#63C3D1" fill-opacity="1.000000" fill-rule="nonzero"/>
		<path id="Vector" d="M10.73 11.29C9.97 10.9 9.92 10.11 9.9 9.8L9.85 9.03C9.8 8.3 10.01 7.76 10.48 7.44C10.45 6.41 10.52 3.43 12.16 2.66C12.19 2.64 12.2 2.6 12.22 2.57C12.45 2.08 12.83 1.79 14.11 1.65C15.7 1.48 18.01 1.79 19.17 2.71L19.21 2.75C19.96 3.34 21.2 4.33 21.16 7.44C21.63 7.76 21.84 8.29 21.8 9.03L21.75 9.8C21.73 10.11 21.67 10.87 20.96 11.27C20.33 13.56 18.68 15.92 15.82 15.92L15.82 15.92C13.08 15.92 11.39 13.48 10.73 11.29ZM14.22 2.64C13.26 2.75 13.19 2.9 13.14 3C13.07 3.14 12.95 3.39 12.6 3.55C11.65 4 11.43 6.34 11.52 7.7C11.53 7.92 11.4 8.12 11.2 8.2C11 8.28 10.83 8.39 10.87 8.97L10.92 9.74C10.96 10.25 11.08 10.38 11.32 10.46C11.49 10.51 11.61 10.64 11.66 10.8C12.17 12.7 13.57 14.92 15.83 14.92C18.79 14.92 19.79 11.77 20.03 10.8C20.07 10.64 20.19 10.51 20.36 10.45C20.58 10.37 20.7 10.25 20.73 9.74L20.78 8.98C20.82 8.39 20.65 8.28 20.46 8.2C20.26 8.12 20.13 7.93 20.14 7.72C20.25 4.86 19.24 4.06 18.57 3.52L18.52 3.49C17.78 2.9 16.31 2.6 15.04 2.6L15.03 2.6C14.75 2.6 14.48 2.61 14.22 2.64Z" stroke="#63C3D1" stroke-opacity="1.000000" stroke-width="0.500000" stroke-linejoin="round"/>
		<path id="Vector" d="M20.47 6.04C20.24 6.04 20.03 5.89 19.97 5.66C19.92 5.43 19.79 5.26 19.58 5.14C18.9 4.76 17.4 4.87 15.58 5.42C13.9 5.93 12.65 5.91 11.86 5.34C11.25 4.9 11.08 4.24 11.08 3.92C11.08 3.64 11.31 3.42 11.6 3.42C11.88 3.42 12.11 3.64 12.11 3.91C12.11 3.94 12.14 4.3 12.48 4.54C12.98 4.89 13.97 4.87 15.27 4.47C16.52 4.09 18.8 3.56 20.09 4.28C20.55 4.53 20.85 4.93 20.97 5.42C21.04 5.69 20.87 5.96 20.59 6.03C20.55 6.03 20.51 6.04 20.47 6.04Z" fill="#63C3D1" fill-opacity="1.000000" fill-rule="nonzero"/>
		<path id="Vector" d="M19.97 5.66C19.92 5.43 19.79 5.26 19.58 5.14C18.9 4.76 17.4 4.87 15.58 5.42C13.9 5.93 12.65 5.91 11.86 5.34C11.25 4.9 11.08 4.24 11.08 3.92C11.08 3.64 11.31 3.42 11.6 3.42C11.88 3.42 12.11 3.64 12.11 3.91C12.11 3.94 12.14 4.3 12.48 4.54C12.98 4.89 13.97 4.87 15.27 4.47C16.52 4.09 18.8 3.56 20.09 4.28C20.55 4.53 20.85 4.93 20.97 5.42C21.04 5.69 20.87 5.96 20.59 6.03C20.55 6.03 20.51 6.04 20.47 6.04C20.24 6.04 20.03 5.89 19.97 5.66Z" stroke="#63C3D1" stroke-opacity="1.000000" stroke-width="0.500000" stroke-linejoin="round"/>
		<path id="Vector" d="M10.38 24.16C10.19 24.16 10.03 23.98 10.02 23.73C9.82 19.89 10.96 17.78 11.01 17.69C11.12 17.48 11.35 17.43 11.51 17.58C11.67 17.73 11.71 18.02 11.59 18.23C11.58 18.26 10.56 20.19 10.74 23.66C10.75 23.92 10.6 24.14 10.4 24.16C10.39 24.16 10.39 24.16 10.38 24.16L10.38 24.16Z" fill="#63C3D1" fill-opacity="1.000000" fill-rule="nonzero"/>
		<path id="Vector" d="M10.02 23.73C9.82 19.89 10.96 17.78 11.01 17.69C11.12 17.48 11.35 17.43 11.51 17.58C11.67 17.73 11.71 18.02 11.59 18.23C11.58 18.26 10.56 20.19 10.74 23.66C10.75 23.92 10.6 24.14 10.4 24.16C10.39 24.16 10.39 24.16 10.38 24.16L10.38 24.16C10.19 24.16 10.03 23.98 10.02 23.73Z" stroke="#63C3D1" stroke-opacity="1.000000" stroke-width="0.500000" stroke-linejoin="round"/>
		<path id="Vector" d="M21.25 22.5L21.25 22.5C21.02 22.49 20.84 22.28 20.85 22.03C20.87 19.59 20.07 18.23 20.07 18.22C19.94 18.01 19.99 17.72 20.17 17.58C20.36 17.43 20.61 17.48 20.74 17.69C20.78 17.76 21.69 19.29 21.66 22.04C21.66 22.29 21.48 22.5 21.25 22.5L21.25 22.5Z" fill="#63C3D1" fill-opacity="1.000000" fill-rule="nonzero"/>
		<path id="Vector" d="M21.25 22.5C21.02 22.49 20.84 22.28 20.85 22.03C20.87 19.59 20.07 18.23 20.07 18.22C19.94 18.01 19.99 17.72 20.17 17.58C20.36 17.43 20.61 17.48 20.74 17.69C20.78 17.76 21.69 19.29 21.66 22.04C21.66 22.29 21.48 22.5 21.25 22.5L21.25 22.5L21.25 22.5Z" stroke="#63C3D1" stroke-opacity="1.000000" stroke-width="0.500000" stroke-linejoin="round"/>
		<path id="Vector" d="M10 28.33C9.08 28.33 8.33 27.58 8.33 26.66C8.33 25.75 9.08 25 10 25C10.91 25 11.66 25.75 11.66 26.66C11.66 27.58 10.91 28.33 10 28.33ZM10 25.93C9.59 25.93 9.26 26.26 9.26 26.66C9.26 27.07 9.59 27.39 10 27.39C10.4 27.39 10.72 27.07 10.72 26.66C10.72 26.26 10.4 25.93 10 25.93Z" fill="#63C3D1" fill-opacity="1.000000" fill-rule="nonzero"/>
		<path id="Vector" d="M8.33 26.66C8.33 25.75 9.08 25 10 25C10.91 25 11.66 25.75 11.66 26.66C11.66 27.58 10.91 28.33 10 28.33C9.08 28.33 8.33 27.58 8.33 26.66ZM9.26 26.66C9.26 27.07 9.59 27.39 10 27.39C10.4 27.39 10.72 27.07 10.72 26.66C10.72 26.26 10.4 25.93 10 25.93C9.59 25.93 9.26 26.26 9.26 26.66Z" stroke="#63C3D1" stroke-opacity="1.000000" stroke-width="0.500000" stroke-linejoin="round"/>
		<path id="Vector" d="M19.62 28.33L18.75 28.33C18.56 28.33 18.38 28.24 18.28 28.11C17.77 27.41 17.5 26.59 17.5 25.73C17.5 23.48 19.37 21.66 21.66 21.66C23.96 21.66 25.83 23.48 25.83 25.73C25.83 26.53 25.59 27.31 25.14 27.97C25.04 28.12 24.86 28.21 24.66 28.21L23.8 28.21C23.5 28.21 23.25 28 23.25 27.74C23.25 27.48 23.5 27.27 23.8 27.27L24.33 27.27C24.59 26.8 24.73 26.27 24.73 25.73C24.73 24 23.35 22.59 21.66 22.59C19.96 22.59 18.59 24 18.59 25.73C18.59 26.32 18.75 26.89 19.06 27.39L19.62 27.39C19.92 27.39 20.17 27.6 20.17 27.85C20.17 28.11 19.92 28.32 19.62 28.32L19.62 28.33Z" fill="#63C3D1" fill-opacity="1.000000" fill-rule="nonzero"/>
		<path id="Vector" d="M18.75 28.33C18.56 28.33 18.38 28.24 18.28 28.11C17.77 27.41 17.5 26.59 17.5 25.73C17.5 23.48 19.37 21.66 21.66 21.66C23.96 21.66 25.83 23.48 25.83 25.73C25.83 26.53 25.59 27.31 25.14 27.97C25.04 28.12 24.86 28.21 24.66 28.21L23.8 28.21C23.5 28.21 23.25 28 23.25 27.74C23.25 27.48 23.5 27.27 23.8 27.27L24.33 27.27C24.59 26.8 24.73 26.27 24.73 25.73C24.73 24 23.35 22.59 21.66 22.59C19.96 22.59 18.59 24 18.59 25.73C18.59 26.32 18.75 26.89 19.06 27.39L19.62 27.39C19.92 27.39 20.17 27.6 20.17 27.85C20.17 28.11 19.92 28.32 19.62 28.32L19.62 28.33L18.75 28.33Z" stroke="#63C3D1" stroke-opacity="1.000000" stroke-width="0.500000" stroke-linejoin="round"/>
	</g>
</svg>
