<svg width="48.000000" height="48.000000" viewBox="0 0 48 48" fill="none" xmlns="http://www.w3.org/2000/svg" xmlns:xlink="http://www.w3.org/1999/xlink">
	<desc>
			Created with Pixso.
	</desc>
	<defs>
		<clipPath id="clip6101_15391">
			<rect id="_РµР¶РёРј_РёР·РѕР»СЏС†РёРё" rx="-0.500000" width="37.000000" height="37.000000" transform="translate(5.500000 5.500000)" fill="white" fill-opacity="0"/>
		</clipPath>
	</defs>
	<g opacity="0.100000">
		<rect id="Rectangle 1887" rx="10.000000" width="48.000000" height="48.000000" fill="#EA516D" fill-opacity="1.000000"/>
	</g>
	<rect id="_РµР¶РёРј_РёР·РѕР»СЏС†РёРё" rx="-0.500000" width="37.000000" height="37.000000" transform="translate(5.500000 5.500000)" fill="#FFFFFF" fill-opacity="0"/>
	<g clip-path="url(#clip6101_15391)">
		<path id="Vector" d="M15.02 40.99C14.83 40.99 14.64 40.87 14.57 40.66C13.23 37 14.54 35.1 15.44 34.31C16.08 33.75 17.05 33.74 17.69 34.3C19.59 35.97 24.77 39.44 31.62 35.73C36.56 33.05 38.85 28.25 37.76 22.89C36.83 18.35 33.74 14.85 30.56 14.75C27.78 14.67 26.83 15.81 25.92 16.92C25.11 17.92 24.27 18.94 22.37 18.94C21.76 18.94 21.23 18.68 20.77 18.16C18.62 15.73 18.94 7.83 18.96 7.5C18.97 7.2 19.19 6.98 19.46 7C19.73 7.01 19.93 7.26 19.92 7.55C19.83 9.7 19.92 15.68 21.47 17.44C21.74 17.75 22.03 17.89 22.36 17.89C23.83 17.89 24.43 17.16 25.19 16.23C26.16 15.06 27.35 13.59 30.58 13.7C34.2 13.82 37.69 17.67 38.7 22.67C39.89 28.53 37.41 33.76 32.05 36.67C24.7 40.65 19.13 36.91 17.08 35.12C16.79 34.87 16.34 34.87 16.05 35.12C15.2 35.88 14.41 37.38 15.47 40.28C15.57 40.55 15.45 40.85 15.2 40.96C15.14 40.98 15.08 41 15.02 41L15.02 40.99Z" fill="#EA516D" fill-opacity="1.000000" fill-rule="nonzero"/>
		<path id="Vector" d="M14.57 40.66C13.23 37 14.54 35.1 15.44 34.31C16.08 33.75 17.05 33.74 17.69 34.3C19.59 35.97 24.77 39.44 31.62 35.73C36.56 33.05 38.85 28.25 37.76 22.89C36.83 18.35 33.74 14.85 30.56 14.75C27.78 14.67 26.83 15.81 25.92 16.92C25.11 17.92 24.27 18.94 22.37 18.94C21.76 18.94 21.23 18.68 20.77 18.16C18.62 15.73 18.94 7.83 18.96 7.5C18.97 7.2 19.19 6.98 19.46 7C19.73 7.01 19.93 7.26 19.92 7.55C19.83 9.7 19.92 15.68 21.47 17.44C21.74 17.75 22.03 17.89 22.36 17.89C23.83 17.89 24.43 17.16 25.19 16.23C26.16 15.06 27.35 13.59 30.58 13.7C34.2 13.82 37.69 17.67 38.7 22.67C39.89 28.53 37.41 33.76 32.05 36.67C24.7 40.65 19.13 36.91 17.08 35.12C16.79 34.87 16.34 34.87 16.05 35.12C15.2 35.88 14.41 37.38 15.47 40.28C15.57 40.55 15.45 40.85 15.2 40.96C15.14 40.98 15.08 41 15.02 41L15.02 40.99C14.83 40.99 14.64 40.87 14.57 40.66Z" stroke="#EA516D" stroke-opacity="1.000000" stroke-width="0.500000" stroke-linejoin="round"/>
		<path id="Vector" d="M25.71 26C24.84 26 23.74 25.62 22.94 24.26C22.58 23.65 22.23 23.53 21.59 23.3C20.83 23.02 19.79 22.65 18.32 21.22C14.4 17.41 15.02 7.89 15.05 7.48C15.07 7.19 15.29 6.97 15.55 7C15.8 7.02 16 7.28 15.98 7.57C15.97 7.66 15.36 16.96 18.92 20.41C20.25 21.71 21.14 22.03 21.86 22.28C22.56 22.53 23.17 22.75 23.71 23.67C24.75 25.43 26.31 24.84 26.37 24.82C26.62 24.72 26.88 24.86 26.97 25.14C27.05 25.42 26.93 25.71 26.69 25.82C26.44 25.91 26.1 25.99 25.7 25.99L25.71 26Z" fill="#EA516D" fill-opacity="1.000000" fill-rule="nonzero"/>
		<path id="Vector" d="M22.94 24.26C22.58 23.65 22.23 23.53 21.59 23.3C20.83 23.02 19.79 22.65 18.32 21.22C14.4 17.41 15.02 7.89 15.05 7.48C15.07 7.19 15.29 6.97 15.55 7C15.8 7.02 16 7.28 15.98 7.57C15.97 7.66 15.36 16.96 18.92 20.41C20.25 21.71 21.14 22.03 21.86 22.28C22.56 22.53 23.17 22.75 23.71 23.67C24.75 25.43 26.31 24.84 26.37 24.82C26.62 24.72 26.88 24.86 26.97 25.14C27.05 25.42 26.93 25.71 26.69 25.82C26.44 25.91 26.1 25.99 25.7 25.99L25.71 26C24.84 26 23.74 25.62 22.94 24.26Z" stroke="#EA516D" stroke-opacity="1.000000" stroke-width="0.500000" stroke-linejoin="round"/>
		<path id="Vector" d="M11.18 41C11 41 10.83 40.89 10.74 40.7C10.71 40.65 8.3 35.24 12.32 31.23C14.09 29.45 16.06 30.13 17.35 30.58C17.85 30.75 18.45 30.96 18.63 30.84C18.69 30.8 18.75 30.66 18.79 30.46C19.17 28.14 21.42 27.35 22.42 27.12C22.41 25.8 23.16 25.14 23.19 25.11C23.41 24.93 23.72 24.97 23.89 25.19C24.06 25.41 24.02 25.74 23.82 25.92C23.78 25.95 23.29 26.43 23.44 27.46C23.47 27.6 23.43 27.75 23.35 27.87C23.27 27.98 23.15 28.05 23.01 28.07C22.98 28.07 20.12 28.47 19.76 30.64C19.67 31.17 19.47 31.53 19.14 31.74C18.57 32.1 17.87 31.85 17.04 31.57C15.78 31.13 14.34 30.64 12.99 31.98C9.51 35.47 11.54 40.05 11.63 40.24C11.75 40.5 11.64 40.81 11.4 40.94C11.33 40.98 11.26 40.99 11.18 40.99L11.18 41Z" fill="#EA516D" fill-opacity="1.000000" fill-rule="nonzero"/>
		<path id="Vector" d="M10.74 40.7C10.71 40.65 8.3 35.24 12.32 31.23C14.09 29.45 16.06 30.13 17.35 30.58C17.85 30.75 18.45 30.96 18.63 30.84C18.69 30.8 18.75 30.66 18.79 30.46C19.17 28.14 21.42 27.35 22.42 27.12C22.41 25.8 23.16 25.14 23.19 25.11C23.41 24.93 23.72 24.97 23.89 25.19C24.06 25.41 24.02 25.74 23.82 25.92C23.78 25.95 23.29 26.43 23.44 27.46C23.47 27.6 23.43 27.75 23.35 27.87C23.27 27.98 23.15 28.05 23.01 28.07C22.98 28.07 20.12 28.47 19.76 30.64C19.67 31.17 19.47 31.53 19.14 31.74C18.57 32.1 17.87 31.85 17.04 31.57C15.78 31.13 14.34 30.64 12.99 31.98C9.51 35.47 11.54 40.05 11.63 40.24C11.75 40.5 11.64 40.81 11.4 40.94C11.33 40.98 11.26 40.99 11.18 40.99L11.18 41C11 41 10.83 40.89 10.74 40.7Z" stroke="#EA516D" stroke-opacity="1.000000" stroke-width="0.500000" stroke-linejoin="round"/>
	</g>
</svg>
