<svg width="48.000000" height="48.000000" viewBox="0 0 48 48" fill="none" xmlns="http://www.w3.org/2000/svg" xmlns:xlink="http://www.w3.org/1999/xlink">
	<desc>
			Created with Pixso.
	</desc>
	<defs>
		<clipPath id="clip6101_15452">
			<rect id="Layer_1" rx="-0.500000" width="37.000000" height="37.000000" transform="translate(5.500000 5.500000)" fill="white" fill-opacity="0"/>
		</clipPath>
	</defs>
	<g opacity="0.100000">
		<rect id="Rectangle 1905" rx="10.000000" width="48.000000" height="48.000000" fill="#EA516D" fill-opacity="1.000000"/>
	</g>
	<rect id="Layer_1" rx="-0.500000" width="37.000000" height="37.000000" transform="translate(5.500000 5.500000)" fill="#FFFFFF" fill-opacity="0"/>
	<g clip-path="url(#clip6101_15452)">
		<path id="Shape_602" d="M32.12 29.52C32.12 34.85 27.8 39.17 22.46 39.17C17.13 39.17 12.81 34.85 12.81 29.52C12.81 22.55 19.17 12.05 21.57 8.35C21.76 8.04 22.1 7.86 22.46 7.86C22.83 7.86 23.16 8.04 23.36 8.35L25 10.99" stroke="#EA516D" stroke-opacity="1.000000" stroke-width="1.800000" stroke-linejoin="round" stroke-linecap="round"/>
		<path id="Shape_603" d="M22.46 34.89C19.5 34.89 17.1 32.48 17.1 29.52" stroke="#EA516D" stroke-opacity="1.000000" stroke-width="1.800000" stroke-linejoin="round" stroke-linecap="round"/>
		<path id="Oval_50" d="M39 18.99C39 15.12 35.86 11.99 32 11.99C28.13 11.99 25 15.12 25 18.99C25 22.86 28.13 25.99 32 25.99C35.86 25.99 39 22.86 39 18.99Z" stroke="#EA516D" stroke-opacity="1.000000" stroke-width="1.800000" stroke-linejoin="round"/>
		<path id="Shape_604" d="M32 15.99L32 21.99" stroke="#EA516D" stroke-opacity="1.000000" stroke-width="1.800000" stroke-linejoin="round" stroke-linecap="round"/>
		<path id="Shape_605" d="M29 18.99L35 18.99" stroke="#EA516D" stroke-opacity="1.000000" stroke-width="1.800000" stroke-linejoin="round" stroke-linecap="round"/>
	</g>
</svg>
