<svg width="48.000000" height="48.000000" viewBox="0 0 48 48" fill="none" xmlns="http://www.w3.org/2000/svg" xmlns:xlink="http://www.w3.org/1999/xlink">
	<desc>
			Created with Pixso.
	</desc>
	<defs>
		<clipPath id="clip6101_15437">
			<rect id="_РµР¶РёРј_РёР·РѕР»СЏС†РёРё" rx="-0.500000" width="37.000000" height="37.000000" transform="translate(5.500000 5.500000)" fill="white" fill-opacity="0"/>
		</clipPath>
	</defs>
	<g opacity="0.100000">
		<rect id="Rectangle 1890" rx="10.000000" width="48.000000" height="48.000000" fill="#00ABDF" fill-opacity="1.000000"/>
	</g>
	<rect id="_РµР¶РёРј_РёР·РѕР»СЏС†РёРё" rx="-0.500000" width="37.000000" height="37.000000" transform="translate(5.500000 5.500000)" fill="#FFFFFF" fill-opacity="0"/>
	<g clip-path="url(#clip6101_15437)">
		<path id="Vector" d="M11.59 36.99C11.53 36.99 11.46 36.99 11.4 36.99C8.75 36.92 6.77 32.34 6.18 27.85C5.81 25 6 22.24 6.71 20.09C7.57 17.46 9.21 15.73 11.43 15.07C15.94 13.74 18.76 13.95 21.02 14.12C21.3 14.14 21.57 14.16 21.84 14.18C25.05 14.38 27.66 16.91 27.91 20.05L27.91 20.17C28.12 23.23 28.54 29.6 20.85 31.14C17.35 31.84 16.34 33.33 15.45 34.65C14.64 35.85 13.87 37 11.59 37L11.59 36.99ZM18.34 15.12C16.61 15.12 14.54 15.33 11.74 16.16C7.51 17.4 6.7 23.15 7.3 27.7C7.88 32.16 9.73 35.82 11.43 35.86C13.25 35.91 13.75 35.16 14.52 34.01C15.48 32.59 16.67 30.82 20.63 30.03C26.83 28.79 27.07 24.33 26.79 20.24L26.78 20.14C26.58 17.55 24.42 15.47 21.77 15.3C21.5 15.28 21.22 15.26 20.94 15.25C20.13 15.18 19.28 15.12 18.34 15.12L18.34 15.12Z" fill="#00ABDF" fill-opacity="1.000000" fill-rule="nonzero"/>
		<path id="Vector" d="M11.4 36.99C8.75 36.92 6.77 32.34 6.18 27.85C5.81 25 6 22.24 6.71 20.09C7.57 17.46 9.21 15.73 11.43 15.07C15.94 13.74 18.76 13.95 21.02 14.12C21.3 14.14 21.57 14.16 21.84 14.18C25.05 14.38 27.66 16.91 27.91 20.05L27.91 20.17C28.12 23.23 28.54 29.6 20.85 31.14C17.35 31.84 16.34 33.33 15.45 34.65C14.64 35.85 13.87 37 11.59 37L11.59 36.99C11.53 36.99 11.46 36.99 11.4 36.99ZM11.74 16.16C7.51 17.4 6.7 23.15 7.3 27.7C7.88 32.16 9.73 35.82 11.43 35.86C13.25 35.91 13.75 35.16 14.52 34.01C15.48 32.59 16.67 30.82 20.63 30.03C26.83 28.79 27.07 24.33 26.79 20.24L26.78 20.14C26.58 17.55 24.42 15.47 21.77 15.3C21.5 15.28 21.22 15.26 20.94 15.25C20.13 15.18 19.28 15.12 18.34 15.12L18.34 15.12C16.61 15.12 14.54 15.33 11.74 16.16Z" stroke="#00ABDF" stroke-opacity="1.000000" stroke-width="0.500000"/>
		<path id="Vector" d="M30.45 26C30.23 26 30.01 25.96 29.79 25.9C28.75 25.6 27 24.28 27 18.83L27 18.82C27 18.77 27.24 14.2 34.61 14C39.51 13.87 41.62 15.47 41.95 16.88C42.18 17.88 41.54 18.8 40.32 19.25C36.2 20.71 34.84 22.23 32.98 24.58C32.26 25.5 31.35 25.99 30.46 25.99L30.45 26ZM28.12 18.85C28.12 22.91 29.16 24.66 30.14 24.94C30.73 25.1 31.45 24.76 32.06 24C34.05 21.48 35.57 19.84 39.9 18.3C40.6 18.05 40.96 17.59 40.84 17.08C40.59 16.01 38.55 14.92 34.65 15.02C28.45 15.19 28.14 18.62 28.12 18.85Z" fill="#00ABDF" fill-opacity="1.000000" fill-rule="nonzero"/>
		<path id="Vector" d="M29.79 25.9C28.75 25.6 27 24.28 27 18.83L27 18.82C27 18.77 27.24 14.2 34.61 14C39.51 13.87 41.62 15.47 41.95 16.88C42.18 17.88 41.54 18.8 40.32 19.25C36.2 20.71 34.84 22.23 32.98 24.58C32.26 25.5 31.35 25.99 30.46 25.99L30.45 26C30.23 26 30.01 25.96 29.79 25.9ZM30.14 24.94C30.73 25.1 31.45 24.76 32.06 24C34.05 21.48 35.57 19.84 39.9 18.3C40.6 18.05 40.96 17.59 40.84 17.08C40.59 16.01 38.55 14.92 34.65 15.02C28.45 15.19 28.14 18.62 28.12 18.85C28.12 22.91 29.16 24.66 30.14 24.94Z" stroke="#00ABDF" stroke-opacity="1.000000" stroke-width="0.500000"/>
	</g>
</svg>
