<svg width="46.000000" height="48.000000" viewBox="0 0 46 48" fill="none" xmlns="http://www.w3.org/2000/svg" xmlns:xlink="http://www.w3.org/1999/xlink">
	<desc>
			Created with Pixso.
	</desc>
	<defs>
		<clipPath id="clip6101_15271">
			<rect id="_лой_1" rx="-0.500000" width="37.000000" height="37.000000" transform="translate(4.500000 5.500000)" fill="white" fill-opacity="0"/>
		</clipPath>
	</defs>
	<g opacity="0.100000">
		<rect id="Rectangle 1867" rx="10.000000" width="46.000000" height="48.000000" fill="#EA516D" fill-opacity="1.000000"/>
	</g>
	<rect id="_лой_1" rx="-0.500000" width="37.000000" height="37.000000" transform="translate(4.500000 5.500000)" fill="#FFFFFF" fill-opacity="0"/>
	<g clip-path="url(#clip6101_15271)">
		<path id="Vector" d="M9.95 19.98L8.24 19.98C6.89 19.98 5.79 18.89 5.79 17.53C5.79 16.18 6.89 15.09 8.24 15.09L16.32 15.09C18.63 15.09 20.51 16.96 20.51 19.28L20.51 28.17C20.51 28.95 19.88 29.58 19.1 29.58C18.31 29.58 17.68 28.95 17.68 28.17L17.68 27.66L17.08 25.82C15.63 22.42 14.88 21.57 14.88 17.89" stroke="#EA516D" stroke-opacity="1.000000" stroke-width="2.000000" stroke-linejoin="round" stroke-linecap="round"/>
		<path id="Vector" d="M17.68 27.65L17.68 31.82C17.68 33.2 18.09 34.55 18.85 35.7L20.48 38.13" stroke="#EA516D" stroke-opacity="1.000000" stroke-width="2.000000" stroke-linejoin="round" stroke-linecap="round"/>
		<path id="Vector" d="M11.44 23.56C10.63 24.38 9.3 24.38 8.48 23.56C7.66 22.75 7.66 21.42 8.48 20.6C9.3 19.78 10.63 19.78 11.44 20.6C12.26 21.42 12.26 22.75 11.44 23.56Z" stroke="#EA516D" stroke-opacity="1.000000" stroke-width="2.000000" stroke-linejoin="round"/>
		<path id="Vector" d="M35.83 19.98L37.55 19.98C38.9 19.98 40 18.89 40 17.53C40 16.18 38.9 15.09 37.55 15.09L29.47 15.09C27.15 15.09 25.27 16.96 25.27 19.28L25.27 28.17C25.27 28.95 25.91 29.58 26.69 29.58C27.47 29.58 28.1 28.95 28.1 28.17L28.1 27.66L28.7 25.82C30.15 22.42 30.9 21.57 30.9 17.89" stroke="#EA516D" stroke-opacity="1.000000" stroke-width="2.000000" stroke-linejoin="round" stroke-linecap="round"/>
		<path id="Vector" d="M28.1 27.65L28.1 31.82C28.1 33.2 27.69 34.55 26.93 35.7L25.3 38.13" stroke="#EA516D" stroke-opacity="1.000000" stroke-width="2.000000" stroke-linejoin="round" stroke-linecap="round"/>
		<path id="Vector" d="M37.31 23.56C36.5 24.38 35.17 24.38 34.35 23.56C33.53 22.75 33.53 21.42 34.35 20.6C35.17 19.78 36.5 19.78 37.31 20.6C38.13 21.42 38.13 22.75 37.31 23.56Z" stroke="#EA516D" stroke-opacity="1.000000" stroke-width="2.000000" stroke-linejoin="round"/>
		<path id="Vector" d="M32.09 14.96C30.93 14.96 29.78 14.69 28.75 14.17C28.23 13.92 27.78 13.56 27.34 13.19C26.64 12.59 25.07 11.51 22.89 11.51C20.71 11.51 19.14 12.59 18.44 13.19C18 13.56 17.55 13.92 17.03 14.17C16 14.69 14.85 14.96 13.69 14.96" stroke="#EA516D" stroke-opacity="1.000000" stroke-width="2.000000" stroke-linejoin="round" stroke-linecap="round"/>
	</g>
</svg>
