<svg width="50.996094" height="58.105469" viewBox="0 0 50.9961 58.1055" fill="none" xmlns="http://www.w3.org/2000/svg" xmlns:xlink="http://www.w3.org/1999/xlink">
	<desc>
			Created with Pixso.
	</desc>
	<defs/>
	<path id="Vector" d="M3.96 37.05C5.89 41.25 8.92 44.94 12.82 47.68L25.49 56.6L38.17 47.68C45.27 42.69 49.49 34.55 49.49 25.87L49.49 7.72C36.16 7.72 25.49 1.5 25.49 1.5C25.49 1.5 14.83 7.72 1.5 7.72L1.5 28.16" stroke="#00ABDF" stroke-opacity="1.000000" stroke-width="3.000000" stroke-linejoin="round" stroke-linecap="round"/>
	<path id="Vector" d="M12.16 32.6C13.25 32.6 21.05 32.6 21.05 32.6L21.05 41.49L29.94 41.49L29.94 32.6L38.83 32.6L38.83 29.05" stroke="#95C11F" stroke-opacity="1.000000" stroke-width="3.000000" stroke-linejoin="round" stroke-linecap="round"/>
	<path id="Vector" d="M38.83 23.71L29.94 23.71L29.94 14.83L21.05 14.83L21.05 23.71L12.16 23.71L12.16 27.49" stroke="#95C11F" stroke-opacity="1.000000" stroke-width="3.000000" stroke-linejoin="round" stroke-linecap="round"/>
</svg>
