<svg width="48.000000" height="48.000000" viewBox="0 0 48 48" fill="none" xmlns="http://www.w3.org/2000/svg" xmlns:xlink="http://www.w3.org/1999/xlink">
	<desc>
			Created with Pixso.
	</desc>
	<defs>
		<clipPath id="clip6101_15560">
			<rect id="_лой_1" rx="-0.500000" width="37.000000" height="37.000000" transform="translate(6.000000 9.000000)" fill="white" fill-opacity="0"/>
		</clipPath>
	</defs>
	<rect id="_лой_1" rx="-0.500000" width="37.000000" height="37.000000" transform="translate(6.000000 9.000000)" fill="#FFFFFF" fill-opacity="0"/>
	<g clip-path="url(#clip6101_15560)">
		<path id="Vector" d="M11.03 36.9C10.82 36.9 10.62 36.77 10.53 36.57C10.45 36.35 10.5 36.12 10.65 35.96C10.65 35.96 29.13 17.12 34.01 12.15C34.86 11.28 36.25 11.28 37.11 12.15C37.97 13.02 37.97 14.44 37.11 15.32L28.28 24.31C28.89 25.78 28.58 27.51 27.46 28.66L20.12 36.14C19.67 36.6 19.06 36.86 18.42 36.86L11.04 36.9L11.03 36.9ZM35.56 12.59C35.27 12.59 34.99 12.7 34.77 12.92C30.55 17.23 16.14 31.92 12.34 35.8L18.41 35.76C18.77 35.76 19.1 35.62 19.36 35.36L26.69 27.88C27.58 26.98 27.77 25.58 27.16 24.47C27.05 24.25 27.08 23.99 27.25 23.81L36.35 14.53C36.78 14.09 36.78 13.37 36.35 12.92C36.13 12.7 35.84 12.59 35.56 12.59L35.56 12.59Z" fill="#00ABDF" fill-opacity="1.000000" fill-rule="nonzero"/>
		<path id="Vector" d="M10.53 36.57C10.45 36.35 10.5 36.12 10.65 35.96C10.65 35.96 29.13 17.12 34.01 12.15C34.86 11.28 36.25 11.28 37.11 12.15C37.97 13.02 37.97 14.44 37.11 15.32L28.28 24.31C28.89 25.78 28.58 27.51 27.46 28.66L20.12 36.14C19.67 36.6 19.06 36.86 18.42 36.86L11.04 36.9L11.03 36.9C10.82 36.9 10.62 36.77 10.53 36.57ZM34.77 12.92C30.55 17.23 16.14 31.92 12.34 35.8L18.41 35.76C18.77 35.76 19.1 35.62 19.36 35.36L26.69 27.88C27.58 26.98 27.77 25.58 27.16 24.47C27.05 24.25 27.08 23.99 27.25 23.81L36.35 14.53C36.78 14.09 36.78 13.37 36.35 12.92C36.13 12.7 35.84 12.59 35.56 12.59L35.56 12.59C35.27 12.59 34.99 12.7 34.77 12.92Z" stroke="#00ABDF" stroke-opacity="1.000000" stroke-width="0.500000"/>
		<path id="Vector" d="M12.87 41.49L10.05 41.49C9.75 41.49 9.5 41.25 9.5 40.94C9.5 40.64 9.75 40.39 10.05 40.39L12.87 40.39C13.18 40.39 13.43 40.64 13.43 40.94C13.43 41.25 13.18 41.49 12.87 41.49Z" fill="#00ABDF" fill-opacity="1.000000" fill-rule="nonzero"/>
		<path id="Vector" d="M10.05 41.49C9.75 41.49 9.5 41.25 9.5 40.94C9.5 40.64 9.75 40.39 10.05 40.39L12.87 40.39C13.18 40.39 13.43 40.64 13.43 40.94C13.43 41.25 13.18 41.49 12.87 41.49L10.05 41.49Z" stroke="#00ABDF" stroke-opacity="1.000000" stroke-width="0.500000"/>
		<path id="Vector" d="M19.53 41.49L16.71 41.49C16.4 41.49 16.15 41.25 16.15 40.94C16.15 40.64 16.4 40.39 16.71 40.39L19.53 40.39C19.84 40.39 20.09 40.64 20.09 40.94C20.09 41.25 19.84 41.49 19.53 41.49Z" fill="#00ABDF" fill-opacity="1.000000" fill-rule="nonzero"/>
		<path id="Vector" d="M16.71 41.49C16.4 41.49 16.15 41.25 16.15 40.94C16.15 40.64 16.4 40.39 16.71 40.39L19.53 40.39C19.84 40.39 20.09 40.64 20.09 40.94C20.09 41.25 19.84 41.49 19.53 41.49L16.71 41.49Z" stroke="#00ABDF" stroke-opacity="1.000000" stroke-width="0.500000"/>
		<path id="Vector" d="M26.18 41.49L23.37 41.49C23.06 41.49 22.81 41.25 22.81 40.94C22.81 40.64 23.06 40.39 23.37 40.39L26.18 40.39C26.5 40.39 26.75 40.64 26.75 40.94C26.75 41.25 26.5 41.49 26.18 41.49Z" fill="#00ABDF" fill-opacity="1.000000" fill-rule="nonzero"/>
		<path id="Vector" d="M23.37 41.49C23.06 41.49 22.81 41.25 22.81 40.94C22.81 40.64 23.06 40.39 23.37 40.39L26.18 40.39C26.5 40.39 26.75 40.64 26.75 40.94C26.75 41.25 26.5 41.49 26.18 41.49L23.37 41.49Z" stroke="#00ABDF" stroke-opacity="1.000000" stroke-width="0.500000"/>
		<path id="Vector" d="M32.83 41.49L30.02 41.49C29.71 41.49 29.46 41.25 29.46 40.94C29.46 40.64 29.71 40.39 30.02 40.39L32.83 40.39C33.15 40.39 33.4 40.64 33.4 40.94C33.4 41.25 33.15 41.49 32.83 41.49Z" fill="#00ABDF" fill-opacity="1.000000" fill-rule="nonzero"/>
		<path id="Vector" d="M30.02 41.49C29.71 41.49 29.46 41.25 29.46 40.94C29.46 40.64 29.71 40.39 30.02 40.39L32.83 40.39C33.15 40.39 33.4 40.64 33.4 40.94C33.4 41.25 33.15 41.49 32.83 41.49L30.02 41.49Z" stroke="#00ABDF" stroke-opacity="1.000000" stroke-width="0.500000"/>
		<path id="Vector" d="M39.49 41.49L36.67 41.49C36.37 41.49 36.12 41.25 36.12 40.94C36.12 40.64 36.37 40.39 36.67 40.39L39.49 40.39C39.8 40.39 40.05 40.64 40.05 40.94C40.05 41.25 39.8 41.49 39.49 41.49Z" fill="#00ABDF" fill-opacity="1.000000" fill-rule="nonzero"/>
		<path id="Vector" d="M36.67 41.49C36.37 41.49 36.12 41.25 36.12 40.94C36.12 40.64 36.37 40.39 36.67 40.39L39.49 40.39C39.8 40.39 40.05 40.64 40.05 40.94C40.05 41.25 39.8 41.49 39.49 41.49L36.67 41.49Z" stroke="#00ABDF" stroke-opacity="1.000000" stroke-width="0.500000"/>
	</g>
	<g opacity="0.100000">
		<rect id="Rectangle 1914" rx="10.000000" width="48.000000" height="48.000000" fill="#00ABDF" fill-opacity="1.000000"/>
	</g>
</svg>
