<svg width="47" height="60" viewBox="0 0 47 60" fill="none" xmlns="http://www.w3.org/2000/svg">
<g clip-path="url(#clip0_2689_27859)">
<path d="M30 15.0039C25.8643 15.0039 22.5 11.6396 22.5 7.50391C22.5 3.36819 25.8643 0.00390625 30 0.00390625C34.1357 0.00390625 37.5 3.36819 37.5 7.50391C37.5 11.6396 34.1357 15.0039 30 15.0039ZM30 2.14676C27.045 2.14676 24.6429 4.54891 24.6429 7.50391C24.6429 10.4589 27.045 12.861 30 12.861C32.955 12.861 35.3571 10.4589 35.3571 7.50391C35.3571 4.54891 32.955 2.14676 30 2.14676Z" fill="#00ABDF"/>
<path d="M11.7857 60.0031C5.28643 60.0031 0 54.7166 0 48.2174C0 41.7181 5.28643 36.4316 11.7857 36.4316C18.285 36.4316 23.5714 41.7181 23.5714 48.2174C23.5714 54.7166 18.285 60.0031 11.7857 60.0031ZM11.7857 38.5745C6.46929 38.5745 2.14286 42.9009 2.14286 48.2174C2.14286 53.5338 6.46929 57.8602 11.7857 57.8602C17.1021 57.8602 21.4286 53.5338 21.4286 48.2174C21.4286 42.9009 17.1021 38.5745 11.7857 38.5745Z" fill="#00ABDF"/>
<path d="M11.7856 38.5751C11.1942 38.5751 10.7142 38.0951 10.7142 37.5036V20.3608C10.7142 19.7693 10.2342 19.2893 9.64279 19.2893H5.35707C4.76564 19.2893 4.28564 18.8093 4.28564 18.2179C4.28564 17.6265 4.76564 17.1465 5.35707 17.1465H9.64279C11.4149 17.1465 12.8571 18.5886 12.8571 20.3608V37.5036C12.8571 38.0951 12.3771 38.5751 11.7856 38.5751Z" fill="#00ABDF"/>
<path d="M13.9284 38.7906C13.3369 38.7906 12.8569 38.3106 12.8569 37.7191V32.4049C12.8569 27.1163 14.4534 22.0334 17.4726 17.7091C18.6105 15.9456 21.6126 14.6191 24.4712 14.6191C25.3905 14.6191 26.3141 14.7734 27.1412 15.0649C30.6041 16.3227 32.2712 19.7641 32.1405 22.5306V27.862H36.4262C38.7898 27.862 40.7119 29.7841 40.7119 32.1477C40.7119 34.5113 38.7898 36.4334 36.4262 36.4334H28.9262C25.9712 36.4334 23.5691 34.0313 23.5691 31.0763V24.6477C23.5691 24.0563 24.0491 23.5763 24.6405 23.5763C25.2319 23.5763 25.7119 24.0563 25.7119 24.6477V31.0763C25.7119 32.8484 27.1541 34.2906 28.9262 34.2906H36.4262C37.6069 34.2906 38.5691 33.3284 38.5691 32.1477C38.5691 30.967 37.6069 30.0049 36.4262 30.0049H31.0691C30.4776 30.0049 29.9976 29.5249 29.9976 28.9334V22.5049C29.9976 22.4856 29.9976 22.4684 29.9976 22.4491C30.1005 20.467 28.9026 17.9856 26.4169 17.0834C25.8255 16.8734 25.1484 16.762 24.4691 16.762C22.1634 16.762 19.9176 17.857 19.2662 18.8791C19.2576 18.892 19.2491 18.9049 19.2405 18.9177C16.4655 22.8863 14.9976 27.5491 14.9976 32.4027V37.717C14.9976 38.3084 14.5176 38.7884 13.9262 38.7884L13.9284 38.7906Z" fill="#00ABDF"/>
<path d="M42.0216 60.0031C40.1402 60.0031 38.503 58.7752 37.9523 56.9474L34.5473 45.0031H31.0695C30.478 45.0031 29.998 44.5231 29.998 43.9316C29.998 43.3402 30.478 42.8602 31.0695 42.8602H35.3552C35.833 42.8602 36.2552 43.1774 36.3859 43.6381L40.0073 56.3452C40.2795 57.2452 41.0895 57.8602 42.0195 57.8602C42.6645 57.8602 43.2645 57.5688 43.6609 57.0609C44.0595 56.5509 44.1988 55.8974 44.0445 55.2674L40.8945 42.6266C40.2859 40.2438 38.1473 38.5745 35.698 38.5745H31.0695C30.478 38.5745 29.998 38.0945 29.998 37.5031C29.998 36.9116 30.478 36.4316 31.0695 36.4316H35.698C39.1266 36.4316 42.118 38.7631 42.9709 42.1016L46.123 54.7509C46.438 56.0281 46.1552 57.3502 45.3473 58.3831C44.5416 59.4138 43.3288 60.0031 42.0195 60.0031H42.0216Z" fill="#00ABDF"/>
<path d="M32.1426 60.0031C29.7791 60.0031 27.8569 58.0809 27.8569 55.7174C27.8569 53.3538 29.7791 51.4316 32.1426 51.4316C34.5062 51.4316 36.4284 53.3538 36.4284 55.7174C36.4284 58.0809 34.5062 60.0031 32.1426 60.0031ZM32.1426 53.5745C30.9619 53.5745 29.9998 54.5366 29.9998 55.7174C29.9998 56.8981 30.9619 57.8602 32.1426 57.8602C33.3234 57.8602 34.2855 56.8981 34.2855 55.7174C34.2855 54.5366 33.3234 53.5745 32.1426 53.5745Z" fill="#00ABDF"/>
<path d="M31.0715 47.1462H22.2858C21.6944 47.1462 21.2144 46.6662 21.2144 46.0748C21.2144 45.4833 21.6944 45.0033 22.2858 45.0033H30.0001V36.4319H12.8572V37.5033C12.8572 38.0948 12.3772 38.5748 11.7858 38.5748C11.1944 38.5748 10.7144 38.0948 10.7144 37.5033V35.3605C10.7144 34.7691 11.1944 34.2891 11.7858 34.2891H31.0715C31.6629 34.2891 32.1429 34.7691 32.1429 35.3605V46.0748C32.1429 46.6662 31.6629 47.1462 31.0715 47.1462Z" fill="#00ABDF"/>
<path d="M32.143 56.7891C31.7787 56.7891 31.4251 56.6026 31.2237 56.2683L28.3223 51.4319H22.5001C21.9087 51.4319 21.4287 50.9519 21.4287 50.3605C21.4287 49.7691 21.9087 49.2891 22.5001 49.2891H28.9287C29.3059 49.2891 29.653 49.4862 29.848 49.8098L33.0623 55.1669C33.3666 55.6748 33.2016 56.3326 32.6959 56.6369C32.5244 56.7398 32.3337 56.7891 32.1451 56.7891H32.143Z" fill="#00ABDF"/>
<path d="M26.7858 51.4325C26.1944 51.4325 25.7144 50.9525 25.7144 50.361V46.0753C25.7144 45.4839 26.1944 45.0039 26.7858 45.0039C27.3772 45.0039 27.8572 45.4839 27.8572 46.0753V50.361C27.8572 50.9525 27.3772 51.4325 26.7858 51.4325Z" fill="#00ABDF"/>
<path d="M11.7856 51.4325C10.0134 51.4325 8.57129 49.9903 8.57129 48.2182C8.57129 46.446 10.0134 45.0039 11.7856 45.0039C13.5577 45.0039 14.9999 46.446 14.9999 48.2182C14.9999 49.9903 13.5577 51.4325 11.7856 51.4325ZM11.7856 47.1468C11.1941 47.1468 10.7141 47.6268 10.7141 48.2182C10.7141 48.8096 11.1941 49.2896 11.7856 49.2896C12.377 49.2896 12.857 48.8096 12.857 48.2182C12.857 47.6268 12.377 47.1468 11.7856 47.1468Z" fill="#00ABDF"/>
</g>
<defs>
<clipPath id="clip0_2689_27859">
<rect width="46.2514" height="60" fill="white" transform="translate(0 0.00390625)"/>
</clipPath>
</defs>
</svg>
