<svg width="69" height="65" viewBox="0 0 69 65" fill="none" xmlns="http://www.w3.org/2000/svg">
<g clip-path="url(#clip0_2689_27749)">
<path d="M60.7885 16.967C55.9032 12.0639 49.5332 9.19589 42.6959 8.77997V3.47506H46.4614C47.4179 3.47506 48.1926 2.69752 48.1926 1.73753C48.1926 0.777546 47.4179 0 46.4614 0H35.469C34.5125 0 33.7378 0.777546 33.7378 1.73753C33.7378 2.69752 34.5125 3.47506 35.469 3.47506H39.2345V8.7778C33.5527 9.11987 28.2129 11.1474 23.6987 14.6941C22.2834 15.8061 20.9676 17.0604 19.7893 18.4233C19.1628 19.1476 19.2396 20.2455 19.9613 20.8743C20.6831 21.503 21.777 21.4259 22.4035 20.7016C23.4379 19.5071 24.5914 18.4059 25.8324 17.4307C30.1876 14.0089 35.4203 12.2007 40.9657 12.2007C54.5149 12.2007 65.5386 23.2645 65.5386 36.8628C65.5386 50.4612 54.5149 61.5249 40.9657 61.5249C30.9429 61.5249 22.0118 55.5098 18.215 46.1999C17.8525 45.3116 16.8419 44.887 15.9568 45.2497C15.0717 45.6135 14.6486 46.6278 15.01 47.5161C17.094 52.6244 20.603 56.9769 25.1573 60.1034C29.8241 63.307 35.2905 65 40.9646 65C48.4534 65 55.4931 62.0733 60.7885 56.7587C66.084 51.444 69.0001 44.3787 69.0001 36.8628C69.0001 29.3469 66.084 22.2817 60.7885 16.967Z" fill="#00ABDF"/>
<path d="M26.302 26.2239C26.302 25.2639 25.5273 24.4863 24.5707 24.4863H1.73125C0.774734 24.4863 0 25.2639 0 26.2239C0 27.1838 0.774734 27.9614 1.73125 27.9614H24.5707C25.5273 27.9614 26.302 27.1838 26.302 26.2239Z" fill="#00ABDF"/>
<path d="M26.3022 34.2121C26.3022 33.2522 25.5274 32.4746 24.5709 32.4746H4.84551C3.88899 32.4746 3.11426 33.2522 3.11426 34.2121C3.11426 35.1721 3.88899 35.9497 4.84551 35.9497H24.5709C25.5274 35.9497 26.3022 35.1721 26.3022 34.2121Z" fill="#00ABDF"/>
<path d="M26.3022 42.2024C26.3022 41.2424 25.5275 40.4648 24.571 40.4648H8.65215C7.69563 40.4648 6.9209 41.2424 6.9209 42.2024C6.9209 43.1624 7.69563 43.9399 8.65215 43.9399H24.571C25.5275 43.9399 26.3022 43.1624 26.3022 42.2024Z" fill="#00ABDF"/>
<path d="M55.2657 29.2941C56.049 28.5546 56.0869 27.3177 55.3511 26.5315C54.6143 25.7452 53.3818 25.7072 52.5984 26.4468L40.5565 37.8091L36.8722 33.967C36.1267 33.1895 34.8932 33.1656 34.1185 33.9138C33.3437 34.662 33.3199 35.9 34.0654 36.6776L40.4191 43.3041L55.2657 29.2952V29.2941Z" fill="#93CD66"/>
</g>

</svg>
