<svg width="49" height="53" viewBox="0 0 49 53" fill="none" xmlns="http://www.w3.org/2000/svg">
<g clip-path="url(#clip0_2689_27944)">
<path d="M48.9967 50.5552L48.2987 42.8309C48.2943 42.7689 48.2866 42.7136 48.28 42.6704C48.1332 41.6761 47.5853 39.1017 45.6643 36.6768C43.7367 34.2419 41.0782 32.7339 37.7623 32.1935C37.7371 32.1891 37.7118 32.1869 37.6866 32.1847C36.2062 32.0939 34.8824 31.8104 33.7559 31.3442C33.6343 31.2811 32.5461 30.702 31.7429 29.8173C31.2388 29.0976 30.8859 28.5396 30.5385 27.7833C31.2695 27.1367 32.0793 26.2907 32.6842 25.3019C33.1751 24.4992 33.5082 23.7916 33.6518 22.7431L33.9543 20.5728C34.4013 20.1931 35.7558 18.8511 35.598 16.6642C35.5487 15.9866 35.3273 15.5503 35.0709 15.2669C36.6248 10.6684 36.787 7.32562 35.5695 5.06017C34.7958 3.61963 33.4589 2.63638 31.596 2.13258C29.983 0.167196 25.5854 0.0121798 25.0649 0H25.0452C20.6169 0.00553629 17.3952 1.33425 15.4709 3.94959C12.5593 7.90471 13.5784 13.5108 13.997 15.2613C13.7406 15.5415 13.5148 15.9799 13.4644 16.6642C13.3055 18.8522 14.6578 20.1908 15.1038 20.5695L15.4095 22.7409C15.5531 23.7905 15.8862 24.4992 16.3782 25.3019C16.9568 26.2464 17.7239 27.0725 18.4811 27.7457C18.1086 28.6038 17.7732 29.2327 17.176 29.8683C16.3421 30.7552 15.3515 31.2878 15.2463 31.3431C14.1165 31.8104 12.7927 32.0939 11.3122 32.1858C11.287 32.1869 11.2618 32.1902 11.2366 32.1946C7.92173 32.735 5.26325 34.2442 3.33459 36.6779C1.4147 39.1028 0.866783 41.6739 0.719942 42.666C0.712271 42.7125 0.7046 42.7678 0.700217 42.8298L0.00326945 50.5552C-0.0153596 50.7611 0.0460068 50.9626 0.177506 51.1221C0.309006 51.2815 0.493105 51.379 0.696929 51.3978C0.721038 51.4 0.74405 51.4011 0.767062 51.4011C1.16594 51.4011 1.4936 51.0977 1.52976 50.6969L2.2289 42.9605C2.22999 42.9494 2.22999 42.9461 2.22999 42.9383C2.22999 42.9306 2.23219 42.9228 2.23328 42.9129L2.23547 42.8996C2.42834 41.5919 3.7784 35.006 11.4295 33.7326C10.9988 35.5729 10.8016 37.2426 11.0174 39.1438L10.8509 39.1593C8.99126 39.3265 7.3771 41.1645 7.25327 43.255L7.08671 49.4468C7.08671 49.4767 7.08671 49.5055 7.0889 49.5354C7.18205 50.6205 7.64558 51.5672 8.39294 52.1994C9.01208 52.7232 9.77368 53.0011 10.5956 53.0011C10.7029 53.0011 10.8114 52.9967 10.9188 52.9867L11.516 52.9325C11.9368 52.8948 12.2492 52.5172 12.2119 52.092C12.1933 51.885 12.0968 51.6979 11.939 51.565C11.7823 51.4321 11.5829 51.3701 11.3802 51.3889L10.7829 51.4432C10.2602 51.4897 9.76163 51.3369 9.37809 51.0125C8.954 50.6537 8.68552 50.0957 8.62087 49.4468L8.78524 43.3381C8.86853 42.0337 9.89751 40.8024 10.9879 40.705L12.9549 40.5278C14.0277 40.4304 15.2747 41.4768 15.5706 42.7224L16.8034 48.7193C16.8988 50.006 16.1624 50.977 15.015 51.08L14.4518 51.1309C14.248 51.1498 14.0628 51.2472 13.9313 51.4055C13.7998 51.5639 13.7373 51.7654 13.7559 51.9714C13.7746 52.1773 13.871 52.3644 14.0288 52.4973C14.1866 52.6302 14.3849 52.6933 14.5877 52.6745L15.1509 52.6235C17.1475 52.4442 18.514 50.6903 18.3288 48.5444C18.3266 48.5145 18.3222 48.4846 18.3157 48.4547L17.0708 42.3969L17.0664 42.3759C16.5985 40.3728 14.6512 38.8171 12.819 38.9832L12.5472 39.0076C12.3259 37.1175 12.5604 35.4987 13.0557 33.5488C14.0693 33.3816 15.0085 33.1214 15.8577 32.7671C15.8731 32.7604 15.8895 32.7538 15.9038 32.746C15.9498 32.7228 16.9021 32.2422 17.8653 31.3553L24.0227 37.1031C24.1564 37.2282 24.3285 37.2969 24.5071 37.2969C24.6978 37.2969 24.8786 37.2194 25.0156 37.0798L30.8541 31.1195C31.8689 32.1315 33.0425 32.7206 33.0973 32.7471C33.1116 32.7538 33.1269 32.7615 33.1422 32.7671C33.8732 33.0727 34.672 33.3063 35.5257 33.4724C36.0166 36.9403 35.9158 39.4151 35.1564 42.1345C34.958 42.0946 34.7531 42.0725 34.5427 42.0725C32.8266 42.0725 31.4306 43.4809 31.4306 45.2138C31.4306 46.9466 32.8266 48.355 34.5427 48.355C36.2588 48.355 37.6549 46.9466 37.6549 45.2138C37.6549 44.2571 37.2275 43.399 36.5568 42.8221C37.4149 39.8923 37.5727 37.2814 37.1048 33.695C37.2527 33.7082 37.4017 33.7215 37.553 33.7315C45.2194 35.0004 46.5705 41.5963 46.7634 42.9062L46.7678 42.9306C46.7678 42.9417 46.7689 42.9516 46.77 42.9616L47.4691 50.698C47.5053 51.0999 47.8329 51.4022 48.2318 51.4022C48.2548 51.4022 48.2789 51.4022 48.3019 51.3989C48.5058 51.3801 48.691 51.2826 48.8214 51.1232C48.9529 50.9637 49.0142 50.7633 48.9956 50.5563L48.9967 50.5552ZM30.5024 3.23762C30.5079 3.24648 30.5144 3.25423 30.5199 3.26198C30.5276 3.27305 30.5353 3.28413 30.5429 3.29409C30.5495 3.30295 30.5572 3.31181 30.5649 3.31956C30.5747 3.33063 30.5846 3.34281 30.5944 3.35278C30.601 3.35942 30.6076 3.36496 30.6131 3.3716C30.6251 3.38378 30.6372 3.39485 30.6503 3.40592C30.6558 3.41035 30.6613 3.41478 30.6657 3.41921C30.6799 3.43139 30.6953 3.44246 30.7106 3.45354C30.715 3.45686 30.7194 3.45907 30.7237 3.46239C30.7402 3.47347 30.7577 3.48454 30.7752 3.4934C30.7785 3.49561 30.7829 3.49783 30.7862 3.49893C30.8037 3.5089 30.8224 3.51776 30.841 3.52551C30.8454 3.52772 30.8498 3.52883 30.8541 3.53104C30.8728 3.5388 30.8914 3.54544 30.91 3.55208C30.9155 3.55319 30.9199 3.5554 30.9254 3.55651C30.9396 3.56094 30.9539 3.56537 30.9681 3.56869C32.5538 3.94737 33.6178 4.67706 34.2205 5.79871C35.0621 7.36548 35.0402 9.78262 34.1592 13.0025C33.4337 11.6096 32.3631 10.6153 31.6793 9.98193L31.6618 9.96643C31.5719 9.88338 31.4908 9.80809 31.4196 9.73944C31.1456 9.47148 30.761 9.34747 30.3906 9.40394C30.0115 9.45819 29.6838 9.68075 29.4909 10.0174C29.1918 10.5389 26.3339 11.6627 23.6293 10.9353C20.7254 10.1547 18.4077 10.2787 16.741 11.304C16.021 11.7469 15.5093 12.305 15.1411 12.8652C14.8813 10.6208 14.9087 7.30458 16.7048 4.86861C18.3244 2.67071 21.1309 1.55348 25.043 1.54795C26.7612 1.58891 29.7627 2.08275 30.5013 3.2343L30.5024 3.23762ZM14.9953 16.7794C15.0128 16.5325 15.0676 16.3797 15.1202 16.3199C15.2682 16.2778 15.4019 16.1914 15.5027 16.0685C15.6364 15.9046 15.6714 15.743 15.7207 15.5171C15.8424 14.9591 16.1667 13.4742 17.5398 12.6305C18.8362 11.8333 20.7517 11.7679 23.2359 12.4356C26.0073 13.1808 29.4986 12.3127 30.6032 11.0903L30.6438 11.1268C31.5281 11.9462 33.1729 13.472 33.38 15.6356C33.4107 15.96 33.6387 16.218 33.9301 16.3044C33.997 16.3631 34.0507 16.5435 34.0682 16.7783C34.1756 18.2576 33.2409 19.1589 32.9527 19.3992C32.6743 19.6328 32.4924 19.9639 32.4398 20.3315L32.1341 22.5294C32.0267 23.3166 31.7867 23.8249 31.3812 24.487C30.7665 25.4913 29.8789 26.3439 29.1556 26.9374C29.1359 26.9518 29.1184 26.9662 29.0997 26.9828C29.0186 27.0492 28.9386 27.1123 28.863 27.171C28.062 27.7922 27.3913 28.183 27.2072 28.2661C26.313 28.6702 25.6544 28.8751 24.5323 28.8751C23.4102 28.8751 22.7516 28.6702 21.8596 28.2672C21.6755 28.183 20.8405 27.6992 19.9068 26.9329C19.9035 26.9296 19.9002 26.9274 19.897 26.9241C19.1189 26.2841 18.274 25.4492 17.6845 24.4859C17.279 23.8226 17.039 23.3144 16.9305 22.5249L16.6215 20.3315C16.5722 19.9639 16.3903 19.6317 16.1098 19.3958C15.8216 19.1567 14.889 18.2598 14.9964 16.7772L14.9953 16.7794ZM21.2317 29.6823C22.2749 30.1528 23.1494 30.4263 24.5323 30.4263C25.9152 30.4263 26.7908 30.1539 27.834 29.6823C28.0784 29.5715 28.6318 29.2526 29.3068 28.7677C29.5063 29.1707 29.7134 29.5339 29.9446 29.8982L24.4863 35.4699L18.8724 30.2303C19.2285 29.7376 19.4937 29.2394 19.7227 28.7422C20.4482 29.2648 21.0322 29.5926 21.2317 29.6834V29.6823ZM35.4073 43.9238C35.4347 43.9327 35.4632 43.9382 35.4906 43.9437C35.873 44.2338 36.1207 44.6945 36.1207 45.2127C36.1207 46.0896 35.4128 46.8038 34.5427 46.8038C33.6726 46.8038 32.9647 46.0907 32.9647 45.2127C32.9647 44.3346 33.6726 43.6215 34.5427 43.6215C34.7345 43.6215 34.9175 43.6581 35.0873 43.7212C35.1739 43.8131 35.2824 43.8828 35.4062 43.9227L35.4073 43.9238Z" fill="#00ABDF"/>
</g>
<defs>
<clipPath id="clip0_2689_27944">
<rect width="49" height="53" fill="white"/>
</clipPath>
</defs>
</svg>
