<svg width="41" height="49" viewBox="0 0 41 49" fill="none" xmlns="http://www.w3.org/2000/svg">
<g clip-path="url(#clip0_2689_27925)">
<path d="M12.641 35.1135C12.5746 35.2303 12.5158 35.3518 12.4741 35.4824C12.2035 36.3247 12.3334 37.247 12.8204 37.9832C13.3291 38.7517 13.9862 39.2882 13.3615 40.2596C12.8405 41.0712 12.3952 41.5108 12.3318 42.536C12.2684 43.5551 13.864 43.552 13.9259 42.536C13.98 41.6645 14.8242 41.1711 15.0839 40.361C15.3545 39.5187 15.2246 38.5965 14.7376 37.8603C14.2305 37.0933 13.5718 36.5553 14.1964 35.5839C14.2289 35.5331 14.2614 35.484 14.2938 35.4348C15.203 35.1612 15.8771 34.1851 15.8771 33.02C15.8771 31.6428 14.9386 30.5254 13.779 30.5254C12.6194 30.5254 11.6809 31.6413 11.6809 33.02C11.6809 33.8977 12.0628 34.6678 12.6395 35.112L12.641 35.1135Z" fill="#00ABDF"/>
<path d="M20.2912 28.321C20.2247 28.4378 20.166 28.5607 20.1242 28.6914C19.8536 29.5337 19.9835 30.4559 20.4705 31.1922C20.9792 31.9607 21.6363 32.4972 21.0117 33.4686C20.4906 34.2817 20.0454 34.7198 19.982 35.7465C19.9186 36.7656 21.5142 36.761 21.576 35.7465C21.6301 34.875 22.4743 34.3816 22.7341 33.5716C23.0046 32.7293 22.8748 31.807 22.3877 31.0708C21.8806 30.3038 21.222 29.7658 21.8466 28.7944C21.8791 28.7437 21.9115 28.6945 21.944 28.6453C22.8531 28.3717 23.5272 27.3957 23.5272 26.229C23.5272 24.8518 22.5887 23.7344 21.4291 23.7344C20.2696 23.7344 19.3311 24.8518 19.3311 26.229C19.3311 27.1067 19.7129 27.8768 20.2896 28.321H20.2912Z" fill="#00ABDF"/>
<path d="M27.9399 35.1135C27.8734 35.2303 27.8146 35.3518 27.7729 35.4824C27.5023 36.3247 27.6322 37.247 28.1192 37.9832C28.6279 38.7517 29.285 39.2882 28.6604 40.2596C28.1393 41.0712 27.694 41.5108 27.6307 42.536C27.5688 43.5551 29.1629 43.552 29.2247 42.536C29.2788 41.6645 30.123 41.1711 30.3827 40.361C30.6533 39.5187 30.5234 38.5965 30.0364 37.8603C29.5277 37.0933 28.8706 36.5553 29.4937 35.5839C29.5262 35.5331 29.5587 35.484 29.5911 35.4348C30.5003 35.1612 31.1744 34.1851 31.1744 33.02C31.1744 31.6428 30.2359 30.5254 29.0763 30.5254C27.9167 30.5254 26.9797 31.6413 26.9797 33.02C26.9797 33.8977 27.3616 34.6678 27.9383 35.112L27.9399 35.1135Z" fill="#00ABDF"/>
<path d="M37.7547 0H3.24531C1.45644 0 0 1.44791 0 3.22629V9.79877C0 11.5787 1.45644 13.0251 3.24531 13.0251H4.89656V45.5016C4.89656 47.4307 6.47515 48.9985 8.41553 48.9985H32.5845C34.5248 48.9985 36.1034 47.4291 36.1034 45.5016V13.0266H37.7547C39.5451 13.0266 41 11.5787 41 9.80031V3.22629C41 1.44638 39.5436 0 37.7547 0ZM34.5094 45.5032C34.5094 46.5576 33.6467 47.4153 32.586 47.4153H8.41553C7.35489 47.4153 6.49216 46.5576 6.49216 45.5032V13.1403H34.5078V45.5016L34.5094 45.5032ZM39.4075 9.80031C39.4075 10.7056 38.6669 11.4419 37.7562 11.4419H3.24531C2.33464 11.4419 1.59405 10.7056 1.59405 9.80031V3.22629C1.59405 2.32096 2.33464 1.58471 3.24531 1.58471H5.80723V8.64751C5.80723 9.66658 7.40127 9.66966 7.40127 8.64751V1.58471H12.9812V8.64751C12.9812 9.66658 14.5753 9.66966 14.5753 8.64751V1.58471H20.1568V8.64751C20.1568 9.66658 21.7508 9.66966 21.7508 8.64751V1.58471H27.3308V8.64751C27.3308 9.66658 28.9248 9.66966 28.9248 8.64751V1.58471H34.5063V8.64751C34.5063 9.66658 36.1003 9.66966 36.1003 8.64751V1.58471H37.7516C38.6623 1.58471 39.4029 2.32096 39.4029 3.22629V9.79877L39.4075 9.80031Z" fill="#00ABDF"/>
</g>
<defs>
<clipPath id="clip0_2689_27925">
<rect width="41" height="49" fill="white"/>
</clipPath>
</defs>
</svg>
