<svg width="58" height="57" viewBox="0 0 58 57" fill="none" xmlns="http://www.w3.org/2000/svg">
<g clip-path="url(#clip0_2689_27684)">
<path d="M57.8609 56.3661C57.866 56.3559 57.8711 56.3439 57.8762 56.3337C57.888 56.3099 57.8999 56.286 57.9101 56.2604C57.9152 56.2468 57.9203 56.2332 57.9254 56.2213C57.9338 56.1974 57.9423 56.1752 57.9491 56.1514C57.9542 56.1361 57.9559 56.1224 57.961 56.1071C57.9661 56.0849 57.9729 56.0611 57.9779 56.0389C57.9813 56.0219 57.983 56.0048 57.9864 55.9878C57.9898 55.9674 57.9932 55.9452 57.9949 55.9248C57.9966 55.9026 57.9966 55.8822 57.9983 55.86C57.9983 55.843 58 55.8259 58 55.8089V21.6668C58 21.2868 57.8202 20.929 57.5149 20.704L29.7022 0.230045C29.285 -0.0766816 28.7167 -0.0766816 28.2978 0.230045L0.485114 20.7057C0.179798 20.9307 0 21.2885 0 21.6685V55.8038V55.8089C0 55.8089 0 55.8259 0 55.8344C0 55.8651 0 55.8958 0.00508861 55.9265C0.00508861 55.9435 0.0101772 55.9588 0.0118734 55.9742C0.0152658 55.9963 0.016962 56.0185 0.0220507 56.0406C0.0254431 56.0594 0.0305317 56.0781 0.0356203 56.0969C0.0407089 56.1156 0.0441013 56.1343 0.0491899 56.1531C0.0559747 56.1735 0.0627595 56.194 0.0695444 56.2127C0.074633 56.2298 0.0814178 56.2451 0.0882026 56.2622C0.0966836 56.2843 0.106861 56.3048 0.117038 56.3252C0.123823 56.3388 0.128911 56.3525 0.137393 56.3661C0.150962 56.39 0.164532 56.4138 0.179798 56.4377C0.186582 56.4479 0.191671 56.4564 0.19676 56.4666C0.21881 56.499 0.240861 56.5297 0.266304 56.5604C0.291747 56.5927 0.318886 56.6234 0.347722 56.6507C0.354507 56.6575 0.361291 56.6626 0.369772 56.6694C0.390127 56.6899 0.412178 56.7086 0.434228 56.7274C0.447798 56.7393 0.463064 56.7495 0.47833 56.7597C0.495292 56.7717 0.510557 56.7853 0.527519 56.7955C0.542785 56.8057 0.558051 56.8143 0.573317 56.8245C0.590279 56.8347 0.608937 56.8466 0.627595 56.8569C0.641165 56.8637 0.654735 56.8705 0.668304 56.8773C0.690355 56.8875 0.71071 56.8978 0.73276 56.908C0.742937 56.9131 0.754811 56.9165 0.764988 56.9199C0.790431 56.9301 0.815874 56.9387 0.841317 56.9472C0.849798 56.9489 0.858279 56.9506 0.865064 56.954C0.893899 56.9625 0.922735 56.9693 0.953267 56.9761C0.958355 56.9761 0.96514 56.9761 0.970229 56.9796C1.01603 56.9881 1.06182 56.9932 1.10932 56.9966C1.13306 56.9966 1.15681 57 1.18056 57H56.8127C56.8992 57 56.984 56.9898 57.0654 56.9727C57.0705 56.9727 57.0773 56.9693 57.0824 56.9676C57.118 56.9591 57.1519 56.9506 57.1858 56.9387C57.196 56.9352 57.2062 56.9318 57.2147 56.9284C57.2435 56.9182 57.2723 56.9063 57.2995 56.8943C57.3113 56.8892 57.3249 56.8824 57.3368 56.8756C57.3605 56.8637 57.3843 56.8517 57.408 56.8381C57.4216 56.8296 57.4352 56.8228 57.4487 56.8143C57.4708 56.8006 57.4928 56.7853 57.5132 56.77C57.5251 56.7614 57.5386 56.7512 57.5505 56.7427C57.5743 56.7239 57.5963 56.7035 57.6184 56.6831C57.6268 56.6745 57.6353 56.6677 57.6438 56.6592C57.7032 56.6013 57.7557 56.5365 57.8015 56.4666C57.8066 56.4598 57.81 56.453 57.8134 56.4462C57.8304 56.4206 57.8456 56.3934 57.8609 56.3661ZM2.37469 24.4495L20.5834 38.3101L2.37469 53.2886V24.4495ZM23.6434 38.8759C26.2301 36.7475 31.183 36.2653 34.4312 38.9372L53.4881 54.6143H4.5119L23.6434 38.8759ZM37.4166 38.3101L55.6236 24.4495V53.2886L37.4166 38.3101ZM29 2.67193L55.0808 21.8713L35.5151 36.7663C31.7886 34.0364 26.147 34.0279 22.4832 36.7629L2.91917 21.8713L29 2.67193Z" fill="#00ABDF"/>
<path d="M29.3305 31.2757C30.9216 31.2757 32.4583 30.9621 33.8984 30.3419C34.5006 30.0829 34.7804 29.3808 34.5226 28.7759C34.2648 28.1709 33.566 27.8898 32.9638 28.1488C31.8206 28.6395 30.5993 28.89 29.3305 28.89C24.5252 28.89 20.6154 25.2315 20.6154 20.7345C20.6154 16.2376 24.5252 12.579 29.3305 12.579C32.0936 12.579 34.5769 13.6321 35.9729 15.3975C37.1144 16.8408 37.4672 18.6812 36.9957 20.7209C36.8481 21.3565 36.5021 22.0262 35.9661 22.7129C35.1706 23.7302 33.6474 24.1699 32.8671 23.87C32.6941 23.8035 32.2344 23.6263 32.3057 22.563C32.3379 22.0671 32.3752 21.6377 32.4278 21.2406L32.633 20.1398C32.8603 19.2554 33.2454 18.4068 33.9612 17.1424C34.2851 16.5699 34.085 15.8422 33.5151 15.5168C32.9451 15.1913 32.2209 15.3924 31.8969 15.9649C31.7951 16.1456 31.6984 16.3194 31.6085 16.4881C30.9843 15.9428 30.16 15.6378 29.2779 15.6378H28.8471C26.7421 15.6378 24.7847 17.2873 24.3912 19.3917L23.9179 21.9256C23.7144 23.0145 23.9739 24.0932 24.6304 24.889C25.2766 25.6711 26.2621 26.121 27.3324 26.121H27.7632C28.8081 26.121 29.8156 25.7137 30.6146 25.0474C30.9623 25.5126 31.4338 25.8722 32.0207 26.0971C33.8526 26.8026 36.4614 25.9455 37.837 24.1852C38.5901 23.2224 39.0854 22.2392 39.311 21.2611C39.9522 18.4869 39.4416 15.9462 37.8353 13.9133C35.9932 11.5839 32.8162 10.1934 29.3339 10.1934C23.2191 10.1934 18.2441 14.9221 18.2441 20.7345C18.2441 26.547 23.2191 31.2757 29.3339 31.2757H29.3305ZM27.7598 23.737H27.329C26.9558 23.737 26.6539 23.6092 26.4538 23.369C26.2468 23.1185 26.1739 22.7623 26.2468 22.3687L26.7201 19.8348C26.8999 18.8703 27.8921 18.0251 28.842 18.0251H29.2729C29.646 18.0251 29.948 18.1529 30.1481 18.3932C30.355 18.6437 30.428 18.9998 30.355 19.3934L30.3092 19.6354C30.2126 20.0256 30.1413 20.4227 30.0836 20.8436L29.8801 21.9273C29.7003 22.8918 28.708 23.737 27.7581 23.737H27.7598Z" fill="#93CD66"/>
</g>
<defs>
<clipPath id="clip0_2689_27684">
<rect width="58" height="57" fill="white"/>
</clipPath>
</defs>
</svg>
