<svg width="50" height="47" viewBox="0 0 50 47" fill="none" xmlns="http://www.w3.org/2000/svg">
<g clip-path="url(#clip0_2689_27933)">
<path d="M24.8743 5.29657C26.5483 3.46231 28.1547 2.08758 30.1415 1.20134C35.5863 -1.22954 41.8518 0.154845 45.7501 4.82545C50.2083 10.1641 51.0405 16.2114 48.8065 22.7066C47.4685 26.5952 45.111 29.8834 42.3712 32.8993C37.6137 38.1298 31.9893 42.2637 25.9092 45.8183C25.2643 46.1948 24.7082 46.2044 24.0826 45.8376C17.2766 41.8563 11.0632 37.1548 6.00841 31.0341C5.84236 30.8333 5.68404 30.6248 5.54116 30.4086C5.2303 29.9413 5.27278 29.4644 5.68983 29.1188C6.10495 28.777 6.578 28.8098 6.98346 29.2018C7.10897 29.3215 7.22095 29.4547 7.33101 29.5899C11.378 34.6389 16.3749 38.5971 21.7425 42.1246C22.7909 42.8139 23.876 43.4472 24.9457 44.1095C28.6528 41.976 32.0684 39.5895 35.2851 36.9192C38.7123 34.0732 41.8421 30.9415 44.3271 27.2169C45.9335 24.8092 47.2291 22.2451 47.7272 19.3721C48.7119 13.7013 47.341 8.71215 42.9852 4.8158C38.359 0.678092 31.6687 1.03529 27.3418 5.50895C26.8302 6.03799 26.3899 6.6404 25.9072 7.1984C25.2179 7.99196 24.6986 7.95914 23.99 7.16558C23.1809 6.26004 22.4202 5.27919 21.4838 4.52618C16.4096 0.448327 9.48771 1.24961 5.35966 6.42608C1.94215 10.7086 1.13314 15.5646 2.54649 20.8221C2.63723 21.1581 2.76081 21.4844 2.8419 21.8223C2.97126 22.359 2.78591 22.7703 2.27424 22.9943C1.79347 23.2047 1.2432 22.9788 1.04625 22.3745C0.72188 21.3859 0.405229 20.378 0.252696 19.3547C-0.627749 13.4445 0.748912 8.19663 5.07004 3.92377C10.401 -1.34732 18.4698 -1.29132 23.8065 3.99328C24.1734 4.35627 24.4669 4.79456 24.8743 5.29657Z" fill="#00ABDF"/>
<path d="M18.2073 15.516C17.5876 17.2306 17.0431 18.725 16.5063 20.2214C15.8614 22.0209 15.2301 23.8262 14.5774 25.6218C14.1392 26.8286 14.033 26.9155 12.803 26.9193C9.0206 26.929 5.23816 26.9232 1.4538 26.9232C1.36691 26.9232 1.28002 26.9251 1.19314 26.9193C0.380271 26.8633 0.0230734 26.5853 0.0114886 26.0022C-9.62429e-05 25.4172 0.378341 25.0851 1.14294 25.0349C1.44607 25.0156 1.75114 25.0291 2.05621 25.0291C5.14356 25.0291 8.23091 25.0291 11.3183 25.0291C11.7488 25.0291 12.1813 25.0291 12.6872 25.0291C13 24.2239 13.3108 23.4671 13.5869 22.6986C14.73 19.507 15.8518 16.3096 17.0025 13.1238C17.2265 12.5059 17.2535 11.6506 18.1977 11.6293C19.138 11.6081 19.2133 12.419 19.445 13.0581C21.5399 18.8138 23.6329 24.5715 25.7297 30.3272C25.8301 30.6014 25.9653 30.8639 26.1526 31.2829C26.4345 30.9199 26.6565 30.6805 26.8284 30.4083C27.7571 28.9389 28.6993 27.4773 29.5817 25.979C29.9814 25.3013 30.4776 25.0001 31.2711 25.0175C33.1826 25.0561 35.098 25.031 37.0095 25.0349C37.2257 25.0349 37.4516 25.0252 37.6582 25.0773C38.1332 25.1951 38.4788 25.5349 38.3803 26.0061C38.3147 26.3227 38.0038 26.6702 37.7065 26.8363C37.4323 26.9908 37.0326 26.9483 36.689 26.9502C35.2544 26.9521 33.8179 26.9734 32.3852 26.9155C31.6013 26.8846 31.1147 27.1394 30.7054 27.8307C29.5759 29.7364 28.373 31.5996 27.1972 33.4783C27.035 33.737 26.8979 34.015 26.6971 34.239C26.1777 34.8182 25.4749 34.7506 25.081 34.071C24.8879 33.737 24.7798 33.3508 24.6466 32.984C22.6887 27.5932 20.7348 22.2024 18.775 16.8135C18.6437 16.4544 18.4661 16.1107 18.2054 15.5218L18.2073 15.516Z" fill="#00ABDF"/>
</g>
<defs>
<clipPath id="clip0_2689_27933">
<rect width="50" height="46.1056" fill="white"/>
</clipPath>
</defs>
</svg>
