<svg width="49" height="51" viewBox="0 0 49 51" fill="none" xmlns="http://www.w3.org/2000/svg">
<g clip-path="url(#clip0_2689_27829)">
<path d="M47.492 5.17658H40.13V1.49884C40.13 1.12136 39.8174 0.808594 39.4401 0.808594H32.3907C32.0134 0.808594 31.7008 1.12136 31.7008 1.49884V5.17658H16.9768V1.49884C16.9768 1.12136 16.6642 0.808594 16.287 0.808594H9.22676C8.8495 0.808594 8.53691 1.12136 8.53691 1.49884V5.17658H0.689852C0.312589 5.17658 0 5.48935 0 5.86683V50.1183C0 50.4958 0.312589 50.8086 0.689852 50.8086H47.492C47.8692 50.8086 48.1818 50.4958 48.1818 50.1183V5.86683C48.1818 5.48935 47.8692 5.17658 47.492 5.17658ZM33.0805 2.18909H38.7503V11.7016H33.0805V2.18909ZM9.90584 2.18909H15.5971V11.7016H9.90584V2.18909ZM1.3797 6.55708H8.52613V12.4026C8.52613 12.7801 8.83872 13.0929 9.21599 13.0929H16.2762C16.6534 13.0929 16.966 12.7801 16.966 12.4026V6.55708H31.7008V12.4026C31.7008 12.7801 32.0134 13.0929 32.3907 13.0929H39.4401C39.8174 13.0929 40.13 12.7801 40.13 12.4026V6.55708H46.8021V18.2482H1.3797V6.55708ZM1.3797 49.4281V19.6287H46.8021V49.4281H1.3797Z" fill="#00ABDF" stroke="#00ABDF"/>
<path d="M15.462 36.7646L19.13 33.9646C19.5873 33.6099 19.9093 33.3019 20.096 33.0406C20.292 32.7793 20.39 32.4993 20.39 32.2006C20.39 31.8926 20.2873 31.6499 20.082 31.4726C19.886 31.2953 19.6247 31.2066 19.298 31.2066C18.9713 31.2066 18.6587 31.3093 18.36 31.5146C18.0707 31.7106 17.7347 32.0279 17.352 32.4666L15.518 30.9406C15.7793 30.6046 16.0453 30.3059 16.316 30.0446C16.5867 29.7833 16.876 29.5639 17.184 29.3866C17.5013 29.2093 17.8467 29.0739 18.22 28.9806C18.6027 28.8873 19.032 28.8406 19.508 28.8406C20.04 28.8406 20.5253 28.9199 20.964 29.0786C21.412 29.2279 21.7947 29.4379 22.112 29.7086C22.4293 29.9793 22.6767 30.3106 22.854 30.7026C23.0313 31.0853 23.12 31.5053 23.12 31.9626V31.9906C23.12 32.3826 23.0687 32.7326 22.966 33.0406C22.8727 33.3486 22.728 33.6379 22.532 33.9086C22.336 34.1699 22.098 34.4219 21.818 34.6646C21.538 34.9073 21.216 35.1593 20.852 35.4206L19.172 36.5966H23.218V38.8086H15.462V36.7646ZM29.1123 34.8886V32.0746L26.7743 34.8886H29.1123ZM29.1123 36.9046H24.3663L23.9183 34.9866L29.0003 28.9386H31.7443V34.8746H32.9903V36.9046H31.7443V38.8086H29.1123V36.9046Z" fill="#00ABDF"/>
</g>
<defs>
<clipPath id="clip0_2689_27829">
<rect width="48.1818" height="50" fill="white" transform="translate(0 0.808594)"/>
</clipPath>
</defs>
</svg>
