<svg width="54" height="55" viewBox="0 0 54 55" fill="none" xmlns="http://www.w3.org/2000/svg">
<g clip-path="url(#clip0_2689_27916)">
<path d="M15.015 42.4576C15.1693 42.6056 15.3667 42.6788 15.5656 42.6788C15.7757 42.6788 15.9841 42.596 16.1401 42.4337C16.7098 41.8385 17.0138 41.0571 16.9963 40.2328C16.9788 39.4084 16.6414 38.6414 16.0462 38.0716C15.451 37.5019 14.6712 37.1995 13.8453 37.2154C13.0209 37.2329 12.2539 37.5703 11.6841 38.1655C11.3802 38.4838 11.3913 38.9867 11.708 39.2906C12.0247 39.5946 12.5292 39.5835 12.8331 39.2668C13.4029 38.6716 14.3498 38.6509 14.9449 39.2206C15.233 39.4959 15.3969 39.8683 15.4049 40.2678C15.4128 40.6672 15.2664 41.0444 14.9895 41.334C14.6855 41.6523 14.6967 42.1552 15.0134 42.4592L15.015 42.4576Z" fill="#00ABDF"/>
<path d="M13.9107 33.0355C13.5144 33.0434 13.1341 32.897 12.8444 32.6201C12.5277 32.3162 12.0232 32.3273 11.7193 32.644C11.4153 32.9623 11.4265 33.4652 11.7432 33.7691C12.3224 34.3229 13.0768 34.6269 13.8757 34.6269C13.8979 34.6269 13.9218 34.6269 13.9441 34.6269C14.7684 34.6094 15.5355 34.272 16.1052 33.6768C16.675 33.0816 16.9789 32.3002 16.9614 31.4759C16.9439 30.6515 16.6065 29.8845 16.0113 29.3147C15.6946 29.0108 15.1902 29.0219 14.8862 29.3386C14.5822 29.6569 14.5934 30.1598 14.9101 30.4637C15.1981 30.7391 15.362 31.1115 15.37 31.5109C15.378 31.9103 15.2315 32.2875 14.9546 32.5772C14.6793 32.8652 14.3069 33.0291 13.9075 33.0371L13.9107 33.0355Z" fill="#00ABDF"/>
<path d="M23.7025 39.1861C24.0208 39.4901 24.5237 39.479 24.8276 39.1623C25.1316 38.844 25.1205 38.3411 24.8038 38.0371C23.5752 36.8611 21.6177 36.9025 20.4417 38.131C19.2656 39.3596 19.307 41.3171 20.5356 42.4931C20.6899 42.6411 20.8873 42.7143 21.0862 42.7143C21.2963 42.7143 21.5048 42.6316 21.6607 42.4692C21.9647 42.1525 21.9535 41.6481 21.6368 41.3441C21.0417 40.7744 21.021 39.8259 21.5907 39.2323C22.1604 38.6371 23.1073 38.6164 23.7025 39.1861Z" fill="#00ABDF"/>
<path d="M53.7677 7.37344L46.627 0.232745C46.3166 -0.0775816 45.8122 -0.0775816 45.5018 0.232745C45.1915 0.543072 45.1915 1.04755 45.5018 1.35788L48.5096 4.36566L43.2436 9.63166L39.9239 6.31196L37.7851 4.1731C37.4747 3.86277 36.9702 3.86277 36.6599 4.1731C36.3496 4.48342 36.3496 4.9879 36.6599 5.29823L38.237 6.87532L26.6101 18.5022C25.824 19.2884 25.4261 20.3737 25.5184 21.4814L25.9704 26.9065L19.9071 32.9698C19.5967 33.2801 19.5967 33.7846 19.9071 34.0949C20.063 34.2509 20.2667 34.3273 20.4704 34.3273C20.6741 34.3273 20.8778 34.2493 21.0338 34.0949L27.0987 28.0316L32.5238 28.4836C32.6289 28.4931 32.7339 28.4963 32.8373 28.4963C33.8336 28.4963 34.7916 28.1033 35.5014 27.3919L47.1283 15.765L48.7054 17.3421C48.8613 17.498 49.065 17.5744 49.2687 17.5744C49.4724 17.5744 49.6761 17.4965 49.8321 17.3421C50.1424 17.0318 50.1424 16.5273 49.8321 16.2169L44.3735 10.7584L49.6395 5.49238L52.6473 8.50016C52.8033 8.65612 53.007 8.73251 53.2107 8.73251C53.4144 8.73251 53.6181 8.65453 53.774 8.50016C54.0844 8.18984 54.0844 7.68536 53.774 7.37503L53.7677 7.37344ZM34.3746 26.2652C33.9211 26.7187 33.2925 26.9479 32.6527 26.8954L27.53 26.4689L27.1035 21.3477C27.0509 20.7079 27.2801 20.0793 27.7337 19.6258L29.3044 18.055L31.6947 20.4453C31.8507 20.6013 32.0544 20.6777 32.2581 20.6777C32.4618 20.6777 32.6655 20.5997 32.8214 20.4453C33.1317 20.135 33.1317 19.6305 32.8214 19.3202L30.4311 16.9299L34.1869 13.1742L36.5772 15.5645C36.7331 15.7204 36.9368 15.7968 37.1405 15.7968C37.3442 15.7968 37.5479 15.7188 37.7039 15.5645C38.0142 15.2541 38.0142 14.7497 37.7039 14.4393L35.3136 12.049L39.3622 8.00046L46.0015 14.6399L34.3746 26.2668V26.2652Z" fill="#00ABDF"/>
<path d="M33.7109 32.5167C32.8261 32.3559 31.9301 32.531 31.1917 33.0116C30.6745 33.3474 30.1048 33.497 29.5398 33.4445L29.2422 33.419C29.1245 32.9002 28.9685 32.3909 28.7775 31.8976C28.6184 31.487 28.1585 31.2849 27.7479 31.4425C27.3373 31.6016 27.1336 32.0615 27.2928 32.4721C27.5187 33.0577 27.6874 33.6704 27.7941 34.2943C27.8545 34.6508 28.1489 34.9213 28.5102 34.9531L29.3982 35.0295C30.3053 35.1139 31.249 34.8704 32.0591 34.3452C32.3407 34.1622 32.807 33.9664 33.4245 34.0794C34.1549 34.2147 34.7422 34.7924 34.8838 35.5149C34.9952 36.0862 34.8599 36.64 34.5003 37.0777C34.147 37.5073 33.625 37.754 33.0696 37.754C32.7131 37.754 32.3662 37.6522 32.0686 37.4628C31.2411 36.9297 30.3196 36.6894 29.3982 36.7689L28.5213 36.8501C28.1601 36.8835 27.8673 37.1588 27.8084 37.5169C27.5776 38.9619 27.0238 40.3146 26.1628 41.5384C25.956 41.8328 25.9719 42.2275 26.201 42.5044L26.7501 43.1664C27.3373 43.8714 28.1792 44.3664 29.1165 44.5605C29.4491 44.6321 29.9186 44.8247 30.2735 45.3451C30.6857 45.9419 30.692 46.7821 30.2862 47.3869C29.9647 47.8691 29.4778 48.1651 28.916 48.2192C28.3606 48.2749 27.8163 48.0791 27.4217 47.6845C27.167 47.4298 26.9936 47.1147 26.9188 46.7758C26.7103 45.8066 26.2265 44.9822 25.5215 44.3918L24.8738 43.8523C24.5953 43.62 24.1943 43.6057 23.8999 43.8189C22.7111 44.6767 21.317 45.2576 19.8656 45.4995C19.5075 45.5583 19.2354 45.8527 19.2036 46.214L19.1304 47.0431C19.046 47.9693 19.2847 48.8908 19.8179 49.7072C20.0789 50.1082 20.168 50.5808 20.0789 51.0742C19.9484 51.7887 19.3595 52.3871 18.6466 52.5287C18.0753 52.6417 17.5199 52.5065 17.0822 52.1468C16.6509 51.7935 16.4043 51.2699 16.4043 50.7129C16.4043 50.3596 16.5061 50.0143 16.6971 49.7135C17.2334 48.8764 17.4721 47.9534 17.3894 47.0447L17.3162 46.214C17.2843 45.8527 17.0122 45.5583 16.6541 45.4995C15.1852 45.256 13.8278 44.691 12.6151 43.8189C12.3207 43.6073 11.9181 43.6216 11.6396 43.8539L10.9966 44.3934C10.2853 44.987 9.80307 45.8066 9.59937 46.7662C9.53094 47.0941 9.33997 47.5587 8.82276 47.9168C8.21961 48.329 7.37775 48.3354 6.7746 47.9327C6.2924 47.6081 5.9964 47.1195 5.94229 46.5562C5.88818 46.0007 6.08393 45.4565 6.48019 45.0586C6.72527 44.8104 7.04037 44.6385 7.3873 44.5621C8.35806 44.352 9.17923 43.8682 9.76169 43.1648L10.3123 42.506C10.5431 42.2291 10.559 41.8312 10.3505 41.5368C9.49115 40.3226 8.93734 38.9699 8.70499 37.5169C8.6477 37.1588 8.35488 36.8835 7.99204 36.8501L7.11039 36.7689C6.20328 36.691 5.26116 36.9344 4.45431 37.4564C4.17263 37.6394 3.70635 37.8336 3.08729 37.7206C2.37115 37.5901 1.77118 36.9997 1.62955 36.2851C1.51815 35.7138 1.65342 35.16 2.01308 34.7224C2.36637 34.2927 2.88836 34.046 3.44376 34.046C3.80502 34.046 4.15035 34.1463 4.44158 34.3325C5.25798 34.864 6.20647 35.1107 7.1088 35.0295L8.00159 34.9515C8.36284 34.9197 8.65566 34.6492 8.71772 34.2927C8.9628 32.862 9.53889 31.4886 10.3823 30.3173C10.5956 30.0229 10.5813 29.6203 10.3473 29.3418L9.7601 28.6384C9.18083 27.9382 8.34056 27.4432 7.39207 27.2411C6.93056 27.1456 6.51998 26.8687 6.23989 26.4629C5.82612 25.8629 5.82134 25.0211 6.22715 24.4148C6.54862 23.9326 7.03559 23.6365 7.59737 23.5824C8.15277 23.5267 8.69704 23.7225 9.09171 24.1172C9.34156 24.367 9.51662 24.6853 9.59459 25.0322C9.80625 26.0014 10.2885 26.8226 10.9903 27.405L11.7 27.9986C11.9769 28.231 12.3748 28.2469 12.6692 28.0384C13.8644 27.195 15.198 26.6443 16.6366 26.404C16.9931 26.3451 17.2652 26.0523 17.2971 25.6911L17.383 24.7601C17.4673 23.8387 17.2302 22.9172 16.6939 22.0945C16.4361 21.6998 16.3422 21.2144 16.4297 20.7322C16.5634 20.0129 17.1538 19.4145 17.8668 19.2745C18.4365 19.1615 18.9903 19.2968 19.4264 19.6548C19.8577 20.0097 20.1043 20.5317 20.1043 21.0903C20.1043 21.4452 20.0025 21.7889 19.8115 22.0897C19.2784 22.922 19.0397 23.8466 19.1224 24.7601L19.2084 25.6911C19.2418 26.0507 19.5139 26.3436 19.8704 26.4024C20.4767 26.5027 21.0799 26.6666 21.6671 26.8894C21.7578 26.9228 21.8565 26.9403 21.9535 26.9403C22.3928 26.9403 22.7477 26.5839 22.7477 26.1446C22.7477 25.7961 22.5233 25.5001 22.2114 25.3935C21.7292 25.2121 21.2374 25.0641 20.7409 24.9527L20.7106 24.6153C20.6597 24.0567 20.8141 23.4806 21.1547 22.9475C21.5111 22.3921 21.6989 21.7491 21.6989 21.0903C21.6989 20.0543 21.239 19.0835 20.4385 18.4247C19.638 17.7674 18.5893 17.508 17.5612 17.7133C16.2053 17.9775 15.1216 19.074 14.867 20.4426C14.7046 21.3306 14.8813 22.2266 15.3635 22.9634C15.7009 23.4822 15.8521 24.0535 15.8011 24.6137L15.7709 24.9511C14.5248 25.2296 13.3503 25.7133 12.2666 26.3945L12.0104 26.1812C11.5823 25.8263 11.2847 25.3107 11.1494 24.6853C11.003 24.0392 10.6799 23.4535 10.2184 22.992C9.48638 22.26 8.47424 21.8971 7.443 21.999C6.41335 22.1008 5.48874 22.6594 4.90469 23.5315C4.13285 24.6837 4.14399 26.2258 4.93015 27.3668C5.44418 28.1116 6.20328 28.6209 7.06424 28.7991C7.66898 28.928 8.17664 29.2224 8.5363 29.6553L8.7416 29.902C8.05729 30.9762 7.55599 32.1729 7.26953 33.4174L6.96716 33.4445C6.40858 33.497 5.83407 33.341 5.30413 32.9973C4.75191 32.644 4.10898 32.4562 3.44217 32.4562C2.40934 32.4562 1.44017 32.9145 0.782913 33.7134C0.125658 34.5139 -0.136926 35.5626 0.0667751 36.5955C0.335725 37.9577 1.4338 39.0399 2.79924 39.2881C3.68407 39.4505 4.57844 39.2738 5.31845 38.7932C5.83567 38.4574 6.40539 38.3062 6.96557 38.3556L7.24566 38.381C7.52098 39.6462 8.00954 40.8414 8.70499 41.9442L8.53312 42.1495C8.17823 42.5776 7.66421 42.8752 7.04196 43.0089C6.39266 43.1521 5.80543 43.4736 5.34551 43.9367C4.61346 44.6687 4.2522 45.6793 4.35087 46.7089C4.45113 47.7386 5.00813 48.6664 5.88023 49.2536C7.02923 50.0223 8.56972 50.0127 9.71713 49.2266C10.4603 48.7125 10.9696 47.9534 11.1478 47.0925C11.2767 46.4877 11.5743 45.9769 12.0088 45.6124L12.1934 45.4581C13.2899 46.1567 14.5089 46.6644 15.7757 46.9492L15.7964 47.1864C15.8473 47.7418 15.6913 48.3179 15.3492 48.8542C14.9927 49.4096 14.8049 50.0525 14.8049 50.7113C14.8049 51.7474 15.2632 52.7181 16.0637 53.3754C16.6844 53.8862 17.4578 54.1568 18.2551 54.1568C18.4858 54.1568 18.7182 54.1345 18.9489 54.0883C20.308 53.8194 21.3886 52.7229 21.6369 51.3591C21.7992 50.471 21.6241 49.5767 21.1435 48.8367C20.8061 48.3226 20.6565 47.7513 20.7075 47.1848L20.7282 46.9492C21.9965 46.6644 23.2155 46.1567 24.3088 45.4581L24.495 45.6124C24.9247 45.9721 25.2239 46.4909 25.3576 47.1131C25.4976 47.7529 25.8207 48.3401 26.2902 48.8096C27.0222 49.5417 28.0359 49.9045 29.0656 49.8026C30.0952 49.7008 31.0199 49.1422 31.6039 48.2701C32.3757 47.1163 32.3662 45.5758 31.58 44.4427C31.074 43.6996 30.3149 43.1887 29.4396 43.0025C28.8492 42.88 28.3272 42.576 27.9691 42.1479L27.8004 41.9442C28.4895 40.8446 28.986 39.6303 29.2613 38.381L29.5367 38.3556C30.0984 38.3078 30.6745 38.4622 31.2045 38.8028C31.7599 39.1592 32.4044 39.347 33.0664 39.347C34.0993 39.347 35.0684 38.8887 35.7257 38.0898C36.3829 37.2893 36.6455 36.2406 36.4418 35.2078C36.1729 33.8519 35.0764 32.7697 33.7094 32.5151L33.7109 32.5167Z" fill="#00ABDF"/>
</g>
<defs>
<clipPath id="clip0_2689_27916">
<rect width="54" height="54.1591" fill="white"/>
</clipPath>
</defs>
</svg>
