<svg width="24" height="24" viewBox="0 0 24 24" fill="none" xmlns="http://www.w3.org/2000/svg">
<circle cx="12" cy="12" r="12" fill="#FFCC00"/>
<path fill-rule="evenodd" clip-rule="evenodd" d="M6 13.4466C6 16.3827 8.1086 18.8249 10.8949 19.3436C8.32884 17.2011 8.15812 14.1203 11.2767 10.0491C11.0838 11.0265 10.9613 13.4114 11.6169 14.9101C12.086 15.9826 12.9018 16.4531 13.4101 16.1859C13.801 15.98 14.0513 15.3193 13.5652 14.265C16.3658 15.3297 15.2515 18.099 13.8467 19.1559C16.2563 18.3766 18 16.1156 18 13.4466C18 12.8328 17.9361 12.2841 17.7772 11.7719C17.51 10.9053 16.9561 9.98002 16.2732 9.39227C15.9396 10.8401 14.4917 11.106 14.1699 10.0022C13.9952 9.40139 14.3679 8.57255 14.4618 7.92876C14.8123 5.51129 13.2772 3.99566 11.3393 3C12.7415 6.03649 6 8.93484 6 13.4466Z" fill="white"/>
</svg>
