<svg width="26" height="26" viewBox="0 0 26 26" fill="none" xmlns="http://www.w3.org/2000/svg">
<path d="M23.9849 22.858L18.9582 14.7547C18.8913 14.6532 18.8025 14.5681 18.6982 14.5055C19.8221 13.0292 20.5292 11.2783 20.7457 9.43552C20.7387 8.43071 20.5334 7.43716 20.1416 6.51182C19.7499 5.58649 19.1794 4.74755 18.4629 4.04308C17.7463 3.33861 16.8978 2.78247 15.9659 2.40652C15.0341 2.03056 14.0372 1.84219 13.0324 1.85219C12.0284 1.83928 11.0318 2.0259 10.1004 2.40121C9.1691 2.77653 8.32157 3.33306 7.60704 4.03853C6.8925 4.74399 6.32518 5.58434 5.938 6.51081C5.55082 7.43727 5.35148 8.43141 5.35157 9.43552C5.57182 11.2891 6.28234 13.0504 7.4099 14.538C7.33181 14.5929 7.26551 14.6629 7.2149 14.7439L2.0149 22.8472C1.92679 22.9826 1.87988 23.1407 1.87988 23.3022C1.87988 23.4637 1.92679 23.6218 2.0149 23.7572C2.09154 23.8673 2.19359 23.9572 2.3124 24.0195C2.43121 24.0817 2.56328 24.1144 2.6974 24.1147H2.8599L7.6699 23.1614L12.8374 24.1147C12.866 24.1094 12.8954 24.1094 12.9241 24.1147H13.0541C13.0827 24.1094 13.1121 24.1094 13.1407 24.1147L18.2757 23.1614L23.1182 24.1147C23.2759 24.1431 23.4384 24.1255 23.5863 24.064C23.7342 24.0026 23.8613 23.8998 23.9524 23.768C24.0495 23.6375 24.1046 23.4806 24.1104 23.3181C24.1162 23.1556 24.0724 22.9951 23.9849 22.858ZM12.9999 3.53136C14.587 3.5111 16.1172 4.12146 17.2546 5.22843C18.3921 6.3354 19.0437 7.8485 19.0666 9.43552C19.0666 11.9597 15.1124 16.6505 12.9999 18.8714C10.8982 16.7047 6.96574 11.9597 6.96574 9.43552C6.98574 7.85328 7.63203 6.34347 8.76305 5.23682C9.89407 4.13017 11.4176 3.5169 12.9999 3.53136ZM7.48574 21.5039L4.40907 22.1105L8.36324 15.9355C9.56033 17.5178 10.8518 19.0264 12.2307 20.453C12.1741 20.5637 12.1445 20.6862 12.1441 20.8105V22.3055L7.81073 21.5039C7.71428 21.4837 7.61469 21.4837 7.51823 21.5039H7.48574ZM18.4166 21.5039C18.3166 21.4822 18.2132 21.4822 18.1132 21.5039L13.7799 22.3055V20.8105C13.7816 20.7023 13.7594 20.595 13.7149 20.4964C15.1353 19.0457 16.4598 17.5041 17.6799 15.8814L21.5582 22.1214L18.4166 21.5039Z" fill="#8E9AAB"/>
<path d="M16.9216 8.88355C16.9073 7.83958 16.4796 6.84388 15.7322 6.11481C14.9849 5.38574 13.9789 4.98281 12.9349 4.99438C11.8909 4.98281 10.8849 5.38574 10.1376 6.11481C9.39023 6.84388 8.96252 7.83958 8.94824 8.88355C8.96252 9.92751 9.39023 10.9232 10.1376 11.6523C10.8849 12.3814 11.8909 12.7843 12.9349 12.7727C13.9789 12.7843 14.9849 12.3814 15.7322 11.6523C16.4796 10.9232 16.9073 9.92751 16.9216 8.88355ZM12.9349 11.1369C12.3255 11.1457 11.7372 10.9141 11.2973 10.4924C10.8573 10.0707 10.6011 9.49274 10.5841 8.88355C10.6011 8.27436 10.8573 7.69637 11.2973 7.27466C11.7372 6.85295 12.3255 6.62144 12.9349 6.63022C13.5443 6.62144 14.1326 6.85295 14.5726 7.27466C15.0125 7.69637 15.2687 8.27436 15.2857 8.88355C15.2687 9.49274 15.0125 10.0707 14.5726 10.4924C14.1326 10.9141 13.5443 11.1457 12.9349 11.1369Z" fill="#8E9AAB"/>
</svg>
