<svg width="60" height="60" viewBox="0 0 60 60" fill="none" xmlns="http://www.w3.org/2000/svg">
<g clip-path="url(#clip0_2689_27840)">
<path d="M46.0714 59.9983H41.7857C41.1943 59.9983 40.7143 59.5183 40.7143 58.9269V55.7126H6.42857V58.9269C6.42857 59.5183 5.94857 59.9983 5.35714 59.9983H1.07143C0.48 59.9983 0 59.5183 0 58.9269V43.9269C0 43.3355 0.48 42.8555 1.07143 42.8555H46.0714C46.6629 42.8555 47.1429 43.3355 47.1429 43.9269V58.9269C47.1429 59.5183 46.6629 59.9983 46.0714 59.9983ZM42.8571 57.8555H45V44.9983H2.14286V57.8555H4.28571V54.6412C4.28571 54.0498 4.76571 53.5698 5.35714 53.5698H41.7857C42.3771 53.5698 42.8571 54.0498 42.8571 54.6412V57.8555Z" fill="#00ABDF"/>
<path d="M43.3929 44.9986C42.9129 44.9986 42.4757 44.6729 42.3536 44.1865L38.6036 29.1865C38.5821 29.1007 38.5714 29.015 38.5714 28.9272V12.8557H8.57143V28.9272C8.57143 29.015 8.56071 29.1029 8.53929 29.1865L4.78929 44.1865C4.64572 44.7608 4.065 45.11 3.49072 44.9665C2.91643 44.8229 2.56714 44.2422 2.71072 43.6679L6.42857 28.7965V11.7843C6.42857 11.1929 6.90857 10.7129 7.5 10.7129H39.6429C40.2343 10.7129 40.7143 11.1929 40.7143 11.7843V28.7943L44.4321 43.6657C44.5757 44.24 44.2264 44.8208 43.6521 44.9643C43.5643 44.9857 43.4764 44.9965 43.3907 44.9965L43.3929 44.9986Z" fill="#00ABDF"/>
<path d="M23.5714 29.9978C20.0271 29.9978 17.1428 27.1135 17.1428 23.5692C17.1428 20.0249 20.0271 17.1406 23.5714 17.1406C27.1157 17.1406 30 20.0249 30 23.5692C30 27.1135 27.1157 29.9978 23.5714 29.9978ZM23.5714 19.2835C21.2078 19.2835 19.2857 21.2056 19.2857 23.5692C19.2857 25.9328 21.2078 27.8549 23.5714 27.8549C25.935 27.8549 27.8571 25.9328 27.8571 23.5692C27.8571 21.2056 25.935 19.2835 23.5714 19.2835Z" fill="#00ABDF"/>
<path d="M33.2144 29.9975H13.9286C12.1565 29.9975 10.7144 28.5553 10.7144 26.7832V22.4975C10.7144 20.7253 12.1565 19.2832 13.9286 19.2832H15.0001C15.5915 19.2832 16.0715 19.7632 16.0715 20.3546C16.0715 20.9461 15.5915 21.4261 15.0001 21.4261H13.9286C13.3372 21.4261 12.8572 21.9061 12.8572 22.4975V26.7832C12.8572 27.3746 13.3372 27.8546 13.9286 27.8546H33.2144C33.8058 27.8546 34.2858 27.3746 34.2858 26.7832V22.4975C34.2858 21.9061 33.8058 21.4261 33.2144 21.4261H32.1429C31.5515 21.4261 31.0715 20.9461 31.0715 20.3546C31.0715 19.7632 31.5515 19.2832 32.1429 19.2832H33.2144C34.9865 19.2832 36.4286 20.7253 36.4286 22.4975V26.7832C36.4286 28.5553 34.9865 29.9975 33.2144 29.9975Z" fill="#00ABDF"/>
<path d="M33.7287 37.9699C33.2808 37.9699 32.8651 37.6871 32.713 37.2392L32.0058 35.1392C30.9923 32.0599 28.138 29.9964 24.9001 29.9964H22.243C19.0051 29.9964 16.1508 32.0599 15.1394 35.1307L14.4301 37.2371C14.2415 37.7985 13.633 38.1007 13.0737 37.9099C12.5123 37.7214 12.2123 37.1128 12.4008 36.5535L13.108 34.4535C14.4065 30.5085 18.0794 27.8535 22.2451 27.8535H24.9023C29.068 27.8535 32.7408 30.5085 34.0415 34.4621L34.7465 36.5557C34.9351 37.1171 34.633 37.7235 34.0737 37.9121C33.9601 37.9507 33.8444 37.9678 33.7308 37.9678L33.7287 37.9699Z" fill="#00ABDF"/>
<path d="M41.7857 38.5689H38.3914C36.2636 38.5689 34.1593 38.2282 32.1407 37.5553L31.4678 37.3303C29.6678 36.7303 27.7928 36.4261 25.8964 36.4261H21.2486C19.35 36.4261 17.4771 36.7303 15.6771 37.3303L15.0043 37.5553C12.9857 38.2282 10.8814 38.5689 8.75356 38.5689H5.35927C4.76784 38.5689 4.28784 38.0889 4.28784 37.4975C4.28784 36.9061 4.76784 36.4261 5.35927 36.4261H8.75356C10.65 36.4261 12.525 36.1218 14.325 35.5218L14.9978 35.2968C17.0164 34.6239 19.1207 34.2832 21.2486 34.2832H25.8964C28.0243 34.2832 30.1264 34.6239 32.1471 35.2968L32.82 35.5218C34.62 36.1218 36.495 36.4261 38.3914 36.4261H41.7857C42.3771 36.4261 42.8571 36.9061 42.8571 37.4975C42.8571 38.0889 42.3771 38.5689 41.7857 38.5689Z" fill="#00ABDF"/>
<path d="M39.6427 29.9983H7.4999C6.90847 29.9983 6.42847 29.5183 6.42847 28.9269C6.42847 28.3355 6.90847 27.8555 7.4999 27.8555H39.6427C40.2342 27.8555 40.7142 28.3355 40.7142 28.9269C40.7142 29.5183 40.2342 29.9983 39.6427 29.9983Z" fill="#00ABDF"/>
<path d="M48.2143 19.2829H46.0715C44.2993 19.2829 42.8572 17.8408 42.8572 16.0686V9.64007C42.8572 7.86792 44.2993 6.42578 46.0715 6.42578H48.2143C49.9865 6.42578 51.4286 7.86792 51.4286 9.64007V16.0686C51.4286 17.8408 49.9865 19.2829 48.2143 19.2829ZM46.0715 8.56864C45.48 8.56864 45 9.04864 45 9.64007V16.0686C45 16.6601 45.48 17.1401 46.0715 17.1401H48.2143C48.8057 17.1401 49.2857 16.6601 49.2857 16.0686V9.64007C49.2857 9.04864 48.8057 8.56864 48.2143 8.56864H46.0715Z" fill="#00ABDF"/>
<path d="M58.9285 49.2835H50.3571C49.7656 49.2835 49.2856 48.8035 49.2856 48.2121C49.2856 47.6206 49.7656 47.1406 50.3571 47.1406H58.9285C59.5199 47.1406 59.9999 47.6206 59.9999 48.2121C59.9999 48.8035 59.5199 49.2835 58.9285 49.2835Z" fill="#00ABDF"/>
<path d="M54.643 49.2838C54.0515 49.2838 53.5715 48.8038 53.5715 48.2123V1.06948C53.5715 0.478047 54.0515 -0.00195312 54.643 -0.00195312C55.2344 -0.00195312 55.7144 0.478047 55.7144 1.06948V48.2123C55.7144 48.8038 55.2344 49.2838 54.643 49.2838Z" fill="#00ABDF"/>
<path d="M54.643 4.28348H39.643C39.0515 4.28348 38.5715 3.80348 38.5715 3.21205C38.5715 2.62062 39.0515 2.14062 39.643 2.14062H54.643C55.2344 2.14062 55.7144 2.62062 55.7144 3.21205C55.7144 3.80348 55.2344 4.28348 54.643 4.28348Z" fill="#00ABDF"/>
<path d="M47.143 8.5692C46.5515 8.5692 46.0715 8.0892 46.0715 7.49777V3.21205C46.0715 2.62062 46.5515 2.14062 47.143 2.14062C47.7344 2.14062 48.2144 2.62062 48.2144 3.21205V7.49777C48.2144 8.0892 47.7344 8.5692 47.143 8.5692Z" fill="#00ABDF"/>
<path d="M42.8572 34.2835H32.143C31.5515 34.2835 31.0715 33.8035 31.0715 33.2121C31.0715 32.6206 31.5515 32.1406 32.143 32.1406H42.8572C44.6294 32.1406 46.0715 30.6985 46.0715 28.9263V18.2121C46.0715 17.6206 46.5515 17.1406 47.143 17.1406C47.7344 17.1406 48.2144 17.6206 48.2144 18.2121V28.9263C48.2144 31.8813 45.8122 34.2835 42.8572 34.2835Z" fill="#00ABDF"/>
</g>
<defs>
<clipPath id="clip0_2689_27840">
<rect width="60" height="60" fill="white" transform="translate(0 -0.00195312)"/>
</clipPath>
</defs>
</svg>
