<svg width="35" height="62" viewBox="0 0 35 62" fill="none" xmlns="http://www.w3.org/2000/svg">
<g clip-path="url(#clip0_2689_27910)">
<path d="M28.4353 6.45461H22.0758V4.57827C22.0758 2.05647 20.0243 0 17.4975 0C14.9707 0 12.9192 2.05147 12.9192 4.57827V6.45461H6.56469C2.9421 6.45461 0 9.39671 0 13.0143V45.6876C0 49.3052 2.9421 52.2523 6.56469 52.2523H11.7584V53.0029C11.7584 54.7141 13.1494 56.1051 14.8606 56.1051H16.5869V60.258C16.5869 60.7634 16.9971 61.1737 17.5025 61.1737C18.0079 61.1737 18.4182 60.7634 18.4182 60.258V56.1051H20.1444C21.8556 56.1051 23.2466 54.7141 23.2466 53.0029V52.2523H28.4403C32.0579 52.2523 35.005 49.3102 35.005 45.6876V13.0143C35.005 9.39671 32.0629 6.44961 28.4403 6.44961L28.4353 6.45461ZM13.5847 52.2473H21.4103V52.9979C21.4103 53.6984 20.8399 54.2688 20.1394 54.2688H14.8556C14.1551 54.2688 13.5847 53.6984 13.5847 52.9979V52.2473ZM20.2445 6.45461H14.7555V4.57827C14.7555 3.06719 15.9864 1.83131 17.4975 1.83131C19.0086 1.83131 20.2445 3.06219 20.2445 4.57827V6.45461ZM1.83131 22.441C3.67262 22.9114 5.65404 23.1415 7.85061 23.1415C11.0729 23.1415 14.3202 22.6512 17.4725 22.1758C22.6462 21.3953 27.99 20.5947 33.1637 21.9357V45.6876C33.1637 48.2945 31.0422 50.421 28.4303 50.421H6.56469C3.95783 50.421 1.83131 48.2995 1.83131 45.6876V22.441ZM6.56469 8.28592H28.4353C31.0422 8.28592 33.1687 10.4074 33.1687 13.0193V20.0443C27.7899 18.7684 22.411 19.579 17.2023 20.3645C11.8435 21.1751 6.76984 21.9357 1.83631 20.5447V13.0143C1.83631 10.4074 3.95783 8.28091 6.56969 8.28091L6.56469 8.28592Z" fill="#B2BAC6"/>
<path d="M17.5024 38.3974H17.5374C20.1043 38.3774 22.1808 36.2759 22.1608 33.704C22.1407 31.1422 19.0986 27.0993 18.1679 25.9235L17.4424 25.0078L16.7269 25.9285C15.8112 27.1043 12.8241 31.1522 12.8441 33.7691C12.8641 36.3209 14.9506 38.3974 17.5024 38.3974ZM14.6754 33.7591C14.6654 32.3981 16.0714 29.9513 17.4574 28.015C18.8734 29.9513 20.3194 32.3931 20.3294 33.719C20.3394 35.2801 19.0836 36.5561 17.5224 36.5661H17.5024C15.9513 36.5661 14.6854 35.3052 14.6754 33.7591Z" fill="#B2BAC6"/>
</g>
<defs>
<clipPath id="clip0_2689_27910">
<rect width="35" height="61.1687" fill="white"/>
</clipPath>
</defs>
</svg>
