<svg width="63" height="60" viewBox="0 0 63 60" fill="none" xmlns="http://www.w3.org/2000/svg">
<g clip-path="url(#clip0_2689_27875)">
<path d="M36.9251 13.825C33.1132 13.825 30.0146 10.7243 30.0146 6.91454C30.0146 3.10475 33.1153 0.00195312 36.9251 0.00195312C40.7349 0.00195312 43.8356 3.10265 43.8356 6.91244C43.8356 10.7222 40.7349 13.8229 36.9251 13.8229V13.825ZM36.9251 1.97608C34.2021 1.97608 31.9888 4.19146 31.9888 6.91244C31.9888 9.63342 34.2042 11.8488 36.9251 11.8488C39.6461 11.8488 41.8615 9.63342 41.8615 6.91244C41.8615 4.19146 39.6461 1.97608 36.9251 1.97608Z" fill="#00ABDF"/>
<path d="M22.4159 42.1419C22.9404 42.5909 22.9069 43.4133 22.3467 43.8182L19.0089 46.2266C18.2537 46.772 17.3621 47.0951 16.4327 47.1622L4.43482 48.0161C3.63343 48.1084 2.81315 47.9426 2.09147 47.544C1.89217 47.4329 1.70126 47.307 1.51874 47.1622C0.677482 46.4909 0.148811 45.5343 0.0271327 44.4664C-0.0966435 43.386 0.213846 42.3287 0.895664 41.4811C1.58168 40.6378 2.55301 40.1133 3.63343 40.0084L14.0285 39.7252L16.4369 38.0678C16.8355 37.793 17.3684 37.8203 17.7376 38.135L17.7544 38.1496C18.2873 38.607 18.2432 39.444 17.6663 39.8426L14.9915 41.6846C14.8194 41.8021 14.6159 41.8671 14.4082 41.8734L3.76769 42.1587C3.34182 42.2028 2.89077 42.4461 2.57399 42.8385C2.2572 43.2287 2.11245 43.7217 2.16909 44.221C2.22573 44.7182 2.47119 45.1629 2.8614 45.4734C3.25161 45.7818 3.74042 45.9245 4.23552 45.8678L16.2775 45.0098C16.8062 44.972 17.3159 44.7874 17.746 44.4769L21.0775 42.0727C21.4761 41.7853 22.0236 41.8084 22.3971 42.1273L22.4138 42.1419H22.4159Z" fill="#00ABDF"/>
<path d="M33.2705 60.001C32.9537 60.001 32.6369 59.9653 32.3222 59.8898C30.0838 59.3611 29.5467 57.5423 29.2131 55.8765L27.1572 44.0465L18.5726 37.0416C16.1495 35.0632 15.711 31.5451 17.5782 29.0339L29.0936 14.0653C29.4565 13.5933 30.1341 13.5052 30.6062 13.8681C31.0782 14.2311 31.1663 14.9087 30.8034 15.3807L19.2985 30.3346C18.132 31.9038 18.4089 34.1234 19.9383 35.3716L28.8355 42.6304C29.0369 42.794 29.1712 43.0248 29.2152 43.2807L31.3341 55.48C31.6866 57.2381 32.0558 57.6115 32.7439 57.7751C33.3775 57.9241 33.9355 57.815 34.3971 57.4877C34.8271 57.1814 35.102 56.7325 35.1775 56.2143L33.6775 41.8122C33.4089 40.7968 32.9495 40.073 32.146 39.4017L26.2614 34.4884C26.039 34.3038 25.9027 34.0374 25.8775 33.7479C25.8544 33.4604 25.9467 33.1751 26.1355 32.9549L31.5523 26.6758L29.5467 23.1535C29.253 22.6395 29.4313 21.9849 29.9411 21.687C30.453 21.3891 31.1076 21.5611 31.4096 22.0688L35.6768 29.2563C35.7523 29.3821 35.8992 29.4556 36.0439 29.4409L44.4208 28.5828C45.0649 28.5178 45.56 27.9996 45.5978 27.3535C45.6208 26.9653 45.4719 26.5877 45.1866 26.3213C44.9013 26.0549 44.5173 25.9269 44.1313 25.973L38.1586 26.6863C37.6131 26.7493 37.1096 26.3989 36.9817 25.8681L34.9572 17.4472C34.8187 16.8681 35.1754 16.2849 35.7544 16.1465C36.3334 16.0101 36.9145 16.3646 37.0551 16.9437L38.8551 24.4332L43.8754 23.8332C44.8971 23.7115 45.9145 24.0451 46.6656 24.7521C47.4166 25.459 47.811 26.4535 47.7523 27.4814C47.6516 29.1891 46.3425 30.557 44.6411 30.7311L36.2642 31.5891C35.2824 31.6898 34.3278 31.2073 33.8243 30.3598L32.7649 28.5765L28.4852 33.5381L33.5285 37.7486C34.6971 38.7241 35.4145 39.8716 35.788 41.359C35.8006 41.4094 35.809 41.4597 35.8152 41.5101L37.3362 56.1115C37.3446 56.1849 37.3446 56.2562 37.3362 56.3297C37.2208 57.4982 36.6041 58.5618 35.6495 59.2437C34.9509 59.743 34.118 60.0031 33.2726 60.0031L33.2705 60.001Z" fill="#00ABDF"/>
<path d="M50.4336 50.2071C50.2847 50.2071 50.1336 50.1924 49.9847 50.1672C49.3364 50.0497 48.7742 49.6847 48.3987 49.1434L43.3889 41.8931C42.6168 40.7749 42.898 39.2351 44.0161 38.463L53.9518 31.5966C55.07 30.8246 56.6099 31.1036 57.3819 32.2218L62.3917 39.4721C62.7672 40.0134 62.9078 40.6679 62.7882 41.3162C62.6686 41.9644 62.3057 42.5267 61.7644 42.9022L51.8287 49.7686C51.4113 50.056 50.9287 50.2071 50.4336 50.2071ZM50.1735 47.9162C50.2343 48.0043 50.3141 48.0337 50.3728 48.0441C50.4294 48.0546 50.5175 48.0546 50.6036 47.9938L60.5392 41.1274C60.6252 41.0665 60.6567 40.9868 60.6672 40.9281C60.6777 40.8714 60.6777 40.7833 60.6168 40.6973L55.6071 33.4469C55.5106 33.3085 55.3175 33.2728 55.177 33.3693L45.2434 40.2358C45.1029 40.3323 45.0672 40.5253 45.1658 40.6658L50.1756 47.9141L50.1735 47.9162Z" fill="#00ABDF"/>
<path d="M45.3484 35.1904C45.0064 35.1904 44.6708 35.0268 44.461 34.7247C44.1232 34.2359 44.2449 33.5624 44.7358 33.2247L48.8016 30.4156C49.2904 30.0778 49.9617 30.1995 50.3016 30.6904C50.6393 31.1792 50.5176 31.8526 50.0267 32.1904L45.961 34.9995C45.7743 35.1296 45.5603 35.1904 45.3484 35.1904Z" fill="#00ABDF"/>
<path d="M10.5209 27.9379H1.5041C0.908299 27.9379 0.425781 27.4554 0.425781 26.8596C0.425781 26.2638 0.908299 25.7812 1.5041 25.7812H10.5209C11.1167 25.7812 11.5992 26.2638 11.5992 26.8596C11.5992 27.4554 11.1167 27.9379 10.5209 27.9379Z" fill="#00ABDF"/>
<path d="M15.0271 20.9906H6.0124C5.4166 20.9906 4.93408 20.5081 4.93408 19.9123C4.93408 19.3165 5.4166 18.834 6.0124 18.834H15.0271C15.6229 18.834 16.1054 19.3165 16.1054 19.9123C16.1054 20.5081 15.6229 20.9906 15.0271 20.9906Z" fill="#00ABDF"/>
<path d="M19.5359 14.0453H10.5212C9.92539 14.0453 9.44287 13.5628 9.44287 12.967C9.44287 12.3712 9.92539 11.8887 10.5212 11.8887H19.5359C20.1317 11.8887 20.6142 12.3712 20.6142 12.967C20.6142 13.5628 20.1317 14.0453 19.5359 14.0453Z" fill="#00ABDF"/>
</g>
<defs>
<clipPath id="clip0_2689_27875">
<rect width="62.8301" height="60" fill="white" transform="translate(0 0.00195312)"/>
</clipPath>
</defs>
</svg>
