<svg width="58" height="60" viewBox="0 0 58 60" fill="none" xmlns="http://www.w3.org/2000/svg">
<g clip-path="url(#clip0_2689_27889)">
<path d="M24.0495 18.5775C18.928 18.5775 14.7607 14.4102 14.7607 9.28875C14.7607 4.1673 18.9259 0 24.0495 0C29.1731 0 33.3382 4.1673 33.3382 9.28875C33.3382 14.4102 29.1709 18.5775 24.0495 18.5775ZM24.0495 2.17841C20.1283 2.17841 16.9392 5.36761 16.9392 9.28875C16.9392 13.2099 20.1283 16.3991 24.0495 16.3991C27.9706 16.3991 31.1598 13.2099 31.1598 9.28875C31.1598 5.36761 27.9706 2.17841 24.0495 2.17841Z" fill="#00ABDF"/>
<path d="M41.3879 26.4105C36.9984 26.4105 33.4258 22.8379 33.4258 18.4484C33.4258 14.0589 36.9984 10.4863 41.3879 10.4863C45.7774 10.4863 49.35 14.0589 49.35 18.4484C49.35 22.8379 45.7774 26.4105 41.3879 26.4105ZM41.3879 12.6647C38.1987 12.6647 35.6042 15.2592 35.6042 18.4484C35.6042 21.6376 38.1987 24.2321 41.3879 24.2321C44.5771 24.2321 47.1716 21.6376 47.1716 18.4484C47.1716 15.2592 44.5771 12.6647 41.3879 12.6647Z" fill="#00ABDF"/>
<path d="M27.681 46.4597C23.5181 46.4597 20.1328 43.0744 20.1328 38.9115C20.1328 34.7485 23.5181 31.3633 27.681 31.3633C31.844 31.3633 35.2292 34.7507 35.2292 38.9115C35.2292 43.0722 31.844 46.4597 27.681 46.4597ZM27.681 33.5395C24.7205 33.5395 22.3112 35.9488 22.3112 38.9093C22.3112 41.8698 24.7205 44.2791 27.681 44.2791C30.6415 44.2791 33.0508 41.8698 33.0508 38.9093C33.0508 35.9488 30.6415 33.5395 27.681 33.5395Z" fill="#00ABDF"/>
<path d="M2.08061 41.2429C1.73206 41.2429 1.39223 41.073 1.18528 40.7768C0.95437 40.5023 0.745242 40.1842 0.562256 39.8313C0.191926 39.0885 -0.00195312 38.2803 -0.00195312 37.4765C-0.00195312 36.6726 0.183212 35.9124 0.531758 35.2L6.83173 22.3888C8.7313 18.5286 13.6349 16.5136 17.7652 17.8969C17.8632 17.9296 17.9787 17.9688 18.1094 18.0145C19.3445 18.4415 22.2396 19.4436 24.8363 19.3107C27.6312 19.1713 31.3955 17.2238 31.4325 17.2042C31.9662 16.9253 32.6241 17.1323 32.903 17.666C33.1818 18.1997 32.9748 18.8576 32.4411 19.1364C32.2712 19.2257 28.2194 21.3235 24.9452 21.4891C21.9281 21.6372 18.7542 20.5437 17.397 20.0753C17.2729 20.0317 17.1639 19.9947 17.0724 19.9642C13.9399 18.9142 10.2213 20.4326 8.78576 23.3516L2.48579 36.1629C2.2832 36.5746 2.17646 37.0299 2.17646 37.4765C2.17646 37.923 2.28974 38.4154 2.50322 38.8445C2.61432 39.0602 2.7472 39.2562 2.88662 39.4174C2.94762 39.4871 3.00208 39.5656 3.04347 39.6505L3.05218 39.6701C3.3223 40.2082 3.10228 40.8617 2.56422 41.1318C2.40737 41.2103 2.24181 41.2473 2.07843 41.2473L2.08061 41.2429Z" fill="#00ABDF"/>
<path d="M9.888 38.2538C9.72679 38.2538 9.56341 38.2167 9.40874 38.1427C8.8685 37.8769 8.6463 37.2256 8.91207 36.6853L13.5412 27.2593C13.807 26.7191 14.4583 26.4969 14.9985 26.7627C15.5388 27.0284 15.761 27.6798 15.4952 28.22L10.8661 37.646C10.6766 38.0316 10.2888 38.256 9.888 38.256V38.2538Z" fill="#00ABDF"/>
<path d="M14.2728 56.194C12.5257 56.194 10.9137 55.3335 9.96173 53.8914L1.17401 40.7599C1.15876 40.7381 1.14569 40.7164 1.13262 40.6946L0.625052 39.9365C0.289576 39.4376 0.42246 38.7601 0.923494 38.4247C1.42235 38.0892 2.09984 38.2221 2.43531 38.7231L2.97556 39.5269C2.99081 39.5487 3.00388 39.5705 3.01695 39.5945L11.7742 52.6824C12.3275 53.5167 13.2598 54.0134 14.2728 54.0134C14.6148 54.0134 14.9459 53.9589 15.2357 53.8544C15.2444 53.85 15.2553 53.8478 15.264 53.8456C15.4905 53.7694 15.7171 53.6583 15.9349 53.5124C16.6037 53.0636 17.0568 52.3796 17.2115 51.591C17.364 50.8068 17.2028 50.0116 16.754 49.3494L16.5231 49.0118L8.98362 37.7711C8.64814 37.2723 8.78103 36.5948 9.28206 36.2593C9.78092 35.9239 10.4584 36.0567 10.7939 36.5578L18.3268 47.7897L18.5556 48.123C19.3333 49.2753 19.6143 50.6521 19.3485 52.0071C19.0827 53.3686 18.3007 54.5449 17.1461 55.3226C16.7671 55.5753 16.3706 55.7714 15.9654 55.9086C15.4448 56.0959 14.861 56.194 14.2728 56.194Z" fill="#00ABDF"/>
<path d="M54.5192 48.2182C54.151 48.2182 53.7938 48.033 53.589 47.6954C53.2753 47.1813 53.4387 46.5125 53.9528 46.1988L54.1467 46.0812C54.7871 45.6193 55.1683 44.8743 55.1683 44.0792C55.1683 43.7677 55.1073 43.4562 54.9941 43.1774L52.0184 35.7228C51.7962 35.1652 52.0685 34.5312 52.6261 34.3069C53.186 34.0825 53.8177 34.357 54.0421 34.9146L57.0135 42.3604C57.2335 42.8963 57.3468 43.478 57.3468 44.0792C57.3468 45.5954 56.6083 47.0179 55.3731 47.8849C55.3535 47.898 55.3339 47.911 55.3143 47.9219L55.0877 48.0592C54.9113 48.1681 54.7152 48.2182 54.5214 48.2182H54.5192Z" fill="#00ABDF"/>
<path d="M28.7094 31.1514C28.57 31.1514 28.4305 31.1253 28.2933 31.0686C27.7378 30.8399 27.472 30.2016 27.703 29.6461C28.4828 27.7596 29.6526 26.4809 31.1819 25.8492C32.5935 25.2654 34.2861 25.298 35.8284 25.9385C35.8459 25.945 35.8633 25.9537 35.8807 25.9625C38.1659 26.9013 40.5795 27.3762 43.0608 27.3762C43.8798 27.3762 44.6859 27.3261 45.4527 27.2281C47.1148 27.0124 48.79 27.4133 50.1711 28.3631C50.6678 28.7029 50.7919 29.3826 50.4521 29.8771C50.1123 30.3737 49.4326 30.4979 48.9381 30.1581C48.0014 29.5154 46.8621 29.2431 45.7337 29.3891C44.871 29.5002 43.9735 29.5547 43.0629 29.5547C40.2833 29.5547 37.5755 29.0188 35.0159 27.9622C34.9985 27.9557 34.9789 27.947 34.9614 27.9383C33.9594 27.5309 32.8876 27.5026 32.0162 27.8642C31.0425 28.2672 30.2669 29.1473 29.718 30.4805C29.5437 30.9009 29.1385 31.1536 28.7116 31.1536L28.7094 31.1514Z" fill="#00ABDF"/>
<path d="M48.3193 43.7282C47.8858 43.7282 47.4763 43.4689 47.3064 43.042L45.1258 37.5676C44.9036 37.0078 45.1759 36.376 45.7336 36.1517C46.2934 35.9295 46.9252 36.2018 47.1495 36.7594L49.3301 42.2338C49.5523 42.7936 49.28 43.4254 48.7223 43.6498C48.5895 43.702 48.4544 43.7282 48.3193 43.7282Z" fill="#00ABDF"/>
<path d="M40.5317 56.1934C40.1832 56.1934 39.8499 56.1564 39.5123 56.078C38.2771 55.8122 37.2271 55.0628 36.5692 53.9693C35.3558 51.9869 35.809 49.4055 37.6236 47.9547C37.7935 47.8044 37.9634 47.6933 38.1094 47.6039L47.7532 41.707C48.2673 41.3933 48.9361 41.5545 49.2498 42.0686C49.5634 42.5827 49.4022 43.2515 48.8881 43.5652L39.2465 49.46C39.1528 49.5188 39.0962 49.558 39.057 49.5907C39.0374 49.6081 39.0178 49.6255 38.9981 49.6408C38.0266 50.4054 37.7826 51.78 38.4296 52.8365C38.7781 53.4138 39.3293 53.8081 39.985 53.9475C40.1767 53.991 40.3509 54.0107 40.5317 54.0107C40.9805 54.0107 41.4227 53.8865 41.8083 53.649L54.1773 46.0573C54.6914 45.7436 55.3602 45.907 55.6739 46.4211C55.9876 46.9352 55.8242 47.6039 55.3101 47.9176L55.0835 48.0549L42.9432 55.5072C42.2113 55.9538 41.3791 56.1869 40.5296 56.1869L40.5317 56.1934Z" fill="#00ABDF"/>
<path d="M52.8156 36.4185C52.5912 36.4185 52.3668 36.4011 52.1425 36.3684C50.9378 36.192 49.8769 35.5559 49.1515 34.5778L48.7136 33.9874C47.9882 33.0115 47.6854 31.809 47.8641 30.6065C48.0405 29.4019 48.6766 28.341 49.6547 27.6156L50.0577 27.3149C50.086 27.2953 50.1144 27.2757 50.1427 27.2583C52.1076 26.0689 54.6694 27.8988 56.081 30.2275C57.3881 32.3798 57.3118 34.3403 55.8937 35.2465L55.5255 35.521C54.7326 36.1114 53.7893 36.4207 52.8178 36.4207L52.8156 36.4185ZM50.8986 33.2794C51.2776 33.7892 51.8309 34.1203 52.4605 34.214C53.0901 34.3055 53.7153 34.1486 54.225 33.7696L54.628 33.469C54.6542 33.4494 54.6825 33.4297 54.7108 33.4123C54.9722 33.2533 54.8328 32.3689 54.2185 31.3559C53.2905 29.8288 51.8397 28.8485 51.2994 29.1034L50.9509 29.3627C50.4411 29.7417 50.11 30.295 50.0163 30.9246C49.9227 31.552 50.0817 32.1793 50.4607 32.6891L50.8986 33.2794Z" fill="#00ABDF"/>
<path d="M38.3249 49.8763C38.0265 49.8763 37.7302 49.7543 37.5145 49.5169C36.7107 48.6237 35.5496 48.1118 34.3319 48.1118C33.6043 48.1118 32.9551 48.2643 32.4018 48.5671C30.9553 49.3426 29.3259 49.7499 27.6812 49.7499C26.0365 49.7499 24.4092 49.3426 22.9693 48.5714C22.416 48.2686 21.7472 48.1118 21.0305 48.1118C19.9587 48.1118 18.9349 48.5017 18.1485 49.2075C17.6997 49.6084 17.0113 49.5713 16.6105 49.1247C16.2097 48.676 16.2467 47.9876 16.6933 47.5868C17.8805 46.5215 19.4206 45.9355 21.0305 45.9355C22.111 45.9355 23.1392 46.1861 24.004 46.6566C25.1215 47.2557 26.3959 47.5737 27.6812 47.5737C28.9664 47.5737 30.2408 47.2557 31.3649 46.6522C32.2362 46.1774 33.2361 45.9355 34.3319 45.9355C36.1661 45.9355 37.9175 46.7111 39.1331 48.0617C39.5361 48.5083 39.4991 49.1966 39.0525 49.5996C38.8434 49.787 38.5841 49.8807 38.3249 49.8807V49.8763Z" fill="#00ABDF"/>
<path d="M39.7562 59.9992C39.155 59.9992 38.667 59.5112 38.667 58.91V55.015C38.667 54.4137 39.155 53.9258 39.7562 53.9258C40.3574 53.9258 40.8454 54.4137 40.8454 55.015V58.91C40.8454 59.5112 40.3574 59.9992 39.7562 59.9992Z" fill="#00ABDF"/>
<path d="M15.6063 59.9997C15.0051 59.9997 14.5171 59.5117 14.5171 58.9105V54.8783C14.5171 54.277 15.0051 53.7891 15.6063 53.7891C16.2075 53.7891 16.6955 54.277 16.6955 54.8783V58.9105C16.6955 59.5117 16.2075 59.9997 15.6063 59.9997Z" fill="#00ABDF"/>
<path d="M21.0062 59.9955C20.405 59.9955 19.917 59.5076 19.917 58.9063V55.4056C19.917 54.8044 20.405 54.3164 21.0062 54.3164C21.6074 54.3164 22.0954 54.8044 22.0954 55.4056V58.9063C22.0954 59.5076 21.6074 59.9955 21.0062 59.9955Z" fill="#00ABDF"/>
<path d="M34.3578 59.9955C33.7565 59.9955 33.2686 59.5076 33.2686 58.9063V55.4056C33.2686 54.8044 33.7565 54.3164 34.3578 54.3164C34.959 54.3164 35.447 54.8044 35.447 55.4056V58.9063C35.447 59.5076 34.959 59.9955 34.3578 59.9955Z" fill="#00ABDF"/>
</g>
<defs>
<clipPath id="clip0_2689_27889">
<rect width="57.3445" height="60" fill="white"/>
</clipPath>
</defs>
</svg>
