<svg width="48.000000" height="48.000000" viewBox="0 0 48 48" fill="none" xmlns="http://www.w3.org/2000/svg" xmlns:xlink="http://www.w3.org/1999/xlink">
	<desc>
			Created with Pixso.
	</desc>
	<defs>
		<clipPath id="clip6101_15343">
			<rect id="_лой_1" rx="-0.500000" width="37.000000" height="37.000000" transform="translate(5.500000 5.500000)" fill="white" fill-opacity="0"/>
		</clipPath>
	</defs>
	<g opacity="0.100000">
		<rect id="Rectangle 1889" rx="10.000000" width="48.000000" height="48.000000" fill="#FFCC00" fill-opacity="1.000000"/>
	</g>
	<rect id="_лой_1" rx="-0.500000" width="37.000000" height="37.000000" transform="translate(5.500000 5.500000)" fill="#FFFFFF" fill-opacity="0"/>
	<g clip-path="url(#clip6101_15343)">
		<path id="Vector" d="M24 41C23.91 41 23.82 40.98 23.75 40.94L18.03 38.14C13.69 36 11 31.69 11 26.88L11 12.8C11 12.48 11.25 12.23 11.56 12.23C16.93 12.23 20.98 10.87 23.59 8.17C23.69 8.06 23.84 8 24 8C24.15 8 24.3 8.06 24.4 8.17C27.12 10.98 30.83 12.23 36.43 12.23C36.75 12.23 37 12.48 37 12.8L37 26.88C37 31.69 34.3 36 29.96 38.14L24.25 40.94C24.17 40.98 24.08 41 24 41ZM12.12 13.35L12.12 26.88C12.12 31.26 14.58 35.19 18.53 37.13L24 39.81L29.46 37.13C33.41 35.19 35.87 31.26 35.87 26.88L35.87 13.35C30.5 13.27 26.8 12.02 23.99 9.35C21.26 11.91 17.28 13.26 12.12 13.35Z" fill="#FFCC00" fill-opacity="1.000000" fill-rule="nonzero"/>
		<path id="Vector" d="M23.75 40.94L18.03 38.14C13.69 36 11 31.69 11 26.88L11 12.8C11 12.48 11.25 12.23 11.56 12.23C16.93 12.23 20.98 10.87 23.59 8.17C23.69 8.06 23.84 8 24 8C24.15 8 24.3 8.06 24.4 8.17C27.12 10.98 30.83 12.23 36.43 12.23C36.75 12.23 37 12.48 37 12.8L37 26.88C37 31.69 34.3 36 29.96 38.14L24.25 40.94C24.17 40.98 24.08 41 24 41C23.91 41 23.82 40.98 23.75 40.94ZM12.12 26.88C12.12 31.26 14.58 35.19 18.53 37.13L24 39.81L29.46 37.13C33.41 35.19 35.87 31.26 35.87 26.88L35.87 13.35C30.5 13.27 26.8 12.02 23.99 9.35C21.26 11.91 17.28 13.26 12.12 13.35L12.12 26.88Z" stroke="#FFCC00" stroke-opacity="1.000000" stroke-width="0.500000"/>
		<path id="Vector" d="M25.85 32L22.14 32C21.83 32 21.6 31.74 21.6 31.42L21.6 27.07L17.53 27.07C17.24 27.07 17 26.81 17 26.49L17 22.5C17 22.18 17.24 21.92 17.53 21.92L21.6 21.92L21.6 17.57C21.6 17.25 21.83 17 22.14 17L25.85 17C26.16 17 26.39 17.25 26.39 17.57L26.39 21.92L30.46 21.92C30.75 21.92 31 22.18 31 22.5L31 26.49C31 26.81 30.75 27.07 30.46 27.07L26.39 27.07L26.39 31.42C26.39 31.74 26.16 32 25.85 32ZM22.67 30.84L25.32 30.84L25.32 26.49C25.32 26.17 25.56 25.91 25.85 25.91L29.92 25.91L29.92 23.08L25.85 23.08C25.56 23.08 25.32 22.82 25.32 22.5L25.32 18.15L22.67 18.15L22.67 22.5C22.67 22.82 22.43 23.08 22.14 23.08L18.07 23.08L18.07 25.91L22.14 25.91C22.43 25.91 22.67 26.17 22.67 26.49L22.67 30.84Z" fill="#FFCC00" fill-opacity="1.000000" fill-rule="nonzero"/>
		<path id="Vector" d="M22.14 32C21.83 32 21.6 31.74 21.6 31.42L21.6 27.07L17.53 27.07C17.24 27.07 17 26.81 17 26.49L17 22.5C17 22.18 17.24 21.92 17.53 21.92L21.6 21.92L21.6 17.57C21.6 17.25 21.83 17 22.14 17L25.85 17C26.16 17 26.39 17.25 26.39 17.57L26.39 21.92L30.46 21.92C30.75 21.92 31 22.18 31 22.5L31 26.49C31 26.81 30.75 27.07 30.46 27.07L26.39 27.07L26.39 31.42C26.39 31.74 26.16 32 25.85 32L22.14 32ZM25.32 30.84L25.32 26.49C25.32 26.17 25.56 25.91 25.85 25.91L29.92 25.91L29.92 23.08L25.85 23.08C25.56 23.08 25.32 22.82 25.32 22.5L25.32 18.15L22.67 18.15L22.67 22.5C22.67 22.82 22.43 23.08 22.14 23.08L18.07 23.08L18.07 25.91L22.14 25.91C22.43 25.91 22.67 26.17 22.67 26.49L22.67 30.84L25.32 30.84Z" stroke="#FFCC00" stroke-opacity="1.000000" stroke-width="0.500000"/>
	</g>
</svg>
