<svg width="48.000000" height="48.000000" viewBox="0 0 48 48" fill="none" xmlns="http://www.w3.org/2000/svg" xmlns:xlink="http://www.w3.org/1999/xlink">
	<desc>
			Created with Pixso.
	</desc>
	<defs>
		<clipPath id="clip6101_15505">
			<rect id="_лой_2" rx="-0.500000" width="37.000000" height="37.000000" transform="translate(5.500000 5.500000)" fill="white" fill-opacity="0"/>
		</clipPath>
	</defs>
	<g opacity="0.100000">
		<rect id="Rectangle 1904" rx="10.000000" width="48.000000" height="48.000000" fill="#FFCC00" fill-opacity="1.000000"/>
	</g>
	<rect id="_лой_2" rx="-0.500000" width="37.000000" height="37.000000" transform="translate(5.500000 5.500000)" fill="#FFFFFF" fill-opacity="0"/>
	<g clip-path="url(#clip6101_15505)">
		<path id="Vector" d="M19.32 24.61C17.41 25.51 15.32 23.8 15.82 21.75C16.12 20.5 16.66 19.14 17.6 17.98C18.55 16.83 19.77 16.03 20.94 15.48C22.85 14.58 24.94 16.29 24.44 18.35C24.14 19.6 23.6 20.95 22.65 22.11C21.71 23.26 20.49 24.07 19.32 24.61Z" stroke="#FFCC00" stroke-opacity="1.000000" stroke-width="1.800000" stroke-linejoin="round"/>
		<path id="Vector" d="M24.44 18.34L26.65 19.15" stroke="#FFCC00" stroke-opacity="1.000000" stroke-width="1.800000" stroke-linejoin="round" stroke-linecap="round"/>
		<path id="Vector" d="M23.23 21.3L24.87 22.64" stroke="#FFCC00" stroke-opacity="1.000000" stroke-width="1.800000" stroke-linejoin="round" stroke-linecap="round"/>
		<path id="Vector" d="M21.19 23.49L22.26 25.17" stroke="#FFCC00" stroke-opacity="1.000000" stroke-width="1.800000" stroke-linejoin="round" stroke-linecap="round"/>
		<path id="Vector" d="M19.32 24.6L19.72 26.78" stroke="#FFCC00" stroke-opacity="1.000000" stroke-width="1.800000" stroke-linejoin="round" stroke-linecap="round"/>
		<path id="Vector" d="M20.93 15.48L20.05 13.75" stroke="#FFCC00" stroke-opacity="1.000000" stroke-width="1.800000" stroke-linejoin="round" stroke-linecap="round"/>
		<path id="Vector" d="M18.5 17.05L17.2 16" stroke="#FFCC00" stroke-opacity="1.000000" stroke-width="1.800000" stroke-linejoin="round" stroke-linecap="round"/>
		<path id="Vector" d="M16.87 19.04L14.96 18.41" stroke="#FFCC00" stroke-opacity="1.000000" stroke-width="1.800000" stroke-linejoin="round" stroke-linecap="round"/>
		<path id="Vector" d="M15.91 21.38L13.94 21.13" stroke="#FFCC00" stroke-opacity="1.000000" stroke-width="1.800000" stroke-linejoin="round" stroke-linecap="round"/>
		<path id="Vector" d="M16.07 23.58L14.26 24.2" stroke="#FFCC00" stroke-opacity="1.000000" stroke-width="1.800000" stroke-linejoin="round" stroke-linecap="round"/>
		<path id="Vector" d="M24.32 16.78L26.03 15.55" stroke="#FFCC00" stroke-opacity="1.000000" stroke-width="1.800000" stroke-linejoin="round" stroke-linecap="round"/>
		<path id="Vector" d="M24 39C15.71 39 9 32.28 9 24C9 15.71 15.71 9 24 9C32.28 9 39 15.71 39 24C39 32.28 32.28 39 24 39Z" stroke="#FFCC00" stroke-opacity="1.000000" stroke-width="1.800000" stroke-linejoin="round"/>
		<path id="Vector" d="M24 35.76C23.1 35.76 22.18 35.59 21.42 35.11C20.67 34.62 20.1 33.78 20.11 32.88C20.12 32.01 20.65 31.21 21.34 30.68C22.04 30.16 22.89 29.89 23.74 29.69C24.58 29.48 25.45 29.33 26.26 29.03C27.76 28.48 29.16 27.37 29.85 25.93C30.07 25.47 30.38 24.98 30.89 24.85C31.34 24.73 31.83 24.97 32.14 25.32C32.67 25.92 32.9 26.75 32.73 27.54C32.62 28.08 32.39 28.59 32.15 29.09C31.45 30.62 30.72 32.18 29.56 33.39C29.37 33.59 29.17 33.78 28.96 33.95L28.96 33.95C27.59 35.11 25.8 35.77 24 35.76Z" stroke="#FFCC00" stroke-opacity="1.000000" stroke-width="1.800000" stroke-linejoin="round"/>
		<path id="Vector" d="M32.78 17.63C33.97 20.12 33.72 23.05 32.14 25.31L32.14 25.32" stroke="#FFCC00" stroke-opacity="1.000000" stroke-width="1.800000" stroke-linejoin="round" stroke-linecap="round"/>
		<path id="Vector" d="M15 29L16 31" stroke="#FFCC00" stroke-opacity="1.000000" stroke-width="1.800000" stroke-linejoin="round" stroke-linecap="round"/>
		<path id="Vector" d="M30 15L29 14" stroke="#FFCC00" stroke-opacity="1.000000" stroke-width="1.800000" stroke-linejoin="round" stroke-linecap="round"/>
		<path id="Vector" d="M36 25L36 26" stroke="#FFCC00" stroke-opacity="1.000000" stroke-width="1.800000" stroke-linejoin="round" stroke-linecap="round"/>
		<path id="Vector" d="M29 21L28 23" stroke="#FFCC00" stroke-opacity="1.000000" stroke-width="1.800000" stroke-linejoin="round" stroke-linecap="round"/>
	</g>
</svg>
