<svg width="55.900391" height="55.898438" viewBox="0 0 55.9004 55.8984" fill="none" xmlns="http://www.w3.org/2000/svg" xmlns:xlink="http://www.w3.org/1999/xlink">
	<desc>
			Created with Pixso.
	</desc>
	<defs/>
	<path id="Vector" d="M32.21 31.36C38.18 28.8 38.8 21.04 39.46 15.73C39.81 12.87 39.91 9.78 38.53 7.15C37.27 4.75 34.94 3.08 32.4 2.22C31.01 1.75 29.48 1.5 27.94 1.5C26.41 1.5 24.88 1.75 23.49 2.22C20.95 3.08 18.62 4.75 17.36 7.15C15.98 9.78 16.08 12.87 16.43 15.73C17.08 21.04 17.71 28.8 23.68 31.36" stroke="#00ABDF" stroke-opacity="1.000000" stroke-width="3.000000" stroke-linejoin="round" stroke-linecap="round"/>
	<path id="Vector" d="M21.12 29.66L21.12 34.77L10.32 38.88C5.94 40.55 2.82 44.5 2.19 49.15L1.5 54.39" stroke="#00ABDF" stroke-opacity="1.000000" stroke-width="3.000000" stroke-linejoin="round" stroke-linecap="round"/>
	<path id="Vector" d="M34.77 29.66L34.77 34.77L45.57 38.88C49.95 40.55 53.08 44.5 53.69 49.15L54.4 54.39" stroke="#00ABDF" stroke-opacity="1.000000" stroke-width="3.000000" stroke-linejoin="round" stroke-linecap="round"/>
	<path id="Vector" d="M20.27 13.44C28.8 13.44 30.5 11.73 31.36 9.17C31.36 9.17 31.36 13.44 35.62 13.44" stroke="#00ABDF" stroke-opacity="1.000000" stroke-width="3.000000" stroke-linejoin="round" stroke-linecap="round"/>
	<path id="Vector" d="M20.9 34.94C16.9 37.44 16 42.45 16 42.45" stroke="#00ABDF" stroke-opacity="1.000000" stroke-width="3.000000" stroke-linejoin="round" stroke-linecap="round"/>
	<path id="Vector" d="M19.41 54.39L21.98 54.39L21.98 50.98C21.98 47.23 19.41 42.45 16 42.45C12.59 42.45 10.03 47.23 10.03 50.98L10.03 54.39L12.59 54.39" stroke="#00ABDF" stroke-opacity="1.000000" stroke-width="3.000000" stroke-linejoin="round" stroke-linecap="round"/>
	<path id="Vector" d="M34.9 34.94C37.91 36.3 39.4 43.44 39.4 43.44L39.89 45.86" stroke="#00ABDF" stroke-opacity="1.000000" stroke-width="3.000000" stroke-linejoin="round" stroke-linecap="round"/>
	<path id="Vector" d="M39.89 54.39C37.54 54.39 35.63 52.48 35.63 50.12C35.63 47.77 37.54 45.86 39.89 45.86C42.25 45.86 44.16 47.77 44.16 50.12C44.16 52.48 42.25 54.39 39.89 54.39Z" stroke="#00ABDF" stroke-opacity="1.000000" stroke-width="3.000000" stroke-linejoin="round"/>
	<path id="Vector" d="M20.9 34.44C20.9 39.57 27.95 44.16 27.95 44.16C27.95 44.16 34.9 39.57 34.9 34.44" stroke="#00ABDF" stroke-opacity="1.000000" stroke-width="3.000000" stroke-linejoin="round" stroke-linecap="round"/>
</svg>
