<svg viewBox="0 0 36 45" xmlns="http://www.w3.org/2000/svg" xmlns:xlink="http://www.w3.org/1999/xlink" width="36.000000" height="45.000000" fill="none">
	<rect id="иконка капельницы" width="36.000000" height="45.000000" x="0.000000" y="0.000000" fill="rgb(255,255,255)" fill-opacity="0" />
	<path id="Vector" d="M25.0039 15.579L25.0039 10.1506C25.0039 7.61068 22.9861 5.53732 20.5049 5.53732L20.5008 5.54154L16.1398 5.54154L16.1398 4.21983C16.1398 2.44628 14.7335 1 12.9998 1C11.2661 1 9.85977 2.44206 9.85977 4.21983L9.85977 5.54154L5.50288 5.54154C3.02175 5.54154 1.00391 7.61279 1.00391 10.1528L1.00391 33.118C1.00391 35.6622 3.02175 37.7314 5.50288 37.7314L9.06087 37.7314L9.06087 38.2571C9.06087 39.4585 10.0163 40.4381 11.1878 40.4381L12.3718 40.4381L12.3718 43.3581C12.3718 43.7129 12.6518 44 12.9977 44C13.3436 44 13.6237 43.7129 13.6237 43.3581L13.6237 40.4381L14.8076 40.4381C15.9792 40.4381 16.9346 39.4585 16.9346 38.2571L16.9346 37.7314L20.4926 37.7314C22.9696 37.7314 24.9916 35.6622 24.9916 33.118L24.9916 31.5936L23.7294 32.8879L23.7294 33.118C23.7294 34.9528 22.2736 36.4434 20.4864 36.4434L5.50905 36.4434C3.71976 36.4434 2.26609 34.9507 2.26609 33.118L2.26609 16.7761C3.52827 17.1097 4.88723 17.2702 6.39238 17.2702C8.59965 17.2702 10.8255 16.9239 12.9874 16.5903C13.6587 16.489 14.334 16.3834 15.0135 16.2863L13.9016 15.1504C13.5331 15.2052 13.1666 15.2623 12.8021 15.3171C9.12676 15.8851 5.64907 16.4214 2.27021 15.4417L2.27021 10.1528C2.27021 8.31798 3.72594 6.82736 5.51317 6.82736L5.50905 6.83158L20.4988 6.83158C22.2881 6.83158 23.7417 8.32432 23.7417 10.157L23.7417 14.291L25.0039 15.579ZM10.3189 37.7271L15.6848 37.7271L15.6848 38.2529C15.6848 38.7469 15.2935 39.1439 14.8158 39.1439L11.194 39.1439C10.7122 39.1439 10.3251 38.7427 10.3251 38.2529L10.3251 37.7271L10.321 37.7271L10.3189 37.7271ZM14.8859 5.54154L11.124 5.54154L11.124 4.21983C11.124 3.15781 11.9662 2.29004 13.0018 2.29004C14.0375 2.29004 14.8838 3.15359 14.8838 4.21983L14.8838 5.54154L14.8859 5.54154Z" fill="rgb(0,171,223)" fill-rule="nonzero" />
	<path id="Vector" d="M25.0039 10.1506C25.0039 7.61068 22.9861 5.53732 20.5049 5.53732L20.5008 5.54154L16.1398 5.54154L16.1398 4.21983C16.1398 2.44628 14.7335 1 12.9998 1C11.2661 1 9.85977 2.44206 9.85977 4.21983L9.85977 5.54154L5.50288 5.54154C3.02175 5.54154 1.00391 7.61279 1.00391 10.1528L1.00391 33.118C1.00391 35.6622 3.02175 37.7314 5.50288 37.7314L9.06087 37.7314L9.06087 38.2571C9.06087 39.4585 10.0163 40.4381 11.1878 40.4381L12.3718 40.4381L12.3718 43.3581C12.3718 43.7129 12.6518 44 12.9977 44C13.3436 44 13.6237 43.7129 13.6237 43.3581L13.6237 40.4381L14.8076 40.4381C15.9792 40.4381 16.9346 39.4585 16.9346 38.2571L16.9346 37.7314L20.4926 37.7314C22.9696 37.7314 24.9916 35.6622 24.9916 33.118L24.9916 31.5936L23.7294 32.8879L23.7294 33.118C23.7294 34.9528 22.2736 36.4434 20.4864 36.4434L5.50905 36.4434C3.71976 36.4434 2.26609 34.9507 2.26609 33.118L2.26609 16.7761C3.52827 17.1097 4.88723 17.2702 6.39238 17.2702C8.59965 17.2702 10.8255 16.9239 12.9874 16.5903C13.6587 16.489 14.334 16.3834 15.0135 16.2863L13.9016 15.1504C13.5331 15.2052 13.1666 15.2623 12.8021 15.3171C9.12676 15.8851 5.64907 16.4214 2.27021 15.4417L2.27021 10.1528C2.27021 8.31798 3.72594 6.82736 5.51317 6.82736L5.50905 6.83158L20.4988 6.83158C22.2881 6.83158 23.7417 8.32432 23.7417 10.157L23.7417 14.291L25.0039 15.579L25.0039 10.1506ZM15.6848 37.7271L15.6848 38.2529C15.6848 38.7469 15.2935 39.1439 14.8158 39.1439L11.194 39.1439C10.7122 39.1439 10.3251 38.7427 10.3251 38.2529L10.3251 37.7271L10.321 37.7271L10.3189 37.7271L15.6848 37.7271ZM11.124 5.54154L11.124 4.21983C11.124 3.15781 11.9662 2.29004 13.0018 2.29004C14.0375 2.29004 14.8838 3.15359 14.8838 4.21983L14.8838 5.54154L14.8859 5.54154L11.124 5.54154Z" fill-rule="nonzero" stroke="rgb(0,171,223)" stroke-width="0.400000" />
	<path id="Vector" d="M14.2755 20.8016C13.9291 20.2805 13.6194 19.8564 13.4336 19.614L12.9672 19L12.5065 19.618C11.9181 20.4098 9.99235 23.1304 10.004 24.8896C10.0175 26.6044 11.3627 28 13.0059 28L13.0272 28C14.4671 27.9859 15.6691 26.9134 15.9439 25.4955C15.9865 25.2875 16.0039 25.0714 16.0039 24.8452C15.9962 23.6474 15.0517 21.9771 14.2755 20.8016ZM14.8252 24.8532C14.8329 25.9055 14.0201 26.7619 13.0175 26.7659L13.0039 26.7659C12.0052 26.7659 11.1865 25.9176 11.1827 24.8795C11.1749 23.9645 12.0807 22.3205 12.973 21.0177C13.1259 21.2338 13.273 21.4601 13.422 21.6903C13.9775 22.5527 14.4807 23.4798 14.7013 24.2009C14.7768 24.4432 14.8194 24.6654 14.8233 24.8553L14.8252 24.8532Z" fill="rgb(0,171,223)" fill-rule="nonzero" />
	<path id="Vector" d="M13.4336 19.614L12.9672 19L12.5065 19.618C11.9181 20.4098 9.99235 23.1304 10.004 24.8896C10.0175 26.6044 11.3627 28 13.0059 28L13.0272 28C14.4671 27.9859 15.6691 26.9134 15.9439 25.4955C15.9865 25.2875 16.0039 25.0714 16.0039 24.8452C15.9962 23.6474 15.0517 21.9771 14.2755 20.8016C13.9291 20.2805 13.6194 19.8564 13.4336 19.614ZM13.0175 26.7659L13.0039 26.7659C12.0052 26.7659 11.1865 25.9176 11.1827 24.8795C11.1749 23.9645 12.0807 22.3205 12.973 21.0177C13.1259 21.2338 13.273 21.4601 13.422 21.6903C13.9775 22.5527 14.4807 23.4798 14.7013 24.2009C14.7768 24.4432 14.8194 24.6654 14.8233 24.8553L14.8252 24.8532C14.8329 25.9055 14.0201 26.7619 13.0175 26.7659Z" fill-rule="nonzero" stroke="rgb(0,171,223)" stroke-width="0.400000" />
	<path id="Vector" d="M34.8134 27.4124C34.5609 27.1749 34.1547 27.1709 33.9022 27.4124L31.9912 29.2401L28.6617 26.0558L32.1743 22.6964L32.2016 22.6703C32.45 22.4328 32.45 22.0403 32.2016 21.8027C32.1427 21.7464 32.0691 21.7021 31.9954 21.6699C31.9175 21.6397 31.8333 21.6216 31.7471 21.6216C31.5766 21.6216 31.4145 21.688 31.2904 21.8027L30.3286 22.7226L25.0713 17.6986L22.6994 15.4302C22.6026 15.3376 22.5016 15.2591 22.3964 15.1826C21.8892 14.8264 21.2683 14.6532 20.6327 14.7076L20.2792 14.7338L18.5892 14.8706L17.0886 14.9894L14.8977 12.8941L13.1067 11.1812C12.9867 11.0664 12.8268 11 12.65 11C12.4795 11 12.3175 11.0664 12.1933 11.1812C12.0734 11.2959 12.0039 11.4489 12.0039 11.6179C12.0039 11.787 12.0691 11.936 12.1933 12.0547L13.9843 13.7676L15.5396 15.2551L16.1752 15.8629L16.1247 16.4265L16.0131 17.6946L15.9079 18.9103L15.8806 19.2485C15.8763 19.3149 15.8721 19.3813 15.8721 19.4558C15.8721 20.1261 16.1436 20.75 16.6361 21.221L23.7728 28.0465L24.2652 28.5175L23.7728 28.9885L23.2992 29.4414C23.1793 29.5561 23.1098 29.7091 23.1098 29.8781C23.1098 30.0472 23.1751 30.1962 23.2992 30.3149C23.4192 30.4296 23.5791 30.4961 23.7559 30.4961L23.7749 30.4961C23.9411 30.492 24.0927 30.4296 24.2126 30.3149L25.0692 29.4997L27.7525 26.9334L28.6281 27.7707L31.082 30.1177L29.171 31.9453C29.0511 32.06 28.9816 32.213 28.9816 32.3821C28.9816 32.5511 29.0469 32.7001 29.171 32.8188C29.2952 32.9376 29.4615 33 29.6277 33C29.794 33 29.9539 32.9376 30.0844 32.8188L30.1034 32.7967L34.8176 28.288C35.066 28.0465 35.066 27.654 34.8176 27.4165L34.8134 27.4124ZM25.1807 27.65L25.0692 27.5433L23.7791 26.3094L17.7473 20.5407L17.5495 20.3515C17.2738 20.0878 17.1307 19.7215 17.1623 19.3471L17.2086 18.8318L17.3201 17.5638L17.4316 16.3038L17.4401 16.193L18.8712 16.0783L19.7783 16.0079L20.7401 15.9334C21.1315 15.9032 21.5145 16.034 21.7902 16.2997L21.845 16.3521L22.7478 17.2156L21.2473 18.6507C21.1273 18.7654 21.0578 18.9184 21.0578 19.0875C21.0578 19.2565 21.1231 19.4055 21.2473 19.5242C21.3672 19.639 21.5272 19.7054 21.704 19.7054C21.8807 19.7054 22.0365 19.639 22.1607 19.5242L23.6612 18.0851L23.7812 18.1958L25.0713 19.4296L25.9931 20.3113L24.4883 21.7565C24.3684 21.8712 24.2989 22.0242 24.2989 22.1932C24.2989 22.3623 24.3642 22.5113 24.4883 22.63C24.6441 22.779 24.8651 22.8373 25.0734 22.7971C25.1934 22.7749 25.3091 22.7186 25.3996 22.63L26.9044 21.1949L29.4278 23.6082L25.1828 27.654L25.1807 27.65Z" fill="rgb(0,171,223)" fill-rule="nonzero" />
	<path id="Vector" d="M33.9022 27.4124L31.9912 29.2401L28.6617 26.0558L32.1743 22.6964L32.2016 22.6703C32.45 22.4328 32.45 22.0403 32.2016 21.8027C32.1427 21.7464 32.0691 21.7021 31.9954 21.6699C31.9175 21.6397 31.8333 21.6216 31.7471 21.6216C31.5766 21.6216 31.4145 21.688 31.2904 21.8027L30.3286 22.7226L25.0713 17.6986L22.6994 15.4302C22.6026 15.3376 22.5016 15.2591 22.3964 15.1826C21.8892 14.8264 21.2683 14.6532 20.6327 14.7076L20.2792 14.7338L18.5892 14.8706L17.0886 14.9894L14.8977 12.8941L13.1067 11.1812C12.9867 11.0664 12.8268 11 12.65 11C12.4795 11 12.3175 11.0664 12.1933 11.1812C12.0734 11.2959 12.0039 11.4489 12.0039 11.6179C12.0039 11.787 12.0691 11.936 12.1933 12.0547L13.9843 13.7676L15.5396 15.2551L16.1752 15.8629L16.1247 16.4265L16.0131 17.6946L15.9079 18.9103L15.8806 19.2485C15.8763 19.3149 15.8721 19.3813 15.8721 19.4558C15.8721 20.1261 16.1436 20.75 16.6361 21.221L23.7728 28.0465L24.2652 28.5175L23.7728 28.9885L23.2992 29.4414C23.1793 29.5561 23.1098 29.7091 23.1098 29.8781C23.1098 30.0472 23.1751 30.1962 23.2992 30.3149C23.4192 30.4296 23.5791 30.4961 23.7559 30.4961L23.7749 30.4961C23.9411 30.492 24.0927 30.4296 24.2126 30.3149L25.0692 29.4997L27.7525 26.9334L28.6281 27.7707L31.082 30.1177L29.171 31.9453C29.0511 32.06 28.9816 32.213 28.9816 32.3821C28.9816 32.5511 29.0469 32.7001 29.171 32.8188C29.2952 32.9376 29.4615 33 29.6277 33C29.794 33 29.9539 32.9376 30.0844 32.8188L30.1034 32.7967L34.8176 28.288C35.066 28.0465 35.066 27.654 34.8176 27.4165L34.8134 27.4124C34.5609 27.1749 34.1547 27.1709 33.9022 27.4124ZM25.0692 27.5433L23.7791 26.3094L17.7473 20.5407L17.5495 20.3515C17.2738 20.0878 17.1307 19.7215 17.1623 19.3471L17.2086 18.8318L17.3201 17.5638L17.4316 16.3038L17.4401 16.193L18.8712 16.0783L19.7783 16.0079L20.7401 15.9334C21.1315 15.9032 21.5145 16.034 21.7902 16.2997L21.845 16.3521L22.7478 17.2156L21.2473 18.6507C21.1273 18.7654 21.0578 18.9184 21.0578 19.0875C21.0578 19.2565 21.1231 19.4055 21.2473 19.5242C21.3672 19.639 21.5272 19.7054 21.704 19.7054C21.8807 19.7054 22.0365 19.639 22.1607 19.5242L23.6612 18.0851L23.7812 18.1958L25.0713 19.4296L25.9931 20.3113L24.4883 21.7565C24.3684 21.8712 24.2989 22.0242 24.2989 22.1932C24.2989 22.3623 24.3642 22.5113 24.4883 22.63C24.6441 22.779 24.8651 22.8373 25.0734 22.7971C25.1934 22.7749 25.3091 22.7186 25.3996 22.63L26.9044 21.1949L29.4278 23.6082L25.1828 27.654L25.1807 27.65L25.0692 27.5433Z" fill-rule="nonzero" stroke="rgb(0,171,223)" stroke-width="0.400000" />
</svg>
