<svg width="48.000000" height="48.000000" viewBox="0 0 48 48" fill="none" xmlns="http://www.w3.org/2000/svg" xmlns:xlink="http://www.w3.org/1999/xlink">
	<desc>
			Created with Pixso.
	</desc>
	<defs>
		<clipPath id="clip6101_15350">
			<rect id="_лой_1" rx="-0.500000" width="37.000000" height="37.000000" transform="translate(5.500000 5.500000)" fill="white" fill-opacity="0"/>
		</clipPath>
	</defs>
	<g opacity="0.100000">
		<rect id="Rectangle 1897" rx="10.000000" width="48.000000" height="48.000000" fill="#EA516D" fill-opacity="1.000000"/>
	</g>
	<rect id="_лой_1" rx="-0.500000" width="37.000000" height="37.000000" transform="translate(5.500000 5.500000)" fill="#FFFFFF" fill-opacity="0"/>
	<g clip-path="url(#clip6101_15350)">
		<path id="Vector" d="M24.05 38.57C23.91 38.57 23.78 38.52 23.68 38.42L13.6 28.34L14.35 27.59L24.05 37.29L36.59 24.76C38.11 23.24 38.94 21.22 38.94 19.08C38.94 16.93 38.11 14.92 36.59 13.4C34.94 11.75 32.66 10.9 30.33 11.07C28.01 11.24 25.87 12.41 24.48 14.28C24.28 14.55 23.83 14.55 23.63 14.28C22.24 12.41 20.1 11.24 17.78 11.07C15.45 10.9 13.17 11.75 11.52 13.4C9.01 15.91 8.44 19.7 10.1 22.83C10.23 23.1 10.14 23.42 9.88 23.55C9.62 23.69 9.3 23.59 9.16 23.33C7.28 19.78 7.93 15.49 10.77 12.65C12.64 10.79 15.22 9.83 17.85 10.02C20.26 10.19 22.49 11.32 24.06 13.13C25.62 11.32 27.85 10.19 30.26 10.02C32.89 9.83 35.47 10.79 37.34 12.66C40.89 16.2 40.89 21.96 37.34 25.51L24.43 38.42C24.33 38.51 24.2 38.57 24.06 38.57L24.05 38.57Z" fill="#EA516D" fill-opacity="1.000000" fill-rule="nonzero"/>
		<path id="Vector" d="M23.68 38.42L13.6 28.34L14.35 27.59L24.05 37.29L36.59 24.76C38.11 23.24 38.94 21.22 38.94 19.08C38.94 16.93 38.11 14.92 36.59 13.4C34.94 11.75 32.66 10.9 30.33 11.07C28.01 11.24 25.87 12.41 24.48 14.28C24.28 14.55 23.83 14.55 23.63 14.28C22.24 12.41 20.1 11.24 17.78 11.07C15.45 10.9 13.17 11.75 11.52 13.4C9.01 15.91 8.44 19.7 10.1 22.83C10.23 23.1 10.14 23.42 9.88 23.55C9.62 23.69 9.3 23.59 9.16 23.33C7.28 19.78 7.93 15.49 10.77 12.65C12.64 10.79 15.22 9.83 17.85 10.02C20.26 10.19 22.49 11.32 24.06 13.13C25.62 11.32 27.85 10.19 30.26 10.02C32.89 9.83 35.47 10.79 37.34 12.66C40.89 16.2 40.89 21.96 37.34 25.51L24.43 38.42C24.33 38.51 24.2 38.57 24.06 38.57L24.05 38.57C23.91 38.57 23.78 38.52 23.68 38.42Z" stroke="#EA516D" stroke-opacity="1.000000" stroke-width="0.500000" stroke-linejoin="round"/>
		<path id="Vector" d="M21.82 29.96C21.82 29.96 21.8 29.96 21.8 29.96C21.57 29.94 21.37 29.78 21.32 29.56L18.87 20.33L16.92 25.78C16.85 25.99 16.65 26.13 16.42 26.13L6.53 26.13C6.23 26.13 6 25.89 6 25.6C6 25.31 6.23 25.07 6.53 25.07L16.05 25.07L18.45 18.37C18.52 18.15 18.73 18.01 18.97 18.02C19.2 18.03 19.39 18.19 19.46 18.41L21.91 27.71L23.99 22.33C24.07 22.12 24.27 21.99 24.49 21.99L30.09 21.99C30.38 21.99 30.62 22.23 30.62 22.52C30.62 22.82 30.38 23.05 30.09 23.05L24.85 23.05L22.32 29.62C22.23 29.83 22.04 29.96 21.82 29.96L21.82 29.96Z" fill="#EA516D" fill-opacity="1.000000" fill-rule="nonzero"/>
		<path id="Vector" d="M21.8 29.96C21.57 29.94 21.37 29.78 21.32 29.56L18.87 20.33L16.92 25.78C16.85 25.99 16.65 26.13 16.42 26.13L6.53 26.13C6.23 26.13 6 25.89 6 25.6C6 25.31 6.23 25.07 6.53 25.07L16.05 25.07L18.45 18.37C18.52 18.15 18.73 18.01 18.97 18.02C19.2 18.03 19.39 18.19 19.46 18.41L21.91 27.71L23.99 22.33C24.07 22.12 24.27 21.99 24.49 21.99L30.09 21.99C30.38 21.99 30.62 22.23 30.62 22.52C30.62 22.82 30.38 23.05 30.09 23.05L24.85 23.05L22.32 29.62C22.23 29.83 22.04 29.96 21.82 29.96L21.82 29.96C21.82 29.96 21.8 29.96 21.8 29.96Z" stroke="#EA516D" stroke-opacity="1.000000" stroke-width="0.500000" stroke-linejoin="round"/>
	</g>
</svg>
