<svg width="20.000000" height="24.000000" viewBox="0 0 20 24" fill="none" xmlns="http://www.w3.org/2000/svg" xmlns:xlink="http://www.w3.org/1999/xlink">
	<desc>
			Created with Pixso.
	</desc>
	<defs>
		<clipPath id="clip3_5876">
			<rect id="город" rx="-0.500000" width="19.000000" height="23.000000" transform="translate(0.500000 0.500000)" fill="white" fill-opacity="0"/>
		</clipPath>
	</defs>
	<rect id="город" rx="-0.500000" width="19.000000" height="23.000000" transform="translate(0.500000 0.500000)" fill="#FFFFFF" fill-opacity="0"/>
	<g clip-path="url(#clip3_5876)">
		<path id="Vector" d="M17.07 2.91C13.16 -0.97 6.83 -0.97 2.92 2.91C-0.98 6.79 -0.98 13.08 2.92 16.96L10 24L17.07 16.96C20.97 13.08 20.97 6.79 17.07 2.91ZM6.46 13.45C4.51 11.51 4.51 8.36 6.46 6.42C8.41 4.48 11.58 4.48 13.53 6.42C15.48 8.36 15.48 11.51 13.53 13.45C11.58 15.39 8.41 15.39 6.46 13.45Z" fill="#00ABDF" fill-opacity="1.000000" fill-rule="nonzero"/>
	</g>
</svg>
