<svg width="48.000000" height="48.000000" viewBox="0 0 48 48" fill="none" xmlns="http://www.w3.org/2000/svg" xmlns:xlink="http://www.w3.org/1999/xlink">
	<desc>
			Created with Pixso.
	</desc>
	<defs>
		<clipPath id="clip6101_15548">
			<rect id="_Р»РѕР№_1" rx="-0.500000" width="37.000000" height="37.000000" transform="translate(5.500000 5.500000)" fill="white" fill-opacity="0"/>
		</clipPath>
	</defs>
	<g opacity="0.100000">
		<rect id="Rectangle 1912" rx="10.000000" width="48.000000" height="48.000000" fill="#FFCC00" fill-opacity="1.000000"/>
	</g>
	<rect id="_Р»РѕР№_1" rx="-0.500000" width="37.000000" height="37.000000" transform="translate(5.500000 5.500000)" fill="#FFFFFF" fill-opacity="0"/>
	<g clip-path="url(#clip6101_15548)">
		<path id="Vector" d="M15.85 35.47C14.63 35.47 12.3 35.2 10.32 33.42C8.12 31.43 7 28.17 7 23.74C7 14.53 11.79 12.47 14.65 12.06C16.25 11.83 17.84 12.35 18.91 13.45C20.28 14.86 20.14 16.57 19.78 18.2C19.2 20.91 16.52 21.79 16.41 21.83C16.17 21.91 15.92 21.77 15.85 21.52C15.77 21.27 15.91 21.01 16.14 20.93C16.18 20.92 18.43 20.16 18.9 18C19.25 16.37 19.27 15.15 18.27 14.12C17.41 13.22 16.1 12.8 14.77 12.99C8.79 13.84 7.9 20.09 7.9 23.74C7.9 27.88 8.91 30.9 10.91 32.7C13.37 34.92 16.55 34.5 16.58 34.49C16.59 34.49 16.6 34.49 16.61 34.49C16.62 34.49 17.89 34.37 18.64 33.43C19.11 32.84 19.29 32.03 19.19 31.03C18.83 27.77 15.6 27.85 15.47 27.85C15.22 27.85 15.01 27.66 15 27.4C14.99 27.14 15.18 26.92 15.43 26.92C16.88 26.85 19.73 27.62 20.08 30.93C20.22 32.2 19.97 33.25 19.33 34.03C18.37 35.23 16.88 35.4 16.69 35.42C16.62 35.43 16.31 35.47 15.86 35.47L15.85 35.47Z" fill="#FFCC00" fill-opacity="1.000000" fill-rule="nonzero"/>
		<path id="Vector" d="M10.32 33.42C8.12 31.43 7 28.17 7 23.74C7 14.53 11.79 12.47 14.65 12.06C16.25 11.83 17.84 12.35 18.91 13.45C20.28 14.86 20.14 16.57 19.78 18.2C19.2 20.91 16.52 21.79 16.41 21.83C16.17 21.91 15.92 21.77 15.85 21.52C15.77 21.27 15.91 21.01 16.14 20.93C16.18 20.92 18.43 20.16 18.9 18C19.25 16.37 19.27 15.15 18.27 14.12C17.41 13.22 16.1 12.8 14.77 12.99C8.79 13.84 7.9 20.09 7.9 23.74C7.9 27.88 8.91 30.9 10.91 32.7C13.37 34.92 16.55 34.5 16.58 34.49C16.59 34.49 16.6 34.49 16.61 34.49C16.62 34.49 17.89 34.37 18.64 33.43C19.11 32.84 19.29 32.03 19.19 31.03C18.83 27.77 15.6 27.85 15.47 27.85C15.22 27.85 15.01 27.66 15 27.4C14.99 27.14 15.18 26.92 15.43 26.92C16.88 26.85 19.73 27.62 20.08 30.93C20.22 32.2 19.97 33.25 19.33 34.03C18.37 35.23 16.88 35.4 16.69 35.42C16.62 35.43 16.31 35.47 15.86 35.47L15.85 35.47C14.63 35.47 12.3 35.2 10.32 33.42Z" stroke="#FFCC00" stroke-opacity="1.000000" stroke-width="0.500000"/>
		<path id="Vector" d="M15.45 27.85C15.28 27.85 15.11 27.75 15.04 27.58C14.93 27.34 15.03 27.07 15.26 26.96C15.39 26.89 18.37 25.41 17.24 22.41C17.15 22.17 17.26 21.89 17.5 21.8C17.73 21.7 17.99 21.82 18.08 22.06C19.25 25.14 16.99 27.16 15.64 27.81C15.58 27.83 15.51 27.85 15.45 27.85L15.45 27.85Z" fill="#FFCC00" fill-opacity="1.000000" fill-rule="nonzero"/>
		<path id="Vector" d="M15.04 27.58C14.93 27.34 15.03 27.07 15.26 26.96C15.39 26.89 18.37 25.41 17.24 22.41C17.15 22.17 17.26 21.89 17.5 21.8C17.73 21.7 17.99 21.82 18.08 22.06C19.25 25.14 16.99 27.16 15.64 27.81C15.58 27.83 15.51 27.85 15.45 27.85L15.45 27.85C15.28 27.85 15.11 27.75 15.04 27.58Z" stroke="#FFCC00" stroke-opacity="1.000000" stroke-width="0.500000"/>
		<path id="Vector" d="M21.87 38C21.61 38 21.41 37.78 21.41 37.53L21.41 30.09C21.41 27.91 20.07 25.98 18.08 25.28C17.84 25.2 17.71 24.93 17.79 24.69C17.87 24.44 18.13 24.31 18.36 24.39C20.73 25.21 22.32 27.5 22.32 30.09L22.32 37.53C22.32 37.78 22.11 38 21.86 38L21.87 38Z" fill="#FFCC00" fill-opacity="1.000000" fill-rule="nonzero"/>
		<path id="Vector" d="M21.41 37.53L21.41 30.09C21.41 27.91 20.07 25.98 18.08 25.28C17.84 25.2 17.71 24.93 17.79 24.69C17.87 24.44 18.13 24.31 18.36 24.39C20.73 25.21 22.32 27.5 22.32 30.09L22.32 37.53C22.32 37.78 22.11 38 21.86 38L21.87 38C21.61 38 21.41 37.78 21.41 37.53Z" stroke="#FFCC00" stroke-opacity="1.000000" stroke-width="0.500000"/>
		<path id="Vector" d="M32.14 35.46C31.68 35.46 31.37 35.43 31.3 35.41C31.11 35.4 29.62 35.23 28.66 34.03C28.02 33.24 27.77 32.19 27.91 30.92C28.26 27.62 31.1 26.85 32.56 26.91C32.81 26.92 33 27.14 32.99 27.4C32.98 27.66 32.78 27.86 32.53 27.85C32.39 27.84 29.16 27.77 28.81 31.03C28.7 32.03 28.89 32.83 29.35 33.42C30.11 34.37 31.37 34.48 31.38 34.48C31.39 34.48 31.41 34.48 31.41 34.48C31.44 34.49 34.62 34.92 37.08 32.69C39.08 30.89 40.09 27.88 40.09 23.73C40.09 20.08 39.2 13.84 33.22 12.98C31.89 12.79 30.58 13.21 29.71 14.11C28.72 15.14 28.73 16.36 29.09 17.99C29.56 20.16 31.82 20.92 31.85 20.92C32.08 21 32.22 21.26 32.14 21.51C32.07 21.76 31.82 21.89 31.58 21.82C31.47 21.78 28.8 20.9 28.21 18.19C27.85 16.56 27.71 14.85 29.08 13.44C30.14 12.34 31.74 11.82 33.34 12.05C36.19 12.46 41 14.52 41 23.73C41 28.16 39.87 31.42 37.67 33.41C35.69 35.19 33.36 35.46 32.14 35.46L32.14 35.46Z" fill="#FFCC00" fill-opacity="1.000000" fill-rule="nonzero"/>
		<path id="Vector" d="M31.3 35.41C31.11 35.4 29.62 35.23 28.66 34.03C28.02 33.24 27.77 32.19 27.91 30.92C28.26 27.62 31.1 26.85 32.56 26.91C32.81 26.92 33 27.14 32.99 27.4C32.98 27.66 32.78 27.86 32.53 27.85C32.39 27.84 29.16 27.77 28.81 31.03C28.7 32.03 28.89 32.83 29.35 33.42C30.11 34.37 31.37 34.48 31.38 34.48C31.39 34.48 31.41 34.48 31.41 34.48C31.44 34.49 34.62 34.92 37.08 32.69C39.08 30.89 40.09 27.88 40.09 23.73C40.09 20.08 39.2 13.84 33.22 12.98C31.89 12.79 30.58 13.21 29.71 14.11C28.72 15.14 28.73 16.36 29.09 17.99C29.56 20.16 31.82 20.92 31.85 20.92C32.08 21 32.22 21.26 32.14 21.51C32.07 21.76 31.82 21.89 31.58 21.82C31.47 21.78 28.8 20.9 28.21 18.19C27.85 16.56 27.71 14.85 29.08 13.44C30.14 12.34 31.74 11.82 33.34 12.05C36.19 12.46 41 14.52 41 23.73C41 28.16 39.87 31.42 37.67 33.41C35.69 35.19 33.36 35.46 32.14 35.46L32.14 35.46C31.68 35.46 31.37 35.43 31.3 35.41Z" stroke="#FFCC00" stroke-opacity="1.000000" stroke-width="0.500000"/>
		<path id="Vector" d="M32.53 27.85C32.47 27.85 32.41 27.84 32.35 27.81C30.99 27.16 28.74 25.13 29.9 22.06C29.99 21.82 30.25 21.7 30.48 21.8C30.72 21.89 30.83 22.17 30.74 22.41C29.6 25.42 32.6 26.89 32.73 26.96C32.95 27.07 33.05 27.34 32.94 27.58C32.87 27.75 32.71 27.85 32.53 27.85Z" fill="#FFCC00" fill-opacity="1.000000" fill-rule="nonzero"/>
		<path id="Vector" d="M32.35 27.81C30.99 27.16 28.74 25.13 29.9 22.06C29.99 21.82 30.25 21.7 30.48 21.8C30.72 21.89 30.83 22.17 30.74 22.41C29.6 25.42 32.6 26.89 32.73 26.96C32.95 27.07 33.05 27.34 32.94 27.58C32.87 27.75 32.71 27.85 32.53 27.85C32.47 27.85 32.41 27.84 32.35 27.81Z" stroke="#FFCC00" stroke-opacity="1.000000" stroke-width="0.500000"/>
		<path id="Vector" d="M26.12 37.99C25.87 37.99 25.67 37.78 25.67 37.52L25.67 30.08C25.67 27.5 27.26 25.21 29.62 24.38C29.86 24.3 30.12 24.43 30.19 24.68C30.28 24.92 30.15 25.19 29.91 25.27C27.91 25.97 26.57 27.9 26.57 30.08L26.57 37.52C26.57 37.78 26.37 37.99 26.12 37.99L26.12 37.99Z" fill="#FFCC00" fill-opacity="1.000000" fill-rule="nonzero"/>
		<path id="Vector" d="M25.67 37.52L25.67 30.08C25.67 27.5 27.26 25.21 29.62 24.38C29.86 24.3 30.12 24.43 30.19 24.68C30.28 24.92 30.15 25.19 29.91 25.27C27.91 25.97 26.57 27.9 26.57 30.08L26.57 37.52C26.57 37.78 26.37 37.99 26.12 37.99L26.12 37.99C25.87 37.99 25.67 37.78 25.67 37.52Z" stroke="#FFCC00" stroke-opacity="1.000000" stroke-width="0.500000"/>
	</g>
</svg>
