<svg width="48.000000" height="48.000000" viewBox="0 0 48 48" fill="none" xmlns="http://www.w3.org/2000/svg" xmlns:xlink="http://www.w3.org/1999/xlink">
	<desc>
			Created with Pixso.
	</desc>
	<defs>
		<clipPath id="clip6101_15415">
			<rect id="layer_1" rx="-0.500000" width="37.000000" height="37.000000" transform="translate(5.500000 5.500000)" fill="white" fill-opacity="0"/>
		</clipPath>
	</defs>
	<g opacity="0.100000">
		<rect id="Rectangle 1903" rx="10.000000" width="48.000000" height="48.000000" fill="#00ABDF" fill-opacity="1.000000"/>
	</g>
	<rect id="layer_1" rx="-0.500000" width="37.000000" height="37.000000" transform="translate(5.500000 5.500000)" fill="#FFFFFF" fill-opacity="0"/>
	<g clip-path="url(#clip6101_15415)">
		<path id="Vector" d="M40.68 25.14C40.08 25.05 38.25 25.11 37.75 25.14C37.23 23.83 36.38 22.98 35.77 22.44C36.58 22.22 37.39 21.85 38.16 21.25C38.33 21.13 38.36 20.88 38.25 20.71C38.12 20.53 37.9 20.49 37.73 20.62C35.3 22.5 32.43 21.91 30.53 21.51C30.25 21.46 29.98 21.4 29.74 21.36C29.72 21.36 29.71 21.36 29.69 21.35C29.18 21.32 28.72 21.16 28.31 20.89C27.08 20.08 26.53 18.35 26.83 16.34C27.18 15.92 28.63 14.1 28.9 12.71C28.92 12.69 28.94 12.67 28.95 12.64C29.12 12.44 30.26 12.45 30.94 12.46C30.98 12.46 31.03 12.46 31.07 12.46C31.15 12.61 31.22 12.79 31.31 13C31.71 13.97 32.32 15.44 33.95 15.89C33.98 15.9 34.01 15.9 34.04 15.9C34.21 15.9 34.35 15.78 34.4 15.61C34.45 15.4 34.33 15.18 34.13 15.13C32.85 14.77 32.37 13.61 31.98 12.68C31.95 12.6 31.92 12.53 31.89 12.46C32.55 12.44 33.12 12.39 33.5 12.17C33.68 12.07 33.75 11.83 33.65 11.64C33.55 11.45 33.33 11.37 33.15 11.48C32.77 11.7 31.8 11.69 30.94 11.67C30.16 11.66 29.46 11.66 28.98 11.79C28.97 11.49 28.95 11.21 28.92 10.94C28.85 10.2 28.8 9.61 29.19 8.97C29.3 8.79 29.25 8.55 29.08 8.43C28.91 8.31 28.69 8.36 28.58 8.54C28.05 9.42 28.12 10.23 28.19 11.02C28.24 11.5 28.28 11.99 28.19 12.51C27.96 13.81 26.31 15.79 26.22 15.89C26.22 15.89 26.22 15.89 26.22 15.9C25.29 16.98 24.19 17.56 23.02 17.56C21.7 17.56 20.44 16.8 19.47 15.44C19.46 15.44 19.46 15.43 19.46 15.43C19.39 15.32 18.53 14.05 17.64 12.53C17.64 12.51 17.64 12.51 17.64 12.5C17.63 11.87 17.95 11.5 18.4 11C18.9 10.43 19.51 9.73 19.78 8.48C19.83 8.26 19.7 8.05 19.51 8.01C19.31 7.96 19.11 8.09 19.07 8.3C18.84 9.35 18.35 9.91 17.87 10.46C17.58 10.79 17.28 11.12 17.09 11.55C16.53 10.52 16.03 9.46 15.8 8.64C15.75 8.44 15.54 8.32 15.35 8.38C15.16 8.44 15.05 8.66 15.1 8.87C15.32 9.66 15.76 10.62 16.26 11.58C15.83 11.44 15.44 11.43 15.06 11.42C14.32 11.41 13.67 11.4 12.79 10.37C12.65 10.21 12.42 10.19 12.27 10.34C12.12 10.49 12.11 10.74 12.25 10.9C13.35 12.18 14.25 12.19 15.05 12.21C15.73 12.22 16.32 12.23 17.07 13.03C17.87 14.4 18.63 15.53 18.83 15.83C19.32 18.03 18.78 20.01 17.45 20.89C16.98 21.2 16.43 21.36 15.83 21.36L15.82 21.36C15.82 21.36 15.82 21.36 15.81 21.36C13.48 21.41 12.19 21.97 11.24 22.62C11.22 22.62 11.21 22.62 11.19 22.62C9.26 22.62 8.33 21.24 8.12 20.51C8.06 20.3 7.85 20.19 7.66 20.26C7.47 20.32 7.36 20.54 7.42 20.75C7.66 21.55 8.55 22.97 10.34 23.32C10.32 23.34 10.3 23.35 10.28 23.37C9.47 24.05 8.77 24.64 7.32 24.82C7.12 24.85 6.98 25.04 7 25.26C7.02 25.47 7.21 25.62 7.41 25.6C9.05 25.39 9.91 24.68 10.73 23.99C11.77 23.12 12.85 22.23 15.76 22.15C17.08 22.71 17.91 23.6 18.08 24.68C18.26 25.77 17.76 26.93 16.67 27.94C16.62 27.98 16.54 28.02 16.44 28.08C16.06 28.3 15.46 28.66 14.88 29.17C14.69 29.21 14.38 29.2 14.03 29.2C12.9 29.2 11.19 29.2 9.54 30.12C9.36 30.21 9.29 30.45 9.39 30.64C9.45 30.78 9.58 30.85 9.71 30.85C9.77 30.85 9.82 30.84 9.88 30.81C11.37 29.98 12.97 29.99 14.03 29.99C14.06 29.99 14.09 29.99 14.12 29.99C13.64 30.62 13.27 31.42 13.21 32.41C13.19 32.62 13.35 32.81 13.55 32.82C13.75 32.84 13.92 32.68 13.94 32.46C14.01 31.32 14.61 30.47 15.28 29.85C15.3 29.83 15.32 29.82 15.33 29.8C15.87 29.31 16.44 28.98 16.8 28.77C16.91 28.7 17 28.64 17.07 28.6C17.93 28.16 18.74 28.12 19.35 28.5C20.21 29.03 20.58 30.28 20.37 31.86C20.03 33.37 19.81 34.54 19.71 35.49C19.71 35.49 19.71 35.49 19.7 35.5C18.54 36.44 17.23 36.23 15.4 35.95C15.04 35.89 14.67 35.83 14.28 35.78C14.08 35.76 13.9 35.91 13.87 36.12C13.85 36.34 14 36.53 14.19 36.56C14.58 36.61 14.94 36.67 15.3 36.73C15.59 36.77 15.88 36.81 16.17 36.85C15.89 37.38 15.44 38.27 15.29 39.55C15.26 39.77 15.41 39.96 15.6 39.99C15.62 40 15.64 40 15.65 40C15.83 40 15.99 39.85 16.01 39.65C16.16 38.42 16.6 37.61 16.87 37.12C16.9 37.05 16.94 37 16.96 36.94C17.17 36.96 17.37 36.97 17.56 36.97C18.31 36.97 19.01 36.83 19.66 36.45C19.67 37.76 20.01 38.57 20.73 39.39C20.8 39.48 20.9 39.52 21 39.52C21.08 39.52 21.17 39.49 21.25 39.42C21.39 39.27 21.4 39.02 21.26 38.86C20.24 37.68 20.07 36.53 21.08 32.03C21.08 32.03 21.08 32.03 21.08 32.02C21.4 30.64 22.79 28.8 24.37 28.26C25.54 27.87 26.8 28.01 28.02 28.65C29.12 29.68 29.53 30.58 29.9 31.37C29.96 31.51 30.03 31.64 30.09 31.78C30.09 31.78 30.09 31.78 30.09 31.78C30.23 32.93 30.23 35.04 28.67 36.26C28.51 36.39 28.47 36.63 28.59 36.81C28.66 36.91 28.77 36.97 28.89 36.97C28.96 36.97 29.03 36.94 29.1 36.89C30.45 35.84 30.83 34.28 30.87 33C31.46 33.64 32.38 34.22 34.11 34.71C34.3 34.76 34.51 34.64 34.56 34.43C34.61 34.22 34.5 34.01 34.3 33.95C31.54 33.17 31.13 32.27 30.55 31.03C30.18 30.2 29.71 29.18 28.48 28.03C27.48 26.9 27.08 25.65 27.36 24.53C27.62 23.48 28.45 22.64 29.71 22.15C29.91 22.19 30.15 22.23 30.39 22.28C31.54 22.52 33.16 22.85 34.84 22.62C34.92 22.69 35 22.76 35.09 22.85C35.95 23.6 37.73 25.18 37.46 28.28C37.44 28.5 37.58 28.69 37.78 28.71C37.8 28.71 37.81 28.71 37.82 28.71C38.01 28.71 38.17 28.56 38.19 28.35C38.27 27.42 38.19 26.61 38.01 25.91C38.78 25.88 40.15 25.85 40.57 25.92C40.59 25.92 40.61 25.92 40.63 25.92C40.81 25.92 40.96 25.78 40.99 25.59C41.02 25.37 40.89 25.17 40.68 25.14L40.68 25.14ZM26.65 24.33C26.4 25.35 26.58 26.43 27.16 27.47C26.14 27.18 25.12 27.19 24.16 27.52C22.9 27.94 21.8 29.01 21.09 30.16C20.93 29.1 20.46 28.28 19.72 27.82C19.32 27.58 18.88 27.46 18.4 27.46C18.3 27.46 18.18 27.46 18.07 27.48C18.71 26.54 18.96 25.53 18.8 24.55C18.63 23.51 18.01 22.61 17.03 21.96C17.31 21.86 17.58 21.73 17.83 21.56C19.17 20.67 19.86 18.92 19.72 16.9C20.69 17.84 21.83 18.35 23.02 18.35C24.08 18.35 25.12 17.93 26.02 17.17C25.96 19.09 26.65 20.72 27.92 21.56C28.11 21.69 28.31 21.79 28.52 21.88C27.55 22.48 26.9 23.32 26.65 24.33L26.65 24.33Z" fill="#00ABDF" fill-opacity="1.000000" fill-rule="nonzero"/>
		<path id="Vector" d="M37.75 25.14C37.23 23.83 36.38 22.98 35.77 22.44C36.58 22.22 37.39 21.85 38.16 21.25C38.33 21.13 38.36 20.88 38.25 20.71C38.12 20.53 37.9 20.49 37.73 20.62C35.3 22.5 32.43 21.91 30.53 21.51C30.25 21.46 29.98 21.4 29.74 21.36C29.72 21.36 29.71 21.36 29.69 21.35C29.18 21.32 28.72 21.16 28.31 20.89C27.08 20.08 26.53 18.35 26.83 16.34C27.18 15.92 28.63 14.1 28.9 12.71C28.92 12.69 28.94 12.67 28.95 12.64C29.12 12.44 30.26 12.45 30.94 12.46C30.98 12.46 31.03 12.46 31.07 12.46C31.15 12.61 31.22 12.79 31.31 13C31.71 13.97 32.32 15.44 33.95 15.89C33.98 15.9 34.01 15.9 34.04 15.9C34.21 15.9 34.35 15.78 34.4 15.61C34.45 15.4 34.33 15.18 34.13 15.13C32.85 14.77 32.37 13.61 31.98 12.68C31.95 12.6 31.92 12.53 31.89 12.46C32.55 12.44 33.12 12.39 33.5 12.17C33.68 12.07 33.75 11.83 33.65 11.64C33.55 11.45 33.33 11.37 33.15 11.48C32.77 11.7 31.8 11.69 30.94 11.67C30.16 11.66 29.46 11.66 28.98 11.79C28.97 11.49 28.95 11.21 28.92 10.94C28.85 10.2 28.8 9.61 29.19 8.97C29.3 8.79 29.25 8.55 29.08 8.43C28.91 8.31 28.69 8.36 28.58 8.54C28.05 9.42 28.12 10.23 28.19 11.02C28.24 11.5 28.28 11.99 28.19 12.51C27.96 13.81 26.31 15.79 26.22 15.89C26.22 15.89 26.22 15.89 26.22 15.9C25.29 16.98 24.19 17.56 23.02 17.56C21.7 17.56 20.44 16.8 19.47 15.44C19.46 15.44 19.46 15.43 19.46 15.43C19.39 15.32 18.53 14.05 17.64 12.53C17.64 12.51 17.64 12.51 17.64 12.5C17.63 11.87 17.95 11.5 18.4 11C18.9 10.43 19.51 9.73 19.78 8.48C19.83 8.26 19.7 8.05 19.51 8.01C19.31 7.96 19.11 8.09 19.07 8.3C18.84 9.35 18.35 9.91 17.87 10.46C17.58 10.79 17.28 11.12 17.09 11.55C16.53 10.52 16.03 9.46 15.8 8.64C15.75 8.44 15.54 8.32 15.35 8.38C15.16 8.44 15.05 8.66 15.1 8.87C15.32 9.66 15.76 10.62 16.26 11.58C15.83 11.44 15.44 11.43 15.06 11.42C14.32 11.41 13.67 11.4 12.79 10.37C12.65 10.21 12.42 10.19 12.27 10.34C12.12 10.49 12.11 10.74 12.25 10.9C13.35 12.18 14.25 12.19 15.05 12.21C15.73 12.22 16.32 12.23 17.07 13.03C17.87 14.4 18.63 15.53 18.83 15.83C19.32 18.03 18.78 20.01 17.45 20.89C16.98 21.2 16.43 21.36 15.83 21.36L15.82 21.36C15.82 21.36 15.82 21.36 15.81 21.36C13.48 21.41 12.19 21.97 11.24 22.62C11.22 22.62 11.21 22.62 11.19 22.62C9.26 22.62 8.33 21.24 8.12 20.51C8.06 20.3 7.85 20.19 7.66 20.26C7.47 20.32 7.36 20.54 7.42 20.75C7.66 21.55 8.55 22.97 10.34 23.32C10.32 23.34 10.3 23.35 10.28 23.37C9.47 24.05 8.77 24.64 7.32 24.82C7.12 24.85 6.98 25.04 7 25.26C7.02 25.47 7.21 25.62 7.41 25.6C9.05 25.39 9.91 24.68 10.73 23.99C11.77 23.12 12.85 22.23 15.76 22.15C17.08 22.71 17.91 23.6 18.08 24.68C18.26 25.77 17.76 26.93 16.67 27.94C16.62 27.98 16.54 28.02 16.44 28.08C16.06 28.3 15.46 28.66 14.88 29.17C14.69 29.21 14.38 29.2 14.03 29.2C12.9 29.2 11.19 29.2 9.54 30.12C9.36 30.21 9.29 30.45 9.39 30.64C9.45 30.78 9.58 30.85 9.71 30.85C9.77 30.85 9.82 30.84 9.88 30.81C11.37 29.98 12.97 29.99 14.03 29.99C14.06 29.99 14.09 29.99 14.12 29.99C13.64 30.62 13.27 31.42 13.21 32.41C13.19 32.62 13.35 32.81 13.55 32.82C13.75 32.84 13.92 32.68 13.94 32.46C14.01 31.32 14.61 30.47 15.28 29.85C15.3 29.83 15.32 29.82 15.33 29.8C15.87 29.31 16.44 28.98 16.8 28.77C16.91 28.7 17 28.64 17.07 28.6C17.93 28.16 18.74 28.12 19.35 28.5C20.21 29.03 20.58 30.28 20.37 31.86C20.03 33.37 19.81 34.54 19.71 35.49C19.71 35.49 19.71 35.49 19.7 35.5C18.54 36.44 17.23 36.23 15.4 35.95C15.04 35.89 14.67 35.83 14.28 35.78C14.08 35.76 13.9 35.91 13.87 36.12C13.85 36.34 14 36.53 14.19 36.56C14.58 36.61 14.94 36.67 15.3 36.73C15.59 36.77 15.88 36.81 16.17 36.85C15.89 37.38 15.44 38.27 15.29 39.55C15.26 39.77 15.41 39.96 15.6 39.99C15.62 40 15.64 40 15.65 40C15.83 40 15.99 39.85 16.01 39.65C16.16 38.42 16.6 37.61 16.87 37.12C16.9 37.05 16.94 37 16.96 36.94C17.17 36.96 17.37 36.97 17.56 36.97C18.31 36.97 19.01 36.83 19.66 36.45C19.67 37.76 20.01 38.57 20.73 39.39C20.8 39.48 20.9 39.52 21 39.52C21.08 39.52 21.17 39.49 21.25 39.42C21.39 39.27 21.4 39.02 21.26 38.86C20.24 37.68 20.07 36.53 21.08 32.03C21.08 32.03 21.08 32.03 21.08 32.02C21.4 30.64 22.79 28.8 24.37 28.26C25.54 27.87 26.8 28.01 28.02 28.65C29.12 29.68 29.53 30.58 29.9 31.37C29.96 31.51 30.03 31.64 30.09 31.78C30.09 31.78 30.09 31.78 30.09 31.78C30.23 32.93 30.23 35.04 28.67 36.26C28.51 36.39 28.47 36.63 28.59 36.81C28.66 36.91 28.77 36.97 28.89 36.97C28.96 36.97 29.03 36.94 29.1 36.89C30.45 35.84 30.83 34.28 30.87 33C31.46 33.64 32.38 34.22 34.11 34.71C34.3 34.76 34.51 34.64 34.56 34.43C34.61 34.22 34.5 34.01 34.3 33.95C31.54 33.17 31.13 32.27 30.55 31.03C30.18 30.2 29.71 29.18 28.48 28.03C27.48 26.9 27.08 25.65 27.36 24.53C27.62 23.48 28.45 22.64 29.71 22.15C29.91 22.19 30.15 22.23 30.39 22.28C31.54 22.52 33.16 22.85 34.84 22.62C34.92 22.69 35 22.76 35.09 22.85C35.95 23.6 37.73 25.18 37.46 28.28C37.44 28.5 37.58 28.69 37.78 28.71C37.8 28.71 37.81 28.71 37.82 28.71C38.01 28.71 38.17 28.56 38.19 28.35C38.27 27.42 38.19 26.61 38.01 25.91C38.78 25.88 40.15 25.85 40.57 25.92C40.59 25.92 40.61 25.92 40.63 25.92C40.81 25.92 40.96 25.78 40.99 25.59C41.02 25.37 40.89 25.17 40.68 25.14L40.68 25.14C40.08 25.05 38.25 25.11 37.75 25.14ZM27.16 27.47C26.14 27.18 25.12 27.19 24.16 27.52C22.9 27.94 21.8 29.01 21.09 30.16C20.93 29.1 20.46 28.28 19.72 27.82C19.32 27.58 18.88 27.46 18.4 27.46C18.3 27.46 18.18 27.46 18.07 27.48C18.71 26.54 18.96 25.53 18.8 24.55C18.63 23.51 18.01 22.61 17.03 21.96C17.31 21.86 17.58 21.73 17.83 21.56C19.17 20.67 19.86 18.92 19.72 16.9C20.69 17.84 21.83 18.35 23.02 18.35C24.08 18.35 25.12 17.93 26.02 17.17C25.96 19.09 26.65 20.72 27.92 21.56C28.11 21.69 28.31 21.79 28.52 21.88C27.55 22.48 26.9 23.32 26.65 24.33L26.65 24.33C26.4 25.35 26.58 26.43 27.16 27.47Z" stroke="#00ABDF" stroke-opacity="1.000000" stroke-width="0.500000"/>
		<path id="Vector" d="M23 21C21.89 21 21 21.89 21 23C21 24.1 21.89 25 23 25C24.1 25 25 24.1 25 23C25 21.89 24.1 21 23 21ZM23 24.25C22.32 24.25 21.77 23.69 21.77 23C21.77 22.3 22.32 21.74 23 21.74C23.67 21.74 24.22 22.3 24.22 23C24.22 23.69 23.67 24.25 23 24.25Z" fill="#00ABDF" fill-opacity="1.000000" fill-rule="nonzero"/>
		<path id="Vector" d="M21 23C21 24.1 21.89 25 23 25C24.1 25 25 24.1 25 23C25 21.89 24.1 21 23 21C21.89 21 21 21.89 21 23ZM21.77 23C21.77 22.3 22.32 21.74 23 21.74C23.67 21.74 24.22 22.3 24.22 23C24.22 23.69 23.67 24.25 23 24.25C22.32 24.25 21.77 23.69 21.77 23Z" stroke="#00ABDF" stroke-opacity="1.000000" stroke-width="1.000000"/>
	</g>
</svg>
