<svg width="48.000000" height="48.000000" viewBox="0 0 48 48" fill="none" xmlns="http://www.w3.org/2000/svg" xmlns:xlink="http://www.w3.org/1999/xlink">
	<desc>
			Created with Pixso.
	</desc>
	<defs>
		<clipPath id="clip6101_15494">
			<rect id="_лой_1" rx="-0.500000" width="37.000000" height="37.000000" transform="translate(5.500000 5.500000)" fill="white" fill-opacity="0"/>
		</clipPath>
	</defs>
	<g opacity="0.100000">
		<rect id="Rectangle 1896" rx="10.000000" width="48.000000" height="48.000000" fill="#EA516D" fill-opacity="1.000000"/>
	</g>
	<rect id="_лой_1" rx="-0.500000" width="37.000000" height="37.000000" transform="translate(5.500000 5.500000)" fill="#FFFFFF" fill-opacity="0"/>
	<g clip-path="url(#clip6101_15494)">
		<path id="Vector" d="M16.44 41C16.41 41 16.39 41 16.37 40.99C16.15 40.97 15.96 40.83 15.88 40.63L14.61 37.72L11.56 37.49C11.34 37.48 11.14 37.34 11.05 37.15C10.96 36.95 10.98 36.72 11.11 36.54L29.75 11.41C29.94 11.14 30.32 11.08 30.59 11.28C30.86 11.48 30.92 11.85 30.72 12.12L12.73 36.38L15.07 36.55C15.29 36.57 15.49 36.71 15.58 36.91L16.57 39.19L32.36 17.9C33.21 16.76 33.56 15.35 33.34 13.94C33.12 12.54 32.36 11.3 31.2 10.46C30.93 10.26 30.87 9.89 31.07 9.62C31.26 9.35 31.65 9.3 31.92 9.5C34.85 11.62 35.49 15.71 33.34 18.61L16.92 40.75C16.81 40.91 16.62 41 16.44 41Z" fill="#EA516D" fill-opacity="1.000000" fill-rule="nonzero"/>
		<path id="Vector" d="M16.37 40.99C16.15 40.97 15.96 40.83 15.88 40.63L14.61 37.72L11.56 37.49C11.34 37.48 11.14 37.34 11.05 37.15C10.96 36.95 10.98 36.72 11.11 36.54L29.75 11.41C29.94 11.14 30.32 11.08 30.59 11.28C30.86 11.48 30.92 11.85 30.72 12.12L12.73 36.38L15.07 36.55C15.29 36.57 15.49 36.71 15.58 36.91L16.57 39.19L32.36 17.9C33.21 16.76 33.56 15.35 33.34 13.94C33.12 12.54 32.36 11.3 31.2 10.46C30.93 10.26 30.87 9.89 31.07 9.62C31.26 9.35 31.65 9.3 31.92 9.5C34.85 11.62 35.49 15.71 33.34 18.61L16.92 40.75C16.81 40.91 16.62 41 16.44 41C16.41 41 16.39 41 16.37 40.99Z" stroke="#EA516D" stroke-opacity="1.000000" stroke-width="0.500000"/>
		<path id="Vector" d="M22.52 18.69C22.34 18.69 22.16 18.6 22.03 18.45L17.38 12.26C17.18 12 17.24 11.62 17.51 11.43C17.78 11.23 18.15 11.28 18.35 11.55L23.01 17.73C23.21 18 23.16 18.37 22.89 18.57C22.78 18.65 22.65 18.69 22.53 18.69L22.52 18.69Z" fill="#EA516D" fill-opacity="1.000000" fill-rule="nonzero"/>
		<path id="Vector" d="M22.03 18.45L17.38 12.26C17.18 12 17.24 11.62 17.51 11.43C17.78 11.23 18.15 11.28 18.35 11.55L23.01 17.73C23.21 18 23.16 18.37 22.89 18.57C22.78 18.65 22.65 18.69 22.53 18.69L22.52 18.69C22.34 18.69 22.16 18.6 22.03 18.45Z" stroke="#EA516D" stroke-opacity="1.000000" stroke-width="0.500000"/>
		<path id="Vector" d="M18.93 23.86C18.75 23.86 18.56 23.78 18.44 23.62L14.66 18.61C12.5 15.71 13.14 11.62 16.08 9.5C16.35 9.3 16.73 9.35 16.92 9.62C17.12 9.89 17.06 10.26 16.79 10.46C15.63 11.3 14.87 12.54 14.65 13.94C14.44 15.35 14.78 16.76 15.63 17.9L19.41 22.91C19.62 23.17 19.56 23.55 19.29 23.75C19.19 23.83 19.06 23.87 18.93 23.87L18.93 23.86Z" fill="#EA516D" fill-opacity="1.000000" fill-rule="nonzero"/>
		<path id="Vector" d="M18.44 23.62L14.66 18.61C12.5 15.71 13.14 11.62 16.08 9.5C16.35 9.3 16.73 9.35 16.92 9.62C17.12 9.89 17.06 10.26 16.79 10.46C15.63 11.3 14.87 12.54 14.65 13.94C14.44 15.35 14.78 16.76 15.63 17.9L19.41 22.91C19.62 23.17 19.56 23.55 19.29 23.75C19.19 23.83 19.06 23.87 18.93 23.87L18.93 23.86C18.75 23.86 18.56 23.78 18.44 23.62Z" stroke="#EA516D" stroke-opacity="1.000000" stroke-width="0.500000"/>
		<path id="Vector" d="M31.56 41C31.36 41 31.18 40.91 31.07 40.75L25.02 32.48C24.82 32.22 24.88 31.84 25.15 31.65C25.42 31.46 25.8 31.51 26 31.78L31.36 39.12L32.16 36.83C32.25 36.6 32.46 36.44 32.71 36.43L35.23 36.34L28.65 27.37C28.45 27.1 28.51 26.72 28.78 26.53C29.05 26.33 29.44 26.4 29.63 26.66L36.87 36.55C37.01 36.72 37.03 36.96 36.93 37.16C36.83 37.35 36.63 37.49 36.41 37.49L33.17 37.61L32.13 40.59C32.05 40.8 31.87 40.96 31.64 40.99C31.61 40.99 31.58 41 31.55 41L31.56 41Z" fill="#EA516D" fill-opacity="1.000000" fill-rule="nonzero"/>
		<path id="Vector" d="M31.07 40.75L25.02 32.48C24.82 32.22 24.88 31.84 25.15 31.65C25.42 31.46 25.8 31.51 26 31.78L31.36 39.12L32.16 36.83C32.25 36.6 32.46 36.44 32.71 36.43L35.23 36.34L28.65 27.37C28.45 27.1 28.51 26.72 28.78 26.53C29.05 26.33 29.44 26.4 29.63 26.66L36.87 36.55C37.01 36.72 37.03 36.96 36.93 37.16C36.83 37.35 36.63 37.49 36.41 37.49L33.17 37.61L32.13 40.59C32.05 40.8 31.87 40.96 31.64 40.99C31.61 40.99 31.58 41 31.55 41L31.56 41C31.36 41 31.18 40.91 31.07 40.75Z" stroke="#EA516D" stroke-opacity="1.000000" stroke-width="0.500000"/>
		<path id="Vector" d="M31.55 10.57C31.45 10.57 31.35 10.55 31.25 10.5L29.96 9.76C26.28 7.67 21.71 7.67 18.03 9.76L16.73 10.5C16.44 10.66 16.07 10.56 15.91 10.27C15.74 9.98 15.84 9.62 16.13 9.46L17.42 8.72C21.48 6.42 26.51 6.42 30.56 8.72L31.86 9.46C32.15 9.62 32.25 9.98 32.08 10.27C31.97 10.46 31.77 10.57 31.56 10.57L31.55 10.57Z" fill="#EA516D" fill-opacity="1.000000" fill-rule="nonzero"/>
		<path id="Vector" d="M31.25 10.5L29.96 9.76C26.28 7.67 21.71 7.67 18.03 9.76L16.73 10.5C16.44 10.66 16.07 10.56 15.91 10.27C15.74 9.98 15.84 9.62 16.13 9.46L17.42 8.72C21.48 6.42 26.51 6.42 30.56 8.72L31.86 9.46C32.15 9.62 32.25 9.98 32.08 10.27C31.97 10.46 31.77 10.57 31.56 10.57L31.55 10.57C31.45 10.57 31.35 10.55 31.25 10.5Z" stroke="#EA516D" stroke-opacity="1.000000" stroke-width="0.500000"/>
		<path id="Vector" d="M20.14 14.97C19.92 14.97 19.72 14.86 19.61 14.67C19.44 14.39 19.55 14.02 19.83 13.85C22.4 12.4 25.59 12.4 28.16 13.85C28.44 14.02 28.55 14.39 28.38 14.67C28.21 14.96 27.84 15.06 27.55 14.89C25.36 13.65 22.63 13.65 20.44 14.89C20.34 14.95 20.24 14.97 20.14 14.97Z" fill="#EA516D" fill-opacity="1.000000" fill-rule="nonzero"/>
		<path id="Vector" d="M19.61 14.67C19.44 14.39 19.55 14.02 19.83 13.85C22.4 12.4 25.59 12.4 28.16 13.85C28.44 14.02 28.55 14.39 28.38 14.67C28.21 14.96 27.84 15.06 27.55 14.89C25.36 13.65 22.63 13.65 20.44 14.89C20.34 14.95 20.24 14.97 20.14 14.97C19.92 14.97 19.72 14.86 19.61 14.67Z" stroke="#EA516D" stroke-opacity="1.000000" stroke-width="0.500000"/>
	</g>
</svg>
