<svg width="48.000000" height="48.000000" viewBox="0 0 48 48" fill="none" xmlns="http://www.w3.org/2000/svg" xmlns:xlink="http://www.w3.org/1999/xlink">
	<desc>
			Created with Pixso.
	</desc>
	<defs>
		<clipPath id="clip6101_15313">
			<rect id="_лой_1" rx="-0.500000" width="37.000000" height="37.000000" transform="translate(5.500000 5.500000)" fill="white" fill-opacity="0"/>
		</clipPath>
	</defs>
	<g opacity="0.100000">
		<rect id="Rectangle 1873" rx="10.000000" width="48.000000" height="48.000000" fill="#FFCC00" fill-opacity="1.000000"/>
	</g>
	<rect id="_лой_1" rx="-0.500000" width="37.000000" height="37.000000" transform="translate(5.500000 5.500000)" fill="#FFFFFF" fill-opacity="0"/>
	<g clip-path="url(#clip6101_15313)">
		<path id="Vector" d="M22.81 14.1C22.81 14.76 22.28 15.29 21.62 15.29C20.96 15.29 20.43 14.76 20.43 14.1C20.43 13.44 20.96 12.91 21.62 12.91C22.28 12.91 22.81 13.44 22.81 14.1Z" fill="#FFCC00" fill-opacity="1.000000" fill-rule="evenodd"/>
		<path id="Vector" d="M27.56 14.1C27.56 14.76 27.03 15.29 26.37 15.29C25.71 15.29 25.18 14.76 25.18 14.1C25.18 13.44 25.71 12.91 26.37 12.91C27.03 12.91 27.56 13.44 27.56 14.1Z" fill="#FFCC00" fill-opacity="1.000000" fill-rule="evenodd"/>
		<path id="Vector" d="M24 7L24 10" stroke="#FFCC00" stroke-opacity="1.000000" stroke-width="1.800000" stroke-linejoin="round" stroke-linecap="round"/>
		<path id="Vector" d="M31 26.11L36.5 23C37.71 22.29 39.88 22.21 40.77 23.75C41.66 25.27 40.77 27 39 28L34.07 31" stroke="#FFCC00" stroke-opacity="1.000000" stroke-width="1.800000" stroke-linejoin="round" stroke-linecap="round"/>
		<path id="Vector" d="M24 30L24 42" stroke="#FFCC00" stroke-opacity="1.000000" stroke-width="1.800000" stroke-linejoin="round" stroke-linecap="round"/>
		<path id="Vector" d="M31 40C29.27 41.42 26.78 42 24.01 42C22.16 42 20.45 41.74 19 41.15" stroke="#FFCC00" stroke-opacity="1.000000" stroke-width="1.800000" stroke-linejoin="round" stroke-linecap="round"/>
		<path id="Vector" d="M27 25C30.39 26.25 33.03 29.13 34 32" stroke="#FFCC00" stroke-opacity="1.000000" stroke-width="1.800000" stroke-linejoin="round" stroke-linecap="round"/>
		<path id="Vector" d="M14 32C14.96 29.12 17.6 26.24 21 25" stroke="#FFCC00" stroke-opacity="1.000000" stroke-width="1.800000" stroke-linejoin="round" stroke-linecap="round"/>
		<path id="Vector" d="M30 8.58L31.46 7.6C33.09 6.51 35.29 6.94 36.39 8.54C37.36 9.96 37.13 11.83 35.94 13" stroke="#FFCC00" stroke-opacity="1.000000" stroke-width="1.800000" stroke-linejoin="round" stroke-linecap="round"/>
		<path id="Vector" d="M19.1 24C16.06 22.95 14 20.8 14 17.48C14 12.57 18.47 7 24 7C29.52 7 34 12.57 34 17.48C34 20.8 31.93 22.95 28.89 24" stroke="#FFCC00" stroke-opacity="1.000000" stroke-width="1.800000" stroke-linejoin="round" stroke-linecap="round"/>
		<path id="Vector" d="M24 25C21.23 25 19 23.21 19 21C19 18.78 21.23 17 24 17C26.76 17 29 18.78 29 21C29 23.21 26.76 25 24 25Z" stroke="#FFCC00" stroke-opacity="1.000000" stroke-width="1.800000" stroke-linejoin="round"/>
		<path id="Vector" d="M39.16 38.78C37.75 41.23 34.99 42.29 33.01 41.15C31.03 40.01 30.57 37.1 31.99 34.65C33.41 32.2 36.16 31.14 38.14 32.28C40.12 33.42 40.58 36.33 39.16 38.78Z" stroke="#FFCC00" stroke-opacity="1.000000" stroke-width="1.800000" stroke-linejoin="round"/>
		<path id="Vector" d="M24 19.25C24.65 19.25 25.18 18.71 25.18 18.06C25.18 17.4 24.65 16.87 24 16.87C23.34 16.87 22.81 17.4 22.81 18.06C22.81 18.71 23.34 19.25 24 19.25Z" fill="#FFCC00" fill-opacity="1.000000" fill-rule="nonzero"/>
		<path id="Vector" d="M25.18 18.06C25.18 18.71 24.65 19.25 24 19.25C23.34 19.25 22.81 18.71 22.81 18.06C22.81 17.4 23.34 16.87 24 16.87C24.65 16.87 25.18 17.4 25.18 18.06ZM23.76 17.49Q23.87 17.44 24 17.44Q24.12 17.44 24.23 17.49Q24.34 17.53 24.43 17.62Q24.52 17.71 24.56 17.82Q24.61 17.93 24.61 18.06Q24.61 18.19 24.56 18.29Q24.52 18.4 24.43 18.49Q24.34 18.58 24.23 18.62Q24.12 18.67 24 18.67Q23.87 18.67 23.76 18.62Q23.65 18.58 23.56 18.49Q23.48 18.4 23.43 18.29Q23.39 18.19 23.39 18.06Q23.39 17.93 23.43 17.82Q23.48 17.71 23.56 17.62Q23.65 17.53 23.76 17.49Z" fill="#FFCC00" fill-opacity="1.000000" fill-rule="evenodd"/>
		<path id="Vector" d="M18 8.49L16.53 7.56C14.9 6.54 12.7 6.94 11.6 8.46C10.51 9.98 10.94 12.04 12.56 13.07L14.03 14" stroke="#FFCC00" stroke-opacity="1.000000" stroke-width="1.800000" stroke-linejoin="round" stroke-linecap="round"/>
		<path id="Vector" d="M14.96 41.1C12.98 42.25 10.23 41.2 8.82 38.76C7.41 36.33 7.88 33.44 9.86 32.3C11.84 31.16 14.58 32.21 15.99 34.64C17.4 37.07 16.94 39.96 14.96 41.1Z" stroke="#FFCC00" stroke-opacity="1.000000" stroke-width="1.800000" stroke-linejoin="round"/>
		<path id="Vector" d="M19 25L10.32 26.55C8.79 26.83 7.77 28.32 8.04 29.89C8.21 30.85 8.83 31.62 9.64 32" stroke="#FFCC00" stroke-opacity="1.000000" stroke-width="1.800000" stroke-linejoin="round" stroke-linecap="round"/>
	</g>
</svg>
