<svg width="48.000000" height="48.000000" viewBox="0 0 48 48" fill="none" xmlns="http://www.w3.org/2000/svg" xmlns:xlink="http://www.w3.org/1999/xlink">
	<desc>
			Created with Pixso.
	</desc>
	<defs>
		<clipPath id="clip6101_15399">
			<rect id="_лой_1" rx="-0.500000" width="37.000000" height="37.000000" transform="translate(5.500000 5.500000)" fill="white" fill-opacity="0"/>
		</clipPath>
	</defs>
	<g opacity="0.100000">
		<rect id="Rectangle 1895" rx="10.000000" width="48.000000" height="48.000000" fill="#63C3D1" fill-opacity="1.000000"/>
	</g>
	<rect id="_лой_1" rx="-0.500000" width="37.000000" height="37.000000" transform="translate(5.500000 5.500000)" fill="#FFFFFF" fill-opacity="0"/>
	<g clip-path="url(#clip6101_15399)">
		<path id="Vector" d="M39.38 41.07C39.07 41.07 38.8 40.83 38.77 40.52L37.86 31.82C37.63 29.61 35.9 27.82 33.65 27.46L28.24 26.6L24.3 28.74C24.11 28.84 23.88 28.84 23.69 28.74L19.75 26.6L14.34 27.46C12.09 27.82 10.35 29.61 10.13 31.82L9.22 40.52C9.19 40.85 8.89 41.09 8.55 41.06C8.21 41.03 7.96 40.73 8 40.41L8.9 31.7C9.19 28.96 11.34 26.72 14.15 26.28L19.76 25.39C19.9 25.37 20.04 25.39 20.16 25.45L24 27.53L27.83 25.45C27.95 25.39 28.09 25.36 28.23 25.39L33.84 26.28C36.65 26.73 38.8 28.96 39.09 31.7L39.99 40.41C40.03 40.73 39.78 41.03 39.44 41.06C39.42 41.06 39.4 41.06 39.38 41.06L39.38 41.07Z" fill="#63C3D1" fill-opacity="1.000000" fill-rule="nonzero"/>
		<path id="Vector" d="M38.77 40.52L37.86 31.82C37.63 29.61 35.9 27.82 33.65 27.46L28.24 26.6L24.3 28.74C24.11 28.84 23.88 28.84 23.69 28.74L19.75 26.6L14.34 27.46C12.09 27.82 10.35 29.61 10.13 31.82L9.22 40.52C9.19 40.85 8.89 41.09 8.55 41.06C8.21 41.03 7.96 40.73 8 40.41L8.9 31.7C9.19 28.96 11.34 26.72 14.15 26.28L19.76 25.39C19.9 25.37 20.04 25.39 20.16 25.45L24 27.53L27.83 25.45C27.95 25.39 28.09 25.36 28.23 25.39L33.84 26.28C36.65 26.73 38.8 28.96 39.09 31.7L39.99 40.41C40.03 40.73 39.78 41.03 39.44 41.06C39.42 41.06 39.4 41.06 39.38 41.06L39.38 41.07C39.07 41.07 38.8 40.83 38.77 40.52Z" stroke="#63C3D1" stroke-opacity="1.000000" stroke-width="0.500000" stroke-linejoin="round"/>
		<path id="Vector" d="M19.86 26.56C19.78 26.56 19.7 26.55 19.62 26.51C19.31 26.39 19.16 26.03 19.3 25.73L19.89 24.37C20.03 24.07 20.39 23.93 20.7 24.06C21.01 24.19 21.16 24.54 21.02 24.85L20.42 26.2C20.32 26.43 20.1 26.56 19.86 26.56L19.86 26.56Z" fill="#63C3D1" fill-opacity="1.000000" fill-rule="nonzero"/>
		<path id="Vector" d="M19.62 26.51C19.31 26.39 19.16 26.03 19.3 25.73L19.89 24.37C20.03 24.07 20.39 23.93 20.7 24.06C21.01 24.19 21.16 24.54 21.02 24.85L20.42 26.2C20.32 26.43 20.1 26.56 19.86 26.56L19.86 26.56C19.78 26.56 19.7 26.55 19.62 26.51Z" stroke="#63C3D1" stroke-opacity="1.000000" stroke-width="0.500000" stroke-linejoin="round"/>
		<path id="Vector" d="M28.14 26.56C27.89 26.56 27.67 26.42 27.57 26.2L26.97 24.85C26.83 24.54 26.98 24.19 27.3 24.06C27.61 23.93 27.97 24.07 28.1 24.37L28.7 25.73C28.83 26.03 28.69 26.39 28.37 26.51C28.3 26.55 28.21 26.56 28.13 26.56L28.14 26.56Z" fill="#63C3D1" fill-opacity="1.000000" fill-rule="nonzero"/>
		<path id="Vector" d="M27.57 26.2L26.97 24.85C26.83 24.54 26.98 24.19 27.3 24.06C27.61 23.93 27.97 24.07 28.1 24.37L28.7 25.73C28.83 26.03 28.69 26.39 28.37 26.51C28.3 26.55 28.21 26.56 28.13 26.56L28.14 26.56C27.89 26.56 27.67 26.42 27.57 26.2Z" stroke="#63C3D1" stroke-opacity="1.000000" stroke-width="0.500000" stroke-linejoin="round"/>
		<path id="Vector" d="M23.99 24.1C20.7 24.1 18.66 21.17 17.88 18.55C16.96 18.08 16.91 17.14 16.88 16.76L16.82 15.85C16.76 14.96 17.02 14.32 17.58 13.94C17.54 12.69 17.62 9.12 19.59 8.19C19.63 8.17 19.65 8.12 19.66 8.09C19.95 7.51 20.39 7.16 21.93 6.99C23.83 6.77 26.61 7.15 28 8.26L28.05 8.3C28.96 9.01 30.44 10.19 30.39 13.93C30.96 14.31 31.21 14.95 31.16 15.85L31.1 16.76C31.07 17.13 31.01 18.05 30.15 18.53C29.4 21.27 27.41 24.1 23.99 24.1L23.99 24.1ZM23.04 8.12C22.7 8.12 22.37 8.14 22.07 8.17C20.92 8.3 20.83 8.48 20.77 8.6C20.69 8.77 20.54 9.07 20.12 9.26C18.98 9.81 18.72 12.61 18.82 14.25C18.84 14.5 18.69 14.75 18.44 14.84C18.21 14.93 18 15.07 18.05 15.77L18.11 16.69C18.15 17.3 18.3 17.46 18.59 17.55C18.79 17.61 18.94 17.77 18.99 17.97C19.6 20.25 21.28 22.91 24 22.91C27.56 22.91 28.75 19.13 29.04 17.97C29.08 17.77 29.23 17.61 29.43 17.54C29.7 17.45 29.84 17.3 29.88 16.69L29.94 15.77C29.98 15.07 29.78 14.94 29.55 14.85C29.31 14.75 29.16 14.52 29.17 14.27C29.3 10.83 28.09 9.87 27.29 9.23L27.23 9.19C26.34 8.48 24.58 8.13 23.05 8.13L23.04 8.12Z" fill="#63C3D1" fill-opacity="1.000000" fill-rule="nonzero"/>
		<path id="Vector" d="M17.88 18.55C16.96 18.08 16.91 17.14 16.88 16.76L16.82 15.85C16.76 14.96 17.02 14.32 17.58 13.94C17.54 12.69 17.62 9.12 19.59 8.19C19.63 8.17 19.65 8.12 19.66 8.09C19.95 7.51 20.39 7.16 21.93 6.99C23.83 6.77 26.61 7.15 28 8.26L28.05 8.3C28.96 9.01 30.44 10.19 30.39 13.93C30.96 14.31 31.21 14.95 31.16 15.85L31.1 16.76C31.07 17.13 31.01 18.05 30.15 18.53C29.4 21.27 27.41 24.1 23.99 24.1L23.99 24.1C20.7 24.1 18.66 21.17 17.88 18.55ZM22.07 8.17C20.92 8.3 20.83 8.48 20.77 8.6C20.69 8.77 20.54 9.07 20.12 9.26C18.98 9.81 18.72 12.61 18.82 14.25C18.84 14.5 18.69 14.75 18.44 14.84C18.21 14.93 18 15.07 18.05 15.77L18.11 16.69C18.15 17.3 18.3 17.46 18.59 17.55C18.79 17.61 18.94 17.77 18.99 17.97C19.6 20.25 21.28 22.91 24 22.91C27.56 22.91 28.75 19.13 29.04 17.97C29.08 17.77 29.23 17.61 29.43 17.54C29.7 17.45 29.84 17.3 29.88 16.69L29.94 15.77C29.98 15.07 29.78 14.94 29.55 14.85C29.31 14.75 29.16 14.52 29.17 14.27C29.3 10.83 28.09 9.87 27.29 9.23L27.23 9.19C26.34 8.48 24.58 8.13 23.05 8.13L23.04 8.12C22.7 8.12 22.37 8.14 22.07 8.17Z" stroke="#63C3D1" stroke-opacity="1.000000" stroke-width="0.500000" stroke-linejoin="round"/>
		<path id="Vector" d="M29.57 12.25C29.29 12.25 29.04 12.07 28.97 11.79C28.9 11.52 28.75 11.32 28.5 11.18C27.68 10.72 25.88 10.85 23.69 11.51C21.68 12.12 20.18 12.09 19.24 11.41C18.5 10.89 18.3 10.09 18.3 9.71C18.3 9.37 18.58 9.1 18.92 9.1C19.26 9.1 19.53 9.37 19.54 9.7C19.54 9.73 19.57 10.17 19.98 10.46C20.58 10.87 21.77 10.84 23.33 10.37C24.83 9.91 27.57 9.28 29.11 10.14C29.66 10.44 30.03 10.92 30.17 11.51C30.25 11.83 30.05 12.16 29.71 12.23C29.66 12.25 29.62 12.25 29.57 12.25Z" fill="#63C3D1" fill-opacity="1.000000" fill-rule="nonzero"/>
		<path id="Vector" d="M28.97 11.79C28.9 11.52 28.75 11.32 28.5 11.18C27.68 10.72 25.88 10.85 23.69 11.51C21.68 12.12 20.18 12.09 19.24 11.41C18.5 10.89 18.3 10.09 18.3 9.71C18.3 9.37 18.58 9.1 18.92 9.1C19.26 9.1 19.53 9.37 19.54 9.7C19.54 9.73 19.57 10.17 19.98 10.46C20.58 10.87 21.77 10.84 23.33 10.37C24.83 9.91 27.57 9.28 29.11 10.14C29.66 10.44 30.03 10.92 30.17 11.51C30.25 11.83 30.05 12.16 29.71 12.23C29.66 12.25 29.62 12.25 29.57 12.25C29.29 12.25 29.04 12.07 28.97 11.79Z" stroke="#63C3D1" stroke-opacity="1.000000" stroke-width="0.500000" stroke-linejoin="round"/>
		<path id="Vector" d="M17.45 34C17.23 34 17.04 33.77 17.02 33.47C16.78 28.87 18.16 26.34 18.21 26.23C18.35 25.98 18.62 25.92 18.82 26.1C19.01 26.28 19.05 26.63 18.91 26.88C18.9 26.91 17.67 29.23 17.89 33.39C17.9 33.7 17.72 33.97 17.48 33.99C17.47 33.99 17.46 33.99 17.46 33.99L17.45 34Z" fill="#63C3D1" fill-opacity="1.000000" fill-rule="nonzero"/>
		<path id="Vector" d="M17.02 33.47C16.78 28.87 18.16 26.34 18.21 26.23C18.35 25.98 18.62 25.92 18.82 26.1C19.01 26.28 19.05 26.63 18.91 26.88C18.9 26.91 17.67 29.23 17.89 33.39C17.9 33.7 17.72 33.97 17.48 33.99C17.47 33.99 17.46 33.99 17.46 33.99L17.45 34C17.23 34 17.04 33.77 17.02 33.47Z" stroke="#63C3D1" stroke-opacity="1.000000" stroke-width="0.500000" stroke-linejoin="round"/>
		<path id="Vector" d="M30.51 32L30.5 32C30.23 31.99 30.01 31.74 30.01 31.43C30.05 28.51 29.09 26.88 29.08 26.86C28.93 26.61 28.99 26.26 29.21 26.09C29.43 25.92 29.73 25.98 29.89 26.23C29.93 26.31 31.03 28.15 31 31.45C30.99 31.75 30.77 32 30.5 32L30.51 32Z" fill="#63C3D1" fill-opacity="1.000000" fill-rule="nonzero"/>
		<path id="Vector" d="M30.5 32C30.23 31.99 30.01 31.74 30.01 31.43C30.05 28.51 29.09 26.88 29.08 26.86C28.93 26.61 28.99 26.26 29.21 26.09C29.43 25.92 29.73 25.98 29.89 26.23C29.93 26.31 31.03 28.15 31 31.45C30.99 31.75 30.77 32 30.5 32L30.51 32L30.5 32Z" stroke="#63C3D1" stroke-opacity="1.000000" stroke-width="0.500000" stroke-linejoin="round"/>
		<path id="Vector" d="M17 39C15.89 39 15 38.1 15 37C15 35.89 15.89 35 17 35C18.1 35 19 35.89 19 37C19 38.1 18.1 39 17 39ZM17 36.12C16.51 36.12 16.12 36.51 16.12 37C16.12 37.48 16.51 37.87 17 37.87C17.48 37.87 17.87 37.48 17.87 37C17.87 36.51 17.48 36.12 17 36.12Z" fill="#63C3D1" fill-opacity="1.000000" fill-rule="nonzero"/>
		<path id="Vector" d="M15 37C15 35.89 15.89 35 17 35C18.1 35 19 35.89 19 37C19 38.1 18.1 39 17 39C15.89 39 15 38.1 15 37ZM16.12 37C16.12 37.48 16.51 37.87 17 37.87C17.48 37.87 17.87 37.48 17.87 37C17.87 36.51 17.48 36.12 17 36.12C16.51 36.12 16.12 36.51 16.12 37Z" stroke="#63C3D1" stroke-opacity="1.000000" stroke-width="0.500000" stroke-linejoin="round"/>
		<path id="Vector" d="M28.55 39L27.5 39C27.28 39 27.06 38.89 26.94 38.73C26.32 37.9 26 36.91 26 35.88C26 33.19 28.24 31 31 31C33.75 31 36 33.18 36 35.88C36 36.84 35.71 37.77 35.16 38.57C35.05 38.75 34.83 38.85 34.59 38.85L33.56 38.85C33.2 38.85 32.9 38.6 32.9 38.29C32.9 37.98 33.2 37.73 33.56 37.73L34.19 37.73C34.51 37.17 34.67 36.53 34.67 35.87C34.67 33.8 33.02 32.12 30.99 32.12C28.96 32.12 27.31 33.8 27.31 35.87C27.31 36.59 27.51 37.27 27.87 37.87L28.55 37.87C28.91 37.87 29.21 38.12 29.21 38.43C29.21 38.74 28.91 38.99 28.55 38.99L28.55 39Z" fill="#63C3D1" fill-opacity="1.000000" fill-rule="nonzero"/>
		<path id="Vector" d="M27.5 39C27.28 39 27.06 38.89 26.94 38.73C26.32 37.9 26 36.91 26 35.88C26 33.19 28.24 31 31 31C33.75 31 36 33.18 36 35.88C36 36.84 35.71 37.77 35.16 38.57C35.05 38.75 34.83 38.85 34.59 38.85L33.56 38.85C33.2 38.85 32.9 38.6 32.9 38.29C32.9 37.98 33.2 37.73 33.56 37.73L34.19 37.73C34.51 37.17 34.67 36.53 34.67 35.87C34.67 33.8 33.02 32.12 30.99 32.12C28.96 32.12 27.31 33.8 27.31 35.87C27.31 36.59 27.51 37.27 27.87 37.87L28.55 37.87C28.91 37.87 29.21 38.12 29.21 38.43C29.21 38.74 28.91 38.99 28.55 38.99L28.55 39L27.5 39Z" stroke="#63C3D1" stroke-opacity="1.000000" stroke-width="0.500000" stroke-linejoin="round"/>
	</g>
</svg>
