<svg width="48.000000" height="48.000000" viewBox="0 0 48 48" fill="none" xmlns="http://www.w3.org/2000/svg" xmlns:xlink="http://www.w3.org/1999/xlink">
	<desc>
			Created with Pixso.
	</desc>
	<defs>
		<clipPath id="clip6101_15480">
			<rect id="_РµР¶РёРј_РёР·РѕР»СЏС†РёРё" rx="-0.500000" width="37.000000" height="38.000000" transform="translate(5.500000 5.500000)" fill="white" fill-opacity="0"/>
		</clipPath>
	</defs>
	<g opacity="0.100000">
		<rect id="Rectangle 1888" rx="10.000000" width="48.000000" height="48.000000" fill="#63C3D1" fill-opacity="1.000000"/>
	</g>
	<rect id="_РµР¶РёРј_РёР·РѕР»СЏС†РёРё" rx="-0.500000" width="37.000000" height="38.000000" transform="translate(5.500000 5.500000)" fill="#FFFFFF" fill-opacity="0"/>
	<g clip-path="url(#clip6101_15480)">
		<path id="Vector" d="M36.6 39C35.92 39 35.16 38.84 34.33 38.54L34.13 38.46C30.38 37.08 25.71 35.35 26.01 27.53C26.37 17.91 27.71 12.43 29.99 11.25C30.53 10.96 31.43 10.78 32.58 11.49C33 11.73 38.65 15.01 40.31 24.51C41.19 29.52 41.66 35.96 38.92 38.2C38.28 38.73 37.5 38.99 36.6 38.99L36.6 39ZM31.02 12.08C30.8 12.08 30.63 12.14 30.5 12.21C28.68 13.16 27.44 18.76 27.11 27.57C26.85 34.6 30.92 36.11 34.51 37.44L34.72 37.52C36.26 38.09 37.4 38.04 38.23 37.37C40.02 35.9 40.39 31.28 39.23 24.7C37.63 15.55 32.09 12.46 32.04 12.44C32.03 12.43 32.02 12.42 32.01 12.42C31.6 12.16 31.28 12.08 31.03 12.08L31.02 12.08Z" fill="#63C3D1" fill-opacity="1.000000" fill-rule="nonzero"/>
		<path id="Vector" d="M34.33 38.54L34.13 38.46C30.38 37.08 25.71 35.35 26.01 27.53C26.37 17.91 27.71 12.43 29.99 11.25C30.53 10.96 31.43 10.78 32.58 11.49C33 11.73 38.65 15.01 40.31 24.51C41.19 29.52 41.66 35.96 38.92 38.2C38.28 38.73 37.5 38.99 36.6 38.99L36.6 39C35.92 39 35.16 38.84 34.33 38.54ZM30.5 12.21C28.68 13.16 27.44 18.76 27.11 27.57C26.85 34.6 30.92 36.11 34.51 37.44L34.72 37.52C36.26 38.09 37.4 38.04 38.23 37.37C40.02 35.9 40.39 31.28 39.23 24.7C37.63 15.55 32.09 12.46 32.04 12.44C32.03 12.43 32.02 12.42 32.01 12.42C31.6 12.16 31.28 12.08 31.03 12.08L31.02 12.08C30.8 12.08 30.63 12.14 30.5 12.21Z" stroke="#63C3D1" stroke-opacity="1.000000" stroke-width="0.500000" stroke-linejoin="round"/>
		<path id="Vector" d="M19.63 14.99C19.5 14.99 19.36 14.95 19.26 14.86C19.06 14.69 19.06 14.41 19.26 14.23L19.38 14.12C20.72 12.98 21.46 11.47 21.46 9.85L21.46 7.44C21.46 7.19 21.69 7 21.98 7C22.28 7 22.51 7.19 22.51 7.44L22.51 9.86C22.51 11.71 21.66 13.45 20.13 14.76L20.01 14.86C19.9 14.95 19.77 14.99 19.64 14.99L19.63 14.99Z" fill="#63C3D1" fill-opacity="1.000000" fill-rule="nonzero"/>
		<path id="Vector" d="M19.26 14.86C19.06 14.69 19.06 14.41 19.26 14.23L19.38 14.12C20.72 12.98 21.46 11.47 21.46 9.85L21.46 7.44C21.46 7.19 21.69 7 21.98 7C22.28 7 22.51 7.19 22.51 7.44L22.51 9.86C22.51 11.71 21.66 13.45 20.13 14.76L20.01 14.86C19.9 14.95 19.77 14.99 19.64 14.99L19.63 14.99C19.5 14.99 19.36 14.95 19.26 14.86Z" stroke="#63C3D1" stroke-opacity="1.000000" stroke-width="0.500000" stroke-linejoin="round"/>
		<path id="Vector" d="M28.39 14.99C28.25 14.99 28.12 14.95 28.01 14.86L27.89 14.76C26.36 13.45 25.51 11.71 25.51 9.86L25.51 7.44C25.51 7.19 25.75 7 26.04 7C26.33 7 26.56 7.19 26.56 7.44L26.56 9.86C26.56 11.47 27.3 12.99 28.64 14.13L28.76 14.23C28.96 14.41 28.96 14.69 28.76 14.87C28.66 14.95 28.53 15 28.39 15L28.39 14.99Z" fill="#63C3D1" fill-opacity="1.000000" fill-rule="nonzero"/>
		<path id="Vector" d="M28.01 14.86L27.89 14.76C26.36 13.45 25.51 11.71 25.51 9.86L25.51 7.44C25.51 7.19 25.75 7 26.04 7C26.33 7 26.56 7.19 26.56 7.44L26.56 9.86C26.56 11.47 27.3 12.99 28.64 14.13L28.76 14.23C28.96 14.41 28.96 14.69 28.76 14.87C28.66 14.95 28.53 15 28.39 15L28.39 14.99C28.25 14.99 28.12 14.95 28.01 14.86Z" stroke="#63C3D1" stroke-opacity="1.000000" stroke-width="0.500000" stroke-linejoin="round"/>
		<path id="Vector" d="M27 20C26.92 20 26.84 19.98 26.76 19.92C24.85 18.74 23.6 16.05 23.55 15.93C23.41 15.63 23.5 15.24 23.75 15.07C24.01 14.91 24.33 15.02 24.47 15.32C24.48 15.35 25.62 17.79 27.24 18.8C27.5 18.96 27.6 19.34 27.46 19.65C27.37 19.87 27.19 19.99 27 19.99L27 20Z" fill="#63C3D1" fill-opacity="1.000000" fill-rule="nonzero"/>
		<path id="Vector" d="M26.76 19.92C24.85 18.74 23.6 16.05 23.55 15.93C23.41 15.63 23.5 15.24 23.75 15.07C24.01 14.91 24.33 15.02 24.47 15.32C24.48 15.35 25.62 17.79 27.24 18.8C27.5 18.96 27.6 19.34 27.46 19.65C27.37 19.87 27.19 19.99 27 19.99L27 20C26.92 20 26.84 19.98 26.76 19.92Z" stroke="#63C3D1" stroke-opacity="1.000000" stroke-width="0.500000" stroke-linejoin="round"/>
		<path id="Vector" d="M21.02 19.99C20.83 19.99 20.65 19.87 20.55 19.65C20.42 19.34 20.52 18.96 20.78 18.8C22.39 17.79 23.54 15.35 23.55 15.32C23.69 15.02 24.01 14.91 24.26 15.07C24.51 15.25 24.61 15.63 24.47 15.93C24.42 16.05 23.16 18.74 21.26 19.92C21.18 19.98 21.1 20 21.02 20L21.02 19.99Z" fill="#63C3D1" fill-opacity="1.000000" fill-rule="nonzero"/>
		<path id="Vector" d="M20.55 19.65C20.42 19.34 20.52 18.96 20.78 18.8C22.39 17.79 23.54 15.35 23.55 15.32C23.69 15.02 24.01 14.91 24.26 15.07C24.51 15.25 24.61 15.63 24.47 15.93C24.42 16.05 23.16 18.74 21.26 19.92C21.18 19.98 21.1 20 21.02 20L21.02 19.99C20.83 19.99 20.65 19.87 20.55 19.65Z" stroke="#63C3D1" stroke-opacity="1.000000" stroke-width="0.500000" stroke-linejoin="round"/>
		<path id="Vector" d="M9.07 38.2C6.33 35.96 6.8 29.52 7.67 24.51C9.34 15.01 14.99 11.73 15.41 11.49C16.57 10.78 17.46 10.96 18 11.25C20.28 12.43 21.62 17.91 21.98 27.53C22.28 35.35 17.61 37.08 13.86 38.46L13.66 38.54C12.83 38.85 12.07 39 11.39 39C10.49 39 9.71 38.73 9.07 38.2L9.07 38.2ZM15.99 12.42C15.99 12.42 15.97 12.43 15.96 12.43C15.91 12.46 10.37 15.54 8.76 24.7C7.61 31.28 7.98 35.9 9.77 37.36C10.6 38.03 11.74 38.08 13.28 37.52L13.48 37.44C17.08 36.11 21.15 34.6 20.89 27.57C20.56 18.75 19.32 13.15 17.5 12.21C17.37 12.14 17.2 12.07 16.98 12.07C16.73 12.07 16.4 12.16 16 12.42L15.99 12.42Z" fill="#63C3D1" fill-opacity="1.000000" fill-rule="nonzero"/>
		<path id="Vector" d="M7.67 24.51C9.34 15.01 14.99 11.73 15.41 11.49C16.57 10.78 17.46 10.96 18 11.25C20.28 12.43 21.62 17.91 21.98 27.53C22.28 35.35 17.61 37.08 13.86 38.46L13.66 38.54C12.83 38.85 12.07 39 11.39 39C10.49 39 9.71 38.73 9.07 38.2L9.07 38.2C6.33 35.96 6.8 29.52 7.67 24.51ZM15.96 12.43C15.91 12.46 10.37 15.54 8.76 24.7C7.61 31.28 7.98 35.9 9.77 37.36C10.6 38.03 11.74 38.08 13.28 37.52L13.48 37.44C17.08 36.11 21.15 34.6 20.89 27.57C20.56 18.75 19.32 13.15 17.5 12.21C17.37 12.14 17.2 12.07 16.98 12.07C16.73 12.07 16.4 12.16 16 12.42L15.99 12.42C15.99 12.42 15.97 12.43 15.96 12.43Z" stroke="#63C3D1" stroke-opacity="1.000000" stroke-width="0.500000" stroke-linejoin="round"/>
	</g>
</svg>
