<svg width="46.000000" height="48.000000" viewBox="0 0 46 48" fill="none" xmlns="http://www.w3.org/2000/svg" xmlns:xlink="http://www.w3.org/1999/xlink">
	<desc>
			Created with Pixso.
	</desc>
	<defs>
		<clipPath id="clip6101_15375">
			<rect id="_лой_1" rx="-0.500000" width="37.000000" height="37.000000" transform="translate(4.500000 5.500000)" fill="white" fill-opacity="0"/>
		</clipPath>
	</defs>
	<g opacity="0.100000">
		<rect id="Rectangle 1878" rx="10.000000" width="46.000000" height="48.000000" fill="#95C11F" fill-opacity="1.000000"/>
	</g>
	<rect id="_лой_1" rx="-0.500000" width="37.000000" height="37.000000" transform="translate(4.500000 5.500000)" fill="#FFFFFF" fill-opacity="0"/>
	<g clip-path="url(#clip6101_15375)">
		<path id="Vector" d="M14.08 28.08C13.32 28.08 12.76 27.65 12.48 27.37C11.99 26.88 11.75 26.3 11.78 25.69C11.8 25.03 12.16 24.35 12.83 23.69C14.16 22.36 16.65 21.15 17.68 22.18C18.72 23.21 17.5 25.7 16.17 27.02C15.38 27.82 14.67 28.08 14.08 28.08L14.08 28.08ZM16.61 22.83C15.96 22.83 14.58 23.43 13.58 24.43C12.44 25.57 12.83 26.23 13.23 26.62C13.63 27.02 14.29 27.41 15.43 26.28C16.66 25.05 17.28 23.27 16.94 22.93C16.87 22.87 16.76 22.84 16.62 22.84L16.61 22.83Z" fill="#95C11F" fill-opacity="1.000000" fill-rule="nonzero"/>
		<path id="Vector" d="M12.48 27.37C11.99 26.88 11.75 26.3 11.78 25.69C11.8 25.03 12.16 24.35 12.83 23.69C14.16 22.36 16.65 21.15 17.68 22.18C18.72 23.21 17.5 25.7 16.17 27.02C15.38 27.82 14.67 28.08 14.08 28.08L14.08 28.08C13.32 28.08 12.76 27.65 12.48 27.37ZM13.58 24.43C12.44 25.57 12.83 26.23 13.23 26.62C13.63 27.02 14.29 27.41 15.43 26.28C16.66 25.05 17.28 23.27 16.94 22.93C16.87 22.87 16.76 22.84 16.62 22.84L16.61 22.83C15.96 22.83 14.58 23.43 13.58 24.43Z" stroke="#95C11F" stroke-opacity="1.000000" stroke-width="0.500000"/>
		<path id="Vector" d="M7.52 33.14C7.36 33.14 7.2 33.06 7.1 32.92C6.92 32.69 6.98 32.35 7.21 32.18C8 31.6 8.1 31.24 8.23 30.73C8.35 30.26 8.5 29.67 9.21 28.96C9.89 28.28 10.33 28.08 10.75 27.89C11.17 27.69 11.61 27.5 12.49 26.62C12.69 26.42 13.03 26.42 13.23 26.62C13.44 26.83 13.44 27.16 13.23 27.37C12.22 28.37 11.67 28.62 11.19 28.85C10.81 29.02 10.5 29.16 9.95 29.71C9.45 30.21 9.36 30.57 9.25 30.99C9.1 31.57 8.93 32.23 7.83 33.03C7.74 33.1 7.63 33.13 7.52 33.13L7.52 33.14Z" fill="#95C11F" fill-opacity="1.000000" fill-rule="nonzero"/>
		<path id="Vector" d="M7.1 32.92C6.92 32.69 6.98 32.35 7.21 32.18C8 31.6 8.1 31.24 8.23 30.73C8.35 30.26 8.5 29.67 9.21 28.96C9.89 28.28 10.33 28.08 10.75 27.89C11.17 27.69 11.61 27.5 12.49 26.62C12.69 26.42 13.03 26.42 13.23 26.62C13.44 26.83 13.44 27.16 13.23 27.37C12.22 28.37 11.67 28.62 11.19 28.85C10.81 29.02 10.5 29.16 9.95 29.71C9.45 30.21 9.36 30.57 9.25 30.99C9.1 31.57 8.93 32.23 7.83 33.03C7.74 33.1 7.63 33.13 7.52 33.13L7.52 33.14C7.36 33.14 7.2 33.06 7.1 32.92Z" stroke="#95C11F" stroke-opacity="1.000000" stroke-width="0.500000"/>
		<path id="Vector" d="M24.36 26.07C23.78 26.07 23.24 25.83 22.77 25.36C22.27 24.86 21.3 23.5 23.12 21.67C23.78 21.02 24.68 20.42 25.54 20.08C26.62 19.65 27.48 19.68 27.97 20.17C29.01 21.21 27.79 23.69 26.46 25.01C25.79 25.68 25.11 26.04 24.45 26.07C24.42 26.07 24.39 26.07 24.36 26.07L24.36 26.07ZM26.9 20.83C26.25 20.83 24.87 21.42 23.87 22.42C23.39 22.9 23.14 23.34 23.12 23.73C23.1 24.04 23.24 24.33 23.52 24.61C23.8 24.89 24.09 25.02 24.4 25.01C24.79 25 25.23 24.74 25.71 24.26C26.94 23.03 27.56 21.25 27.22 20.92C27.16 20.85 27.05 20.82 26.9 20.82L26.9 20.83Z" fill="#95C11F" fill-opacity="1.000000" fill-rule="nonzero"/>
		<path id="Vector" d="M22.77 25.36C22.27 24.86 21.3 23.5 23.12 21.67C23.78 21.02 24.68 20.42 25.54 20.08C26.62 19.65 27.48 19.68 27.97 20.17C29.01 21.21 27.79 23.69 26.46 25.01C25.79 25.68 25.11 26.04 24.45 26.07C24.42 26.07 24.39 26.07 24.36 26.07L24.36 26.07C23.78 26.07 23.24 25.83 22.77 25.36ZM23.87 22.42C23.39 22.9 23.14 23.34 23.12 23.73C23.1 24.04 23.24 24.33 23.52 24.61C23.8 24.89 24.09 25.02 24.4 25.01C24.79 25 25.23 24.74 25.71 24.26C26.94 23.03 27.56 21.25 27.22 20.92C27.16 20.85 27.05 20.82 26.9 20.82L26.9 20.83C26.25 20.83 24.87 21.42 23.87 22.42Z" stroke="#95C11F" stroke-opacity="1.000000" stroke-width="0.500000"/>
		<path id="Vector" d="M17.81 31.12C17.65 31.12 17.49 31.05 17.39 30.91C17.21 30.67 17.26 30.34 17.5 30.17C18.29 29.59 18.39 29.23 18.51 28.72C18.64 28.25 18.79 27.66 19.5 26.95C20.18 26.27 20.62 26.07 21.04 25.88C21.46 25.68 21.9 25.48 22.78 24.61C22.98 24.41 23.32 24.41 23.52 24.61C23.73 24.82 23.73 25.15 23.52 25.36C22.51 26.37 21.96 26.62 21.48 26.84C21.1 27.01 20.79 27.15 20.24 27.7C19.74 28.2 19.65 28.57 19.54 28.98C19.39 29.56 19.22 30.22 18.12 31.02C18.03 31.09 17.92 31.12 17.81 31.12L17.81 31.12Z" fill="#95C11F" fill-opacity="1.000000" fill-rule="nonzero"/>
		<path id="Vector" d="M17.39 30.91C17.21 30.67 17.26 30.34 17.5 30.17C18.29 29.59 18.39 29.23 18.51 28.72C18.64 28.25 18.79 27.66 19.5 26.95C20.18 26.27 20.62 26.07 21.04 25.88C21.46 25.68 21.9 25.48 22.78 24.61C22.98 24.41 23.32 24.41 23.52 24.61C23.73 24.82 23.73 25.15 23.52 25.36C22.51 26.37 21.96 26.62 21.48 26.84C21.1 27.01 20.79 27.15 20.24 27.7C19.74 28.2 19.65 28.57 19.54 28.98C19.39 29.56 19.22 30.22 18.12 31.02C18.03 31.09 17.92 31.12 17.81 31.12L17.81 31.12C17.65 31.12 17.49 31.05 17.39 30.91Z" stroke="#95C11F" stroke-opacity="1.000000" stroke-width="0.500000"/>
		<path id="Vector 234" d="M20.05 19.26C19.83 15.55 20.03 12.26 23.87 9.55C27.71 6.84 33.06 8.11 35.46 10.05C37.86 11.98 40.21 16.84 38.29 21.19C36.72 24.76 33.44 27 29.65 27" stroke="#95C11F" stroke-opacity="1.000000" stroke-width="1.800000" stroke-linecap="round"/>
		<path id="Vector" d="M23.82 34.95C23.07 34.95 22.51 34.51 22.23 34.23C21.73 33.73 20.76 32.37 22.58 30.55C23.91 29.23 26.39 28.01 27.43 29.05C28.47 30.08 27.25 32.57 25.92 33.89C25.12 34.68 24.41 34.95 23.82 34.95ZM26.36 29.7C25.71 29.7 24.33 30.3 23.33 31.3C22.19 32.44 22.58 33.1 22.98 33.49C23.38 33.89 24.03 34.28 25.17 33.14C26.41 31.92 27.02 30.13 26.68 29.8C26.62 29.73 26.51 29.7 26.36 29.7L26.36 29.7Z" fill="#95C11F" fill-opacity="1.000000" fill-rule="nonzero"/>
		<path id="Vector" d="M22.23 34.23C21.73 33.73 20.76 32.37 22.58 30.55C23.91 29.23 26.39 28.01 27.43 29.05C28.47 30.08 27.25 32.57 25.92 33.89C25.12 34.68 24.41 34.95 23.82 34.95C23.07 34.95 22.51 34.51 22.23 34.23ZM23.33 31.3C22.19 32.44 22.58 33.1 22.98 33.49C23.38 33.89 24.03 34.28 25.17 33.14C26.41 31.92 27.02 30.13 26.68 29.8C26.62 29.73 26.51 29.7 26.36 29.7L26.36 29.7C25.71 29.7 24.33 30.3 23.33 31.3Z" stroke="#95C11F" stroke-opacity="1.000000" stroke-width="0.500000"/>
		<path id="Vector" d="M17.27 40C17.11 40 16.95 39.93 16.85 39.79C16.67 39.55 16.73 39.22 16.96 39.05C17.75 38.47 17.85 38.11 17.98 37.6C18.1 37.13 18.25 36.54 18.96 35.83C19.64 35.15 20.08 34.95 20.5 34.76C20.92 34.57 21.36 34.37 22.24 33.49C22.44 33.29 22.78 33.29 22.98 33.49C23.19 33.7 23.19 34.03 22.98 34.24C21.97 35.25 21.42 35.5 20.94 35.72C20.56 35.89 20.25 36.03 19.7 36.58C19.2 37.08 19.11 37.44 19 37.86C18.85 38.44 18.68 39.1 17.58 39.9C17.49 39.97 17.38 40 17.27 40Z" fill="#95C11F" fill-opacity="1.000000" fill-rule="nonzero"/>
		<path id="Vector" d="M16.85 39.79C16.67 39.55 16.73 39.22 16.96 39.05C17.75 38.47 17.85 38.11 17.98 37.6C18.1 37.13 18.25 36.54 18.96 35.83C19.64 35.15 20.08 34.95 20.5 34.76C20.92 34.57 21.36 34.37 22.24 33.49C22.44 33.29 22.78 33.29 22.98 33.49C23.19 33.7 23.19 34.03 22.98 34.24C21.97 35.25 21.42 35.5 20.94 35.72C20.56 35.89 20.25 36.03 19.7 36.58C19.2 37.08 19.11 37.44 19 37.86C18.85 38.44 18.68 39.1 17.58 39.9C17.49 39.97 17.38 40 17.27 40C17.11 40 16.95 39.93 16.85 39.79Z" stroke="#95C11F" stroke-opacity="1.000000" stroke-width="0.500000"/>
	</g>
</svg>
