<svg width="48.000000" height="48.000000" viewBox="0 0 48 48" fill="none" xmlns="http://www.w3.org/2000/svg" xmlns:xlink="http://www.w3.org/1999/xlink">
	<desc>
			Created with Pixso.
	</desc>
	<defs>
		<clipPath id="clip6101_15444">
			<rect id="Layer_1" rx="-0.500000" width="37.000000" height="37.000000" transform="translate(5.500000 5.500000)" fill="white" fill-opacity="0"/>
		</clipPath>
	</defs>
	<g opacity="0.100000">
		<rect id="Rectangle 1898" rx="10.000000" width="48.000000" height="48.000000" fill="#95C11F" fill-opacity="1.000000"/>
	</g>
	<rect id="Layer_1" rx="-0.500000" width="37.000000" height="37.000000" transform="translate(5.500000 5.500000)" fill="#FFFFFF" fill-opacity="0"/>
	<g clip-path="url(#clip6101_15444)">
		<path id="Vector" d="M27.86 41.83C27.86 37 33 37.34 33 32.34C33 29.4 30.59 27.01 27.61 27.01C26.33 27.01 25.04 27.46 24.01 28.38C23.02 27.49 21.73 27 20.39 27C17.41 27 15 29.39 15 32.33C15 37.49 20 36.26 20 41.83" stroke="#95C11F" stroke-opacity="1.000000" stroke-width="1.800000" stroke-linejoin="round" stroke-linecap="round"/>
		<path id="Vector" d="M27.86 6.17C27.86 10.99 33 10.66 33 15.66C33 18.59 30.59 20.98 27.61 20.98C26.33 20.98 25.04 20.53 24.01 19.61C23.02 20.5 21.73 21 20.39 21C17.41 21 15 18.61 15 15.66C15 10.5 20 11.73 20 6.17" stroke="#95C11F" stroke-opacity="1.000000" stroke-width="1.800000" stroke-linejoin="round" stroke-linecap="round"/>
		<path id="Vector" d="M16.28 23.07C17.55 23.25 18.82 23.3 20.1 23.33C20.26 23.33 20.41 23.33 20.57 23.33C20.73 23.33 20.89 23.33 21.05 23.33C21.37 23.32 21.69 23.29 22.01 23.25C22.32 23.21 22.64 23.15 22.96 23.12C23.28 23.08 23.6 23.07 23.92 23.07C25.19 23.06 26.46 23.35 27.74 23.33C28.37 23.33 29.01 23.31 29.65 23.26C30.28 23.21 30.92 23.15 31.56 23.02C32.19 22.9 32.82 23.23 32.96 23.77C33.11 24.31 32.72 24.84 32.09 24.97C31.91 25.01 31.73 25 31.56 24.97C30.92 24.84 30.28 24.78 29.65 24.73C29.01 24.68 28.37 24.66 27.74 24.66C26.46 24.64 25.19 24.93 23.92 24.92C23.6 24.92 23.28 24.91 22.96 24.87C22.64 24.84 22.32 24.79 22.01 24.74C21.69 24.7 21.37 24.67 21.05 24.66C20.89 24.66 20.73 24.66 20.57 24.66C20.41 24.66 20.26 24.66 20.1 24.66C18.82 24.69 17.55 24.75 16.28 24.92C15.67 25.01 15.11 24.66 15.01 24.15C14.91 23.64 15.32 23.15 15.92 23.07C16.04 23.05 16.16 23.05 16.28 23.07L16.28 23.07Z" fill="#95C11F" fill-opacity="1.000000" fill-rule="nonzero"/>
	</g>
</svg>
