<svg width="48.000000" height="48.000000" viewBox="0 0 48 48" fill="none" xmlns="http://www.w3.org/2000/svg" xmlns:xlink="http://www.w3.org/1999/xlink">
	<desc>
			Created with Pixso.
	</desc>
	<defs>
		<clipPath id="clip6101_15573">
			<rect id="_лой_1" rx="-0.500000" width="37.000000" height="37.000000" transform="translate(5.500000 5.500000)" fill="white" fill-opacity="0"/>
		</clipPath>
	</defs>
	<g opacity="0.100000">
		<rect id="Rectangle 1913" rx="10.000000" width="48.000000" height="48.000000" fill="#95C11F" fill-opacity="1.000000"/>
	</g>
	<rect id="_лой_1" rx="-0.500000" width="37.000000" height="37.000000" transform="translate(5.500000 5.500000)" fill="#FFFFFF" fill-opacity="0"/>
	<g clip-path="url(#clip6101_15573)">
		<path id="Vector" d="M16.98 30.07C16.9 30.07 16.82 30.05 16.75 30.01C16.49 29.88 16.38 29.55 16.51 29.27C16.55 29.18 20.79 20.4 31.42 24.75C32.12 23.58 34.36 20.62 38.54 21.19C38.83 21.23 39.03 21.51 38.99 21.82C38.95 22.12 38.69 22.33 38.4 22.3C34 21.68 32.14 25.64 32.12 25.67C32 25.94 31.7 26.06 31.44 25.95C21.43 21.6 17.62 29.42 17.46 29.76C17.36 29.96 17.18 30.07 16.98 30.07L16.98 30.07Z" fill="#95C11F" fill-opacity="1.000000" fill-rule="nonzero"/>
		<path id="Vector" d="M16.75 30.01C16.49 29.88 16.38 29.55 16.51 29.27C16.55 29.18 20.79 20.4 31.42 24.75C32.12 23.58 34.36 20.62 38.54 21.19C38.83 21.23 39.03 21.51 38.99 21.82C38.95 22.12 38.69 22.33 38.4 22.3C34 21.68 32.14 25.64 32.12 25.67C32 25.94 31.7 26.06 31.44 25.95C21.43 21.6 17.62 29.42 17.46 29.76C17.36 29.96 17.18 30.07 16.98 30.07L16.98 30.07C16.9 30.07 16.82 30.05 16.75 30.01Z" stroke="#95C11F" stroke-opacity="1.000000" stroke-width="0.500000"/>
		<path id="Vector" d="M18.14 28.32C17.91 28.32 17.69 28.15 17.63 27.9C16.46 23.02 17.33 13.65 17.37 13.25C17.4 12.95 17.65 12.73 17.94 12.76C18.23 12.79 18.44 13.06 18.41 13.36C18.4 13.46 17.53 22.94 18.65 27.62C18.73 27.92 18.55 28.22 18.27 28.3C18.23 28.31 18.18 28.32 18.14 28.32L18.14 28.32Z" fill="#95C11F" fill-opacity="1.000000" fill-rule="nonzero"/>
		<path id="Vector" d="M17.63 27.9C16.46 23.02 17.33 13.65 17.37 13.25C17.4 12.95 17.65 12.73 17.94 12.76C18.23 12.79 18.44 13.06 18.41 13.36C18.4 13.46 17.53 22.94 18.65 27.62C18.73 27.92 18.55 28.22 18.27 28.3C18.23 28.31 18.18 28.32 18.14 28.32L18.14 28.32C17.91 28.32 17.69 28.15 17.63 27.9Z" stroke="#95C11F" stroke-opacity="1.000000" stroke-width="0.500000"/>
		<path id="Vector" d="M25.47 39C21.17 39 16.19 38.3 11.14 36.13C9.74 35.53 8.88 34.04 9.01 32.44C9.37 27.8 10.48 18.87 13.81 11.14C14.19 10.26 15 9.65 15.91 9.55L21.27 9.01C22.48 8.89 23.56 9.82 23.67 11.09L23.98 14.37C24.02 14.9 23.82 15.42 23.42 15.76C23.02 16.09 22.5 16.2 22.01 16.03L17.74 14.58C17.46 14.5 17.31 14.18 17.4 13.89C17.49 13.6 17.78 13.43 18.06 13.53L22.34 14.98C22.55 15.05 22.71 14.94 22.76 14.89C22.82 14.85 22.95 14.71 22.93 14.48L22.63 11.2C22.57 10.53 22 10.05 21.38 10.11L16.02 10.66C15.48 10.71 15 11.08 14.77 11.6C11.39 19.46 10.35 28.85 10.06 32.53C9.97 33.65 10.57 34.69 11.54 35.1C25.09 40.93 38.15 35.82 38.28 35.76C38.55 35.65 38.85 35.8 38.96 36.08C39.06 36.37 38.92 36.69 38.66 36.8C38.57 36.83 33.07 39 25.47 39Z" fill="#95C11F" fill-opacity="1.000000" fill-rule="nonzero"/>
		<path id="Vector" d="M11.14 36.13C9.74 35.53 8.88 34.04 9.01 32.44C9.37 27.8 10.48 18.87 13.81 11.14C14.19 10.26 15 9.65 15.91 9.55L21.27 9.01C22.48 8.89 23.56 9.82 23.67 11.09L23.98 14.37C24.02 14.9 23.82 15.42 23.42 15.76C23.02 16.09 22.5 16.2 22.01 16.03L17.74 14.58C17.46 14.5 17.31 14.18 17.4 13.89C17.49 13.6 17.78 13.43 18.06 13.53L22.34 14.98C22.55 15.05 22.71 14.94 22.76 14.89C22.82 14.85 22.95 14.71 22.93 14.48L22.63 11.2C22.57 10.53 22 10.05 21.38 10.11L16.02 10.66C15.48 10.71 15 11.08 14.77 11.6C11.39 19.46 10.35 28.85 10.06 32.53C9.97 33.65 10.57 34.69 11.54 35.1C25.09 40.93 38.15 35.82 38.28 35.76C38.55 35.65 38.85 35.8 38.96 36.08C39.06 36.37 38.92 36.69 38.66 36.8C38.57 36.83 33.07 39 25.47 39C21.17 39 16.19 38.3 11.14 36.13Z" stroke="#95C11F" stroke-opacity="1.000000" stroke-width="0.500000"/>
		<path id="Vector" d="M28.06 35.17C26.02 35.17 24.32 34.42 24.21 34.37C23.92 34.25 23.79 33.91 23.92 33.62C24.04 33.33 24.37 33.2 24.66 33.33C24.7 33.35 28.92 35.18 31.61 32.77C31.84 32.56 32.19 32.58 32.4 32.82C32.6 33.06 32.58 33.42 32.35 33.63C31.03 34.82 29.46 35.17 28.06 35.17L28.06 35.17Z" fill="#95C11F" fill-opacity="1.000000" fill-rule="nonzero"/>
		<path id="Vector" d="M24.21 34.37C23.92 34.25 23.79 33.91 23.92 33.62C24.04 33.33 24.37 33.2 24.66 33.33C24.7 33.35 28.92 35.18 31.61 32.77C31.84 32.56 32.19 32.58 32.4 32.82C32.6 33.06 32.58 33.42 32.35 33.63C31.03 34.82 29.46 35.17 28.06 35.17L28.06 35.17C26.02 35.17 24.32 34.42 24.21 34.37Z" stroke="#95C11F" stroke-opacity="1.000000" stroke-width="0.500000"/>
	</g>
</svg>
