<svg width="48.000000" height="48.000000" viewBox="0 0 48 48" fill="none" xmlns="http://www.w3.org/2000/svg" xmlns:xlink="http://www.w3.org/1999/xlink">
	<desc>
			Created with Pixso.
	</desc>
	<defs>
		<clipPath id="clip6101_15303">
			<rect id="Layer_1" rx="-0.500000" width="37.000000" height="37.000000" transform="translate(5.500000 5.500000)" fill="white" fill-opacity="0"/>
		</clipPath>
	</defs>
	<g opacity="0.100000">
		<rect id="Rectangle 1872" rx="10.000000" width="48.000000" height="48.000000" fill="#63C3D1" fill-opacity="1.000000"/>
	</g>
	<rect id="Layer_1" rx="-0.500000" width="37.000000" height="37.000000" transform="translate(5.500000 5.500000)" fill="#FFFFFF" fill-opacity="0"/>
	<g clip-path="url(#clip6101_15303)">
		<path id="Vector" d="M36 24C33.78 24 32 22.21 32 20C32 17.78 33.78 16 36 16C38.21 16 40 17.78 40 20C40 22.21 38.21 24 36 24Z" stroke="#00ABDF" stroke-opacity="1.000000" stroke-width="1.800000" stroke-linejoin="round"/>
		<path id="Vector" d="M36 22C36.55 22 37 21.55 37 21" stroke="#00ABDF" stroke-opacity="1.000000" stroke-width="1.800000" stroke-linejoin="round" stroke-linecap="round"/>
		<path id="Vector" d="M20 29.05L20 30C20 34.97 23.58 39 28 39C32.41 39 36 34.97 36 30L36 24" stroke="#00ABDF" stroke-opacity="1.000000" stroke-width="1.800000" stroke-linejoin="round" stroke-linecap="round"/>
		<path id="Vector" d="M14.38 11L13.25 11C12.88 11 12.55 11.29 12.45 11.71L11.31 16.47C11.2 16.95 11.12 17.43 11.06 17.91C11.06 17.91 10.82 19.53 11.28 22.12C11.94 25.9 14.64 28.94 18.1 29.77C18.71 29.92 19.34 30 19.98 30C20.62 30 21.25 29.92 21.85 29.77C26.97 28.55 30.06 22.39 28.66 16.51L27.51 11.71C27.41 11.28 27.08 11 26.71 11L25.58 11" stroke="#00ABDF" stroke-opacity="1.000000" stroke-width="1.800000" stroke-linejoin="round" stroke-linecap="round"/>
		<path id="Vector" d="M22 27C21.35 27 20.68 27 20 27C19.31 27 18.64 27 18 27" stroke="#00ABDF" stroke-opacity="1.000000" stroke-width="1.800000" stroke-linejoin="round" stroke-linecap="round"/>
	</g>
</svg>
