<svg width="46.000000" height="48.000000" viewBox="0 0 46 48" fill="none" xmlns="http://www.w3.org/2000/svg" xmlns:xlink="http://www.w3.org/1999/xlink">
	<desc>
			Created with Pixso.
	</desc>
	<defs>
		<clipPath id="clip6101_15422">
			<rect id="layer_1" rx="-0.500000" width="37.000000" height="37.000000" transform="translate(4.500000 5.500000)" fill="white" fill-opacity="0"/>
		</clipPath>
	</defs>
	<g opacity="0.100000">
		<rect id="Rectangle 1882" rx="10.000000" width="46.000000" height="48.000000" fill="#FFCC00" fill-opacity="1.000000"/>
	</g>
	<rect id="layer_1" rx="-0.500000" width="37.000000" height="37.000000" transform="translate(4.500000 5.500000)" fill="#FFFFFF" fill-opacity="0"/>
	<g clip-path="url(#clip6101_15422)">
		<path id="Vector" d="M11.52 21.47C11.52 25.36 14 27.17 16.41 28.92C19.05 30.85 21.79 32.84 21.79 37.66C21.79 37.84 21.92 38 22.1 38C22.27 38 22.41 37.84 22.41 37.66C22.41 32.48 19.4 30.3 16.75 28.36C14.38 26.63 12.14 25 12.14 21.47C12.14 21.03 12.18 20.59 12.27 20.17C12.43 19.42 12.15 18.66 11.56 18.23C10.64 17.55 9.84 16.69 9.18 15.67C8.37 14.42 7.82 12.99 7.61 11.55C7.58 11.37 7.42 11.25 7.25 11.27C7.08 11.3 6.97 11.48 7 11.66C7.23 13.2 7.81 14.72 8.68 16.06C9.38 17.15 10.24 18.07 11.21 18.78C11.59 19.06 11.77 19.55 11.67 20.02C11.57 20.49 11.52 20.98 11.52 21.47Z" fill="#FFCC00" fill-opacity="1.000000" fill-rule="nonzero"/>
		<path id="Vector" d="M16.41 28.92C19.05 30.85 21.79 32.84 21.79 37.66C21.79 37.84 21.92 38 22.1 38C22.27 38 22.41 37.84 22.41 37.66C22.41 32.48 19.4 30.3 16.75 28.36C14.38 26.63 12.14 25 12.14 21.47C12.14 21.03 12.18 20.59 12.27 20.17C12.43 19.42 12.15 18.66 11.56 18.23C10.64 17.55 9.84 16.69 9.18 15.67C8.37 14.42 7.82 12.99 7.61 11.55C7.58 11.37 7.42 11.25 7.25 11.27C7.08 11.3 6.97 11.48 7 11.66C7.23 13.2 7.81 14.72 8.68 16.06C9.38 17.15 10.24 18.07 11.21 18.78C11.59 19.06 11.77 19.55 11.67 20.02C11.57 20.49 11.52 20.98 11.52 21.47C11.52 25.36 14 27.17 16.41 28.92Z" stroke="#FFCC00" stroke-opacity="1.000000" stroke-width="1.000000"/>
		<path id="Vector" d="M38.74 11.27C38.57 11.25 38.41 11.37 38.38 11.55C38.17 12.99 37.62 14.42 36.81 15.67C36.15 16.69 35.35 17.56 34.43 18.23C33.84 18.66 33.56 19.42 33.72 20.17C33.81 20.6 33.85 21.03 33.85 21.47C33.85 25 31.61 26.63 29.24 28.36C26.59 30.3 23.58 32.48 23.58 37.66C23.58 37.84 23.72 38 23.89 38C24.06 38 24.2 37.84 24.2 37.66C24.2 32.84 26.94 30.85 29.58 28.92C31.98 27.17 34.47 25.36 34.47 21.47C34.47 20.98 34.42 20.5 34.32 20.02C34.22 19.55 34.4 19.07 34.78 18.79C35.75 18.07 36.6 17.15 37.31 16.06C38.18 14.72 38.76 13.2 38.99 11.66C39.02 11.48 38.91 11.3 38.74 11.27L38.74 11.27Z" fill="#FFCC00" fill-opacity="1.000000" fill-rule="nonzero"/>
		<path id="Vector" d="M38.38 11.55C38.17 12.99 37.62 14.42 36.81 15.67C36.15 16.69 35.35 17.56 34.43 18.23C33.84 18.66 33.56 19.42 33.72 20.17C33.81 20.6 33.85 21.03 33.85 21.47C33.85 25 31.61 26.63 29.24 28.36C26.59 30.3 23.58 32.48 23.58 37.66C23.58 37.84 23.72 38 23.89 38C24.06 38 24.2 37.84 24.2 37.66C24.2 32.84 26.94 30.85 29.58 28.92C31.98 27.17 34.47 25.36 34.47 21.47C34.47 20.98 34.42 20.5 34.32 20.02C34.22 19.55 34.4 19.07 34.78 18.79C35.75 18.07 36.6 17.15 37.31 16.06C38.18 14.72 38.76 13.2 38.99 11.66C39.02 11.48 38.91 11.3 38.74 11.27L38.74 11.27C38.57 11.25 38.41 11.37 38.38 11.55Z" stroke="#FFCC00" stroke-opacity="1.000000" stroke-width="1.000000"/>
		<path id="Vector 232" d="M15 22.91C15.85 23.73 18.5 24.88 22.22 22.91C25.94 20.93 29.62 22.63 31 23.73" stroke="#FFCC00" stroke-opacity="1.000000" stroke-width="1.800000" stroke-linecap="round"/>
		<path id="Vector 233" d="M13.5 17C14.83 15.66 18.6 13 23 13C27.39 13 31.16 15.66 32.5 17" stroke="#FFCC00" stroke-opacity="1.000000" stroke-width="1.800000" stroke-linecap="round"/>
	</g>
</svg>
