<svg viewBox="0 0 47 43" xmlns="http://www.w3.org/2000/svg" xmlns:xlink="http://www.w3.org/1999/xlink" width="47.000000" height="43.000000" fill="none">
	<rect id="иконка узи" width="47.000000" height="43.000000" x="0.000000" y="0.000000" fill="rgb(255,255,255)" fill-opacity="0" />
	<path id="Vector" d="M43.4214 25.8031L15.2796 25.8031C14.8797 25.8031 14.5546 25.5004 14.5546 25.1281C14.5546 24.7557 14.8797 24.453 15.2796 24.453L43.4214 24.453C43.9917 24.453 44.4535 24.023 44.4535 23.4921L44.4535 3.39159C44.4535 2.86067 43.9917 2.43065 43.4214 2.43065L11.2284 2.43065C10.6582 2.43065 10.1963 2.86067 10.1963 3.39159L10.1963 5.11648C10.1963 5.48884 9.87114 5.79154 9.47118 5.79154C9.07122 5.79154 8.74609 5.48884 8.74609 5.11648L8.74609 3.39159C8.74609 2.11594 9.86082 1.07812 11.231 1.07812L43.424 1.07812C44.7942 1.07812 45.9089 2.11594 45.9089 3.39159L45.9089 23.4897C45.9089 24.7653 44.7942 25.8031 43.424 25.8031L43.4214 25.8031Z" fill="rgb(0,171,223)" fill-rule="nonzero" />
	<path id="Vector" d="M15.2796 25.8031C14.8797 25.8031 14.5546 25.5004 14.5546 25.1281C14.5546 24.7557 14.8797 24.453 15.2796 24.453L43.4214 24.453C43.9917 24.453 44.4535 24.023 44.4535 23.4921L44.4535 3.39159C44.4535 2.86067 43.9917 2.43065 43.4214 2.43065L11.2284 2.43065C10.6582 2.43065 10.1963 2.86067 10.1963 3.39159L10.1963 5.11648C10.1963 5.48884 9.87114 5.79154 9.47118 5.79154C9.07122 5.79154 8.74609 5.48884 8.74609 5.11648L8.74609 3.39159C8.74609 2.11594 9.86082 1.07812 11.231 1.07812L43.424 1.07812C44.7942 1.07812 45.9089 2.11594 45.9089 3.39159L45.9089 23.4897C45.9089 24.7653 44.7942 25.8031 43.424 25.8031L43.4214 25.8031L15.2796 25.8031Z" fill-rule="nonzero" stroke="rgb(0,171,223)" stroke-linejoin="round" stroke-width="0.400000" />
	<path id="Vector" d="M35.2826 30.1016C34.8493 30.1016 34.4971 29.812 34.4971 29.4558L34.4971 29.2329C34.4971 29.1318 34.4048 29.0445 34.3489 29.0031L33.4432 28.316C33.0211 27.9943 32.7891 27.5738 32.7891 27.1326L32.7947 25.3723C32.7947 25.0161 33.1469 24.7266 33.5802 24.7266C34.0135 24.7266 34.3657 25.0184 34.3657 25.3746L34.3601 27.1372C34.3601 27.2406 34.4524 27.3256 34.5083 27.367L35.414 28.0541C35.8361 28.3735 36.0681 28.794 36.0681 29.2329L36.0681 29.4558C36.0681 29.812 35.7159 30.1016 35.2826 30.1016Z" fill="rgb(0,171,223)" fill-rule="nonzero" />
	<path id="Vector" d="M34.4971 29.4558L34.4971 29.2329C34.4971 29.1318 34.4048 29.0445 34.3489 29.0031L33.4432 28.316C33.0211 27.9943 32.7891 27.5738 32.7891 27.1326L32.7947 25.3723C32.7947 25.0161 33.1469 24.7266 33.5802 24.7266C34.0135 24.7266 34.3657 25.0184 34.3657 25.3746L34.3601 27.1372C34.3601 27.2406 34.4524 27.3256 34.5083 27.367L35.414 28.0541C35.8361 28.3735 36.0681 28.794 36.0681 29.2329L36.0681 29.4558C36.0681 29.812 35.7159 30.1016 35.2826 30.1016C34.8493 30.1016 34.4971 29.812 34.4971 29.4558Z" fill-rule="nonzero" stroke="rgb(0,171,223)" stroke-linejoin="round" stroke-width="0.400000" />
	<path id="Vector" d="M21.5557 30.1016C21.1221 30.1016 20.7695 29.8121 20.7695 29.4561L20.7695 29.2333C20.7695 28.7923 21.0018 28.3742 21.4214 28.0549L22.3279 27.3658C22.3839 27.3245 22.4762 27.2372 22.4762 27.1361L22.4706 25.3743C22.4706 25.0183 22.8204 24.7266 23.2568 24.7266C23.6905 24.7266 24.043 25.016 24.043 25.372L24.0486 27.1338C24.0486 27.5749 23.8192 27.9952 23.3939 28.3168L22.4874 29.0036C22.4314 29.0449 22.3391 29.1299 22.3391 29.2333L22.3391 29.4561C22.3391 29.8121 21.9866 30.1016 21.5529 30.1016L21.5557 30.1016Z" fill="rgb(0,171,223)" fill-rule="nonzero" />
	<path id="Vector" d="M20.7695 29.4561L20.7695 29.2333C20.7695 28.7923 21.0018 28.3742 21.4214 28.0549L22.3279 27.3658C22.3839 27.3245 22.4762 27.2372 22.4762 27.1361L22.4706 25.3743C22.4706 25.0183 22.8204 24.7266 23.2568 24.7266C23.6905 24.7266 24.043 25.016 24.043 25.372L24.0486 27.1338C24.0486 27.5749 23.8192 27.9952 23.3939 28.3168L22.4874 29.0036C22.4314 29.0449 22.3391 29.1299 22.3391 29.2333L22.3391 29.4561C22.3391 29.8121 21.9866 30.1016 21.5529 30.1016L21.5557 30.1016C21.1221 30.1016 20.7695 29.8121 20.7695 29.4561Z" fill-rule="nonzero" stroke="rgb(0,171,223)" stroke-linejoin="round" stroke-width="0.400000" />
	<path id="Vector" d="M40.8474 21.5L19.2903 21.5C18.9143 21.5 18.5948 21.7272 18.5825 22.0175C18.5678 22.323 18.8823 22.575 19.2731 22.575L40.845 22.575C41.2259 22.575 41.5355 22.3344 41.5355 22.0385C41.5355 21.7425 41.2259 21.5019 40.845 21.5019L40.8474 21.5Z" fill="rgb(0,171,223)" fill-rule="nonzero" />
	<path id="Vector" d="M19.2903 21.5C18.9143 21.5 18.5948 21.7272 18.5825 22.0175C18.5678 22.323 18.8823 22.575 19.2731 22.575L40.845 22.575C41.2259 22.575 41.5355 22.3344 41.5355 22.0385C41.5355 21.7425 41.2259 21.5019 40.845 21.5019L40.8474 21.5L19.2903 21.5Z" fill-rule="nonzero" stroke="rgb(0,171,223)" stroke-linejoin="round" stroke-width="0.400000" />
	<path id="Vector" d="M34.9751 35.4719C33.7696 35.4719 32.7891 34.5075 32.7891 33.3219C32.7891 32.1362 33.7696 31.1719 34.9751 31.1719C36.1806 31.1719 37.1612 32.1362 37.1612 33.3219C37.1612 34.5075 36.1806 35.4719 34.9751 35.4719ZM34.9751 32.7099C34.6334 32.7099 34.3529 32.9831 34.3529 33.3219C34.3529 33.6606 34.6307 33.9338 34.9751 33.9338C35.3195 33.9338 35.5973 33.6606 35.5973 33.3219C35.5973 32.9831 35.3195 32.7099 34.9751 32.7099Z" fill="rgb(0,171,223)" fill-rule="nonzero" />
	<path id="Vector" d="M32.7891 33.3219C32.7891 32.1362 33.7696 31.1719 34.9751 31.1719C36.1806 31.1719 37.1612 32.1362 37.1612 33.3219C37.1612 34.5075 36.1806 35.4719 34.9751 35.4719C33.7696 35.4719 32.7891 34.5075 32.7891 33.3219ZM34.3529 33.3219C34.3529 33.6606 34.6307 33.9338 34.9751 33.9338C35.3195 33.9338 35.5973 33.6606 35.5973 33.3219C35.5973 32.9831 35.3195 32.7099 34.9751 32.7099C34.6334 32.7099 34.3529 32.9831 34.3529 33.3219Z" fill-rule="nonzero" stroke="rgb(0,171,223)" stroke-linejoin="round" stroke-width="0.400000" />
	<path id="Vector" d="M28.4204 35.4719C27.2149 35.4719 26.2344 34.5075 26.2344 33.3219C26.2344 32.1362 27.2149 31.1719 28.4204 31.1719C29.6259 31.1719 30.6065 32.1362 30.6065 33.3219C30.6065 34.5075 29.6259 35.4719 28.4204 35.4719ZM28.4204 32.7099C28.076 32.7099 27.7982 32.9831 27.7982 33.3219C27.7982 33.6606 28.076 33.9338 28.4204 33.9338C28.7649 33.9338 29.0426 33.6606 29.0426 33.3219C29.0426 32.9831 28.7649 32.7099 28.4204 32.7099Z" fill="rgb(0,171,223)" fill-rule="nonzero" />
	<path id="Vector" d="M26.2344 33.3219C26.2344 32.1362 27.2149 31.1719 28.4204 31.1719C29.6259 31.1719 30.6065 32.1362 30.6065 33.3219C30.6065 34.5075 29.6259 35.4719 28.4204 35.4719C27.2149 35.4719 26.2344 34.5075 26.2344 33.3219ZM27.7982 33.3219C27.7982 33.6606 28.076 33.9338 28.4204 33.9338C28.7649 33.9338 29.0426 33.6606 29.0426 33.3219C29.0426 32.9831 28.7649 32.7099 28.4204 32.7099C28.076 32.7099 27.7982 32.9831 27.7982 33.3219Z" fill-rule="nonzero" stroke="rgb(0,171,223)" stroke-linejoin="round" stroke-width="0.400000" />
	<path id="Vector" d="M21.8618 35.4719C20.6563 35.4719 19.6758 34.5075 19.6758 33.3219C19.6758 32.1362 20.6563 31.1719 21.8618 31.1719C23.0673 31.1719 24.0479 32.1362 24.0479 33.3219C24.0479 34.5075 23.0673 35.4719 21.8618 35.4719ZM21.8618 32.7099C21.5202 32.7099 21.2396 32.9831 21.2396 33.3219C21.2396 33.6606 21.5174 33.9338 21.8618 33.9338C22.2063 33.9338 22.484 33.6606 22.484 33.3219C22.484 32.9831 22.2063 32.7099 21.8618 32.7099Z" fill="rgb(0,171,223)" fill-rule="nonzero" />
	<path id="Vector" d="M19.6758 33.3219C19.6758 32.1362 20.6563 31.1719 21.8618 31.1719C23.0673 31.1719 24.0479 32.1362 24.0479 33.3219C24.0479 34.5075 23.0673 35.4719 21.8618 35.4719C20.6563 35.4719 19.6758 34.5075 19.6758 33.3219ZM21.2396 33.3219C21.2396 33.6606 21.5174 33.9338 21.8618 33.9338C22.2063 33.9338 22.484 33.6606 22.484 33.3219C22.484 32.9831 22.2063 32.7099 21.8618 32.7099C21.5202 32.7099 21.2396 32.9831 21.2396 33.3219Z" fill-rule="nonzero" stroke="rgb(0,171,223)" stroke-linejoin="round" stroke-width="0.400000" />
	<path id="Vector" d="M1.80854 13.975C1.53159 13.975 1.26989 13.8189 1.15301 13.5537C0.995479 13.1993 1.16317 12.7904 1.52397 12.6367C6.37181 10.5921 11.8523 10.1931 16.9568 11.519C17.3379 11.6181 17.5666 11.9998 17.465 12.3715C17.3633 12.7433 16.972 12.9638 16.5909 12.8672C11.799 11.6231 6.64876 11.9948 2.09565 13.918C2.00164 13.9577 1.90763 13.975 1.81108 13.975L1.80854 13.975Z" fill="rgb(0,171,223)" fill-rule="nonzero" />
	<path id="Vector" d="M1.15301 13.5537C0.995479 13.1993 1.16317 12.7904 1.52397 12.6367C6.37181 10.5921 11.8523 10.1931 16.9568 11.519C17.3379 11.6181 17.5666 11.9998 17.465 12.3715C17.3633 12.7433 16.972 12.9638 16.5909 12.8672C11.799 11.6231 6.64876 11.9948 2.09565 13.918C2.00164 13.9577 1.90763 13.975 1.81108 13.975L1.80854 13.975C1.53159 13.975 1.26989 13.8189 1.15301 13.5537Z" fill-rule="nonzero" stroke="rgb(0,171,223)" stroke-linejoin="round" stroke-width="0.400000" />
	<path id="Vector" d="M10.9335 32.2484C8.27708 32.2484 6.10039 30.3592 5.9779 27.9455L5.56196 19.8387C5.53644 19.3373 5.16898 18.9126 4.64841 18.7826C4.30137 18.6945 3.95688 18.6016 3.61493 18.4995C2.10682 18.0585 1.09375 16.7751 1.09375 15.3083L1.09375 11.7759C1.09375 10.3091 2.11192 9.02563 3.62514 8.58002C8.40467 7.17124 13.4572 7.17124 18.2368 8.58002C19.75 9.02563 20.7682 10.3114 20.7682 11.7759L20.7682 15.3083C20.7682 16.7751 19.7577 18.0562 18.2572 18.4995C17.9127 18.6016 17.5657 18.6945 17.2186 18.7826C16.698 18.9126 16.328 19.3373 16.3025 19.8387L15.8866 27.9455C15.7641 30.3592 13.5848 32.2484 10.9284 32.2484L10.9335 32.2484ZM5.02863 17.5247C6.14888 17.8056 6.93994 18.7107 6.99352 19.7783L7.40947 27.8852C7.49623 29.6003 9.04517 30.9441 10.931 30.9441C12.8167 30.9441 14.3657 29.6003 14.4524 27.8852L14.8684 19.7783C14.922 18.7107 15.7156 17.8032 16.8384 17.5224C17.165 17.4412 17.4916 17.353 17.8132 17.2555C18.7063 16.9932 19.3315 16.1925 19.3315 15.3083L19.3315 11.7759C19.3315 10.8777 18.714 10.0932 17.7928 9.8217C13.3016 8.49647 8.55523 8.49647 4.0666 9.8217C3.1454 10.0932 2.52786 10.8777 2.52786 11.7759L2.52786 15.3083C2.52786 16.2065 3.1403 16.9909 4.05129 17.2578C4.37537 17.353 4.69945 17.4412 5.02608 17.5247L5.02863 17.5247Z" fill="rgb(0,171,223)" fill-rule="nonzero" />
	<path id="Vector" d="M5.9779 27.9455L5.56196 19.8387C5.53644 19.3373 5.16898 18.9126 4.64841 18.7826C4.30137 18.6945 3.95688 18.6016 3.61493 18.4995C2.10682 18.0585 1.09375 16.7751 1.09375 15.3083L1.09375 11.7759C1.09375 10.3091 2.11192 9.02563 3.62514 8.58002C8.40467 7.17124 13.4572 7.17124 18.2368 8.58002C19.75 9.02563 20.7682 10.3114 20.7682 11.7759L20.7682 15.3083C20.7682 16.7751 19.7577 18.0562 18.2572 18.4995C17.9127 18.6016 17.5657 18.6945 17.2186 18.7826C16.698 18.9126 16.328 19.3373 16.3025 19.8387L15.8866 27.9455C15.7641 30.3592 13.5848 32.2484 10.9284 32.2484L10.9335 32.2484C8.27708 32.2484 6.10039 30.3592 5.9779 27.9455ZM6.99352 19.7783L7.40947 27.8852C7.49623 29.6003 9.04517 30.9441 10.931 30.9441C12.8167 30.9441 14.3657 29.6003 14.4524 27.8852L14.8684 19.7783C14.922 18.7107 15.7156 17.8032 16.8384 17.5224C17.165 17.4412 17.4916 17.353 17.8132 17.2555C18.7063 16.9932 19.3315 16.1925 19.3315 15.3083L19.3315 11.7759C19.3315 10.8777 18.714 10.0932 17.7928 9.8217C13.3016 8.49647 8.55523 8.49647 4.0666 9.8217C3.1454 10.0932 2.52786 10.8777 2.52786 11.7759L2.52786 15.3083C2.52786 16.2065 3.1403 16.9909 4.05129 17.2578C4.37537 17.353 4.69945 17.4412 5.02608 17.5247L5.02863 17.5247C6.14888 17.8056 6.93994 18.7107 6.99352 19.7783Z" fill-rule="nonzero" stroke="rgb(0,171,223)" stroke-linejoin="round" stroke-width="0.400000" />
	<path id="Vector" d="M42.1913 38.6938L14.929 38.6938C14.5329 38.6938 14.2109 38.3992 14.2109 38.0369C14.2109 37.6746 14.5329 37.3801 14.929 37.3801L42.1888 37.3801C42.8429 37.3801 43.377 36.8915 43.377 36.2931L43.377 31.4241C43.377 30.8233 42.8429 30.3371 42.1888 30.3371L18.1435 30.3371C17.7475 30.3371 17.4255 30.0426 17.4255 29.6803C17.4255 29.318 17.7475 29.0234 18.1435 29.0234L42.1888 29.0234C43.6376 29.0234 44.8156 30.101 44.8156 31.4264L44.8156 36.2955C44.8156 37.6208 43.6376 38.6984 42.1888 38.6984L42.1913 38.6938Z" fill="rgb(0,171,223)" fill-rule="nonzero" />
	<path id="Vector" d="M14.929 38.6938C14.5329 38.6938 14.2109 38.3992 14.2109 38.0369C14.2109 37.6746 14.5329 37.3801 14.929 37.3801L42.1888 37.3801C42.8429 37.3801 43.377 36.8915 43.377 36.2931L43.377 31.4241C43.377 30.8233 42.8429 30.3371 42.1888 30.3371L18.1435 30.3371C17.7475 30.3371 17.4255 30.0426 17.4255 29.6803C17.4255 29.318 17.7475 29.0234 18.1435 29.0234L42.1888 29.0234C43.6376 29.0234 44.8156 30.101 44.8156 31.4264L44.8156 36.2955C44.8156 37.6208 43.6376 38.6984 42.1888 38.6984L42.1913 38.6938L14.929 38.6938Z" fill-rule="nonzero" stroke="rgb(0,171,223)" stroke-linejoin="round" stroke-width="0.400000" />
	<path id="Vector" d="M33.6465 41.9219L15.5422 41.9219C12.3951 41.9219 9.83594 39.4637 9.83594 36.4409L9.83594 31.8647C9.83594 31.4825 10.1594 31.1719 10.5572 31.1719C10.9551 31.1719 11.2785 31.4825 11.2785 31.8647L11.2785 36.4409C11.2785 38.6969 13.1909 40.5337 15.5396 40.5337L33.6439 40.5337C35.9926 40.5337 37.905 38.6969 37.905 36.4409L37.905 35.8319C37.905 35.4497 38.2284 35.139 38.6263 35.139C39.0241 35.139 39.3476 35.4497 39.3476 35.8319L39.3476 36.4409C39.3476 39.4637 36.7884 41.9219 33.6414 41.9219L33.6465 41.9219Z" fill="rgb(0,171,223)" fill-rule="nonzero" />
	<path id="Vector" d="M15.5422 41.9219C12.3951 41.9219 9.83594 39.4637 9.83594 36.4409L9.83594 31.8647C9.83594 31.4825 10.1594 31.1719 10.5572 31.1719C10.9551 31.1719 11.2785 31.4825 11.2785 31.8647L11.2785 36.4409C11.2785 38.6969 13.1909 40.5337 15.5396 40.5337L33.6439 40.5337C35.9926 40.5337 37.905 38.6969 37.905 36.4409L37.905 35.8319C37.905 35.4497 38.2284 35.139 38.6263 35.139C39.0241 35.139 39.3476 35.4497 39.3476 35.8319L39.3476 36.4409C39.3476 39.4637 36.7884 41.9219 33.6414 41.9219L33.6465 41.9219L15.5422 41.9219Z" fill-rule="nonzero" stroke="rgb(0,171,223)" stroke-linejoin="round" stroke-width="0.400000" />
	<path id="Vector" d="M30.6056 18.275C30.429 18.275 30.255 18.2287 30.1015 18.1361C29.559 17.8122 27.599 16.5787 25.2167 14.3339C22.4916 11.7651 22.5223 8.92558 23.7607 7.25008C24.3953 6.39151 25.7796 5.47971 27.4403 5.38251C28.2847 5.33623 29.4695 5.48434 30.603 6.37763C31.7366 5.48434 32.9187 5.33623 33.7657 5.38251C35.4264 5.47971 36.8107 6.39151 37.4478 7.25008C38.6863 8.92558 38.717 11.7651 35.9919 14.3339C33.6071 16.581 31.6496 17.8145 31.1045 18.1385C30.951 18.2287 30.777 18.275 30.603 18.275L30.6056 18.275ZM27.732 6.67847C27.668 6.67847 27.6015 6.67847 27.5375 6.6831C26.3733 6.75021 25.3856 7.40051 24.9608 7.97443C24.2751 8.90243 23.7761 11.094 26.2581 13.4337C28.2182 15.2804 29.861 16.4005 30.6081 16.8726C31.3118 16.4259 32.9929 15.2873 34.9581 13.4337C37.4376 11.094 36.9412 8.90243 36.2554 7.97443C35.8307 7.40051 34.843 6.75253 33.6787 6.6831C32.7268 6.62062 31.8824 6.97469 31.1608 7.71524C30.887 8.01146 30.3036 8.0022 30.0426 7.70136C29.3748 7.02098 28.5995 6.67616 27.7346 6.67616L27.732 6.67847Z" fill="rgb(0,171,223)" fill-rule="nonzero" />
	<path id="Vector" d="M30.1015 18.1361C29.559 17.8122 27.599 16.5787 25.2167 14.3339C22.4916 11.7651 22.5223 8.92558 23.7607 7.25008C24.3953 6.39151 25.7796 5.47971 27.4403 5.38251C28.2847 5.33623 29.4695 5.48434 30.603 6.37763C31.7366 5.48434 32.9187 5.33623 33.7657 5.38251C35.4264 5.47971 36.8107 6.39151 37.4478 7.25008C38.6863 8.92558 38.717 11.7651 35.9919 14.3339C33.6071 16.581 31.6496 17.8145 31.1045 18.1385C30.951 18.2287 30.777 18.275 30.603 18.275L30.6056 18.275C30.429 18.275 30.255 18.2287 30.1015 18.1361ZM27.5375 6.6831C26.3733 6.75021 25.3856 7.40051 24.9608 7.97443C24.2751 8.90243 23.7761 11.094 26.2581 13.4337C28.2182 15.2804 29.861 16.4005 30.6081 16.8726C31.3118 16.4259 32.9929 15.2873 34.9581 13.4337C37.4376 11.094 36.9412 8.90243 36.2554 7.97443C35.8307 7.40051 34.843 6.75253 33.6787 6.6831C32.7268 6.62062 31.8824 6.97469 31.1608 7.71524C30.887 8.01146 30.3036 8.0022 30.0426 7.70136C29.3748 7.02098 28.5995 6.67616 27.7346 6.67616L27.732 6.67847C27.668 6.67847 27.6015 6.67847 27.5375 6.6831Z" fill-rule="nonzero" stroke="rgb(0,171,223)" stroke-linejoin="round" stroke-width="0.400000" />
</svg>
