<svg width="195.000000" height="126.533203" viewBox="0 0 195 126.533" fill="none" xmlns="http://www.w3.org/2000/svg" xmlns:xlink="http://www.w3.org/1999/xlink">
	<desc>
			Created with Pixso.
	</desc>
	<defs>
		<clipPath id="clip3181_15181">
			<rect id="8 марта" width="126.533318" height="195.000000" transform="translate(0.000000 126.533203) rotate(-90.000000)" fill="white" fill-opacity="0"/>
		</clipPath>
	</defs>
	<rect id="8 марта" width="126.533318" height="195.000000" transform="translate(0.000000 126.533203) rotate(-90.000000)" fill="#FFFFFF" fill-opacity="0"/>
	<g clip-path="url(#clip3181_15181)">
		<path id="Vector" d="M195 36.4106C194.742 37.8262 194.09 39.0647 193.357 40.2642C191.359 43.4688 188.449 45.2773 184.67 45.6707C182.83 45.8672 181.088 45.4543 179.525 44.4124C177.883 43.3113 177.131 41.7385 177.012 39.8315C176.934 38.5339 177.289 37.3149 177.783 36.1355C177.902 35.8601 178.002 35.585 178.041 35.2703C177.764 35.585 177.506 35.9192 177.209 36.1943C176.754 36.627 176.299 37.0593 175.785 37.3936C174.994 37.9246 174.104 37.9441 173.213 37.6296C172.125 37.2363 171.729 36.332 171.551 35.29C171.393 34.3071 171.471 33.324 171.729 32.3606C171.887 31.7512 172.064 31.1221 172.184 30.4731C172.064 30.6501 171.965 30.8271 171.848 31.0042C170.422 33.3831 169.018 35.7815 167.553 38.1604C165.197 41.9548 162.309 45.3757 159.4 48.7375C158.43 49.8582 157.461 50.9592 156.471 52.0405C156.234 52.2961 156.154 52.5518 156.213 52.9055C156.648 55.6777 156.926 58.4497 157.58 61.1826C158.232 63.8171 159.004 66.3926 160.389 68.7322C161.299 70.2852 162.309 71.7598 163.535 73.0967C164.881 74.5515 166.484 75.5542 168.502 75.7312C169.828 75.8491 171.135 75.7705 172.42 75.4756C177.744 74.2371 181.92 71.3665 184.828 66.7661C186.828 63.6204 187.559 60.1799 187.104 56.4836C186.807 54.1443 185.838 52.0798 184.314 50.2908C182.75 48.4624 180.732 47.6367 178.318 47.8923C177.486 47.9709 176.734 48.2854 176.082 48.7769C175.072 49.5239 174.062 50.2515 173.152 51.1165C171.193 53.0039 170.186 55.363 170.027 58.0566C169.908 60.0422 170.521 61.792 171.965 63.2075C172.6 63.8171 173.193 64.4856 173.984 64.918C174.498 65.1934 174.479 65.6455 173.984 65.96C173.529 66.2747 172.975 66.3926 172.441 66.4514C171.154 66.5498 169.908 66.3533 168.818 65.665C166.721 64.3479 165.197 62.5784 164.684 60.1013C164.426 58.9216 164.445 57.7419 164.684 56.5625C165.396 53.0039 167.375 50.2712 170.383 48.2659C171.531 47.499 172.855 47.1057 174.201 46.7322C176.873 45.9851 179.525 46.0637 182.178 46.752C184.412 47.322 186.115 48.6787 187.381 50.5659C189.084 53.0825 189.598 55.8743 189.359 58.8625C189.242 60.3962 188.984 61.8904 188.49 63.3647C187.619 66.0386 186.174 68.3782 184.215 70.3835C180.891 73.8044 176.873 75.967 172.145 76.7732C168.582 77.3826 165.119 77.009 161.854 75.3772C161.299 75.1021 160.746 74.7874 160.23 74.4336C159.223 73.7061 158.232 72.9395 157.223 72.1726C156.609 71.7007 156.135 71.1111 155.699 70.4622C154.057 67.9851 153.047 65.272 152.314 62.4211C151.959 61.0449 151.721 59.6294 151.426 58.2334C151.385 58.0566 151.346 57.8796 151.287 57.624C151.088 57.801 150.93 57.9583 150.771 58.0959C147.447 61.3005 143.965 64.3086 140.086 66.8054C137.988 68.1619 135.832 69.4006 133.496 70.2656C131.854 70.875 130.191 71.3271 128.43 71.4453C124.75 71.7007 121.404 70.7178 118.396 68.6536C116.656 67.4739 115.746 65.7043 115.133 63.7778C114.062 60.3962 114.697 57.3291 116.992 54.6357C118.693 52.6499 120.811 51.2935 123.385 50.7036C124.512 50.448 125.641 50.4285 126.748 50.7429C128.885 51.3132 130.23 52.9841 130.311 55.1665C130.35 56.2478 130.23 57.3096 129.775 58.2925C129.479 58.9414 129.062 59.0396 128.371 58.7053C128.51 58.0959 128.668 57.4668 128.766 56.8574C128.926 55.894 128.904 54.9307 128.588 53.9868C128.174 52.709 127.262 51.9619 125.996 51.5686C125.541 51.4312 125.105 51.49 124.689 51.667C123.779 52.0603 122.988 52.6106 122.336 53.3381C120.059 55.894 119.07 58.9019 119.229 62.2834C119.287 63.6204 119.625 64.8984 120.217 66.1172C120.613 66.9233 121.148 67.6311 121.881 68.1619C123.543 69.3613 125.344 70.1477 127.42 70.2458C128.588 70.3049 129.717 70.0691 130.844 69.7742C133.377 69.1252 135.674 67.926 137.889 66.5696C141.986 64.0725 145.646 61.0449 149.07 57.7026C149.645 57.1326 150.197 56.5427 150.771 55.9727C150.93 55.7957 151.029 55.6384 150.99 55.3828C150.455 51.9421 150.158 48.4624 149.348 45.0808C148.654 42.2104 147.348 39.6152 145.686 37.1775C145.291 36.5876 144.934 35.9978 144.559 35.3884C144.498 35.29 144.42 35.1917 144.32 35.0542C144.223 35.3096 144.143 35.5259 144.084 35.7227C143.826 36.627 143.529 37.5312 143.311 38.4553C143.035 39.5171 142.342 40.1265 141.293 40.2837C140.799 40.3623 140.521 40.5591 140.303 41.0112C139.215 43.1541 138.027 45.238 136.604 47.1846C136.168 47.7742 135.674 48.3052 135.08 48.7375C134.189 49.3865 133.219 49.583 132.15 49.3865C131.34 49.2488 130.746 48.8162 130.33 48.1084C129.518 46.6929 129.281 45.1594 129.4 43.5669C129.479 42.5054 129.678 41.4436 129.895 40.4016C130.508 37.5117 131.734 34.8772 133.119 32.3018C133.238 32.0854 133.338 31.8889 133.396 31.6135C133.318 31.6921 133.219 31.7708 133.141 31.8494C132.527 32.5769 131.912 33.2847 131.34 34.0515C130.43 35.2703 129.381 36.3516 128.291 37.4133C127.5 38.1802 126.59 38.7896 125.561 39.1829C124.254 39.6938 122.969 39.6152 121.781 38.8289C121.465 38.6125 121.207 38.3374 120.871 38.0425C120.652 38.4355 120.436 38.8091 120.217 39.1829C119.723 40.0479 119.189 40.8735 118.496 41.5813C117.605 42.4856 116.518 42.8591 115.25 42.761C114.162 42.6626 113.41 42.1121 112.855 41.2078C112.184 40.1067 112.006 38.9075 112.145 37.6492C112.262 36.5679 112.5 35.5063 112.738 34.4446C112.994 33.2847 113.311 32.1443 113.607 31.0042C113.607 30.9255 113.629 30.8665 113.648 30.7288C113.469 30.7878 113.332 30.8271 113.213 30.8665C112.559 31.1023 111.926 31.3579 111.273 31.594C110.977 31.6921 110.818 31.8494 110.699 32.1443C110.344 32.9111 109.947 33.6582 109.492 34.366C109.115 34.9753 108.543 35.408 107.908 35.7422C107.475 35.9585 107.018 36.0371 106.562 35.9978C105.674 35.9387 105.316 35.6045 105.297 34.72C105.297 34.189 105.297 33.6189 105.416 33.1077C105.93 30.6895 106.604 28.3105 107.494 25.9907L107.494 25.9316C108.107 24.3787 109.234 23.769 111.273 24.241C112.084 24.4375 112.342 24.8896 112.283 25.7156C112.164 27.2097 111.768 28.6448 111.393 30.0801C111.332 30.2964 111.293 30.4929 111.213 30.7681C111.373 30.7288 111.471 30.7092 111.551 30.6699C111.906 30.5322 112.242 30.3552 112.619 30.2178C113.668 29.8638 114.381 29.2346 114.795 28.1533C115.152 27.2292 115.785 26.4036 116.318 25.5386C116.695 24.9292 117.189 24.4375 117.803 24.0444C118.596 23.5332 119.445 23.376 120.355 23.6118C120.949 23.769 121.188 24.0247 121.068 24.6145C120.91 25.4402 120.713 26.2659 120.416 27.0525C119.465 29.6279 118.396 32.1836 117.467 34.7788C116.814 36.627 116.318 38.5144 116.299 40.5C116.299 40.7949 116.34 41.0898 116.359 41.4634C116.814 41.2668 117.111 41.0112 117.348 40.6965C117.824 40.0872 118.258 39.458 118.693 38.8289C119.129 38.1997 119.506 37.5312 119.941 36.9021C120.1 36.6663 120.158 36.45 120.1 36.1748C119.783 34.6411 120.02 33.1667 120.535 31.7314C120.91 30.6699 121.346 29.6279 121.82 28.6055C122.314 27.5635 123.047 26.6787 123.898 25.8728C124.889 24.929 126.076 24.6931 127.381 24.8503C127.539 24.8701 127.697 24.929 127.855 24.988C128.51 25.2437 128.707 25.6565 128.371 26.2659C126.926 28.7825 126.096 31.5349 125.225 34.2874C124.908 35.29 124.592 36.2729 124.314 37.2954C124.156 37.8459 124.215 38.0032 124.434 38.4946C124.57 38.4553 124.75 38.416 124.867 38.3374C125.422 37.9834 126.035 37.6689 126.51 37.2168C127.461 36.332 128.332 35.3884 129.223 34.4446C130.072 33.501 130.924 32.5376 131.734 31.5742C133.1 29.9622 134.645 28.5466 136.246 27.1899C136.484 26.9736 136.762 26.7969 136.959 26.5413C137.395 25.9907 138.582 25.9121 139.275 26.3052C139.67 26.5413 139.809 26.9148 139.77 27.3276C139.709 27.937 139.65 28.5859 139.473 29.1758C139.215 30.0801 138.898 30.9844 138.502 31.8298C137.117 34.8574 135.949 37.9639 134.861 41.1094C134.268 42.8003 133.773 44.5303 133.516 46.2998C133.438 46.8306 133.438 47.3811 133.396 48.0103C133.615 47.9119 133.754 47.8726 133.852 47.7939C134.168 47.5188 134.506 47.2434 134.762 46.9092C135.475 46.0049 136.168 45.1006 136.801 44.1372C137.553 42.9968 138.246 41.7976 138.957 40.6377C139.057 40.4607 139.156 40.2837 139.254 40.1067C139.156 39.9888 139.076 39.8708 138.998 39.7725C138.701 39.3596 138.602 38.9075 138.74 38.3962C139.076 37.2561 139.373 36.0962 139.77 34.9951C140.541 32.8718 141.393 30.7878 142.48 28.8022C142.896 28.0552 143.391 27.3276 143.945 26.6592C144.855 25.5581 146.082 25.3813 147.428 25.5779C147.527 25.5779 147.625 25.6367 147.725 25.6763C148.279 25.8923 148.416 26.2463 148.16 26.7771C147.547 28.0747 146.912 29.3525 146.299 30.6306C146.221 30.8074 146.141 30.9844 146.002 31.2991C146.715 30.9058 147.309 30.552 147.922 30.2571C148.555 29.9424 149.209 29.6868 149.861 29.3918C149.861 29.333 149.861 29.2739 149.861 29.2151C148.971 27.5635 148.693 25.8335 149.031 23.9658C149.348 22.1963 149.861 20.5251 150.871 19.031C152.178 17.1042 154.057 15.9443 156.254 15.3545C159.459 14.4697 162.467 14.9023 165.217 16.8291C166.562 17.7727 167.75 18.8345 168.562 20.2695C168.602 20.3481 168.682 20.4268 168.74 20.5056C168.818 20.4465 168.859 20.4072 168.898 20.3679C169.828 19.0112 170.383 17.5171 170.461 15.8657C170.58 13.3884 168.957 10.0068 165.436 9.12231C163.773 8.70947 162.092 8.65039 160.43 8.96484C159.023 9.22046 157.639 9.67261 156.273 10.0659C153.363 10.9309 150.555 12.0908 147.725 13.1919C143.787 14.7253 139.867 16.2983 135.811 17.5171C132.25 18.5984 128.629 19.4636 124.928 19.9746C121.326 20.4663 117.744 20.4465 114.182 19.6602C112.539 19.2866 110.957 18.7166 109.512 17.8513C108.246 17.1042 107.275 16.0623 106.584 14.7646C105.99 13.6638 105.871 12.5234 106.207 11.3242C106.523 10.1838 107.078 9.16162 107.77 8.21777C109.828 5.38672 112.6 3.49951 115.863 2.30005C118.576 1.29736 121.385 0.845215 124.275 1.0813C127.42 1.33667 130.033 2.63428 132.012 5.11157C133.061 6.42871 133.377 7.92285 133.002 9.53516C132.922 9.84961 132.764 10.2036 132.547 10.4199C131.973 10.99 131.359 11.5012 130.766 12.0515C130.727 12.0908 130.666 12.1304 130.607 12.1499C129.143 12.7397 127.658 13.2705 126.016 12.897C125.699 12.8184 125.363 12.6611 125.086 12.4841C124.77 12.2678 124.73 11.9534 124.947 11.6387C125.225 11.2258 125.541 10.8523 125.938 10.5181C126.986 9.65308 127.955 8.70947 128.529 7.45117C129.242 5.91772 129.062 4.83618 127.797 3.57812C126.629 2.41797 125.164 1.88721 123.523 1.80859C119.98 1.63159 116.775 2.69336 113.826 4.58081C112.064 5.70142 110.68 7.17578 109.809 9.08301C109.551 9.6333 109.334 10.2036 109.195 10.7737C108.76 12.7593 109.512 14.3323 111.055 15.551C112.164 16.4358 113.49 16.9077 114.836 17.2615C116.814 17.7925 118.832 17.9104 120.852 17.7925C125.027 17.5369 129.023 16.4751 133.002 15.2563C137.336 13.9194 141.531 12.209 145.746 10.5574C148.951 9.29907 152.217 8.25708 155.619 7.64771C158.094 7.19556 160.588 6.92041 163.119 7.11694C164.584 7.23486 166.01 7.45117 167.395 7.9624C171.551 9.49585 173.41 14.2732 172.084 17.9692C171.609 19.3259 170.877 20.5056 169.928 21.5671C169.789 21.7244 169.631 21.9014 169.473 22.0784C170.066 23.5725 169.986 25.106 169.73 26.6592C169.67 27.0327 169.57 27.4062 169.453 27.7603C169.137 28.7234 168.818 29.6672 168.463 30.6108C168.246 31.1614 167.949 31.6921 167.672 32.2229C166.543 34.425 165.08 36.3516 163.258 38.0032C162.092 39.0452 160.805 39.9102 159.201 40.2051C157.303 40.5591 155.561 40.2051 154.057 39.0059C152.93 38.0818 152.355 36.8433 152.553 35.3687C152.672 34.5823 152.969 33.8154 153.186 33.0488C153.246 32.8521 153.324 32.6753 153.404 32.4785C152.355 31.8494 151.246 31.2991 150.514 30.2571C148.951 30.9451 147.506 31.7905 146.221 32.9702C146.359 33.0488 146.438 33.1077 146.518 33.1274C148.279 33.5598 149.604 34.6216 150.633 36.0371C152.969 39.2222 154.57 42.7412 155.244 46.634C155.422 47.6956 155.58 48.7769 155.758 49.8582C155.779 50.0352 155.818 50.2122 155.877 50.448C156.016 50.3301 156.135 50.2515 156.213 50.1531C158.469 47.676 160.686 45.1594 162.725 42.5054C164.961 39.5759 166.939 36.45 168.859 33.2847C170.699 30.2373 172.5 27.1506 174.32 24.0837C174.559 23.6709 174.814 23.3169 175.35 23.2188C176.596 23.0024 177.408 23.5134 177.486 24.7915C177.547 25.6763 177.486 26.5806 177.328 27.426C176.973 29.2739 176.518 31.1221 176.062 32.9504C175.824 33.8352 175.469 34.7002 175.172 35.585C175.092 35.8208 175.033 36.0569 175.014 36.332C175.805 35.7227 176.498 35.0149 177.131 34.248C178.021 33.1667 178.873 32.0657 179.822 31.0435C181.623 29.0774 183.562 27.249 185.641 25.5779C186.551 24.8503 187.658 24.6931 188.807 24.9487C189.498 25.106 189.637 25.46 189.262 26.0498C188.984 26.502 188.668 26.9148 188.352 27.3276C188.094 27.6619 187.797 27.9763 187.559 28.3303C185.363 31.5742 183.324 34.9165 181.82 38.5339C181.445 39.4187 181.168 40.3623 180.99 41.3062C180.652 43.2327 181.723 44.5894 183.66 44.9038C184.234 45.0022 184.789 44.9431 185.344 44.845C187.738 44.3533 189.656 43.1738 191.062 41.1685C191.834 40.0674 192.506 38.9075 192.725 37.5903C192.844 36.9219 192.824 36.2336 192.783 35.5457C192.764 35.0935 192.566 34.7002 192.07 34.3857C191.676 34.8379 191.24 35.2703 190.924 35.7815C190.389 36.627 189.598 37.1184 188.746 37.551C188.133 37.8655 187.461 37.8655 186.787 37.7671C185.758 37.6099 185.6 36.9612 185.857 35.9585C185.877 35.8406 185.957 35.7422 186.035 35.6438C187.717 33.4812 190.23 32.4983 192.844 33.0684C193.852 33.3044 194.684 33.7959 195 34.8574L195 36.4304L195 36.4106ZM167.75 21.8228C166.543 18.9524 164.148 17.2222 161.359 16.2983C160.646 16.0623 159.895 16.0427 159.143 16.2195C158.174 16.4358 157.461 17.0061 156.828 17.7727C154.57 20.4858 153.898 23.5332 154.67 26.9343C154.73 27.2097 154.848 27.4849 154.947 27.8191C156.016 27.5046 157.006 27.1899 157.975 26.895C160.311 26.1677 162.605 25.342 164.762 24.1426C165.871 23.5332 166.859 22.7664 167.75 21.8425L167.75 21.8228ZM168.246 23.199C168.246 23.199 168.127 23.199 168.107 23.2383C166.068 24.7915 163.754 25.7942 161.359 26.6394C159.539 27.2686 157.697 27.8191 155.877 28.4089C155.699 28.468 155.521 28.5466 155.283 28.6252L155.857 29.5493C156.055 29.4116 156.213 29.3132 156.352 29.2151C157.006 28.7825 157.717 28.5269 158.51 28.468C159.084 28.4287 159.637 28.468 160.172 28.7234C160.666 28.9595 160.785 29.2544 160.527 29.7458C160.35 30.0996 160.111 30.4338 159.914 30.7878C159.598 31.3384 159.301 31.9084 159.004 32.4392C159.084 32.5178 159.104 32.5571 159.123 32.5769C159.182 32.6162 159.221 32.636 159.281 32.6555C160.23 33.147 161.24 33.0881 162.25 32.9702C163.852 32.7539 165.238 32.0264 166.562 31.1221C166.682 31.0435 166.781 30.8862 166.859 30.7485C167.197 30.0015 167.553 29.2544 167.85 28.4875C168.363 27.1704 168.543 25.7942 168.443 24.3982C168.424 23.9854 168.404 23.5527 168.205 23.1792L168.246 23.199ZM165.555 33.0881C163.16 33.9333 160.824 34.2676 158.352 33.9924C158.174 34.8772 157.955 35.7029 157.816 36.5483C157.717 37.1382 157.639 37.7671 157.738 38.3374C157.877 39.3401 158.332 39.3989 159.023 39.1631C159.934 38.8486 160.766 38.3767 161.479 37.7476C162.863 36.509 164.148 35.1721 165.197 33.6387C165.297 33.501 165.377 33.3438 165.555 33.0684L165.555 33.0881Z" fill="#00AADF" fill-opacity="1.000000" fill-rule="nonzero"/>
		<path id="Vector" d="M0 32.7932C0.0585938 32.5178 0.177734 32.2622 0.197266 31.9871C0.535156 28.3303 1.42383 24.811 2.57227 21.3508C3.83984 17.5171 5.52148 13.8997 7.87695 10.6165C10.7051 6.66455 14.1484 3.42065 18.6406 1.35645C21.3926 0.0981445 24.2617 -0.236084 27.25 0.216064C28.5547 0.412598 29.7422 0.923828 30.7129 1.82812C31.9395 2.96851 32.3555 4.42334 32.4336 6.01587C32.4941 6.93994 32.2949 7.86401 32.0391 8.74854C31.1484 11.8745 29.4453 14.5288 27.0312 16.6716C25.0918 18.3821 22.8164 18.9131 20.3027 17.9497C19.9473 17.812 19.5918 17.635 19.2734 17.4187C17.75 16.3965 17.0781 15.04 17.4531 13.1721C17.8301 11.2849 18.7988 9.86938 20.5801 9.06323C21.4707 8.65039 22.4004 8.53247 23.3711 8.74854C23.5098 8.78809 23.6484 8.82739 23.7656 8.8667C24.3398 9.12207 24.498 9.41699 24.3203 10.0068C24.0625 10.8325 23.8262 11.6584 23.5293 12.4841C23.1328 13.6047 23.1328 14.7451 23.2324 15.8853C23.252 16.2195 23.3906 16.5342 23.4902 16.9077C23.6875 16.8684 23.8652 16.8486 23.9844 16.7898C24.498 16.5144 25.0723 16.2981 25.5078 15.9443C28.1406 13.8013 29.9199 11.0881 30.6719 7.76562C30.9102 6.66455 30.8906 5.56372 30.5938 4.48242C30 2.26074 28.4961 0.98291 26.1816 0.805908C24.123 0.628906 22.2031 1.04175 20.4609 2.18213C18.6602 3.36182 17.1172 4.79688 15.832 6.50732C14.9414 7.68701 14.1094 8.90601 13.3379 10.1445C12.8828 10.8916 12.5859 11.7371 12.209 12.543C11.6758 13.7031 11.082 14.863 10.5879 16.0425C9.12305 19.5618 7.77734 23.1204 6.94531 26.8362C6.35156 29.5491 5.87695 32.282 6.03516 35.0933C6.11523 36.7644 6.41211 38.416 6.82812 40.0281C7.04492 40.8931 7.26172 41.7385 7.5 42.6035C7.75781 43.5276 8.19336 44.373 8.74609 45.1396C9.51758 46.2209 10.1719 46.3586 11.3398 45.71C12.6641 44.9824 13.7129 43.9602 14.5059 42.6821C15.4746 41.0898 16.4043 39.4382 17.0977 37.7083C17.2168 37.3936 17.3945 37.1379 17.7109 37.0005C17.9492 36.8823 18.1855 36.843 18.4043 37.0005C18.6211 37.1577 18.7012 37.3936 18.6406 37.6492C18.543 38.0425 18.4434 38.4355 18.2852 38.8091C17.8887 39.6938 17.4941 40.5588 17.0586 41.4436C16.7422 42.1121 16.3652 42.7607 16.0293 43.4292C15.416 44.6482 14.4863 45.592 13.416 46.4177C12.5859 47.0469 11.6152 47.4204 10.5664 47.5186C7.3418 47.8135 4.68945 46.8306 2.71094 44.1765C1.64258 42.7412 1.04883 41.1487 0.732422 39.4187C0.513672 38.2981 0.376953 37.1577 0.197266 36.0173C0.138672 35.7029 0.0585938 35.3882 0 35.0933L0 32.7932Z" fill="#00AADF" fill-opacity="1.000000" fill-rule="nonzero"/>
		<path id="Vector" d="M77.2363 102.626C77.75 102.312 78.0664 101.997 78.3242 101.643C78.8789 100.896 79.4121 100.13 79.9277 99.3628C80.6797 98.2617 81.4121 97.1411 82.1641 96.0205C82.1035 95.9026 82.0449 95.7649 81.9648 95.647C81.0547 94.0742 80.877 92.4424 81.5898 90.7319C82.8164 87.8025 84.6777 85.3647 87.3281 83.5559C88.5957 82.6909 89.9805 82.1995 91.5234 82.1011C91.623 82.1011 91.7207 82.1011 91.8203 82.1011C93.6016 82.1011 94.4336 82.7302 94.8477 84.4407C94.9668 84.9714 95.0469 85.5024 95.1445 86.1118C95.3438 85.9546 95.5215 85.8169 95.6992 85.699C96.5703 85.05 97.5 85.05 98.4688 85.4434C99.0039 85.6597 99.2012 86.0332 99.1035 86.6033C99.0234 87.0554 98.9043 87.5076 98.707 87.9207C98.252 88.9036 97.7773 89.8865 97.2617 90.8303C96.1738 92.8159 94.9863 94.7229 93.9785 96.748C92.9688 98.7336 92.0977 100.798 91.207 102.843C90.9492 103.452 90.8516 104.121 90.7129 104.769C90.6719 104.907 90.7129 105.064 90.6719 105.32C90.8516 105.182 90.9688 105.123 91.0684 105.025C91.4258 104.651 91.8203 104.278 92.1367 103.885C94.6113 100.857 96.9062 97.6917 99.2012 94.5068C99.3809 94.2708 99.498 93.9758 99.6172 93.7007C101.318 90.0242 103.08 86.387 105.258 82.9465C105.672 82.2976 106.168 81.708 106.701 81.1575C107.691 80.1548 108.898 79.7615 110.303 79.9583C110.422 79.9583 110.541 79.9976 110.66 80.0171C111.689 80.2925 111.986 80.7642 111.609 81.7473C111.352 82.4353 110.996 83.1038 110.66 83.7527C110.461 84.1458 110.186 84.5193 110.047 84.9714C110.344 84.7356 110.619 84.48 110.916 84.2441C112.064 83.3201 113.271 82.5532 114.717 82.1797C115.705 81.9241 116.734 81.8848 117.725 82.0225C119.861 82.3174 121.088 83.7131 121.246 85.9153C121.346 87.1538 121.088 88.353 120.832 89.5522C120.732 90.0046 120.633 90.4568 120.514 90.9089C121.188 90.9482 121.168 90.9482 121.365 90.3584C121.721 89.2966 122.117 88.2351 122.514 87.1733C122.611 86.8982 122.791 86.6426 122.93 86.3674C123.818 84.7551 125.441 84.5979 126.689 84.9321C127.461 85.1484 127.738 85.5811 127.639 86.3674C127.639 86.5049 127.6 86.6426 127.639 86.8196C127.738 86.7017 127.855 86.5837 127.955 86.446C129.043 85.0698 130.23 83.7722 131.518 82.573C132.051 82.0618 132.664 81.6685 133.416 81.5505C134.01 81.4524 134.584 81.4719 135.158 81.6685C136.148 81.9832 136.701 82.6711 136.801 83.6936C136.84 84.2048 136.801 84.7158 136.801 85.3647C137.039 85.1484 137.178 85.0305 137.314 84.8928C138.521 83.6738 139.828 82.5532 141.213 81.531C142.125 80.8625 143.094 80.3513 144.242 80.2136C144.875 80.135 145.488 80.1743 146.102 80.3906C147.408 80.8232 148.16 81.9832 148.002 83.3396C147.941 83.7524 147.863 84.1851 147.705 84.5586C147.289 85.522 146.873 86.4854 146.359 87.3896C144.617 90.4175 142.717 93.3271 141.096 96.4138C139.809 98.8516 138.562 101.309 137.514 103.865C137.018 105.084 136.484 106.263 136.01 107.482C135.791 108.072 135.652 108.721 135.535 109.35C135.475 109.684 135.535 110.058 135.535 110.49C135.752 110.412 135.891 110.373 135.99 110.313C136.385 109.999 136.801 109.704 137.156 109.35C138.166 108.347 139.018 107.227 139.809 106.067C141.49 103.59 143.252 101.152 144.994 98.6943C145.191 98.4192 145.389 98.1438 145.607 97.8489C144.559 96.8069 144.637 95.5684 145.033 94.3298C146.24 90.5942 148.516 87.6846 152.018 85.7971C153.324 85.0894 154.709 84.6765 156.193 84.7158C158.094 84.7749 159.143 85.699 159.42 87.5667C159.42 87.665 159.459 87.7437 159.498 87.9204C159.717 87.7437 159.895 87.606 160.053 87.4683C161.102 86.564 162.15 85.6792 163.18 84.7749C163.754 84.2637 164.406 84.2048 165.119 84.3621C165.752 84.5193 165.99 84.8733 165.771 85.4827C165.494 86.2297 165.217 86.9966 164.803 87.6846C163.654 89.6113 162.467 91.4988 161.26 93.386C159.914 95.47 158.707 97.6328 157.678 99.8936C157.145 101.053 156.709 102.272 156.451 103.59C156.59 103.452 156.729 103.314 156.867 103.157C158.766 101.093 160.824 99.2449 163.119 97.6328C164.98 96.3352 166.979 95.3521 169.195 94.8213C170.461 94.5264 171.729 94.5461 172.994 94.8606C174.895 95.3521 176.043 96.8069 176.082 98.7729C176.102 100.326 175.727 101.761 175.053 103.137C174.598 104.042 174.104 104.927 173.51 105.733C171.432 108.642 169.018 111.238 166.068 113.302C164.545 114.364 162.941 115.248 161.121 115.661C159.043 116.133 157.006 115.956 155.066 115.091C153.582 114.442 152.494 113.381 151.682 111.985C151.584 111.808 151.484 111.631 151.365 111.415C151.188 111.592 151.01 111.729 150.871 111.867C148.141 114.501 145.311 117.057 142.322 119.377C140.047 121.146 137.611 122.66 134.881 123.624C131.754 124.725 128.568 125 125.324 124.174C124.57 123.977 123.799 123.663 123.166 123.25C121.426 122.09 120.574 120.419 120.713 118.315C120.752 117.784 120.811 117.234 120.949 116.703C121.701 113.833 123.701 112.221 126.49 111.552C127.994 111.179 129.518 111.277 130.982 111.768C131.973 112.103 132.783 112.673 133.396 113.518C133.793 114.049 134.01 114.658 134.01 115.307C134.01 116.074 133.971 116.841 133.654 117.549C133.535 117.824 133.377 118.138 133.141 118.276C132.189 118.885 131.201 119.475 129.994 119.396C129.578 119.377 129.143 119.298 128.746 119.141C128.271 118.984 128.271 118.787 128.311 118.296C128.371 117.391 128.846 116.625 128.965 115.74C129.062 115.012 129.023 114.344 128.607 113.715C128.232 113.125 128.014 113.066 127.342 113.322C126.234 113.754 125.283 114.442 124.434 115.248C124.096 115.583 123.859 116.035 123.66 116.467C123.266 117.312 123.066 118.217 123.027 119.161C122.949 120.891 123.84 122.306 125.422 123.014C126.887 123.663 128.43 123.781 129.994 123.663C132.209 123.506 134.209 122.739 136.148 121.717C138.404 120.517 140.461 119.023 142.42 117.372C145.191 115.032 147.844 112.574 150.377 109.999C150.652 109.724 150.752 109.468 150.672 109.055C150.197 106.421 150.555 103.845 151.445 101.329C152.336 98.832 153.641 96.5317 154.947 94.2512C155.047 94.0742 155.145 93.8777 155.164 93.6416C155.027 93.7793 154.889 93.8972 154.75 94.0349C154.096 94.7229 153.443 95.4111 152.77 96.0796C152.355 96.4924 151.92 96.8855 151.445 97.2395C149.861 98.4585 148.871 98.7141 146.834 98.4192C146.754 98.5371 146.637 98.655 146.557 98.7729C144.756 101.427 142.975 104.081 141.154 106.735C140.125 108.249 138.998 109.704 137.514 110.844C136.562 111.572 135.514 111.886 134.328 111.65C133.555 111.493 132.941 111.1 132.527 110.431C131.576 108.878 131.318 107.207 131.576 105.438C131.734 104.376 132.012 103.354 132.447 102.371C134.248 98.3208 136.266 94.3691 138.562 90.5747C139.848 88.4316 141.213 86.3281 142.5 84.2048C142.816 83.6738 143.074 83.1038 143.352 82.5337C143.449 82.3174 143.469 82.0815 143.568 81.7473C143.271 81.9045 143.094 81.9832 142.916 82.0815C141.668 82.8088 140.521 83.6738 139.492 84.6765C139.176 84.9912 138.859 85.3057 138.543 85.6204C136.207 88.0779 135.871 88.5496 134.287 91.8723C133.674 93.1699 133.08 94.4673 132.506 95.7649C132.092 96.689 131.418 97.436 130.588 97.9668C129.559 98.6157 128.41 98.6353 127.262 98.1831C126.828 98.0063 126.609 97.6721 126.59 97.2002C126.59 96.5317 126.648 95.8828 126.926 95.2539C128.291 92.1868 129.717 89.1787 131.379 86.269C131.734 85.6399 132.051 84.9912 132.367 84.3423C132.447 84.1655 132.506 83.9885 132.506 83.7527C132.328 83.8901 132.17 84.0278 131.992 84.1655C129.4 86.3674 127.6 89.1394 126.016 92.0886C124.889 94.1726 124.156 96.4138 123.602 98.6943C123.463 99.2644 123.285 99.8149 123.107 100.365C123.027 100.582 122.908 100.818 122.75 100.995C122.137 101.643 120.436 101.683 119.742 101.113C119.426 100.837 119.367 100.483 119.387 100.13C119.445 99.3235 119.486 98.5173 119.645 97.731C120.02 95.7454 120.455 93.7595 120.871 91.7544C120.871 91.6953 120.871 91.6362 120.871 91.5774C120.217 91.5774 120.197 91.5774 120.02 92.1475C119.07 95.175 117.744 98.0063 115.627 100.405C114.262 101.958 112.678 103.216 110.758 104.042C109.115 104.75 107.395 104.927 105.652 104.593C105.217 104.494 104.762 104.317 104.367 104.062C103.258 103.354 102.922 102.115 103.457 100.936C103.812 100.149 104.328 99.4414 104.941 98.8123C107.611 96.0991 110.699 93.9956 114.34 92.7964C114.836 92.6194 115.111 92.3638 115.27 91.8918C115.824 90.2012 116.398 88.53 116.934 86.8391C117.209 85.9348 117.309 84.9912 117.131 84.0278C117.092 83.8115 117.031 83.5952 116.934 83.3987C116.754 83.0054 116.457 82.7893 116.021 82.8286C115.607 82.8679 115.172 82.9072 114.775 83.0447C113.766 83.3594 112.877 83.9294 112.025 84.5784C110.363 85.8562 108.957 87.3896 107.611 88.9624C107.414 89.1985 107.295 89.4736 107.137 89.7292C105.752 92.344 104.604 95.0769 103.477 97.8096C102.605 99.8936 101.754 101.978 100.844 104.042C99.2012 107.777 97.2422 111.336 94.8477 114.658C93.957 115.897 92.9082 117.037 91.9004 118.256C91.959 118.315 92.0977 118.433 92.2363 118.551C93.7793 119.633 95.3027 120.733 96.8477 121.795C98.668 123.014 100.627 123.997 102.705 124.705C105.455 125.648 108.227 125.708 110.857 124.39C113.588 123.034 115.627 120.969 116.498 118.001C117.23 115.563 116.912 113.223 115.35 111.12C114.814 110.392 114.143 109.842 113.352 109.389C112.816 109.075 112.242 108.996 111.648 109.134C111.332 109.193 111.016 109.271 110.719 109.389C108.227 110.431 106.107 111.906 104.961 114.462C104.783 114.855 104.584 115.229 104.367 115.583C103.18 117.549 101.021 117.549 99.6172 116.998C99.0234 116.762 98.7871 116.31 98.8848 115.7C98.9258 115.445 98.9844 115.17 99.1035 114.953C99.5391 114.088 99.9531 113.204 100.488 112.417C102.209 109.861 104.645 108.347 107.672 107.797C109.314 107.502 110.977 107.443 112.639 107.64C114.32 107.856 115.607 108.701 116.656 109.999C119.328 113.341 118.674 117.883 117.15 120.34C114.855 124.036 111.51 125.943 107.178 126.16C104.881 126.278 102.664 125.885 100.527 125.059C97.5801 123.918 94.8672 122.365 92.3145 120.517C91.7812 120.124 91.2266 119.731 90.6523 119.318C90.4941 119.456 90.3164 119.593 90.1582 119.731C86.6367 122.562 82.7168 124.705 78.2852 125.688C72.9023 126.887 67.5801 126.632 62.4141 124.548C60.2383 123.683 58.4375 122.346 56.9922 120.498C54.6562 117.49 54.6973 113.715 56.834 110.667C59.6445 106.657 64.4727 104.809 69.3203 105.89C71.7949 106.46 74.1484 107.384 76.4453 108.446C80.502 110.294 84.2812 112.555 87.8438 115.229C88.1191 115.425 88.3965 115.641 88.7344 115.897C89.209 115.248 89.6836 114.658 90.0996 114.029C91.2266 112.319 92.1973 110.55 93.0273 108.682C94.0371 106.401 95.0273 104.101 96.0156 101.801C96.0957 101.624 96.1543 101.427 96.2129 101.25L96.1152 101.191C95.5801 101.899 95.0059 102.587 94.4922 103.314C93.8398 104.219 93.1074 105.045 92.2754 105.792C91.5625 106.44 90.7324 106.716 89.7617 106.696C88.6738 106.677 87.8633 106.205 87.3887 105.202C86.8535 104.062 86.7344 102.843 86.7949 101.604C86.873 100.09 87.1895 98.6157 87.8828 97.2395C88.5352 95.9617 89.1895 94.7034 89.8418 93.4253C89.9199 93.2485 90.0195 93.0911 90.0391 92.8552C89.9004 92.9929 89.7832 93.1306 89.6445 93.2681C89.0312 93.9365 88.416 94.605 87.7832 95.2539C87.5273 95.5291 87.2305 95.7847 86.9336 96.0205C85.8633 96.9248 84.6367 97.1609 83.291 96.7676C83.2129 96.748 83.1328 96.7283 82.9941 96.689C82.4004 97.7114 81.7871 98.7141 81.2129 99.7561C80.6602 100.778 80.0859 101.801 79.2949 102.685C78.502 103.57 77.5137 104.062 76.3066 104.062C74.7832 104.062 73.6934 103.354 73.1191 101.978C72.5859 100.68 72.3672 99.3037 72.6641 97.8882C73.1602 95.5093 73.9707 93.2485 74.8418 90.9875C74.9199 90.7712 75.0195 90.5354 75.0996 90.3191C75.0996 90.3191 75.0801 90.2798 75.0391 90.2405C74.9199 90.437 74.8027 90.614 74.6836 90.8105C73.8125 92.1868 72.8438 93.5042 71.7539 94.7427C71.2012 95.3718 70.5664 95.9026 69.8359 96.3154C69.2617 96.6301 68.668 96.8462 67.9941 96.866C66.6094 96.9053 65.5801 96.3352 64.9473 95.0964C64.1152 93.4648 63.918 91.7346 63.998 89.9456C64.0957 87.9402 64.7305 86.0725 65.3438 84.2048C66.0156 82.1995 66.7285 80.2136 67.4199 78.2085C67.4805 78.0315 67.5391 77.8347 67.5195 77.5989C67.4004 77.7759 67.2617 77.9331 67.1445 78.1101C65.1055 81.1182 63.3438 84.303 61.623 87.488C58.8516 92.6194 56.1016 97.79 53.252 102.882C51.293 106.401 49.0957 109.802 46.5039 112.909C45.4355 114.187 44.5059 115.523 43.6543 116.939C42.1504 119.456 40.1719 121.579 37.8359 123.368C35.5996 125.078 33.0664 125.963 30.2168 125.943C28.5352 125.943 26.9121 125.708 25.291 125.295C24.2012 125.02 23.1934 124.567 22.2422 123.958C18.7012 121.717 16.584 118.492 15.791 114.423C14.9414 109.979 15.791 105.772 17.7695 101.781C18.957 99.4021 20.6191 97.3772 22.5801 95.6077C23.3516 94.8999 24.1816 94.2314 25.0137 93.6023C28.0996 91.2234 31.2871 88.9626 34.5918 86.8982C34.7891 86.7803 34.9863 86.623 35.2246 86.4854C34.9863 85.9153 34.7695 85.3843 34.5508 84.834C33.8398 83.0645 33.127 81.2754 32.7695 79.3879C32.4531 77.7561 32.2168 76.1245 32.4531 74.4729C33.0879 69.9119 35.4609 66.6482 39.7754 64.8591C41.1016 64.3086 42.4863 64.23 43.8926 64.5642C45.4355 64.918 46.6035 65.7832 47.4141 67.1201C48.7207 69.2827 48.8789 71.5828 48.166 73.9814C47.6914 75.5542 46.8203 76.9109 45.8105 78.1689C44.1484 80.2136 42.1895 81.9634 39.9941 83.438C39.9141 83.4971 39.8359 83.5559 39.6973 83.6345C39.7754 83.8508 39.8555 84.0869 39.9531 84.303C40.9629 86.6819 41.9727 89.0413 42.9609 91.4202C43.9902 93.8777 44.9199 96.3547 45.6133 98.9302C46.3066 101.467 46.7012 104.062 46.6426 106.696C46.623 107.895 46.4453 109.095 46.3457 110.294C46.3457 110.412 46.3457 110.53 46.4043 110.687C46.5234 110.51 46.6621 110.353 46.7812 110.176C49.2344 106.716 51.4512 103.098 53.4688 99.3826C55.7461 95.1948 57.9219 90.9875 60.1777 86.7998C61.7422 83.8901 63.4434 81.0591 65.2441 78.2673C66.4316 76.439 67.7969 74.7285 69.2207 73.0967C70.1328 72.0547 72.0508 71.7991 73.2188 72.5659C73.6152 72.8215 73.832 73.1951 73.9121 73.6472C74.0898 74.5122 73.9902 75.3772 73.6934 76.2031C72.9414 78.3264 72.1504 80.4497 71.418 82.573C70.3301 85.699 69.459 88.8643 68.6289 92.0688C68.3711 93.0715 68.2324 94.0938 68.291 95.1162C68.291 95.3127 68.332 95.4897 68.3711 95.824C68.7871 95.5488 69.1621 95.3521 69.4395 95.0964C70.0918 94.4478 70.7852 93.7988 71.3184 93.0518C72.3887 91.5576 73.3965 90.0242 74.3672 88.4709C75.2578 87.0359 76.1074 85.5613 76.9395 84.0867C77.8887 82.396 78.957 80.7839 80.0859 79.2109C80.502 78.6213 80.877 77.9922 81.2734 77.4023C82.0254 76.3013 83.2715 75.967 84.5176 76.498C84.9727 76.6946 85.2695 77.0288 85.291 77.5005C85.3301 78.0708 85.3301 78.6802 85.2305 79.2307C85.0527 80.2334 84.6973 81.1968 84.2812 82.1404C82.7969 85.4827 81.3125 88.8445 79.9082 92.2261C79.0371 94.3298 78.3633 96.512 77.9492 98.7534C77.8105 99.52 77.5137 100.267 77.3145 101.014C77.1973 101.467 77.1172 101.938 76.998 102.548L77.2363 102.626ZM32.6113 101.919C32.3359 102.115 32.1172 102.233 31.9395 102.39C30.832 103.216 30.0195 104.278 29.3066 105.438C27.1504 108.977 26.5957 112.712 28.1191 116.644C28.5352 117.745 29.209 118.669 30.0996 119.436C31.4258 120.576 32.9082 121.107 34.6895 120.615C36.293 120.183 37.7578 119.475 39.1035 118.531C39.4004 118.315 39.6973 118.04 39.8945 117.725C40.8848 116.133 41.5762 114.423 42.0117 112.614C42.209 111.788 42.3086 110.943 42.3477 110.117C42.5059 107.463 42.0508 104.868 41.3184 102.312C39.875 97.3574 38.1328 92.521 35.957 87.8418C35.916 87.783 35.877 87.7239 35.8184 87.6257C35.6191 87.7437 35.4609 87.8418 35.2832 87.96C33.957 88.8838 32.6113 89.7883 31.3066 90.7319C29.2285 92.2654 27.1309 93.7991 25.1328 95.4307C22.8965 97.2593 21.0957 99.5005 19.8086 102.095C18.0078 105.733 17.1973 109.527 17.8105 113.557C18.3242 116.959 19.8086 119.868 22.4805 122.129C23.707 123.171 25.0527 124.017 26.6562 124.39C27.9023 124.685 29.168 124.823 30.4551 124.783C31.5234 124.764 32.5332 124.489 33.4824 124.017C34.8281 123.329 35.9766 122.385 37.0254 121.304C37.1035 121.225 37.1836 121.107 37.3223 120.93C37.1035 121.009 36.9863 121.028 36.8867 121.068C36.748 121.107 36.6289 121.166 36.4902 121.205C34.75 121.775 32.9688 122.07 31.168 121.559C27.7246 120.576 25.4883 118.394 24.7559 114.855C24.1426 111.926 24.4004 109.036 25.4082 106.244C26.1816 104.081 27.5059 102.312 29.4062 100.975C30.9902 99.8542 32.7305 99.5398 34.5918 99.9133C36.9062 100.385 38.2324 101.938 38.2129 104.298C38.2129 105.969 37.7578 107.561 36.8867 109.016C36.2129 110.137 35.3027 111.002 34.0371 111.434C33.6816 111.552 33.3438 111.631 32.9688 111.513C32.75 111.454 32.6328 111.336 32.6523 111.08C32.7109 110.51 32.75 109.92 32.8301 109.35C33.0879 107.305 33.127 105.261 32.8887 103.216C32.8496 102.803 32.7109 102.41 32.6113 101.919ZM87.8633 117.096C87.7441 116.998 87.7051 116.939 87.625 116.88C83.7266 113.734 79.4922 111.12 74.8613 109.134C72.8242 108.249 70.7461 107.463 68.5684 106.971C66.6094 106.539 64.7891 106.873 63.1074 107.954C61.7422 108.839 60.6328 109.979 59.8223 111.375C58.4766 113.715 58.3379 116.192 59.5059 118.61C60.5742 120.792 62.2559 122.424 64.5508 123.348C67.4199 124.508 70.3691 125.02 73.457 124.646C75.0801 124.449 76.7012 124.213 78.2461 123.584C80.3027 122.759 82.2227 121.717 84.043 120.458C85.4297 119.495 86.6367 118.354 87.8242 117.096L87.8633 117.096ZM155.461 109.232C155.461 109.468 155.502 109.92 155.561 110.392C155.699 111.552 156.096 112.634 156.887 113.518C157.855 114.619 159.062 115.012 160.508 114.599C161.637 114.265 162.686 113.754 163.674 113.105C167.018 110.923 169.789 108.171 172.164 104.986C172.955 103.904 173.588 102.744 173.965 101.447C174.281 100.385 174.459 99.2842 174.301 98.1636C174.104 96.748 173.113 95.7649 171.709 95.5291C170.838 95.3914 170.006 95.5881 169.215 95.8828C167.711 96.4333 166.346 97.2002 165.1 98.1636C163.219 99.5986 161.438 101.152 159.814 102.882C158.727 104.042 157.619 105.202 156.531 106.362C155.832 107.109 155.488 108.072 155.502 109.252L155.461 109.232ZM39.498 82.75C39.5977 82.6909 39.6777 82.6711 39.7363 82.6318C41.418 81.3933 43.002 80.0564 44.4062 78.5032C45.3359 77.4612 46.1484 76.321 46.6816 75.0234C47.75 72.448 47.6719 69.9119 46.207 67.4937C45.6133 66.5105 44.8027 65.7832 43.6738 65.449C42.9219 65.2129 42.209 65.272 41.5176 65.665C40.3887 66.2942 39.5176 67.1396 38.9043 68.28C38.1523 69.6758 37.877 71.1699 37.916 72.7036C37.9746 74.7285 38.0352 76.7732 38.3711 78.7786C38.5879 80.135 39.0039 81.4326 39.5176 82.7302L39.498 82.75ZM148.635 97.5737C149.129 97.2986 149.564 97.1216 149.92 96.8462C150.771 96.1975 151.604 95.5093 152.375 94.782C154.096 93.1699 155.738 91.479 157.48 89.8865C158.014 89.395 158.172 88.8838 158.133 88.2351C158.133 88.0386 158.113 87.8223 158.074 87.6453C157.936 87.0359 157.717 86.446 157.223 86.0134C156.828 85.6597 156.371 85.522 155.877 85.7971C155.324 86.1118 154.73 86.4067 154.234 86.7998C153.066 87.7239 152.217 88.9231 151.484 90.2207C150.377 92.1672 149.664 94.2905 148.754 96.3352C148.693 96.4727 148.635 96.6497 148.635 96.8069C148.615 97.0232 148.635 97.2395 148.635 97.5737ZM92.4336 83.3396C91.959 83.5364 91.6426 83.8313 91.3848 84.1655C91.0684 84.5784 90.7715 85.0107 90.4746 85.4434C89.8418 86.387 89.2285 87.3308 88.5957 88.2549C87.1895 90.2993 86.3984 92.5996 85.7852 94.959C85.7461 95.0769 85.7852 95.2146 85.7852 95.4504C86.082 95.1948 86.3398 95.0376 86.5371 94.8213C87.4277 93.917 88.3379 93.0125 89.209 92.0886C90.4355 90.791 91.584 89.4343 92.8496 88.1958C93.4629 87.606 93.6602 86.9768 93.6016 86.2102C93.5625 85.5417 93.4043 84.8928 93.0879 84.303C92.8887 83.9492 92.6523 83.6543 92.4141 83.3201L92.4336 83.3396ZM114.717 93.7595C114.479 93.7988 114.42 93.7793 114.359 93.7988C111.471 94.959 108.998 96.689 106.92 98.9893C106.445 99.52 106.068 100.11 105.891 100.818C105.811 101.172 105.771 101.525 105.791 101.879C105.852 102.469 106.227 102.882 106.721 103.157C107.156 103.393 107.475 103.02 107.83 102.882C107.908 102.843 107.969 102.803 108.027 102.744C108.74 102.115 109.492 101.545 110.164 100.877C111.293 99.7561 112.104 98.3994 112.916 97.0625C113.549 96.0403 114.062 94.959 114.697 93.7793L114.717 93.7595Z" fill="#00AADF" fill-opacity="1.000000" fill-rule="nonzero"/>
		<path id="Vector" d="M36.2734 18.6575C35.4219 18.7163 34.6895 18.7361 33.9785 18.7949C32.3145 18.9128 30.6934 19.2668 29.168 19.9746C27.6445 20.6824 26.3984 21.6851 25.4492 23.0808C24.1621 24.9683 23.1934 26.9736 22.7773 29.2346C22.5195 30.6501 22.6387 32.0459 22.916 33.4221C22.9746 33.7368 23.1523 34.012 23.291 34.3069C23.4902 34.759 23.3906 35.0737 22.9355 35.29C22.3809 35.5454 21.7871 35.5061 21.2129 35.408C21.0547 35.3882 20.8965 35.3096 20.7383 35.2703C18.8789 34.8181 18.0469 33.5403 17.8496 31.751C17.6719 30.2373 17.8496 28.7825 18.3848 27.3472C19.2148 25.0469 20.5996 23.1006 22.4199 21.4688C22.9355 20.9968 23.5488 20.6038 24.1621 20.2695C26.7344 18.8933 29.4863 18.1462 32.375 17.8906C35.4023 17.635 38.4492 17.7136 41.4785 17.8315C44.6836 17.9299 47.8691 18.0676 51.0762 18.1658C54.4199 18.2642 57.7637 18.3232 61.1074 18.4019C62.7305 18.4412 64.3535 18.4019 65.9375 18.0479C68.291 17.5171 70.5273 16.6521 72.209 14.8433C74.0312 12.8772 74.9199 10.5181 74.6641 7.82446C74.4648 5.68164 73.2188 4.24634 71.3184 3.34204C70.3301 2.87012 69.2617 2.5752 68.1738 2.53589C67.125 2.49658 66.1152 2.7522 65.1641 3.14551C63.8984 3.65649 62.75 4.36426 61.7617 5.30811C60.3965 6.60571 59.209 8.00146 58.5156 9.771C58.2578 10.4197 58.0801 11.0686 58.0996 11.7566C58.0996 12.248 58.2578 12.7002 58.5547 13.1133C58.832 13.5063 59.1094 13.8013 59.7031 13.6243C60.0195 13.5261 60.416 13.6243 60.7715 13.6833C60.9102 13.7029 61.0879 13.8799 61.1484 14.0371C61.168 14.1157 61.0098 14.3125 60.9102 14.4106C59.4453 15.4724 57.8438 15.6689 56.1406 15.0596C55.4883 14.8237 54.8945 14.4697 54.4199 13.9585C53.2129 12.72 52.7383 11.2847 53.291 9.59399C53.7871 8.09985 54.5391 6.76294 55.666 5.64233C59.2676 2.10352 63.6406 0.687988 68.6289 1.08105C70.3691 1.21875 71.9922 1.76929 73.5156 2.6145C74.6035 3.22412 75.4551 4.06958 76.1074 5.0918C76.8008 6.1731 76.998 7.39209 76.9395 8.63062C76.7012 12.3267 75.0195 15.1775 71.7344 17.0059C69.5586 18.2051 67.2227 18.9524 64.75 19.0505C62.3359 19.1489 59.9414 19.1489 57.5273 19.1292C54.0039 19.0898 50.4824 18.9719 46.959 18.8933C46.8594 18.8933 46.7617 18.8933 46.623 18.9128C46.9395 20.0925 46.5625 21.1345 46.1074 22.1372C44.6836 25.3811 43.2793 28.625 41.8145 31.8691C40.5469 34.6609 39.4395 37.5115 38.9258 40.5588C38.8066 41.2273 38.7656 41.9155 38.7461 42.6035C38.7461 42.9182 38.8652 43.2129 38.9453 43.6455C39.3008 43.3899 39.5586 43.2129 39.7754 42.9968C40.7461 42.0334 41.5762 40.9915 42.2891 39.8315C42.4473 39.5562 42.5469 39.2417 42.625 38.927C43.3379 36.3123 43.9707 33.6582 44.9199 31.1221C45.6523 29.156 46.4453 27.2095 47.5918 25.4402C47.9492 24.8896 48.3633 24.3589 48.8398 23.887C49.6309 23.1204 50.5996 23.0415 51.6094 23.3364C52.1445 23.4939 52.3027 23.8083 52.1836 24.3589C52.125 24.634 52.0254 24.8896 51.9062 25.1648C51.1934 26.9541 50.4609 28.7432 49.75 30.5518C49.6699 30.7483 49.6113 30.9646 49.6309 31.2202C49.8477 30.9646 50.0664 30.709 50.2637 30.4338C51.5508 28.8413 52.9551 27.3669 54.4785 26.0103C55.1523 25.4009 55.9043 24.9487 56.8145 24.811C57.5059 24.7126 58.1797 24.752 58.8516 24.9683C59.9199 25.3025 60.5547 26.03 60.7129 27.1309C60.9688 28.7627 60.7129 30.3354 60.2383 31.8887C60.1582 32.1245 60.0801 32.3801 59.9805 32.6948L60.752 32.5769C60.791 32.4785 60.832 32.3801 60.8516 32.282C61.1289 31.2202 61.623 30.2568 62.2363 29.3328C63.2051 27.8977 64.3145 26.6001 65.5605 25.4204C66.8672 24.1819 68.3711 23.3955 70.1914 23.2185C71.1016 23.1204 71.9727 23.2971 72.7246 23.8477C73.3574 24.3196 73.7539 24.9094 73.8516 25.6958C73.8516 25.7744 73.8711 25.853 73.8926 25.9316C73.8926 25.9316 73.9121 25.9709 73.9707 26.0496C74.1895 26.0496 74.4863 26.03 74.7422 26.0496C75.5938 26.1282 75.8906 26.541 75.7129 27.3669C75.4551 28.5071 75 29.5884 74.4062 30.6108C72.5273 33.7368 71.1211 37.0791 69.7559 40.4211C69.5586 40.8735 69.4004 41.365 69.459 41.9351C69.6172 41.8564 69.7363 41.7974 69.8359 41.7188C70.1328 41.4436 70.4688 41.2078 70.7051 40.8931C71.834 39.4973 72.9023 38.062 73.8125 36.4893C74.9414 34.5034 76.0879 32.4983 77.2559 30.5125C78.4238 28.4875 79.9473 26.7378 81.6289 25.1255C82.0449 24.7324 82.5 24.3982 82.9746 24.1033C83.9043 23.5332 84.9336 23.4741 85.9629 23.769C87.0117 24.064 87.5273 24.752 87.6055 25.8333C87.6641 26.7573 87.4863 27.6421 87.1895 28.5071C86.7949 29.6082 86.2988 30.6697 85.666 31.6528C85.1113 32.5178 84.5586 33.3828 83.9648 34.2283C83.6484 34.6804 83.252 35.054 82.8965 35.4668C82.7969 35.5847 82.6973 35.7029 82.5195 35.9387C83.0742 35.9387 83.5098 35.9387 83.9453 35.9387C86.418 36.0566 88.5957 36.8823 90.4941 38.4749C92.9688 40.5393 94.2949 43.2129 94.9863 46.28C95.6191 49.0913 95.3438 51.8635 94.75 54.6553C93.9785 58.2334 92.375 61.3594 89.9805 64.0923C87.3281 67.1394 82.8555 69.1646 78.8594 69.1252C76.7812 69.1055 74.8027 68.614 72.9609 67.6704C70.0918 66.2156 68.4688 63.2271 68.8066 60.0422C68.8262 59.8259 68.8262 59.6294 68.7656 59.3933C68.6074 59.6489 68.4492 59.885 68.2715 60.1404C65.8574 63.5417 62.5723 65.2129 58.377 65.0752C57.0703 65.0359 55.8047 64.7803 54.5586 64.4067C52.4004 63.7581 50.6797 62.4407 49.0371 60.9858C47.6113 59.7275 46.5039 58.2334 45.3965 56.7C44.6035 55.5989 43.8516 54.4783 43.0801 53.3774C42.5859 52.6697 42.0703 51.9814 41.3984 51.3721C38.1934 56.051 33.918 58.8232 28.041 58.8035C27.9609 59.0198 27.8633 59.2559 27.8027 59.5112C26.8145 62.8142 25.3496 65.8813 23.4902 68.791C22.3418 70.5996 20.9375 72.2314 19.373 73.6863C17.0781 75.8491 14.2676 76.6943 11.1602 76.3406C9.00391 76.1045 7.20312 75.1216 5.87695 73.3521C4.11523 70.9734 3.42383 68.3191 3.85938 65.3896C4.19531 63.2271 4.86719 61.1628 5.89648 59.2166C6.49023 58.0957 7.22266 57.0933 8.15234 56.228C9.95312 54.5569 12.0703 53.6724 14.5645 53.9082C16.3262 54.0852 17.75 54.8518 18.4629 56.5623C18.7012 57.1128 18.8398 57.7222 18.8789 58.312C18.998 60.1011 18.7207 61.8508 18.0879 63.522C17.6328 64.7212 16.7812 65.488 15.5742 65.8616C15.377 65.9207 15.1973 65.9993 15.0195 66.0779C14.2285 66.4121 13.3965 66.4316 12.5859 66.1763C11.834 65.96 11.5371 65.1736 11.9121 64.4854C12.0508 64.2495 12.25 64.0332 12.4473 63.8367C13.8711 62.3425 14.6445 60.573 14.8223 58.5481C14.8809 57.7812 14.8223 57.0144 14.5254 56.2871C14.4062 55.9724 14.248 55.658 14.0508 55.3828C13.8516 55.0681 13.5352 54.9697 13.1406 55.0288C12.2305 55.1665 11.3789 55.5007 10.627 56.0315C9.47852 56.8179 8.5293 57.8206 7.81641 59.0002C6.53125 61.1235 5.61914 63.3845 5.36328 65.8813C5.06641 68.7712 5.9375 71.2288 7.89648 73.3521C8.49023 74.001 9.20117 74.4729 10.0332 74.8267C11.3594 75.3967 12.6855 75.3181 13.9707 74.7087C14.9609 74.2368 15.8516 73.5881 16.6035 72.782C19.2949 69.8132 21.2539 66.3923 22.3613 62.5586C22.8555 60.8481 23.1328 59.0591 23.5098 57.3093C23.6074 56.8965 23.5098 56.6016 23.2129 56.2871C22.2227 55.2058 21.4707 53.967 21.293 52.4534C21.1348 51.0181 21.4316 49.7009 22.3613 48.541C23.0742 47.6758 23.8457 46.8894 24.8555 46.3784C25.1328 46.2407 25.2695 46.0244 25.3301 45.7295C26.3398 40.7554 27.8242 35.8994 29.3672 31.0825C30.2578 28.3105 31.4844 25.676 32.8691 23.1399C33.8184 21.4099 34.4121 20.6626 36.332 18.6182L36.2734 18.6575ZM42.7246 48.9341C43.2793 49.3469 43.8125 49.7598 44.3672 50.1729C45.5742 51.0771 46.7012 52.0405 47.6719 53.1807C48.8184 54.5176 49.9473 55.8545 51.0547 57.2112C52.3613 58.8232 53.7266 60.396 55.2109 61.8508C55.9629 62.5979 56.8535 63.0896 57.8438 63.4434C59.0898 63.876 60.3555 63.8562 61.584 63.3845C62.791 62.9126 63.918 62.2834 64.9473 61.4773C66.2539 60.4551 67.2832 59.1968 67.7969 57.5847C68.252 56.1494 68.4492 54.675 67.9551 53.2004C67.6582 52.3157 67.1445 51.5686 66.3125 51.0967C65.7188 50.7625 65.4023 50.8806 65.2246 51.5293C64.9668 52.5122 64.9668 53.4756 65.7578 54.3013C66.1152 54.6553 66.0352 55.0879 65.6191 55.363C65.4609 55.4614 65.2637 55.5596 65.0664 55.5793C63.957 55.7168 62.8691 55.658 61.9004 55.0486C61.0879 54.5374 60.6934 53.8098 60.7715 52.8662C60.8711 51.7063 61.5234 50.8806 62.5137 50.3301C63.6602 49.7009 64.8887 49.5632 66.1543 49.7991C67.4004 50.0154 68.3516 50.6445 69.084 51.6865C69.7168 52.6304 70.0332 53.6331 69.9531 54.7537C69.9336 55.0681 69.875 55.4023 69.9531 55.7366C70.1523 55.4417 70.291 55.1272 70.4297 54.8323C72.1699 51.2344 74.9609 48.7571 78.7012 47.3416C81.5098 46.28 84.7754 47.4597 86.457 49.3862C87.3887 50.4282 87.8242 51.6079 87.3887 53.0039C87.3672 53.0825 87.3477 53.1611 87.3281 53.2397C87.0508 54.439 86.3184 55.4221 85.7461 56.4836C85.627 56.7 85.3887 56.877 85.1523 56.9751C84.0234 57.4668 82.8555 57.4668 81.7285 56.9751C81.1348 56.7195 81.0352 56.4443 81.1738 55.835C81.4512 54.7144 81.709 53.6133 81.9453 52.4927C82.0645 51.9226 82.1445 51.3328 82.1836 50.7625C82.2227 50.2515 82.2031 49.7205 82.1445 49.1897C82.0449 48.2068 81.3125 47.6365 80.3242 47.7939C79.9668 47.8528 79.6113 47.9512 79.2754 48.0886C75.1191 49.8188 72.2891 52.7483 71.1602 57.1521C70.8848 58.2334 70.8438 59.3345 71.043 60.4551C71.2598 61.7722 71.9922 62.834 72.7832 63.8562C74.1484 65.6453 75.9902 66.5693 78.2051 66.825C78.4629 66.8447 78.7402 66.825 78.9785 66.7659C80.877 66.2942 82.5996 65.4094 83.9844 64.0332C86.0234 62.0278 87.5859 59.6882 88.4766 56.9556C89.1895 54.7537 89.625 52.4729 89.8418 50.1729C90.0996 47.5776 89.8027 45.0808 88.9512 42.6233C88.3965 41.0701 87.5059 39.7332 86.2988 38.6321C84.9746 37.4329 83.4102 36.9216 81.6094 37.1379C80.541 37.2559 79.6504 37.708 78.7598 38.2585C78.2461 38.5732 77.8887 38.5928 77.4941 38.3176C77.5918 38.0029 77.6914 37.708 77.791 37.4133C77.9297 36.9609 77.9883 36.4695 78.1855 36.0371C78.6816 34.936 79.2539 33.8745 80.0273 32.9307C80.5996 32.2034 81.1934 31.4956 81.7676 30.7681C82.7773 29.4902 83.7656 28.1729 84.4004 26.6592C84.5781 26.2068 84.6562 25.6958 84.7168 25.2041C84.7559 24.9487 84.7168 24.6733 84.4199 24.4963C83.7871 24.6538 83.291 25.0667 82.8359 25.5188C81.5312 26.7573 80.3242 28.0942 79.3535 29.6082C77.9883 31.7708 76.6816 33.9727 75.3359 36.155C74.3867 37.7083 73.4375 39.2417 72.4668 40.7751C71.9531 41.5813 71.2793 42.2498 70.4688 42.7805C69.3594 43.5078 68.1738 43.5471 67.0254 42.9182C65.957 42.3284 65.7793 41.3059 65.8379 40.2051C65.8379 39.9102 65.8965 39.5955 65.9766 39.3203C66.1152 38.8091 66.2129 38.2979 66.4121 37.8262C67.0059 36.4695 67.6582 35.113 68.2715 33.7761C68.3516 33.5796 68.4492 33.4026 68.5488 33.2061L68.4492 33.147C68.2129 33.3828 67.9746 33.6384 67.7383 33.8745C66.9863 34.6609 66.1738 35.3293 65.2637 35.8994C64.4336 36.4302 63.5234 36.5286 62.5723 36.2925C61.3066 35.978 60.6523 35.1719 60.6133 33.8745C60.6133 33.6777 60.6133 33.4812 60.5938 33.2847C59.9473 33.3633 59.498 33.6648 59.248 34.189C58.416 35.9978 57.3887 37.6687 56.2402 39.281C55.2305 40.6965 54.0039 41.9351 52.5996 42.9575C52.1035 43.3311 51.5508 43.6455 50.9766 43.9011C50.0059 44.3337 48.998 44.4319 47.9492 44.2156C46.9395 43.9995 46.4648 43.449 46.4844 42.4463C46.4844 42.1316 46.5234 41.7974 46.6035 41.4829C47.1367 39.1826 48.5234 37.4329 50.4023 36.0371C51.7285 35.0344 53.2324 34.3855 54.8145 33.9138C55.25 33.7761 55.4688 33.5598 55.6465 33.147C56.4785 31.1809 57.1113 29.1362 57.5469 27.0522C57.5859 26.8359 57.6055 26.6199 57.6055 26.3838C57.6055 25.6172 57.2891 25.4204 56.6152 25.8137C55.9824 26.2068 55.3691 26.6394 54.7949 27.1309C52.125 29.4705 49.9473 32.2622 48.0078 35.2112C47.8496 35.4668 47.7305 35.7422 47.6113 36.0173C46.9785 37.7278 46.3457 39.458 45.7129 41.1685C44.7617 43.6848 43.9707 46.28 42.7832 48.6982C42.7441 48.7769 42.7441 48.8555 42.7051 48.9539L42.7246 48.9341ZM43.7344 18.7163L39.3398 18.7163C38.7266 20.0532 38.0547 21.4099 37.4609 22.8057C36.6895 24.6145 35.916 26.4429 35.2051 28.2712C34.6113 29.8047 34.0371 31.3579 33.6016 32.9504C32.6328 36.4893 31.8008 40.0476 31.1074 43.6455C31.0293 44.0781 30.9492 44.5105 30.8516 45.0022C34.0957 45.061 37.0645 46.0049 39.9746 47.3416C40.4082 45.9851 40.8438 44.6875 41.1816 43.3506C41.0234 43.4097 40.9238 43.5078 40.8242 43.6062C39.5176 44.9626 36.4902 44.9431 35.7188 42.1907C35.502 41.4238 35.4023 40.5981 35.4414 39.8118C35.502 38.6714 35.7188 37.5312 35.9375 36.4106C36.332 34.4641 37.125 32.6555 37.8965 30.8467C39.1621 27.8584 40.2695 24.811 41.873 21.98C42.4668 20.938 43.0605 19.8762 43.7129 18.7361L43.7344 18.7163ZM28.2578 57.8599C29.168 57.9385 29.9609 57.8599 30.7129 57.624C35.0859 56.405 37.6582 53.3577 39.1621 49.2488C36.8066 47.0466 34.0957 45.6509 30.7129 45.7295C29.9805 49.7795 29.4648 53.8491 28.2578 57.8599ZM64.5312 34.9951C65.125 34.5034 65.7188 34.0906 66.1934 33.5991C67.4199 32.3606 68.6074 31.063 69.8145 29.7852C70.3691 29.1953 70.9238 28.625 71.498 28.0354C71.7949 27.7405 72.1113 27.4456 72.4082 27.1506C72.5059 27.0327 72.625 26.8752 72.625 26.7378C72.625 25.853 72.3672 25.0667 71.6562 24.4963C71.1016 24.064 70.9043 24.064 70.3105 24.457C69.6367 24.9094 69.1426 25.5581 68.6289 26.1873C66.6094 28.7432 65.5215 31.751 64.4727 34.7788C64.4727 34.7788 64.4727 34.8181 64.5117 34.9951L64.5312 34.9951ZM54.875 34.6804C52.6191 35.3293 50.1641 37.2363 49.0566 39.1631C48.6211 39.9297 48.3633 40.7358 48.3047 41.6206C48.2656 42.0728 48.3047 42.5444 48.6211 42.8984C50.4824 41.8762 54.0234 37.197 54.875 34.6804ZM24.875 47.5972C22.5195 49.5437 22.0449 52.8662 23.8262 54.8125L24.875 47.5972Z" fill="#00AADF" fill-opacity="1.000000" fill-rule="nonzero"/>
		<path id="Vector" d="M92.9688 31.9084C94.6504 29.3525 96.6484 26.7378 97.2617 23.8477C97.3223 23.2188 97.3223 22.8647 96.8672 22.5698C95.7383 21.8818 95.1055 23.0811 94.3926 24.1819C93.166 27.0918 90.7324 31.4956 92.2754 34.6411C94.5312 38.3374 100.014 35.6045 101.221 31.594C102.625 27.6814 102.684 22.7664 102.07 18.6968C101.496 12.9954 98.1914 8.552 93.0469 5.99634C89.9609 4.14819 85.3301 5.28857 83.1523 7.86401C83.1328 7.94263 83.0137 7.70679 83.0332 7.84424C84.875 9.771 88.0996 9.14185 89.7617 6.90063L90.1582 7.07764C89.5645 9.49585 87.2891 11.5208 84.6172 11.4814C82.2227 11.5798 78.9961 9.96753 79.6504 7.05786C81.6484 1.15991 89.9805 -1.16016 95.1836 1.78906C106.385 7.9624 106.068 22.8647 102.15 33.2847C100.547 38.0227 93.8984 40.4607 90.1582 36.1943C86.7148 31.9084 88.6934 26.5215 90.9883 22.1963C91.9199 20.5056 94.2539 18.2249 96.7285 18.8147C98.5098 19.1882 100.033 20.4465 100.311 22.2554C100.547 26.7576 96.4512 29.8442 93.2441 32.2034L92.9473 31.8889L92.9688 31.9084Z" fill="#00AADF" fill-opacity="1.000000" fill-rule="nonzero"/>
	</g>
</svg>
